<svg width="400" height="200" viewBox="0 0 400 200" fill="none" xmlns="http://www.w3.org/2000/svg">
<rect width="400" height="200" fill="#2E7C36"/>
<path d="M0 100C50 80 100 120 150 100C150 100 200 80 250 100C300 120 350 80 400 100V200H0V100Z" fill="#4AA553" fill-opacity="0.3"/>
<path d="M0 120C50 140 100 120 150 140C150 140 200 160 250 140C300 120 350 140 400 120V200H0V120Z" fill="#4AA553" fill-opacity="0.2"/>
<path d="M0 140C50 160 100 140 150 160C150 160 200 180 250 160C300 140 350 160 400 140V200H0V140Z" fill="#4AA553" fill-opacity="0.1"/>
</svg>
