<svg width="24" height="24" viewBox="0 0 24 24" fill="none" xmlns="http://www.w3.org/2000/svg">
<g id="vuesax/bold/backward-10-seconds">
<g id="backward-10-seconds">
<path id="Vector" d="M11.9991 3.47974C11.9191 3.47974 11.8391 3.48974 11.7591 3.48974L12.5791 2.46974C12.8391 2.14974 12.7891 1.66974 12.4591 1.41974C12.1391 1.15974 11.6691 1.20974 11.4091 1.53974L9.43914 3.99974C9.42914 4.00974 9.42914 4.01974 9.41914 4.03974C9.38914 4.07974 9.36914 4.12974 9.34914 4.16974C9.32914 4.21974 9.30914 4.25974 9.29914 4.29974C9.28914 4.34974 9.28914 4.38974 9.28914 4.43974C9.28914 4.48974 9.28914 4.53974 9.28914 4.58974C9.28914 4.60974 9.28914 4.61974 9.28914 4.63974C9.29914 4.66974 9.31914 4.68974 9.32914 4.72974C9.34914 4.77974 9.35914 4.81974 9.38914 4.85974C9.41914 4.89974 9.44914 4.93974 9.48914 4.97974C9.50914 4.99974 9.52914 5.02974 9.54914 5.04974C9.55914 5.05974 9.57914 5.05974 9.58914 5.06974C9.61914 5.08974 9.64914 5.10974 9.68914 5.11974C9.73914 5.14974 9.78914 5.16974 9.83914 5.17974C9.87914 5.19974 9.90914 5.19974 9.94914 5.19974C9.97914 5.19974 9.99914 5.20974 10.0291 5.20974C10.0491 5.20974 10.0791 5.19974 10.0991 5.18974C10.1291 5.18974 10.1591 5.18974 10.1991 5.18974C10.8391 5.03974 11.4391 4.96974 12.0091 4.96974C16.4991 4.96974 20.1491 8.61974 20.1491 13.1097C20.1491 17.5997 16.4991 21.2497 12.0091 21.2497C7.51914 21.2497 3.86914 17.5997 3.86914 13.1097C3.86914 11.3697 4.43914 9.68974 5.51914 8.24974C5.76914 7.91974 5.69914 7.44974 5.36914 7.19974C5.03914 6.94974 4.56914 7.01974 4.31914 7.34974C3.03914 9.04974 2.36914 11.0397 2.36914 13.1097C2.36914 18.4197 6.68914 22.7497 12.0091 22.7497C17.3291 22.7497 21.6491 18.4297 21.6491 13.1097C21.6491 7.78974 17.3091 3.47974 11.9991 3.47974Z" fill="white"/>
</g>
</g>
</svg>
