<svg width="30" height="21" viewBox="0 0 30 21" fill="none" xmlns="http://www.w3.org/2000/svg">
<path d="M27.0892 0.270508H2.91211C1.48767 0.270508 0.333984 1.43135 0.333984 2.84863V18.3174C0.333984 19.7431 1.49615 20.8955 2.91211 20.8955H27.0892C28.5017 20.8955 29.6673 19.748 29.6673 18.3174V2.84863C29.6673 1.43387 28.5182 0.270508 27.0892 0.270508ZM26.7281 1.98926L16.8237 11.8415C16.3367 12.3285 15.6893 12.5966 15.0007 12.5966C14.312 12.5966 13.6646 12.3285 13.176 11.8399L3.27316 1.98926H26.7281ZM2.05273 17.9676V3.19954L9.47991 10.5876L2.05273 17.9676ZM3.27425 19.1768L10.6985 11.7997L11.9623 13.0569C12.7739 13.8685 13.8529 14.3154 15.0007 14.3154C16.1484 14.3154 17.2274 13.8685 18.0374 13.0585L19.3028 11.7997L26.7271 19.1768H3.27425ZM27.9486 17.9676L20.5214 10.5876L27.9486 3.19954V17.9676Z" fill="#1A9DFF"/>
</svg>
