<svg width="234" height="144" viewBox="0 0 234 144" fill="none" xmlns="http://www.w3.org/2000/svg">
<g clip-path="url(#clip0_289_7816)">
<path d="M233.88 128.762C233.8 127.885 223.727 106.265 222.808 105.667C222.448 105.427 219.21 106.704 215.333 108.379C215.293 108.379 215.253 108.419 215.213 108.419C214.413 108.778 199.663 112.727 199.663 112.727L206.179 126.888L221.529 122.46L221.768 122.34C221.768 122.34 229.323 128.882 230.402 129.441C231.522 129.999 234 129.64 233.88 128.762Z" fill="#AD6359"/>
<path d="M212.455 109.257L219.17 123.138L221.568 122.46L221.808 122.34C221.808 122.34 229.363 128.882 230.442 129.441C231.522 129.959 234 129.64 233.88 128.762C233.8 127.885 223.727 106.265 222.808 105.667C222.448 105.427 219.21 106.704 215.333 108.379C215.293 108.379 215.253 108.419 215.213 108.419C215.053 108.539 213.974 108.858 212.455 109.257Z" fill="#EBEBEB"/>
<path d="M233.96 128.882C233.88 128.005 223.767 106.105 222.888 105.547C222.528 105.308 219.25 106.584 215.333 108.259L221.808 122.38C221.808 122.38 229.403 129.042 230.482 129.56C231.562 130.079 234.08 129.76 233.96 128.882Z" fill="#7DB445"/>
<path d="M232.961 128.962C231.162 125.332 224.327 110.533 222.848 106.823C222.848 106.783 222.848 106.783 222.888 106.823C224.726 110.374 231.442 125.212 233.041 128.962C233.041 129.002 233.001 129.042 232.961 128.962Z" fill="#263238"/>
<path d="M229.043 128.523C228.604 127.685 228.644 126.648 228.923 125.93C229.203 125.252 229.723 124.534 230.522 124.215C230.562 124.215 230.562 124.255 230.562 124.255C229.203 125.133 228.564 127.007 229.123 128.523C229.123 128.523 229.083 128.563 229.043 128.523Z" fill="#263238"/>
<path d="M222.848 123.617C222.168 122.141 221.888 120.226 222.688 118.75C222.728 118.71 222.808 118.75 222.808 118.79C222.728 120.426 222.808 121.941 223.087 123.537C223.047 123.697 222.888 123.736 222.848 123.617Z" fill="#263238"/>
<path d="M223.807 124.534C223.127 123.058 222.848 121.144 223.647 119.668C223.687 119.628 223.767 119.668 223.767 119.708C223.687 121.343 223.767 122.859 224.047 124.454C224.007 124.614 223.847 124.654 223.807 124.534Z" fill="#263238"/>
<path d="M224.766 125.492C224.087 124.016 223.807 122.101 224.606 120.625C224.646 120.585 224.726 120.625 224.726 120.665C224.646 122.3 224.726 123.816 225.006 125.412C224.966 125.531 224.806 125.571 224.766 125.492Z" fill="#263238"/>
<path d="M225.726 126.409C225.046 124.933 224.766 123.018 225.566 121.543C225.606 121.503 225.686 121.543 225.686 121.582C225.606 123.218 225.686 124.734 225.965 126.329C225.926 126.449 225.766 126.529 225.726 126.409Z" fill="#263238"/>
<path d="M219.81 109.376C219.05 107.741 221.608 106.544 222.368 108.219C223.127 109.855 220.569 111.012 219.81 109.376Z" fill="#263238"/>
<path d="M221.728 125.89C222.368 124.614 222.488 123.138 222.728 121.742C222.768 121.582 222.608 121.503 222.488 121.542C222.488 121.503 222.448 121.503 222.408 121.503C221.169 122.181 219.97 123.337 219.25 124.574C218.81 125.332 218.65 126.529 219.61 127.007C220.529 127.446 221.369 126.648 221.728 125.89ZM220.529 126.529C218.85 127.127 219.41 125.093 219.77 124.574C219.97 124.215 220.249 123.896 220.529 123.577C221.089 122.899 221.728 122.34 222.328 121.742C222.168 122.42 222.048 123.098 221.928 123.776C221.768 124.574 221.449 126.209 220.529 126.529Z" fill="#263238"/>
<path d="M219.09 116.756C218.171 117.314 218.491 118.511 218.97 119.189C219.77 120.346 221.129 121.383 222.408 121.901C222.448 121.901 222.448 121.901 222.488 121.862C222.608 121.862 222.728 121.782 222.688 121.622C222.288 120.266 222.048 118.79 221.289 117.593C220.809 116.915 219.93 116.197 219.09 116.756ZM221.688 119.708C221.888 120.346 222.048 121.024 222.288 121.662C221.608 121.144 220.929 120.625 220.329 120.027C220.05 119.747 219.73 119.428 219.49 119.109C219.09 118.591 218.331 116.676 220.05 117.075C221.009 117.354 221.449 118.95 221.688 119.708Z" fill="#263238"/>
<path d="M180.357 66.5752C180.357 66.5752 180.636 75.0716 181.916 79.2201C181.916 79.2201 183.315 79.9381 183.714 80.2173C183.714 80.2173 173.162 105.427 173.761 115.16C173.961 118.351 177.559 123.577 181.196 125.851C187.632 129.839 219.13 126.329 219.13 126.329L214.573 107.422C214.573 107.422 194.667 108.539 194.147 107.462C193.508 106.105 197.465 95.4949 200.623 86.8788C200.943 86.0012 204.14 82.8101 203.741 76.9863C203.381 71.322 200.983 66.6151 200.983 66.6151H180.357V66.5752Z" fill="#37474F"/>
<path d="M210.976 109.496C206.619 109.416 203.101 109.775 198.744 109.775C197.665 109.775 196.546 109.775 195.466 109.775C194.907 109.775 194.387 109.775 193.827 109.775C193.428 109.775 193.068 109.775 192.708 109.655C192.388 109.576 192.029 109.416 191.829 109.137C191.549 108.698 191.709 108.18 191.789 107.701C191.989 106.664 192.269 105.667 192.508 104.669C193.588 100.561 195.027 96.5718 196.386 92.543C197.065 90.4688 197.785 88.3945 198.464 86.3203C198.624 85.8017 198.784 85.323 199.024 84.8444C199.224 84.4056 199.464 83.9668 199.703 83.528C200.183 82.6904 200.623 81.8926 200.903 80.9751C202.062 77.1059 200.943 73.117 199.584 69.487C199.384 69.0084 199.224 68.5297 199.024 68.0111C199.024 67.9712 198.944 68.0111 198.984 68.0111C200.223 71.8405 201.742 75.8294 200.903 79.938C200.703 80.8953 200.383 81.8128 199.903 82.6904C199.663 83.1291 199.384 83.5679 199.184 84.0067C198.944 84.4455 198.744 84.9242 198.584 85.4028C197.865 87.4372 197.185 89.5114 196.506 91.5458C195.147 95.6145 193.708 99.6832 192.548 103.832C192.269 104.869 191.989 105.906 191.749 106.943C191.589 107.701 191.189 108.778 191.869 109.416C192.348 109.895 193.148 109.935 193.787 109.935C194.867 109.935 195.946 109.935 197.025 109.935C201.422 109.935 210.536 109.536 211.096 109.536C211.056 109.655 211.056 109.496 210.976 109.496Z" fill="#263238"/>
<path d="M215.812 125.412C215.373 123.218 214.973 120.984 214.493 118.79C214.014 116.596 213.454 114.402 212.894 112.208C212.735 111.61 212.575 110.972 212.415 110.373C212.335 110.094 212.255 109.775 212.175 109.496C212.095 109.217 212.015 108.898 211.895 108.618C211.895 108.578 211.855 108.618 211.855 108.618C211.895 109.177 212.055 109.775 212.175 110.294C212.295 110.812 212.375 111.371 212.495 111.889C212.735 112.966 212.934 114.083 213.174 115.16C213.654 117.354 214.214 119.508 214.773 121.702C215.093 122.939 215.413 124.175 215.732 125.412C215.732 125.531 215.812 125.491 215.812 125.412Z" fill="#263238"/>
<path d="M177.359 97.4494L199.703 89.3519C200.023 88.4743 200.343 87.6367 200.623 86.799C200.943 85.9214 204.14 82.7303 203.741 76.9065C203.381 71.2422 200.983 66.5353 200.983 66.5353H180.277C180.277 66.5353 180.557 75.0317 181.836 79.1802C181.836 79.1802 183.235 79.8982 183.634 80.1774C183.714 80.2173 180.237 88.5541 177.359 97.4494Z" fill="#263238"/>
<path d="M143.382 129.8C144.222 130.039 168.125 129.281 169.005 128.643C169.364 128.403 169.444 124.933 169.404 120.745C169.404 120.705 169.404 120.665 169.404 120.625C169.404 119.747 169.045 105.228 169.045 105.228L152.296 105.706L153.975 120.944V121.223C153.975 121.223 144.981 125.611 144.062 126.369C143.182 127.127 142.543 129.52 143.382 129.8Z" fill="#AD6359"/>
<path d="M143.382 129.799C144.222 130.039 168.125 129.281 169.005 128.643C169.364 128.403 169.444 124.933 169.404 120.745V120.625C169.404 120.386 169.404 119.229 169.324 117.434L153.655 118.032L153.975 120.984V121.263C153.975 121.263 144.981 125.651 144.062 126.409C143.182 127.127 142.543 129.52 143.382 129.799Z" fill="#EBEBEB"/>
<path d="M143.182 129.879C144.022 130.119 168.165 129.321 169.044 128.723C169.404 128.483 169.484 124.973 169.444 120.745L153.895 121.223C153.895 121.223 144.781 125.651 143.902 126.409C143.022 127.207 142.343 129.64 143.182 129.879Z" fill="#0067C5"/>
<path d="M143.502 128.922C147.539 128.683 163.848 128.124 167.845 128.204C167.885 128.204 167.885 128.244 167.845 128.244C163.848 128.563 147.539 129.002 143.502 129.002C143.422 129.002 143.422 128.922 143.502 128.922Z" fill="#263238"/>
<path d="M145.461 125.491C146.42 125.412 147.379 125.85 147.899 126.409C148.419 126.927 148.858 127.685 148.858 128.523C148.858 128.563 148.818 128.563 148.818 128.523C148.538 126.967 147.059 125.611 145.461 125.531C145.421 125.571 145.421 125.491 145.461 125.491Z" fill="#263238"/>
<path d="M152.376 121.662C153.975 121.582 155.893 122.101 156.933 123.377C156.973 123.417 156.893 123.497 156.853 123.457C155.374 122.739 153.975 122.221 152.336 121.862C152.256 121.862 152.256 121.662 152.376 121.662Z" fill="#263238"/>
<path d="M151.137 122.181C152.736 122.101 154.654 122.619 155.694 123.896C155.734 123.936 155.654 124.016 155.614 123.976C154.135 123.258 152.736 122.739 151.097 122.38C151.017 122.38 151.017 122.221 151.137 122.181Z" fill="#263238"/>
<path d="M149.898 122.739C151.496 122.659 153.415 123.178 154.454 124.454C154.494 124.494 154.414 124.574 154.374 124.534C152.895 123.816 151.496 123.298 149.858 122.939C149.778 122.899 149.778 122.739 149.898 122.739Z" fill="#263238"/>
<path d="M148.658 123.258C150.257 123.178 152.176 123.696 153.215 124.973C153.255 125.013 153.175 125.093 153.135 125.053C151.656 124.335 150.257 123.816 148.618 123.457C148.538 123.417 148.578 123.258 148.658 123.258Z" fill="#263238"/>
<path d="M166.726 124.414C168.525 124.375 168.645 127.167 166.806 127.247C164.967 127.287 164.887 124.454 166.726 124.414Z" fill="#263238"/>
<path d="M150.697 119.787C151.616 120.864 152.975 121.542 154.135 122.3C154.255 122.38 154.374 122.26 154.414 122.141C154.454 122.141 154.454 122.141 154.454 122.101C154.334 120.705 153.695 119.149 152.855 118.032C152.336 117.354 151.257 116.716 150.457 117.434C149.738 118.072 150.177 119.149 150.697 119.787ZM150.577 118.431C150.697 116.676 152.296 117.952 152.696 118.471C152.935 118.79 153.135 119.189 153.335 119.548C153.735 120.306 154.015 121.104 154.334 121.901C153.775 121.503 153.175 121.144 152.616 120.745C151.896 120.346 150.497 119.428 150.577 118.431Z" fill="#263238"/>
<path d="M160.17 120.904C160.011 119.867 158.811 119.668 157.932 119.867C156.573 120.186 155.094 120.984 154.095 121.981C154.055 122.021 154.095 122.021 154.095 122.061C154.055 122.181 154.095 122.34 154.215 122.34C155.614 122.5 157.053 122.859 158.492 122.58C159.331 122.42 160.33 121.902 160.17 120.904ZM156.413 122.141C155.734 122.061 155.054 121.981 154.374 121.941C155.134 121.543 155.853 121.104 156.653 120.745C157.013 120.585 157.412 120.426 157.812 120.306C158.412 120.146 160.53 120.186 159.451 121.622C158.891 122.42 157.212 122.221 156.413 122.141Z" fill="#263238"/>
<path d="M152.616 119.787H171.323C171.323 119.787 168.005 94.3778 169.084 92.7424C169.564 92.0244 193.867 94.4576 200.943 86.759C207.418 79.7385 200.823 66.5751 200.823 66.5751H180.876C180.876 66.5751 180.477 72.1995 179.397 74.4731C178.958 75.4305 156.693 74.0742 153.175 80.4166C148.578 88.8731 152.616 119.787 152.616 119.787Z" fill="#37474F"/>
<path d="M169.364 116.237C167.246 116.157 165.127 116.078 163.009 116.078C160.89 116.078 158.771 116.118 156.653 116.197C156.053 116.237 154.294 116.317 154.015 116.317C153.735 116.357 153.415 116.317 153.135 116.397C153.095 116.397 153.095 116.437 153.135 116.437C153.575 116.516 158.372 116.556 159.411 116.556C161.53 116.556 163.608 116.516 165.727 116.437C166.926 116.397 168.125 116.357 169.324 116.317C169.404 116.357 169.444 116.237 169.364 116.237Z" fill="#263238"/>
<path d="M181.756 72.6383C181.836 72.0399 181.916 71.4416 181.996 70.8433C182.156 69.487 182.315 68.0909 182.355 66.7347C182.355 66.615 182.196 66.6549 182.196 66.7347C182.076 67.8117 181.956 68.8488 181.836 69.9258C181.716 70.9629 181.636 72.0399 181.436 73.0771C181.396 73.3962 181.236 73.9147 180.836 73.9147C180.277 73.9147 180.197 73.1967 180.157 72.7978C180.037 71.8006 180.037 70.8034 180.117 69.846C180.157 68.7291 180.317 67.6122 180.437 66.4555C180.437 66.4156 180.357 66.4156 180.357 66.4555C179.877 68.6494 179.437 70.923 179.837 73.1568C179.917 73.5956 180.117 74.0743 180.557 74.194C180.557 74.194 180.557 74.194 180.597 74.194V74.2338C180.597 74.3136 180.597 74.3535 180.597 74.4333C180.597 74.4732 180.597 74.553 180.597 74.5928C180.597 74.7125 180.597 74.8322 180.597 74.912C180.597 75.0316 180.757 75.0316 180.757 74.912C180.797 74.912 180.796 74.8721 180.796 74.8721C180.836 74.6726 180.836 74.4333 180.796 74.2338C181.076 74.2338 181.316 74.1142 181.476 73.8748C181.636 73.5557 181.676 73.0771 181.756 72.6383Z" fill="#263238"/>
<path d="M179.757 74.2737C181.276 75.2709 182.715 76.5474 184.034 77.7839C184.074 77.8238 184.034 77.9036 183.954 77.8637C182.475 76.7468 180.996 75.6299 179.597 74.4333C179.517 74.3535 179.637 74.1939 179.757 74.2737Z" fill="#263238"/>
<path d="M196.146 75.3508C195.706 75.3508 195.306 75.3109 194.867 75.271C194.507 75.1912 194.107 75.1114 193.748 74.9918C193.068 74.7923 192.229 74.553 191.709 73.9945C191.189 73.4361 190.869 72.6782 190.55 72.0001C190.23 71.2422 189.95 70.4444 189.87 69.6466C189.87 69.6067 189.79 69.6067 189.83 69.6466C189.91 70.4843 189.99 71.322 190.27 72.1596C190.39 72.5585 190.55 72.9574 190.75 73.3563C190.949 73.7153 191.149 74.1142 191.429 74.4333C191.989 75.0317 192.908 75.3109 193.668 75.4704C194.467 75.63 195.386 75.63 196.186 75.4704C196.226 75.4305 196.186 75.3508 196.146 75.3508Z" fill="#263238"/>
<path d="M167.086 91.5058C167.206 91.0271 167.525 90.708 168.005 90.6283C168.525 90.5485 169.084 90.5884 169.604 90.5884C170.843 90.5884 172.082 90.6283 173.361 90.6283C178.278 90.6283 183.235 90.5086 188.031 89.5512C190.39 89.0726 192.708 88.4344 194.907 87.477C196.785 86.6792 198.664 85.5623 199.823 83.8471C201.182 81.8526 201.262 79.2598 201.222 76.9463C201.182 74.4332 200.783 71.9601 200.023 69.5668C199.823 68.9684 199.623 68.3701 199.384 67.7717C199.384 67.7319 199.424 67.692 199.424 67.7319C200.423 70.0055 201.063 72.3989 201.382 74.8321C201.542 76.0288 201.582 77.2654 201.542 78.462C201.502 79.6587 201.422 80.8554 201.063 81.9723C199.783 86.3202 194.907 88.0753 190.989 89.1922C186.273 90.5086 181.316 90.8676 176.399 90.9474C173.921 90.9873 171.483 90.9474 169.004 90.9075C168.525 90.9075 167.765 90.7878 167.485 91.2665C167.326 91.5058 167.326 91.8648 167.246 92.144C167.206 92.503 167.166 92.8222 167.126 93.1812C167.046 94.4975 167.086 95.8138 167.166 97.0903C167.326 99.723 167.525 102.396 167.725 105.028C167.925 107.701 168.245 110.334 168.445 113.006C168.485 113.644 168.565 114.322 168.605 114.961C168.605 115.04 168.485 115.04 168.485 114.961C167.805 109.695 167.326 104.43 166.966 99.1247C166.886 97.8083 166.766 96.492 166.766 95.1756C166.766 94.0587 166.766 92.7424 167.086 91.5058Z" fill="#263238"/>
<path d="M179.078 92.5031C180.956 92.5031 182.475 92.3435 184.034 92.1441C185.593 91.9446 187.152 91.7452 188.671 91.466C191.349 91.0272 194.107 90.5086 196.626 89.4715C197.985 88.9131 199.344 88.1951 200.463 87.2377C200.503 87.1978 200.543 87.2377 200.503 87.2776C198.584 89.1524 196.146 90.2294 193.588 90.9075C190.67 91.7053 187.672 92.1441 184.674 92.4632C182.875 92.6626 180.836 92.6626 179.078 92.6228C178.958 92.6626 178.958 92.5031 179.078 92.5031Z" fill="#263238"/>
<path d="M185.273 43.2798C182.675 49.1834 173.921 58.0388 170.963 58.9562C167.326 60.113 158.731 54.5285 155.334 51.098C153.935 49.7019 158.931 42.7612 161.29 42.9208C162.609 43.0005 169.684 49.1834 170.763 48.6648C173.321 47.3883 176.839 44.8753 181.876 41.4847C184.554 39.61 186.872 39.61 185.273 43.2798Z" fill="#AD6359"/>
<path d="M164.248 44.9152C164.248 44.9152 162.569 42.3623 161.609 41.405C160.61 40.4476 155.654 38.2537 155.134 39.2908C154.454 40.6471 157.053 42.482 158.452 43.2C158.452 43.2 156.853 46.3113 158.412 48.0266C160.011 49.7817 164.248 44.9152 164.248 44.9152Z" fill="#AD6359"/>
<path d="M156.373 52.0155C155.334 51.497 150.697 48.7845 149.618 47.7075C148.498 46.6704 145.54 43.3995 146.26 42.482C146.979 41.5646 147.939 42.4421 147.939 42.4421C147.939 42.4421 146.9 40.8864 147.699 40.0089C148.498 39.1313 149.937 40.5673 149.937 40.5673C149.937 40.5673 148.978 38.892 149.858 38.0543C150.737 37.2565 151.936 38.9319 151.936 38.9319C151.936 38.9319 150.977 37.4161 151.976 37.0571C153.175 36.6183 154.614 39.5701 155.933 40.6471C156.213 40.8864 162.329 45.1147 162.329 45.1147L156.373 52.0155Z" fill="#AD6359"/>
<path d="M151.776 38.7324C152.816 40.9263 153.655 41.6842 155.694 42.9607C155.734 43.0006 155.694 43.0405 155.654 43.0405C153.575 41.9634 152.376 41.1657 151.656 38.8122C151.656 38.6526 151.736 38.6128 151.776 38.7324Z" fill="#263238"/>
<path d="M149.818 40.328C151.097 42.482 152.016 43.3595 154.015 44.8354C154.055 44.8753 154.015 44.9152 153.975 44.8753C151.856 43.5989 150.697 42.7213 149.698 40.4077C149.698 40.328 149.778 40.2482 149.818 40.328Z" fill="#263238"/>
<path d="M148.019 42.4821C149.418 44.5164 150.377 45.4737 152.536 46.6704C152.576 46.7103 152.536 46.7901 152.496 46.7502C150.177 45.753 148.978 44.5563 147.979 42.5618C147.899 42.4023 147.939 42.3624 148.019 42.4821Z" fill="#263238"/>
<path d="M155.054 39.7296C155.294 41.405 157.213 42.2427 158.492 43.0803C158.572 43.1601 158.572 43.2399 158.532 43.3197C157.932 44.6759 157.492 46.7501 158.332 48.0665C158.372 48.1064 158.292 48.1463 158.292 48.1064C157.213 46.79 157.492 44.7158 158.212 43.2798C156.853 42.4421 154.974 41.5247 155.054 39.7296C155.054 39.6898 155.014 39.7296 155.054 39.7296Z" fill="#263238"/>
<path d="M175.08 45.2743L179.397 53.5712C179.397 53.5712 185.313 45.1147 186.353 42.1629C187.512 38.8122 185.553 38.9718 182.515 40.4078C179.437 41.8438 175.08 45.2743 175.08 45.2743Z" fill="#0056A4"/>
<path d="M176.759 44.7956C177.439 45.7928 179.118 49.0238 179.397 49.5424C179.557 49.8216 180.077 50.9784 180.237 51.2576C180.237 51.2975 180.197 51.2975 180.197 51.2975C179.917 50.779 179.557 50.2604 179.277 49.7418C178.998 49.1834 177.159 45.9524 176.759 44.8355C176.679 44.7956 176.719 44.7557 176.759 44.7956Z" fill="#263238"/>
<path opacity="0.1" d="M186.353 42.2028C185.313 45.1945 179.397 53.6112 179.397 53.6112L177.159 49.343L185.513 39.4904C186.632 39.4505 187.032 40.2084 186.353 42.2028Z" fill="black"/>
<path d="M203.941 69.5268L178.878 72.9972C178.958 73.4759 177.559 53.2122 182.395 40.4875C182.715 39.61 186.552 38.2138 188.511 39.5701C197.105 45.5534 203.981 69.846 203.941 69.5268Z" fill="#0067C5"/>
<path opacity="0.1" d="M188.311 39.4504L182.595 40.2482C182.915 39.9291 183.555 39.5701 184.354 39.3706L186.672 39.0515C187.272 39.0515 187.832 39.2111 188.311 39.4504ZM189.75 40.6072L181.996 41.6842C181.916 41.9235 181.836 42.123 181.756 42.3623L190.35 41.1656C190.15 40.9662 189.95 40.7667 189.75 40.6072ZM191.429 42.3224L181.356 43.7185C181.276 43.9579 181.236 44.1573 181.156 44.3967L191.909 42.9208C191.749 42.7213 191.589 42.5219 191.429 42.3224ZM192.828 44.1174L180.836 45.7529C180.796 45.9922 180.716 46.1917 180.676 46.431L193.228 44.7158C193.108 44.5163 192.948 44.3169 192.828 44.1174ZM194.027 45.9125L180.397 47.7872C180.357 48.0266 180.317 48.226 180.277 48.4654L194.427 46.5108C194.267 46.3113 194.147 46.1119 194.027 45.9125ZM195.107 47.7474L180.037 49.8216C179.997 50.0609 179.957 50.2604 179.917 50.4997L195.466 48.3457C195.346 48.1462 195.227 47.9468 195.107 47.7474ZM196.106 49.5823L179.717 51.8161C179.677 52.0554 179.637 52.2548 179.637 52.4942L196.426 50.1806C196.306 49.9812 196.226 49.7817 196.106 49.5823ZM197.025 51.4172L179.437 53.8504C179.397 54.0897 179.397 54.2892 179.357 54.5285L197.305 52.0554C197.225 51.8559 197.145 51.6166 197.025 51.4172ZM197.905 53.292L179.237 55.8449C179.197 56.0842 179.197 56.2836 179.197 56.523L198.184 53.8903C198.105 53.6909 197.985 53.4914 197.905 53.292ZM198.744 55.1269L179.078 57.8393C179.078 58.0787 179.038 58.2781 179.038 58.5174L198.984 55.7651C198.904 55.5656 198.824 55.3662 198.744 55.1269ZM199.504 57.0016L178.918 59.8338C178.918 60.0731 178.878 60.2726 178.878 60.472L199.743 57.6C199.663 57.4404 199.584 57.2011 199.504 57.0016ZM200.263 58.8764L178.838 61.8282C178.838 62.0676 178.798 62.267 178.798 62.4665L200.463 59.4748C200.423 59.3152 200.343 59.0759 200.263 58.8764ZM200.983 60.7512L178.798 63.8227C178.798 64.062 178.798 64.2615 178.798 64.4609L201.222 61.3496C201.142 61.19 201.063 60.9507 200.983 60.7512ZM201.662 62.626L178.758 65.7773C178.758 66.0166 178.758 66.2161 178.758 66.4155L201.902 63.2244C201.822 63.0648 201.742 62.8654 201.662 62.626ZM202.342 64.5008L178.758 67.7318C178.758 67.9712 178.758 68.1706 178.758 68.3701L202.542 65.0992C202.462 64.9396 202.382 64.7402 202.342 64.5008ZM202.941 66.4155L178.758 69.7263C178.758 69.9656 178.758 70.1651 178.758 70.3645L203.141 67.0138C203.101 66.8543 203.021 66.6149 202.941 66.4155ZM203.541 68.2903L178.798 71.6809C178.798 71.9202 178.838 72.1595 178.838 72.3191L203.741 68.8886C203.701 68.7291 203.621 68.5296 203.541 68.2903Z" fill="black"/>
<path d="M183.715 43.7984C184.954 43.9181 187.232 42.1629 187.872 40.328C187.912 40.2084 187.512 39.0516 187.112 37.5757C186.873 36.6981 186.633 35.7009 186.473 34.8233C186.433 34.6239 180.997 37.2167 180.997 37.2167C180.997 37.2167 181.916 39.0117 182.156 40.6073C182.196 40.7269 182.196 40.8466 182.196 41.0061C182.196 41.0061 182.196 41.046 182.196 41.0859C182.196 41.8039 182.396 43.6388 183.715 43.7984Z" fill="#AD6359"/>
<path d="M182.155 41.0061C182.155 41.0061 182.155 41.046 182.155 41.0859C182.355 41.0859 182.515 41.046 182.755 41.0061C186.113 40.328 186.233 35.9801 186.233 34.8632C185.233 35.1823 180.956 37.2166 180.956 37.2166C180.956 37.2166 181.876 39.0116 182.115 40.6072C182.155 40.7668 182.195 40.8864 182.155 41.0061Z" fill="#263238"/>
<path d="M186.233 27.5634C187.152 29.518 186.952 35.5413 185.673 37.0571C183.834 39.251 180.437 39.9291 178.438 37.6554C176.519 35.4216 176.919 27.5634 178.398 26.1274C180.517 24.0532 184.874 24.6515 186.233 27.5634Z" fill="#AD6359"/>
<path d="M180.996 31.9114C180.996 31.8715 181.036 31.9114 180.996 31.9114C180.996 32.3502 181.036 32.8289 181.396 32.9884V33.0283C180.956 32.9086 180.916 32.2704 180.996 31.9114Z" fill="#263238"/>
<path d="M181.396 31.4726C182.036 31.4327 182.076 32.749 181.436 32.7889C180.837 32.8288 180.837 31.5125 181.396 31.4726Z" fill="#263238"/>
<path d="M178.638 31.9911C178.638 32.4299 178.558 32.9085 178.198 33.0282V33.0681C178.678 32.9883 178.718 32.39 178.638 31.9911Z" fill="#263238"/>
<path d="M178.278 31.5523C177.639 31.5124 177.599 32.8287 178.198 32.8686C178.798 32.9085 178.838 31.5922 178.278 31.5523Z" fill="#263238"/>
<path d="M181.916 30.8742C181.756 30.8343 181.596 30.7545 181.396 30.7146C181.196 30.6349 181.036 30.595 180.916 30.4354C180.836 30.3556 180.876 30.1562 180.956 30.1163C181.156 29.9568 181.396 29.9568 181.636 30.0365C181.876 30.1163 182.075 30.236 182.235 30.4753C182.355 30.6748 182.155 30.954 181.916 30.8742Z" fill="#263238"/>
<path d="M177.758 30.9142C177.958 30.8743 178.118 30.8344 178.278 30.7945C178.478 30.7546 178.638 30.7147 178.798 30.5552C178.878 30.4754 178.878 30.3158 178.798 30.236C178.598 30.0366 178.358 30.0366 178.118 30.1164C177.838 30.1961 177.678 30.2759 177.519 30.5153C177.319 30.6748 177.519 30.954 177.758 30.9142Z" fill="#263238"/>
<path d="M181.397 35.6609C181.317 35.7407 181.197 35.9002 181.037 35.9002C180.877 35.9002 180.717 35.8603 180.597 35.8204C180.597 35.8204 180.557 35.8204 180.597 35.8603C180.717 36.0199 180.917 36.0997 181.117 36.0598C181.317 36.0199 181.397 35.8603 181.397 35.6609C181.477 35.6609 181.437 35.6609 181.397 35.6609Z" fill="#263238"/>
<path d="M180.956 34.4643C180.716 34.8233 180.397 35.0227 180.037 35.1025C179.877 35.1424 179.717 35.1424 179.557 35.1424C179.517 35.1424 179.477 35.1424 179.477 35.1424C179.437 35.1424 179.437 35.1424 179.397 35.1424C179.357 35.1424 179.317 35.1025 179.317 35.0626V35.0227V34.9829C179.317 34.6637 179.317 34.1851 179.317 34.1851C179.197 34.225 178.638 34.5042 178.638 34.3446C178.718 32.9884 178.798 31.4726 179.157 30.1563C179.157 30.1164 179.237 30.1164 179.237 30.1563C179.237 31.4726 178.958 32.7491 178.918 34.0654C179.118 33.9856 179.397 33.866 179.557 33.866C179.597 33.866 179.477 34.7834 179.517 34.943C180.037 34.943 180.437 34.7834 180.956 34.4643C180.996 34.4244 180.956 34.3845 180.956 34.4643Z" fill="#263238"/>
<path d="M179.757 34.9429C179.757 34.9429 180.037 35.3019 180.437 35.4615C180.597 35.5014 180.716 35.5412 180.876 35.5014C181.196 35.4216 181.196 35.1025 181.156 34.8631C181.116 34.6637 180.996 34.4642 180.996 34.4642C180.996 34.4642 180.517 34.903 179.757 34.9429Z" fill="#263238"/>
<path d="M180.397 35.4615C180.557 35.5014 180.677 35.5413 180.837 35.5014C181.157 35.4216 181.157 35.1025 181.117 34.8632C180.757 34.8632 180.437 35.1025 180.397 35.4615Z" fill="#FF99BA"/>
<path d="M177.559 28.1618C177.758 27.6432 178.038 27.1247 178.358 27.005C178.678 26.8853 178.878 27.6432 179.597 27.6831C180.557 27.723 180.996 26.8454 182.355 26.7657C184.274 26.6061 185.153 28.2017 185.193 30.9141C185.273 33.3474 186.712 33.5468 186.712 33.5468C186.712 33.5468 187.552 28.1618 186.033 26.4067C184.514 24.6515 181.036 23.8936 178.718 25.6089C177.838 26.2471 177.559 28.1618 177.559 28.1618Z" fill="#263238"/>
<path d="M185.473 32.6294C185.473 32.6294 186.552 30.5552 187.512 30.9142C188.431 31.2732 187.792 34.1851 186.792 34.6638C185.833 35.1823 185.353 34.2649 185.353 34.2649L185.473 32.6294Z" fill="#AD6359"/>
<path d="M187.272 31.7518C187.312 31.7518 187.312 31.7518 187.272 31.7518C186.592 32.1507 186.313 32.8687 186.113 33.5867C186.273 33.3075 186.552 33.1081 186.952 33.3075C186.992 33.3075 186.952 33.3474 186.952 33.3474C186.632 33.3075 186.433 33.3873 186.273 33.6665C186.153 33.866 186.073 34.0654 185.993 34.2649C185.953 34.3446 185.833 34.3047 185.873 34.225C185.753 33.3075 186.313 31.9513 187.272 31.7518Z" fill="#263238"/>
<path d="M180.277 24.7313C180.916 24.4122 181.716 24.0532 182.635 23.8538C183.554 23.6942 186.512 23.6942 187.232 24.2527C187.991 24.8111 188.351 27.5236 188.391 27.9225C188.431 28.3214 188.431 30.7546 187.552 31.4327C186.712 32.0709 186.353 27.9623 184.874 26.6859C183.395 25.3696 180.277 24.7313 180.277 24.7313Z" fill="#FF3BAF"/>
<path opacity="0.1" d="M180.277 24.7313C180.277 24.7313 183.395 25.3696 184.874 26.6859C186.353 27.9624 186.712 32.1108 187.552 31.4327C187.912 31.1535 188.071 30.7546 188.191 30.0765C187.911 28.8798 187.312 27.0449 186.233 25.8083C185.193 24.6516 183.554 24.133 181.796 24.0532C181.196 24.2527 180.716 24.492 180.277 24.7313Z" fill="black"/>
<path d="M187.472 33.9058C187.312 32.7889 185.993 29.9169 184.714 28.3213C183.435 26.7258 179.877 25.928 179.397 26.0078C178.238 26.1673 177.998 26.7258 177.798 26.646C177.599 26.5662 178.678 25.1302 178.998 24.9308C179.317 24.7313 180.077 24.4521 180.597 24.4122C181.116 24.3723 184.274 24.492 185.513 25.7684C186.752 27.0449 188.631 30.6748 188.391 31.672C188.351 31.9114 188.031 32.0709 187.951 32.4299C187.832 32.8687 187.792 33.3873 187.672 33.6665C187.632 33.8659 187.472 33.9856 187.472 33.9058Z" fill="#FF3BAF"/>
<path d="M184.394 27.5635C184.674 27.3641 184.914 27.1646 185.113 26.9652C185.353 26.7258 185.553 26.4865 185.713 26.2073H185.753C185.593 26.5264 185.433 26.7657 185.193 27.045C184.954 27.2843 184.674 27.4837 184.394 27.6034C184.394 27.6433 184.354 27.6034 184.394 27.5635Z" fill="#263238"/>
<path d="M187.392 32.7889C187.432 32.7091 187.472 32.6294 187.512 32.5496C187.552 32.4698 187.592 32.3501 187.592 32.2704C187.632 32.0709 187.592 31.9114 187.672 31.7119C187.712 31.5923 187.832 31.4327 187.912 31.313C187.992 31.1934 188.112 31.0338 188.112 30.8344C188.112 30.7945 188.152 30.7945 188.152 30.8344C188.192 31.1535 187.952 31.4327 187.832 31.7119C187.752 31.9114 187.752 32.1108 187.712 32.3103C187.672 32.4698 187.592 32.6693 187.432 32.7889C187.432 32.8288 187.392 32.8288 187.392 32.7889Z" fill="#263238"/>
<path d="M186.952 31.6322C187.032 31.5125 187.152 31.3929 187.232 31.2333C187.312 31.1136 187.392 30.9541 187.432 30.7945C187.512 30.635 187.552 30.5153 187.592 30.3557C187.672 30.1962 187.752 30.0366 187.792 29.8372C187.792 29.7973 187.832 29.8372 187.832 29.8372C187.752 30.0366 187.752 30.1962 187.672 30.3956C187.632 30.5552 187.552 30.7147 187.472 30.8743C187.392 31.0339 187.312 31.1535 187.232 31.2732C187.192 31.4328 187.112 31.5524 186.952 31.6322Z" fill="#263238"/>
<path d="M186.472 30.595C186.672 30.3956 186.872 30.1562 187.032 29.877C187.192 29.6377 187.312 29.3584 187.432 29.0792H187.472C187.392 29.3584 187.312 29.6776 187.152 29.9568C187.072 30.0765 186.992 30.1961 186.912 30.3158C186.752 30.4355 186.632 30.5152 186.472 30.595Z" fill="#263238"/>
<path d="M185.953 29.5579C186.073 29.4782 186.153 29.3585 186.233 29.2388C186.313 29.1192 186.393 28.9596 186.472 28.8399C186.552 28.7203 186.632 28.6006 186.712 28.441C186.792 28.3214 186.872 28.1618 186.872 28.0421C186.872 28.0023 186.912 28.0421 186.912 28.0421C186.912 28.2017 186.872 28.3214 186.832 28.4809C186.752 28.6405 186.712 28.8 186.592 28.9197C186.512 29.0793 186.433 29.1989 186.313 29.3186C186.233 29.4383 186.113 29.5579 185.953 29.5978C185.953 29.6377 185.953 29.5978 185.953 29.5579Z" fill="#263238"/>
<path d="M185.553 28.2815C185.633 28.1619 185.753 28.0821 185.833 27.9624C185.913 27.8427 185.993 27.7231 186.073 27.6034C186.153 27.4837 186.233 27.3641 186.313 27.2444C186.313 27.2045 186.353 27.2444 186.353 27.2444C186.313 27.404 186.233 27.5236 186.193 27.6433C186.113 27.763 186.033 27.8826 185.953 28.0023C185.873 28.122 185.753 28.2416 185.673 28.3214C185.593 28.4411 185.473 28.5209 185.313 28.6006C185.313 28.6006 185.273 28.6006 185.273 28.5608C185.353 28.481 185.473 28.4012 185.553 28.2815Z" fill="#263238"/>
<path d="M183.515 27.005C183.634 26.8454 183.714 26.7258 183.834 26.6061C183.954 26.4864 184.074 26.3269 184.194 26.2072C184.434 25.9679 184.714 25.7684 184.993 25.569C184.993 25.569 185.033 25.569 185.033 25.6089C184.514 26.0875 184.034 26.5263 183.515 27.005C183.515 27.0449 183.475 27.005 183.515 27.005Z" fill="#263238"/>
<path d="M182.755 26.0876C182.875 25.928 182.955 25.8083 183.115 25.6887C183.395 25.4493 183.714 25.2898 184.034 25.0903C184.074 25.0903 184.074 25.0903 184.074 25.1302C183.794 25.3297 183.515 25.5291 183.275 25.7684C183.155 25.8881 183.035 26.0078 182.915 26.1275C182.795 26.2471 182.715 26.4067 182.595 26.5263H182.555C182.555 26.3668 182.675 26.2072 182.755 26.0876Z" fill="#263238"/>
<path d="M181.836 25.7285C181.916 25.6088 182.036 25.4493 182.155 25.3695C182.395 25.1701 182.635 24.9706 182.915 24.851C182.915 24.851 182.955 24.8908 182.915 24.8908C182.675 25.0504 182.395 25.2897 182.195 25.4892C182.075 25.6088 181.996 25.7285 181.876 25.8482C181.756 25.9679 181.676 26.0875 181.556 26.2072C181.636 26.0077 181.716 25.8482 181.836 25.7285Z" fill="#263238"/>
<path d="M181.116 25.21C181.236 25.0903 181.356 25.0105 181.476 24.9307C181.596 24.851 181.716 24.7313 181.836 24.6914C181.876 24.6914 181.876 24.6914 181.836 24.7313C181.636 24.9307 181.396 25.1302 181.196 25.3296C180.996 25.5291 180.876 25.7684 180.716 25.9679H180.676C180.796 25.6487 180.916 25.4094 181.116 25.21Z" fill="#263238"/>
<path d="M180.277 25.0903C180.477 24.851 180.716 24.7313 180.996 24.5718C180.996 24.5718 181.036 24.6117 180.996 24.6117C180.756 24.7313 180.557 24.9707 180.357 25.1701C180.157 25.3696 179.997 25.6089 179.877 25.8482H179.837C179.917 25.569 180.077 25.3297 180.277 25.0903Z" fill="#263238"/>
<path d="M179.237 25.6488C179.277 25.609 179.277 25.5292 179.317 25.4893C179.397 25.3696 179.477 25.2898 179.557 25.1702C179.717 24.9707 179.957 24.8112 180.157 24.6516C180.157 24.6516 180.197 24.6516 180.197 24.6915C179.997 24.8511 179.797 25.0106 179.637 25.2101C179.557 25.2898 179.477 25.4095 179.437 25.5292C179.397 25.5691 179.357 25.6488 179.357 25.6887C179.317 25.7286 179.317 25.8084 179.277 25.8483H179.237C179.197 25.7685 179.197 25.7286 179.237 25.6488Z" fill="#263238"/>
<path d="M178.558 25.7685C178.598 25.6887 178.678 25.609 178.758 25.4893C178.838 25.4095 178.878 25.3297 178.958 25.25C179.038 25.1702 179.118 25.0904 179.198 25.0106C179.198 25.0106 179.238 25.0106 179.238 25.0505C179.158 25.1303 179.078 25.2101 179.038 25.2898C178.958 25.3696 178.918 25.4494 178.838 25.5292C178.758 25.609 178.718 25.6887 178.638 25.7685C178.558 25.8483 178.518 25.9281 178.438 26.0078H178.398C178.438 25.9281 178.518 25.8483 178.558 25.7685Z" fill="#263238"/>
<path d="M191.869 44.277C194.347 49.8216 199.903 61.1901 198.464 65.4582C196.586 71.0826 186.872 77.2654 184.314 78.9806C183.235 79.7385 177.758 72.7579 178.078 71.3618C178.398 69.9657 188.191 62.3867 188.751 61.4693C189.311 60.5518 187.592 50.8189 187.232 45.6732C186.752 39.1712 189.75 39.5701 191.869 44.277Z" fill="#AD6359"/>
<path d="M175.56 75.1114C175.84 74.513 175.52 74.3535 174.441 74.872C173.321 75.3906 169.484 78.4222 168.565 76.9861C167.605 75.5501 173.122 71.4017 175 70.6438C176.879 69.8859 180.197 69.3673 180.197 69.3673C179.277 70.4044 177.319 73.077 175.56 75.1114Z" fill="#AD6359"/>
<path d="M186.992 76.8266C184.314 79.6188 181.196 83.2487 176.999 84.4454C176.16 84.6847 175.6 84.4055 175.6 84.4055C173.721 84.964 172.882 84.2459 172.882 84.2459C170.963 84.2459 170.244 83.4083 170.244 83.4083C170.244 83.4083 168.045 84.0465 167.445 82.7701C166.766 81.3739 170.004 80.7357 171.563 79.2997C175.16 76.0288 179.317 70.3645 180.277 69.3274L186.992 76.8266Z" fill="#AD6359"/>
<path d="M177.679 78.5418C176.599 79.4991 175.56 80.4565 174.361 81.2144C173.042 82.0919 171.643 82.6903 170.204 83.3684C170.164 83.4083 170.204 83.4482 170.244 83.4482C173.002 82.6504 175.84 80.7357 177.718 78.5817C177.758 78.5418 177.718 78.5019 177.679 78.5418Z" fill="#263238"/>
<path d="M179.957 80.4166C178.878 81.2942 176.919 82.7701 172.842 84.246V84.2859C175.64 83.6876 177.918 82.4111 179.997 80.4964C180.077 80.4166 180.037 80.3768 179.957 80.4166Z" fill="#263238"/>
<path d="M181.196 81.4537C179.277 82.8498 177.878 83.488 175.6 84.4055V84.4453C178.318 83.6476 179.237 83.0492 181.276 81.4935C181.316 81.4537 181.276 81.4138 181.196 81.4537Z" fill="#263238"/>
<path d="M187.512 52.7734L196.825 53.2122C196.825 53.2122 192.508 43.9579 190.47 41.5645C188.191 38.892 187.312 40.6471 187.032 43.9978C186.752 47.3485 187.512 52.7734 187.512 52.7734Z" fill="#0067C5"/>
<path d="M187.912 51.138C189.111 51.0183 192.708 51.2178 193.308 51.2577C193.628 51.2577 194.867 51.3773 195.187 51.3773C195.226 51.3773 195.226 51.4571 195.187 51.4571C194.587 51.4172 193.987 51.4571 193.388 51.4571C192.788 51.4571 189.111 51.3773 187.912 51.1779C187.872 51.1779 187.872 51.138 187.912 51.138Z" fill="#263238"/>
<path d="M192.628 45.0748C192.628 45.035 192.668 44.9951 192.668 45.035C193.108 45.7929 193.548 46.5109 193.987 47.3086C193.867 46.8699 193.708 46.471 193.508 46.0322C193.508 46.0322 193.508 45.9923 193.548 46.0322C193.787 46.471 193.987 46.9895 194.107 47.5081C194.387 48.0266 194.707 48.5851 194.987 49.1037C195.706 50.4599 196.426 51.8161 197.065 53.2122C197.105 53.292 197.025 53.3718 196.945 53.3718C196.626 53.3319 196.306 53.292 195.986 53.2521C195.946 53.2521 195.946 53.2122 195.986 53.1724C196.266 53.1325 196.506 53.1325 196.785 53.1325C196.066 51.8161 195.386 50.4998 194.707 49.1834C193.987 47.8272 193.308 46.471 192.628 45.0748Z" fill="#263238"/>
<path d="M186.912 48.8244C186.792 48.3457 186.712 47.8671 186.632 47.3884C186.712 47.7474 186.792 48.1064 186.872 48.4255C186.832 47.7075 186.792 46.9895 186.832 46.2715C186.992 47.3485 187.072 48.4255 187.192 49.5025C187.312 50.5795 187.432 51.6166 187.512 52.6936C187.712 52.7335 187.951 52.7734 188.151 52.8133C188.191 52.8133 188.191 52.8931 188.151 52.8931C187.912 52.8931 187.672 52.8931 187.432 52.8931C187.392 52.8931 187.312 52.8532 187.312 52.8133C187.152 51.497 187.032 50.1806 186.912 48.8244Z" fill="#263238"/>
<path d="M160.81 62.2273H61.8377V133.828H160.81V62.2273Z" fill="#0067C5"/>
<path d="M96.8138 54.8079H61.8377V62.2273H98.8124L96.8138 54.8079Z" fill="#0067C5"/>
<g opacity="0.1">
<path d="M160.81 62.2273H61.8377V133.828H160.81V62.2273Z" fill="black"/>
<path d="M96.8138 54.8079H61.8377V62.2273H98.8124L96.8138 54.8079Z" fill="black"/>
</g>
<path d="M141.463 102.675C122.157 97.1702 103.25 91.7053 84.6623 86.3203C89.3391 64.5009 102.45 43.1203 103.33 20.9818C122.636 26.1674 141.503 31.3929 160.091 36.6184C155.334 58.7569 142.263 80.3369 141.463 102.675Z" fill="#EBEBEB"/>
<path d="M141.463 102.675C122.156 97.21 103.249 91.7851 84.6221 86.4001C84.5822 86.4001 84.5422 86.3602 84.5022 86.3602C84.5022 86.3203 84.5022 86.2804 84.5422 86.2405C89.219 64.4211 102.29 43.0405 103.129 20.902C103.129 20.8621 103.129 20.7823 103.129 20.7424C103.209 20.7424 103.249 20.7823 103.329 20.7823C122.636 26.0078 141.543 31.2333 160.13 36.4588C160.17 36.4588 160.21 36.4987 160.25 36.4987C160.25 36.5386 160.25 36.5784 160.21 36.6183C155.414 58.7568 142.303 80.3369 141.463 102.675ZM141.463 102.675C142.223 80.3369 155.294 58.7568 159.971 36.5386C160.011 36.5784 160.051 36.6582 160.091 36.6981C141.503 31.4726 122.636 26.287 103.329 21.1014C103.409 21.0615 103.449 21.0217 103.529 20.9818C102.61 43.1203 89.4988 64.5009 84.782 86.2804C84.7421 86.2405 84.7021 86.2006 84.7021 86.1607C103.249 91.6255 122.116 97.0904 141.463 102.675Z" fill="#DBDBDB"/>
<path d="M138.385 62.1075C135.507 69.7662 126.793 74.0344 118.679 71.641C110.524 69.2477 106.287 61.1502 109.085 53.5313C111.844 45.9125 120.278 41.6045 128.472 43.918C136.786 46.3114 141.303 54.4488 138.385 62.1075Z" fill="#455A64"/>
<path d="M123.755 57.8394C120.438 61.6289 117.04 65.4184 113.762 69.2079C108.806 65.4982 107.007 59.2754 109.085 53.5713C111.844 45.9923 120.318 41.6444 128.472 43.958C136.667 46.3114 141.223 54.5286 138.345 62.1076C133.509 60.6716 128.632 59.2356 123.755 57.8394Z" fill="#DBDBDB"/>
<path d="M123.756 57.8394C126.674 61.7485 129.552 65.6178 132.47 69.5269C128.432 72.2394 123.356 73.0372 118.679 71.6411C110.565 69.2477 106.327 61.1103 109.086 53.5314C111.844 45.9524 120.318 41.6045 128.472 43.9181C136.667 46.2715 141.224 54.4887 138.346 62.0677C133.509 60.6715 128.632 59.2355 123.756 57.8394Z" fill="#DBDBDB"/>
<path d="M123.755 57.8394C118.639 58.6771 113.522 59.5547 108.406 60.3923C108.046 58.1186 108.326 55.7652 109.125 53.5713C111.884 45.9923 120.358 41.6444 128.512 43.958C136.707 46.3114 141.263 54.5286 138.385 62.1076C133.509 60.6716 128.632 59.2355 123.755 57.8394Z" fill="#0067C5"/>
<path d="M107.686 30.5552C115.521 32.7491 123.316 34.9031 131.07 37.097C130.95 37.6555 130.791 38.2139 130.671 38.8122C122.956 36.6183 115.201 34.4643 107.407 32.2704C107.487 31.6721 107.566 31.1136 107.686 30.5552Z" fill="#DBDBDB"/>
<path d="M105.928 74.194C116.28 77.2255 126.633 80.297 137.106 83.3685C136.946 83.9269 136.786 84.4854 136.667 85.0438C126.154 81.9724 115.761 78.9009 105.408 75.8693C105.528 75.3109 105.728 74.7524 105.928 74.194Z" fill="#DBDBDB"/>
<path d="M104.568 78.4222C114.961 81.4937 125.434 84.5253 135.987 87.6366C135.867 88.1951 135.707 88.7535 135.587 89.3519C124.995 86.2804 114.482 83.1691 104.049 80.1375C104.209 79.5391 104.409 78.9807 104.568 78.4222Z" fill="#DBDBDB"/>
<path d="M103.369 82.6505C113.842 85.722 124.435 88.7934 135.108 91.9048C134.988 92.4633 134.908 93.0217 134.828 93.62C124.115 90.5087 113.482 87.4372 102.97 84.3657C103.05 83.7674 103.209 83.209 103.369 82.6505Z" fill="#DBDBDB"/>
<path d="M99.8117 74.2339C98.5726 73.8749 97.2935 73.5159 96.0543 73.117C96.2542 72.5585 96.4141 72.0001 96.6139 71.4417C97.8531 71.8007 99.1322 72.1597 100.371 72.5585C100.172 73.117 99.9716 73.6754 99.8117 74.2339Z" fill="#0067C5"/>
<path d="M98.4527 78.4622C97.1736 78.1032 95.9344 77.7043 94.6553 77.3453C94.8152 76.7868 95.015 76.2284 95.1749 75.6699C96.4141 76.0289 97.6932 76.3879 98.9323 76.7868C98.8124 77.3453 98.6126 77.9037 98.4527 78.4622Z" fill="#455A64"/>
<path d="M97.2535 82.6904C95.9744 82.3314 94.6952 81.9325 93.4561 81.5735C93.616 81.0151 93.7759 80.4566 93.9358 79.8982C95.2149 80.2572 96.454 80.6561 97.7332 81.0151C97.5733 81.5735 97.4134 82.132 97.2535 82.6904Z" fill="#DBDBDB"/>
<path d="M159.331 52.6937C159.131 78.1829 158.891 103.353 158.612 128.284C127.313 130.119 93.9757 119.548 63.2767 125.332C63.4766 99.8427 63.7164 74.6726 63.9962 49.7419C95.3348 47.907 128.672 58.4776 159.331 52.6937Z" fill="#0067C5"/>
<path opacity="0.8" d="M159.331 52.6937C159.131 78.1829 158.891 103.353 158.612 128.284C127.313 130.119 93.9757 119.548 63.2767 125.332C63.4766 99.8427 63.7164 74.6726 63.9962 49.7419C95.3348 47.907 128.672 58.4776 159.331 52.6937Z" fill="white"/>
<path d="M77.1472 116.836C77.3071 103.034 77.467 89.2722 77.6669 75.5503C78.4663 75.5503 79.3058 75.5902 80.1052 75.5902C79.9054 89.2722 79.7455 102.954 79.5456 116.756C78.7861 116.756 77.9867 116.796 77.1472 116.836Z" fill="#DBDBDB"/>
<path d="M83.303 116.716C83.5029 102.994 83.6628 89.352 83.8627 75.7498C84.6621 75.7896 85.5015 75.8295 86.301 75.8694C86.1011 89.4716 85.9013 103.074 85.7014 116.756C84.9019 116.716 84.1025 116.716 83.303 116.716Z" fill="#DBDBDB"/>
<path d="M89.4588 116.875C89.6587 103.233 89.8586 89.671 90.0584 76.1086C90.8978 76.1884 91.6973 76.2283 92.5367 76.3081C92.3369 89.8305 92.137 103.393 91.9371 116.995C91.0977 116.915 90.2983 116.915 89.4588 116.875Z" fill="#DBDBDB"/>
<path d="M95.6546 117.195C95.9744 97.3298 96.2542 77.5447 96.574 57.7996C97.4134 57.8793 98.2128 57.9591 99.0523 58.0389C98.7325 77.784 98.4127 97.5292 98.0929 117.354C97.2935 117.314 96.494 117.274 95.6546 117.195Z" fill="#DBDBDB"/>
<path d="M101.89 117.713C102.21 97.9281 102.53 78.1829 102.85 58.4777C103.689 58.5574 104.489 58.6771 105.328 58.7569C105.008 78.4621 104.688 98.2073 104.369 117.952C103.529 117.873 102.73 117.793 101.89 117.713Z" fill="#DBDBDB"/>
<path d="M108.126 118.311C108.446 98.5663 108.766 78.861 109.085 59.1558C109.925 59.2355 110.724 59.3153 111.564 59.435C111.244 79.1801 110.924 98.8854 110.604 118.591C109.805 118.471 108.965 118.391 108.126 118.311Z" fill="#DBDBDB"/>
<path d="M114.402 118.99C114.722 99.2844 115.041 79.5392 115.361 59.7941C116.201 59.8738 117 59.9536 117.839 60.0334C117.52 79.7786 117.2 99.5237 116.88 119.229C116.041 119.149 115.241 119.069 114.402 118.99Z" fill="#DBDBDB"/>
<path d="M120.638 119.668C120.957 99.9624 121.277 80.2173 121.597 60.3923C122.436 60.4721 123.236 60.5519 124.075 60.5918C123.755 80.4167 123.436 100.162 123.116 119.907C122.316 119.827 121.477 119.747 120.638 119.668Z" fill="#DBDBDB"/>
<path d="M126.913 120.306C127.233 100.561 127.553 80.7359 127.833 60.8711C128.672 60.911 129.471 60.9908 130.311 61.0306C130.031 80.9354 129.711 100.76 129.392 120.545C128.552 120.466 127.713 120.386 126.913 120.306Z" fill="#DBDBDB"/>
<path d="M133.149 120.864C133.469 101.039 133.749 81.1747 134.028 61.1902C134.828 61.2301 135.667 61.2301 136.467 61.27C136.187 81.2943 135.907 101.239 135.587 121.064C134.788 121.024 133.948 120.944 133.149 120.864Z" fill="#DBDBDB"/>
<path d="M139.345 121.343C139.625 101.438 139.904 81.4539 140.184 61.3497C140.984 61.3497 141.823 61.3497 142.622 61.3098C142.383 81.4937 142.103 101.518 141.823 121.463C140.984 121.423 140.184 121.383 139.345 121.343Z" fill="#DBDBDB"/>
<path d="M145.54 121.582C145.82 101.558 146.06 81.4539 146.3 61.1503C147.099 61.1104 147.899 61.0705 148.698 61.0306C148.458 81.3741 148.219 101.558 147.939 121.622C147.179 121.622 146.38 121.622 145.54 121.582Z" fill="#DBDBDB"/>
<path d="M157.372 55.127H64.7157V127.127H157.372V55.127Z" fill="#EBEBEB"/>
<path d="M157.332 55.127L157.452 127.127V127.247H157.332L64.6758 127.326H64.4759V127.127L64.5159 55.127V54.9674H64.6758L157.332 55.127ZM157.332 55.127L64.6758 55.2865L64.8357 55.127L64.8756 127.127L64.6758 126.928L157.332 127.007L157.212 127.127L157.332 55.127Z" fill="#DBDBDB"/>
<path d="M84.5023 119.269L84.4223 91.1469L84.5023 63.025L84.5823 91.1469L84.5023 119.269Z" fill="#C7C7C7"/>
<path d="M86.7807 119.269L86.7407 91.1469L86.7807 63.025L86.8607 91.1469L86.7807 119.269Z" fill="#C7C7C7"/>
<path d="M89.0992 119.269L89.0191 91.1469L89.0992 63.025L89.1792 91.1469L89.0992 119.269Z" fill="#C7C7C7"/>
<path d="M91.4176 119.269L91.3375 91.1469L91.4176 63.025L91.4576 91.1469L91.4176 119.269Z" fill="#C7C7C7"/>
<path d="M93.696 119.269L93.616 91.1469L93.696 63.025L93.7761 91.1469L93.696 119.269Z" fill="#C7C7C7"/>
<path d="M96.0144 119.269L95.9344 91.1469L96.0144 63.025L96.0545 91.1469L96.0144 119.269Z" fill="#C7C7C7"/>
<path d="M98.2929 119.269L98.2128 91.1469L98.2929 63.025L98.3729 91.1469L98.2929 119.269Z" fill="#C7C7C7"/>
<path d="M100.611 119.269L100.531 91.1469L100.611 63.025L100.651 91.1469L100.611 119.269Z" fill="#C7C7C7"/>
<path d="M102.89 119.269L102.81 91.1469L102.89 63.025L102.97 91.1469L102.89 119.269Z" fill="#C7C7C7"/>
<path d="M105.208 119.269L105.128 91.1469L105.208 63.025L105.248 91.1469L105.208 119.269Z" fill="#C7C7C7"/>
<path d="M107.487 119.269L107.407 91.1469L107.487 63.025L107.567 91.1469L107.487 119.269Z" fill="#C7C7C7"/>
<path d="M109.805 119.269L109.725 91.1469L109.805 63.025L109.845 91.1469L109.805 119.269Z" fill="#C7C7C7"/>
<path d="M112.083 119.269L112.003 91.1469L112.083 63.025L112.163 91.1469L112.083 119.269Z" fill="#C7C7C7"/>
<path d="M114.402 119.269L114.322 91.1469L114.402 63.025L114.442 91.1469L114.402 119.269Z" fill="#C7C7C7"/>
<path d="M116.68 119.269L116.6 91.1469L116.68 63.025L116.76 91.1469L116.68 119.269Z" fill="#C7C7C7"/>
<path d="M109.73 109.057V113.325H119.364V109.057H109.73Z" fill="#0067C5"/>
<path d="M104.576 101.127V105.395H119.365V101.127H104.576Z" fill="#0067C5"/>
<path d="M98.794 93.2096V97.4778H119.34V93.2096H98.794Z" fill="#0067C5"/>
<path d="M96.3341 85.2963V89.5645H119.358V85.2963H96.3341Z" fill="#0067C5"/>
<path d="M91.9074 77.3749V81.6431H119.369V77.3749H91.9074Z" fill="#0067C5"/>
<path d="M87.5869 69.4798V73.7479H119.405V69.4798H87.5869Z" fill="#0067C5"/>
<path d="M82.9033 117.753L92.0171 117.633L101.131 117.554C107.207 117.514 113.283 117.474 119.358 117.474L119.079 117.753V104.071L119.119 90.389L119.198 76.707L119.358 63.025L119.518 76.707L119.598 90.389L119.638 104.071V117.753V118.032H119.358C113.283 118.032 107.207 117.992 101.131 117.952L92.0171 117.873L82.9033 117.753Z" fill="#C7C7C7"/>
<path d="M121.312 109.047V113.315H121.713V109.047H121.312Z" fill="#C7C7C7"/>
<path d="M121.289 101.132V105.4H121.689V101.132H121.289Z" fill="#C7C7C7"/>
<path d="M121.306 93.2171V97.4852H121.706V93.2171H121.306Z" fill="#C7C7C7"/>
<path d="M121.283 85.3022V89.5703H121.683V85.3022H121.283Z" fill="#C7C7C7"/>
<path d="M121.3 77.3875V81.6556H121.7V77.3875H121.3Z" fill="#C7C7C7"/>
<path d="M121.277 69.4726V73.7407H121.677V69.4726H121.277Z" fill="#C7C7C7"/>
<path d="M110.924 112.847C110.884 110.772 110.724 108.698 110.444 106.624C110.165 104.55 109.805 102.515 109.325 100.481C108.366 96.4522 107.047 92.4633 105.168 88.7536C103.369 85.0439 101.011 81.5336 98.1729 78.5021L97.6532 77.9436L97.1336 77.3852L96.0143 76.3082C95.2149 75.63 94.4554 74.912 93.616 74.3137C92.0171 72.9973 90.2183 71.8804 88.4195 70.8034V70.7635C92.137 72.6782 95.6146 75.1115 98.5326 78.1829C100.012 79.6588 101.291 81.3342 102.53 83.0494C103.729 84.7647 104.808 86.5996 105.728 88.4744C107.566 92.2638 108.926 96.2528 109.765 100.361C110.644 104.47 111.124 108.658 110.924 112.847Z" fill="#263238"/>
<path d="M91.4175 69.5669L91.5774 70.1652L88.6594 70.8832L89.6187 73.7553L89.0191 73.9547L87.8999 70.4843L91.4175 69.5669Z" fill="#263238"/>
<path d="M136.094 120.464V61.7874H133.695V120.464H136.094Z" fill="#DBDBDB"/>
<path d="M142.113 120.47V87.442H139.714V120.47H142.113Z" fill="#DBDBDB"/>
<path d="M77.3201 107.634V74.6055H74.9217V107.634H77.3201Z" fill="#DBDBDB"/>
<path d="M174.441 58.6372L174.401 130.637L81.7441 130.597L81.7841 77.1059L99.452 58.5973L174.441 58.6372Z" fill="#0067C5"/>
<path opacity="0.6" d="M174.441 58.6372L174.401 130.637L81.7441 130.597L81.7841 77.1059L99.452 58.5973L174.441 58.6372Z" fill="white"/>
<path d="M81.7845 77.1059L99.4524 58.5973L99.4124 77.1458L81.7845 77.1059Z" fill="#0067C5"/>
<path opacity="0.4" d="M81.7845 77.1059L99.4524 58.5973L99.4124 77.1458L81.7845 77.1059Z" fill="white"/>
<path d="M99.6861 123.58L99.7065 83.5316L97.3081 83.5304L97.2878 123.579L99.6861 123.58Z" fill="white"/>
<path d="M105.694 123.575L105.714 83.5261L103.316 83.5249L103.295 123.574L105.694 123.575Z" fill="white"/>
<path d="M111.701 123.609L111.721 83.5607L109.323 83.5595L109.303 123.608L111.701 123.609Z" fill="white"/>
<path d="M117.69 123.58L117.72 64.9032L115.321 64.902L115.291 123.579L117.69 123.58Z" fill="white"/>
<path d="M123.697 123.615L123.727 64.9376L121.329 64.9364L121.299 123.613L123.697 123.615Z" fill="white"/>
<path d="M129.705 123.609L129.735 64.9321L127.336 64.9309L127.306 123.608L129.705 123.609Z" fill="white"/>
<path d="M135.712 123.604L135.742 64.9266L133.344 64.9254L133.314 123.602L135.712 123.604Z" fill="white"/>
<path d="M141.72 123.598L141.75 64.9211L139.351 64.9199L139.321 123.597L141.72 123.598Z" fill="white"/>
<path d="M147.727 123.593L147.757 64.9158L145.359 64.9146L145.329 123.592L147.727 123.593Z" fill="white"/>
<path d="M153.695 123.627L153.725 64.9501L151.326 64.9489L151.296 123.626L153.695 123.627Z" fill="white"/>
<path d="M159.702 123.622L159.732 64.9447L157.334 64.9435L157.304 123.62L159.702 123.622Z" fill="white"/>
<path d="M165.71 123.616L165.74 64.9391L163.341 64.9379L163.311 123.615L165.71 123.616Z" fill="white"/>
<path d="M160.53 133.828H61.5579L53.9231 68.1707H152.895L160.53 133.828Z" fill="#0067C5"/>
<path d="M88.1397 61.3895H53.1637L53.9231 68.1707H90.9378L88.1397 61.3895Z" fill="#0067C5"/>
<path d="M73.15 142.604C72.2306 142.883 46.4482 142.684 45.4889 142.045C45.1291 141.806 44.9293 138.056 44.8493 133.509C44.8094 132.512 44.8094 131.515 44.8094 130.477L42.8907 116.716L60.1189 116.835L61.5579 130.597L61.438 133.629C61.438 133.629 71.2713 138.136 72.2706 138.934C73.2699 139.692 74.0694 142.285 73.15 142.604Z" fill="#EB9481"/>
<path d="M73.15 142.604C72.2306 142.883 46.4482 142.684 45.4889 142.045C45.0492 141.766 44.8493 136.261 44.7694 130.517L61.5579 130.597L61.438 133.629C61.438 133.629 71.2713 138.136 72.2706 138.934C73.2699 139.692 74.0694 142.285 73.15 142.604Z" fill="white"/>
<path d="M73.15 142.604C72.2306 142.883 46.4482 142.684 45.4889 142.045C45.1291 141.806 44.9293 138.056 44.8493 133.509L61.478 133.589C61.478 133.589 71.3112 138.096 72.3105 138.894C73.2699 139.692 74.0693 142.285 73.15 142.604Z" fill="#CC2F8C"/>
<path d="M72.7902 141.567C68.4732 141.407 51.0051 141.248 46.728 141.447C46.6881 141.447 46.6881 141.487 46.728 141.487C51.0051 141.726 68.4732 141.766 72.7902 141.646C72.8702 141.646 72.8702 141.567 72.7902 141.567Z" fill="#263238"/>
<path d="M70.6317 137.977C69.5924 137.937 68.5931 138.415 68.0335 139.014C67.4739 139.612 67.0342 140.41 67.0342 141.327C67.0342 141.367 67.0741 141.367 67.0741 141.327C67.3539 139.652 68.8729 138.176 70.5917 138.056C70.6717 138.016 70.6717 137.977 70.6317 137.977Z" fill="#263238"/>
<path d="M63.1168 134.067C61.398 134.028 59.3594 134.626 58.2802 136.022C58.2402 136.062 58.3201 136.142 58.3601 136.102C59.919 135.304 61.438 134.706 63.1168 134.267C63.2767 134.227 63.2368 134.067 63.1168 134.067Z" fill="#263238"/>
<path d="M64.4759 134.586C62.7571 134.546 60.7185 135.144 59.6392 136.541C59.5992 136.58 59.6792 136.66 59.7192 136.62C61.2781 135.823 62.7971 135.224 64.4759 134.785C64.5958 134.746 64.5958 134.586 64.4759 134.586Z" fill="#263238"/>
<path d="M65.795 135.105C64.0762 135.065 62.0376 135.663 60.9583 137.059C60.9183 137.099 60.9983 137.179 61.0383 137.139C62.5972 136.341 64.1162 135.743 65.795 135.304C65.9549 135.304 65.9149 135.105 65.795 135.105Z" fill="#263238"/>
<path d="M67.1141 135.663C65.3953 135.623 63.3567 136.221 62.2774 137.618C62.2374 137.657 62.3174 137.737 62.3574 137.697C63.9163 136.9 65.4353 136.301 67.1141 135.862C67.274 135.823 67.234 135.663 67.1141 135.663Z" fill="#263238"/>
<path d="M47.8873 137.338C45.9286 137.338 45.9286 140.33 47.8873 140.33C49.8059 140.37 49.8059 137.338 47.8873 137.338Z" fill="#263238"/>
<path d="M65.0355 129.44C64.1561 128.722 63.0369 129.4 62.5172 130.158C61.6379 131.355 60.9983 133.07 60.9183 134.546C60.9183 134.586 60.9583 134.586 60.9583 134.586C60.9983 134.706 61.1582 134.825 61.2781 134.746C62.5173 133.908 63.9563 133.15 64.8756 131.953C65.4353 131.275 65.875 130.158 65.0355 129.44ZM62.877 133.11C62.2774 133.549 61.6778 133.948 61.0782 134.387C61.398 133.509 61.6778 132.671 62.0776 131.834C62.2774 131.435 62.4773 131.036 62.7171 130.677C63.1168 130.118 64.7957 128.682 64.9556 130.557C65.0755 131.594 63.5965 132.592 62.877 133.11Z" fill="#263238"/>
<path d="M56.6013 135.184C58.1203 135.424 59.6792 135.025 61.1582 134.785C61.3181 134.746 61.358 134.586 61.2781 134.466C61.3181 134.466 61.3181 134.426 61.2781 134.387C60.1988 133.349 58.5999 132.512 57.1209 132.233C56.2016 132.033 54.9224 132.272 54.7625 133.389C54.6426 134.466 55.7219 135.025 56.6013 135.184ZM55.562 134.187C54.4028 132.711 56.6413 132.592 57.2808 132.751C57.7205 132.871 58.1203 133.03 58.52 133.19C59.3594 133.509 60.1589 133.988 60.9983 134.387C60.2788 134.466 59.5593 134.586 58.7998 134.666C57.9604 134.746 56.2016 135.025 55.562 134.187Z" fill="#263238"/>
<path d="M18.3075 52.9728C18.3075 52.9728 37.8941 87.1977 38.4137 89.5911C39.1732 93.2609 43.1305 129.52 43.1305 129.52L62.4373 129.4C62.4373 129.4 59.2395 97.4093 55.9617 86.8786C54.163 81.0947 44.7694 65.498 40.3724 57.7595C39.9727 57.0814 40.0926 53.9301 40.0926 53.9301L18.3075 52.9728Z" fill="#455A64"/>
<path d="M60.5586 126.209C57.5606 126.169 48.5268 125.89 44.5296 126.209C44.4896 126.209 44.4896 126.249 44.5296 126.249C45.8886 126.449 57.5606 126.329 60.5586 126.249C60.5986 126.289 60.5986 126.209 60.5586 126.209Z" fill="#263238"/>
<path d="M21.6652 56.1241C22.9443 58.1983 24.3034 60.2326 25.6225 62.267C26.9416 64.3013 28.2607 66.3756 29.5398 68.4498C32.138 72.5983 34.6563 76.7468 37.1346 80.9351C38.2938 82.8897 39.413 84.8842 40.1725 87.0382C40.932 89.1523 41.4516 91.3462 41.8514 93.58C42.2511 95.8138 42.4909 98.0875 42.6908 100.321C42.9306 102.715 43.1705 105.108 43.4103 107.541C43.89 112.448 44.3697 117.354 44.8893 122.3C44.9293 122.899 45.0092 123.497 45.0492 124.095C45.0492 124.175 44.8893 124.215 44.8893 124.095C44.3297 119.229 43.89 114.322 43.4103 109.416C43.1705 106.983 42.9306 104.55 42.6508 102.116C42.411 99.8426 42.2111 97.5689 41.8913 95.3351C41.5716 93.1412 41.1718 90.9074 40.4923 88.7534C39.8128 86.5196 38.8534 84.4055 37.6942 82.3711C35.3358 78.1828 32.8176 74.0742 30.3392 69.9656C27.821 65.8171 25.2627 61.7085 22.6245 57.6398C22.3047 57.1213 21.985 56.6426 21.6252 56.1241C21.5852 56.1241 21.6652 56.0842 21.6652 56.1241Z" fill="#263238"/>
<path d="M26.0622 144C25.1028 143.92 0.719508 133.709 0.0399727 132.751C0 132.711 0 132.671 0 132.592C0 131.754 1.7588 128.842 3.19781 124.973C3.27776 124.733 3.91732 123.577 4.83669 122.061C7.315 117.833 11.672 110.613 11.672 110.613L27.6211 117.155L19.7865 128.523L18.5473 131.275C18.5473 131.275 25.9822 139.133 26.5818 140.25C27.2614 141.367 27.0215 144.04 26.0622 144Z" fill="#EB9481"/>
<path d="M26.0622 144C25.1028 143.92 0.719508 133.709 0.0399727 132.751C0 132.711 0 132.671 0 132.592C0 131.754 1.7588 128.842 3.19781 124.973C3.27776 124.733 3.91732 123.577 4.83669 122.061L19.7865 128.523L18.5473 131.275C18.5473 131.275 25.9822 139.133 26.5818 140.25C27.2614 141.367 27.0215 144.04 26.0622 144Z" fill="white"/>
<path d="M26.0622 144C25.1028 143.92 0.719522 133.709 0.0399866 132.751C-0.199849 132.392 0.919385 129.081 3.2378 124.973L18.6273 131.275C18.6273 131.275 26.0622 139.133 26.6618 140.25C27.2614 141.367 27.0215 144.04 26.0622 144Z" fill="#CC2F8C"/>
<path d="M26.1022 142.883C22.1449 141.128 6.03588 134.426 1.99864 132.99C1.95867 132.99 1.95867 132.99 1.99864 133.03C5.87599 134.865 22.0249 141.407 26.1022 142.963C26.1821 143.003 26.1821 142.923 26.1022 142.883Z" fill="#263238"/>
<path d="M25.4626 138.774C24.5432 138.336 23.424 138.415 22.6645 138.774C21.945 139.094 21.1855 139.692 20.9057 140.53C20.9057 140.569 20.9457 140.569 20.9457 140.53C21.8251 139.054 23.8237 138.296 25.4626 138.814C25.4626 138.814 25.5026 138.774 25.4626 138.774Z" fill="#263238"/>
<path d="M19.9863 132.312C18.3874 131.634 16.3088 131.435 14.7899 132.312C14.7499 132.352 14.7899 132.432 14.8299 132.432C16.5887 132.273 18.1876 132.312 19.9464 132.512C20.0663 132.552 20.1063 132.352 19.9863 132.312Z" fill="#263238"/>
<path d="M21.0256 133.31C19.4267 132.632 17.3481 132.432 15.8292 133.31C15.7892 133.35 15.8292 133.429 15.8692 133.429C17.6279 133.27 19.2269 133.31 20.9857 133.509C21.0656 133.549 21.1455 133.35 21.0256 133.31Z" fill="#263238"/>
<path d="M22.0649 134.307C20.466 133.629 18.3874 133.429 16.8685 134.307C16.8285 134.347 16.8685 134.426 16.9084 134.426C18.6672 134.267 20.2661 134.307 22.0249 134.506C22.1049 134.506 22.1449 134.347 22.0649 134.307Z" fill="#263238"/>
<path d="M23.0642 135.304C21.4653 134.626 19.3867 134.427 17.8678 135.304C17.8278 135.344 17.8678 135.424 17.9078 135.424C19.6666 135.264 21.2655 135.304 23.0243 135.504C23.1442 135.504 23.1841 135.344 23.0642 135.304Z" fill="#263238"/>
<path d="M4.59686 129.64C2.79809 128.922 1.63888 131.674 3.43765 132.432C5.23642 133.19 6.39563 130.398 4.59686 129.64Z" fill="#263238"/>
<path d="M23.464 128.762C22.9443 127.765 21.6252 128.004 20.8657 128.483C19.5866 129.281 18.3874 130.637 17.7079 131.953C17.7079 131.993 17.7079 131.993 17.7479 132.033C17.7479 132.153 17.8278 132.312 17.9877 132.273C19.4667 131.953 21.0656 131.794 22.3847 131.036C23.1442 130.637 23.9836 129.72 23.464 128.762ZM20.1063 131.355C19.3868 131.515 18.6672 131.674 17.9477 131.874C18.5473 131.196 19.1469 130.478 19.8265 129.879C20.1462 129.6 20.506 129.281 20.8657 129.041C21.4254 128.643 23.5439 127.964 22.9843 129.759C22.7045 130.757 20.9457 131.156 20.1063 131.355Z" fill="#263238"/>
<path d="M13.5108 130.916C14.8299 131.714 16.4288 131.914 17.8678 132.273C18.0277 132.312 18.1076 132.153 18.1076 132.033C18.1476 132.033 18.1476 131.993 18.1476 131.953C17.508 130.597 16.3488 129.201 15.1097 128.403C14.3502 127.885 13.0311 127.606 12.5115 128.603C11.9518 129.52 12.7513 130.438 13.5108 130.916ZM12.9112 129.6C12.3915 127.765 14.5101 128.523 15.0697 128.922C15.4295 129.161 15.7492 129.48 16.069 129.799C16.7486 130.438 17.3082 131.156 17.9078 131.834C17.1883 131.634 16.4687 131.475 15.7892 131.275C14.9098 131.036 13.191 130.597 12.9112 129.6Z" fill="#263238"/>
<path d="M21.0656 127.885L3.19781 120.425C3.19781 120.425 25.8623 88.0354 26.0622 85.642C26.2221 83.488 16.7086 64.6603 16.3888 59.1955C16.029 53.2919 18.947 48.7844 22.1049 45.9922L40.0926 53.97C40.0926 53.97 38.5336 57.1612 35.4158 58.8764C35.4158 58.8764 44.6495 80.6559 44.0099 87.2775C43.4103 93.939 21.0656 127.885 21.0656 127.885Z" fill="#455A64"/>
<path d="M21.905 124.494C19.3068 123.337 20.0663 123.656 17.4681 122.54C16.1889 121.981 7.83464 118.391 6.59548 118.112C6.55551 118.112 6.55551 118.152 6.55551 118.152C7.67475 118.83 16.069 122.3 17.3481 122.819C19.9464 123.896 19.2268 123.537 21.865 124.574C21.905 124.574 21.945 124.534 21.905 124.494Z" fill="#263238"/>
<path d="M38.4537 58.4775C36.535 58.8764 34.6163 59.5146 32.7776 60.2326C32.6976 60.2725 32.7376 60.3523 32.8176 60.3523C34.7362 59.8337 36.6549 59.3152 38.4937 58.7168C38.6935 58.6371 38.6136 58.4376 38.4537 58.4775Z" fill="#263238"/>
<path d="M36.2952 57.6797C36.0953 57.9988 35.9354 58.3179 35.8155 58.6769C35.6956 58.9562 35.5757 59.2354 35.5757 59.5146C35.5757 59.5545 35.6556 59.5944 35.6956 59.5545C35.8955 59.355 36.0154 59.0359 36.1753 58.7966C36.3351 58.4775 36.495 58.1983 36.6549 57.8791C36.6949 57.6398 36.3751 57.4802 36.2952 57.6797Z" fill="#263238"/>
<path d="M36.535 55.9644C36.6549 55.6852 36.7748 55.406 36.8948 55.1267C37.0147 54.8475 37.1746 54.5683 37.2945 54.2492C37.2945 54.2093 37.3744 54.2492 37.3744 54.2891C37.2545 54.5683 37.1746 54.8874 37.0946 55.1666C37.0147 55.4459 36.8948 55.765 36.8148 56.0442C36.615 56.6027 36.4151 57.1212 36.1753 57.6398C36.495 57.6398 36.7748 57.6398 37.0547 57.4802C37.3744 57.3207 37.5343 57.0015 37.6942 56.7223C37.8541 56.4032 38.014 56.0841 38.1739 55.765C38.3738 55.406 38.5736 55.0869 38.6935 54.688C38.6935 54.6481 38.7735 54.688 38.7735 54.7279C38.4937 55.4858 38.2139 56.2835 37.7742 57.0015C37.6143 57.2808 37.4544 57.56 37.1346 57.6797C36.8148 57.7993 36.4151 57.7594 36.0953 57.7195C36.0553 57.7195 36.0154 57.7195 36.0154 57.6398C36.0953 57.1212 36.2952 56.5229 36.535 55.9644Z" fill="#263238"/>
<path d="M35.6956 59.5545C36.3352 60.9506 36.8948 62.3467 37.4944 63.7428C38.0939 65.0991 38.6136 66.4952 39.1732 67.8514C40.2525 70.6437 41.2118 73.5157 42.0113 76.3877C42.411 77.8237 42.8107 79.2597 43.1305 80.6957C43.4903 82.1317 43.81 83.6076 43.93 85.0835C44.0499 86.5594 43.93 88.0353 43.4903 89.4713C43.0506 90.9074 42.4909 92.1838 41.8114 93.54C41.4117 94.3777 41.2518 94.258 41.4516 93.8193C42.0113 92.6226 43.4903 89.0326 43.4503 86.001C43.4103 84.5251 43.1305 83.0891 42.8107 81.6531C42.4909 80.1772 42.1312 78.7412 41.7315 77.3051C40.932 74.473 40.0126 71.6808 39.0133 68.8885C38.4537 67.3328 37.8941 65.7772 37.3345 64.2215C36.7748 62.6658 36.2152 61.2298 35.5757 59.5545C35.6156 59.5146 35.6556 59.5146 35.6956 59.5545Z" fill="#263238"/>
<path d="M22.1049 54.7678C22.4247 54.6482 22.8644 54.8476 23.1841 54.9274C23.5839 55.0072 24.0236 55.0471 24.4633 55.087C24.903 55.087 25.3027 55.087 25.7424 55.0471C26.1421 55.0072 26.5818 54.9673 26.9416 54.728C27.5412 54.369 28.0608 53.6908 28.5005 53.1324C28.9802 52.4942 29.4598 51.7762 29.7397 51.0581C29.7397 51.0183 29.8196 51.0582 29.8196 51.098C29.6597 51.5368 29.5798 51.9756 29.3799 52.3745C29.22 52.7734 28.9802 53.1324 28.7803 53.4914C28.3406 54.1695 27.8609 54.8875 27.1414 55.2864C26.382 55.6853 25.4226 55.6454 24.5832 55.6055C24.1035 55.5656 23.6238 55.4858 23.1442 55.4061C22.8244 55.3263 22.2248 55.2864 22.0249 54.9673C22.0249 54.8875 22.0649 54.8077 22.1049 54.7678Z" fill="#263238"/>
<path d="M8.39425 117.075C11.3922 112.647 14.3502 108.219 17.2282 103.712C20.1462 99.2043 22.9843 94.6969 25.8223 90.1096C26.5019 89.0326 27.2614 87.9157 27.7011 86.719C28.1807 85.4027 27.9409 84.1262 27.5412 82.8099C26.8217 80.4165 25.8623 78.103 24.863 75.8293C23.8637 73.5556 22.7844 71.2819 21.7052 69.0082C20.6259 66.7744 19.5067 64.5007 18.7072 62.1473C17.9477 59.9135 17.6679 57.56 18.3075 55.2465C18.947 52.9329 20.2661 50.8985 21.6252 48.9839C21.985 48.4653 22.3447 47.9866 22.7045 47.4681C22.7444 47.4282 22.7844 47.4681 22.7444 47.5079C21.2255 49.5024 19.7465 51.6165 18.8271 53.97C18.3874 55.1268 18.0676 56.3633 18.0277 57.5999C17.9877 58.8764 18.1876 60.1129 18.5473 61.3495C19.2268 63.703 20.3461 65.9368 21.3854 68.1307C22.4646 70.4043 23.5439 72.6381 24.5832 74.9118C25.6225 77.2254 26.5818 79.539 27.3413 81.9323C27.701 83.0093 28.1008 84.1262 28.0608 85.2431C28.0208 86.4797 27.4212 87.5966 26.7817 88.6337C24.0236 93.1811 21.1855 97.6487 18.3075 102.076C15.4294 106.544 12.4715 110.972 9.47351 115.359C9.11376 115.918 8.71403 116.476 8.35428 117.035C8.43422 117.234 8.31431 117.154 8.39425 117.075Z" fill="#263238"/>
<path d="M47.8073 16.5939C46.5682 14.7191 44.2497 14.0809 41.8514 14.2803C39.493 14.5197 36.575 15.3972 35.8955 19.3861C35.3358 22.6172 35.9754 25.928 35.5757 29.5579C35.176 33.1878 30.2593 41.6044 36.1753 46.6704C41.4916 51.1778 53.4435 48.9042 54.6826 40.9263C55.642 34.6238 49.0065 27.9623 48.4869 25.3695C48.0072 22.7767 49.1664 18.6283 47.8073 16.5939Z" fill="#263238"/>
<path d="M48.4868 20.2637C48.327 22.0986 48.4069 23.9335 48.9265 25.7285C49.0465 26.1673 49.2863 26.6061 49.5261 27.0049C49.766 27.4038 50.0458 27.7628 50.2856 28.1617C50.8053 28.9196 51.3249 29.6376 51.8445 30.3955C52.8439 31.9113 53.6433 33.5468 54.163 35.262C54.6826 36.9772 54.8425 38.8121 54.7226 40.6471C54.8825 39.7296 54.9624 38.8121 54.9224 37.8947C54.8825 36.9772 54.7626 36.0598 54.5227 35.1423C54.083 33.3473 53.2436 31.672 52.2443 30.1163C51.7646 29.3584 51.205 28.6005 50.6853 27.8426C50.1657 27.0847 49.6061 26.4066 49.3263 25.5689C49.0065 24.7313 48.8466 23.8537 48.7267 22.9362C48.5668 22.0986 48.5268 21.1811 48.4868 20.2637Z" fill="#263238"/>
<path d="M35.7755 22.1385C35.6156 24.0133 35.5357 25.8482 35.2959 27.6831C35.176 28.6006 35.0161 29.5181 34.7762 30.3956C34.5364 31.2732 34.2166 32.1507 33.8968 33.0283C33.577 33.9059 33.2972 34.7834 33.0574 35.7009C32.8176 36.6183 32.6577 37.5358 32.5777 38.4931C32.5378 39.4505 32.5777 40.4078 32.7776 41.3253C33.0174 42.2427 33.4571 43.0804 34.0167 43.8383C33.5371 43.0405 33.1773 42.1629 33.0174 41.2854C32.8575 40.3679 32.8575 39.4505 32.9375 38.533C33.1773 36.6981 33.697 34.943 34.3365 33.1879C34.6163 32.3103 34.9761 31.4327 35.2159 30.5153C35.4158 29.5978 35.5757 28.6804 35.6556 27.723C35.8555 25.8881 35.8555 24.0133 35.7755 22.1385Z" fill="#263238"/>
<path d="M38.6536 31.5524C38.0939 34.6637 38.4537 48.1862 40.0126 52.4942C41.8514 57.5202 45.9686 66.3756 47.4076 66.3357C48.7666 66.3357 56.2415 61.9878 55.4021 60.7911C54.5627 59.5945 48.8866 50.5795 48.0871 48.9042C47.6074 47.9069 44.6495 38.0144 42.8107 33.0283C41.1319 28.5607 39.413 27.2443 38.6536 31.5524Z" fill="#EB9481"/>
<path d="M38.1739 40.2482L46.8879 41.1258C46.8879 41.1258 43.3304 32.2305 41.5316 29.877C39.533 27.2443 38.6136 28.8798 38.1739 31.9513C37.6942 35.1025 38.1739 40.2482 38.1739 40.2482Z" fill="#7DB445"/>
<path d="M40.4124 31.313C40.4124 31.5524 40.2125 31.7518 39.9727 31.7518C39.7328 31.7518 39.533 31.5524 39.533 31.313C39.533 31.0737 39.7328 30.8743 39.9727 30.8743C40.2125 30.8743 40.4124 31.0737 40.4124 31.313ZM39.9727 36.4189C39.7328 36.4189 39.533 36.6183 39.533 36.8576C39.533 37.097 39.7328 37.2964 39.9727 37.2964C40.2125 37.2964 40.4124 37.097 40.4124 36.8576C40.4124 36.5784 40.2125 36.4189 39.9727 36.4189ZM43.8101 36.4189C43.5702 36.4189 43.3704 36.6183 43.3704 36.8576C43.3704 37.097 43.5702 37.2964 43.8101 37.2964C44.0499 37.2964 44.2498 37.097 44.2498 36.8576C44.2498 36.5784 44.0499 36.4189 43.8101 36.4189ZM38.094 33.6266C38.054 33.6266 38.054 33.6266 38.014 33.6266C38.014 33.9058 37.974 34.1851 37.974 34.4643C38.014 34.4643 38.054 34.4643 38.094 34.4643C38.3338 34.4643 38.5337 34.2649 38.5337 34.0255C38.5337 33.8261 38.3338 33.6266 38.094 33.6266ZM41.8914 33.6266C41.6515 33.6266 41.4517 33.8261 41.4517 34.0654C41.4517 34.3047 41.6515 34.5042 41.8914 34.5042C42.1312 34.5042 42.3311 34.3047 42.3311 34.0654C42.3311 33.8261 42.1312 33.6266 41.8914 33.6266ZM38.094 39.1712C38.1339 39.5701 38.1339 39.8493 38.1739 40.0488C38.3738 40.0089 38.5337 39.8493 38.5337 39.61C38.5337 39.3707 38.3338 39.1712 38.094 39.1712ZM41.8914 39.1712C41.6515 39.1712 41.4517 39.3707 41.4517 39.61C41.4517 39.8493 41.6515 40.0488 41.8914 40.0488C42.1312 40.0488 42.3311 39.8493 42.3311 39.61C42.3311 39.3707 42.1312 39.1712 41.8914 39.1712ZM45.7287 39.1712C45.4889 39.1712 45.289 39.3707 45.289 39.61C45.289 39.8493 45.4889 40.0488 45.7287 40.0488C45.9686 40.0488 46.1684 39.8493 46.1684 39.61C46.1684 39.3707 45.9686 39.1712 45.7287 39.1712Z" fill="white"/>
<path d="M45.8087 39.4504C45.5289 39.3706 42.8107 39.0515 42.2111 39.0116C41.6115 38.9717 39.2132 38.6925 38.6136 38.6925C38.5736 38.6925 38.5736 38.7324 38.6136 38.7324C39.2132 38.8521 41.6515 39.1313 42.2511 39.1712C42.8507 39.251 45.5289 39.4903 45.8486 39.4903C45.8087 39.4903 45.8087 39.4903 45.8087 39.4504Z" fill="#263238"/>
<path d="M45.4091 40.9665L38.1741 40.2485C38.1741 40.2485 37.7344 35.1027 38.1741 31.9914C38.4938 29.7177 39.0535 28.2418 40.1327 28.6407L45.4091 40.9665Z" fill="#263238"/>
<path d="M40.4124 55.6056L41.4516 46.9097C41.4516 46.9097 44.7694 44.4765 44.3697 41.3253C44.1698 39.7297 42.0512 31.5923 40.2125 29.1192C38.5336 26.8056 35.136 27.364 33.657 28.4012C28.9802 31.7518 25.0629 35.3419 19.1869 47.907L40.4124 55.6056Z" fill="#9CE156"/>
<path d="M32.7776 31.3131C32.7776 31.5524 32.5777 31.7519 32.3379 31.7519C32.098 31.7519 31.8982 31.5524 31.8982 31.3131C31.8982 31.0737 32.098 30.8743 32.3379 30.8743C32.5777 30.8743 32.7776 31.0737 32.7776 31.3131ZM36.1753 30.8743C35.9354 30.8743 35.7356 31.0737 35.7356 31.3131C35.7356 31.5524 35.9354 31.7519 36.1753 31.7519C36.4151 31.7519 36.615 31.5524 36.615 31.3131C36.615 31.0737 36.4151 30.8743 36.1753 30.8743ZM39.9727 30.8743C39.7328 30.8743 39.533 31.0737 39.533 31.3131C39.533 31.5524 39.7328 31.7519 39.9727 31.7519C40.2125 31.7519 40.4124 31.5524 40.4124 31.3131C40.4124 31.0737 40.2125 30.8743 39.9727 30.8743ZM34.2566 28.1219C34.2166 28.1219 34.2166 28.1219 34.1766 28.1219C34.0967 28.1618 34.0167 28.2017 33.9368 28.2815C33.8568 28.3613 33.8169 28.4411 33.8169 28.5607C33.8169 28.8001 34.0167 28.9995 34.2566 28.9995C34.4964 28.9995 34.6963 28.8001 34.6963 28.5607C34.6963 28.3214 34.4964 28.1219 34.2566 28.1219ZM38.0939 28.1219C37.8541 28.1219 37.6542 28.3214 37.6542 28.5607C37.6542 28.8001 37.8541 28.9995 38.0939 28.9995C38.3338 28.9995 38.5336 28.8001 38.5336 28.5607C38.4937 28.3214 38.3338 28.1219 38.0939 28.1219ZM28.5005 36.4189C28.2607 36.4189 28.0608 36.6183 28.0608 36.8577C28.0608 37.097 28.2607 37.2965 28.5005 37.2965C28.7403 37.2965 28.9402 37.097 28.9402 36.8577C28.9402 36.5785 28.7403 36.4189 28.5005 36.4189ZM32.3379 36.4189C32.098 36.4189 31.8982 36.6183 31.8982 36.8577C31.8982 37.097 32.098 37.2965 32.3379 37.2965C32.5777 37.2965 32.7776 37.097 32.7776 36.8577C32.7776 36.5785 32.5777 36.4189 32.3379 36.4189ZM36.1753 36.4189C35.9354 36.4189 35.7356 36.6183 35.7356 36.8577C35.7356 37.097 35.9354 37.2965 36.1753 37.2965C36.4151 37.2965 36.615 37.097 36.615 36.8577C36.615 36.5785 36.4151 36.4189 36.1753 36.4189ZM39.9727 36.4189C39.7328 36.4189 39.533 36.6183 39.533 36.8577C39.533 37.097 39.7328 37.2965 39.9727 37.2965C40.2125 37.2965 40.4124 37.097 40.4124 36.8577C40.4124 36.5785 40.2125 36.4189 39.9727 36.4189ZM30.4192 33.6267C30.1794 33.6267 29.9795 33.8261 29.9795 34.0654C29.9795 34.3048 30.1794 34.5042 30.4192 34.5042C30.659 34.5042 30.8589 34.3048 30.8589 34.0654C30.8589 33.8261 30.659 33.6267 30.4192 33.6267ZM34.2566 33.6267C34.0167 33.6267 33.8169 33.8261 33.8169 34.0654C33.8169 34.3048 34.0167 34.5042 34.2566 34.5042C34.4964 34.5042 34.6963 34.3048 34.6963 34.0654C34.6963 33.8261 34.4964 33.6267 34.2566 33.6267ZM38.0939 33.6267C37.8541 33.6267 37.6542 33.8261 37.6542 34.0654C37.6542 34.3048 37.8541 34.5042 38.0939 34.5042C38.3338 34.5042 38.5336 34.3048 38.5336 34.0654C38.4937 33.8261 38.3338 33.6267 38.0939 33.6267ZM41.8913 33.6267C41.6515 33.6267 41.4516 33.8261 41.4516 34.0654C41.4516 34.3048 41.6515 34.5042 41.8913 34.5042C42.1312 34.5042 42.331 34.3048 42.331 34.0654C42.331 33.8261 42.1312 33.6267 41.8913 33.6267ZM24.7031 41.9236C24.4633 41.9236 24.2634 42.1231 24.2634 42.3624C24.2634 42.6017 24.4633 42.8012 24.7031 42.8012C24.9429 42.8012 25.1428 42.6017 25.1428 42.3624C25.1428 42.1231 24.9429 41.9236 24.7031 41.9236ZM28.5005 41.9236C28.2607 41.9236 28.0608 42.1231 28.0608 42.3624C28.0608 42.6017 28.2607 42.8012 28.5005 42.8012C28.7403 42.8012 28.9402 42.6017 28.9402 42.3624C28.9402 42.1231 28.7403 41.9236 28.5005 41.9236ZM32.3379 41.9236C32.098 41.9236 31.8982 42.1231 31.8982 42.3624C31.8982 42.6017 32.098 42.8012 32.3379 42.8012C32.5777 42.8012 32.7776 42.6017 32.7776 42.3624C32.7776 42.1231 32.5777 41.9236 32.3379 41.9236ZM36.1753 41.9236C35.9354 41.9236 35.7356 42.1231 35.7356 42.3624C35.7356 42.6017 35.9354 42.8012 36.1753 42.8012C36.4151 42.8012 36.615 42.6017 36.615 42.3624C36.615 42.1231 36.4151 41.9236 36.1753 41.9236ZM39.9727 41.9236C39.7328 41.9236 39.533 42.1231 39.533 42.3624C39.533 42.6017 39.7328 42.8012 39.9727 42.8012C40.2125 42.8012 40.4124 42.6017 40.4124 42.3624C40.4124 42.1231 40.2125 41.9236 39.9727 41.9236ZM43.81 41.9236C43.5702 41.9236 43.3703 42.1231 43.3703 42.3624C43.3703 42.6017 43.5702 42.8012 43.81 42.8012C44.0499 42.8012 44.2497 42.6017 44.2497 42.3624C44.2497 42.1231 44.0499 41.9236 43.81 41.9236ZM26.6218 39.1713C26.382 39.1713 26.1821 39.3707 26.1821 39.61C26.1821 39.8494 26.382 40.0488 26.6218 40.0488C26.8616 40.0488 27.0615 39.8494 27.0615 39.61C27.0215 39.3707 26.8616 39.1713 26.6218 39.1713ZM30.4192 39.1713C30.1794 39.1713 29.9795 39.3707 29.9795 39.61C29.9795 39.8494 30.1794 40.0488 30.4192 40.0488C30.659 40.0488 30.8589 39.8494 30.8589 39.61C30.8589 39.3707 30.659 39.1713 30.4192 39.1713ZM34.2566 39.1713C34.0167 39.1713 33.8169 39.3707 33.8169 39.61C33.8169 39.8494 34.0167 40.0488 34.2566 40.0488C34.4964 40.0488 34.6963 39.8494 34.6963 39.61C34.6963 39.3707 34.4964 39.1713 34.2566 39.1713ZM38.0939 39.1713C37.8541 39.1713 37.6542 39.3707 37.6542 39.61C37.6542 39.8494 37.8541 40.0488 38.0939 40.0488C38.3338 40.0488 38.5336 39.8494 38.5336 39.61C38.4937 39.3707 38.3338 39.1713 38.0939 39.1713ZM41.8913 39.1713C41.6515 39.1713 41.4516 39.3707 41.4516 39.61C41.4516 39.8494 41.6515 40.0488 41.8913 40.0488C42.1312 40.0488 42.331 39.8494 42.331 39.61C42.331 39.3707 42.1312 39.1713 41.8913 39.1713ZM20.8657 47.4682C20.6259 47.4682 20.426 47.6677 20.426 47.907C20.426 48.1463 20.6259 48.3458 20.8657 48.3458C21.1056 48.3458 21.3054 48.1463 21.3054 47.907C21.3054 47.6278 21.1056 47.4682 20.8657 47.4682ZM24.7031 47.4682C24.4633 47.4682 24.2634 47.6677 24.2634 47.907C24.2634 48.1463 24.4633 48.3458 24.7031 48.3458C24.9429 48.3458 25.1428 48.1463 25.1428 47.907C25.1428 47.6278 24.9429 47.4682 24.7031 47.4682ZM28.5005 47.4682C28.2607 47.4682 28.0608 47.6677 28.0608 47.907C28.0608 48.1463 28.2607 48.3458 28.5005 48.3458C28.7403 48.3458 28.9402 48.1463 28.9402 47.907C28.9402 47.6278 28.7403 47.4682 28.5005 47.4682ZM32.3379 47.4682C32.098 47.4682 31.8982 47.6677 31.8982 47.907C31.8982 48.1463 32.098 48.3458 32.3379 48.3458C32.5777 48.3458 32.7776 48.1463 32.7776 47.907C32.7776 47.6278 32.5777 47.4682 32.3379 47.4682ZM36.1753 47.4682C35.9354 47.4682 35.7356 47.6677 35.7356 47.907C35.7356 48.1463 35.9354 48.3458 36.1753 48.3458C36.4151 48.3458 36.615 48.1463 36.615 47.907C36.615 47.6278 36.4151 47.4682 36.1753 47.4682ZM39.9727 47.4682C39.7328 47.4682 39.533 47.6677 39.533 47.907C39.533 48.1463 39.7328 48.3458 39.9727 48.3458C40.2125 48.3458 40.4124 48.1463 40.4124 47.907C40.4124 47.6278 40.2125 47.4682 39.9727 47.4682ZM22.7844 44.7159C22.5446 44.7159 22.3447 44.9153 22.3447 45.1546C22.3447 45.394 22.5446 45.5934 22.7844 45.5934C23.0242 45.5934 23.2241 45.394 23.2241 45.1546C23.2241 44.8754 23.0242 44.7159 22.7844 44.7159ZM26.6218 44.7159C26.382 44.7159 26.1821 44.9153 26.1821 45.1546C26.1821 45.394 26.382 45.5934 26.6218 45.5934C26.8616 45.5934 27.0615 45.394 27.0615 45.1546C27.0215 44.8754 26.8616 44.7159 26.6218 44.7159ZM30.4192 44.7159C30.1794 44.7159 29.9795 44.9153 29.9795 45.1546C29.9795 45.394 30.1794 45.5934 30.4192 45.5934C30.659 45.5934 30.8589 45.394 30.8589 45.1546C30.8589 44.8754 30.659 44.7159 30.4192 44.7159ZM34.2566 44.7159C34.0167 44.7159 33.8169 44.9153 33.8169 45.1546C33.8169 45.394 34.0167 45.5934 34.2566 45.5934C34.4964 45.5934 34.6963 45.394 34.6963 45.1546C34.6963 44.8754 34.4964 44.7159 34.2566 44.7159ZM38.0939 44.7159C37.8541 44.7159 37.6542 44.9153 37.6542 45.1546C37.6542 45.394 37.8541 45.5934 38.0939 45.5934C38.3338 45.5934 38.5336 45.394 38.5336 45.1546C38.4937 44.8754 38.3338 44.7159 38.0939 44.7159ZM41.8913 44.7159C41.6515 44.7159 41.4516 44.9153 41.4516 45.1546C41.4516 45.394 41.6515 45.5934 41.8913 45.5934C42.1312 45.5934 42.331 45.394 42.331 45.1546C42.331 44.8754 42.1312 44.7159 41.8913 44.7159ZM36.1753 52.9729C35.9354 52.9729 35.7356 53.1724 35.7356 53.4117C35.7356 53.651 35.9354 53.8505 36.1753 53.8505C36.4151 53.8505 36.615 53.651 36.615 53.4117C36.615 53.1724 36.4151 52.9729 36.1753 52.9729ZM39.9727 52.9729C39.7328 52.9729 39.533 53.1724 39.533 53.4117C39.533 53.651 39.7328 53.8505 39.9727 53.8505C40.2125 53.8505 40.4124 53.651 40.4124 53.4117C40.4124 53.1724 40.2125 52.9729 39.9727 52.9729ZM26.6218 50.2206C26.4619 50.2206 26.302 50.3003 26.2221 50.4599L27.0215 50.779C27.0215 50.7391 27.0215 50.6992 27.0215 50.6992C27.0615 50.42 26.8616 50.2206 26.6218 50.2206ZM30.4192 50.2206C30.1794 50.2206 29.9795 50.42 29.9795 50.6593C29.9795 50.8987 30.1794 51.0981 30.4192 51.0981C30.659 51.0981 30.8589 50.8987 30.8589 50.6593C30.8589 50.42 30.659 50.2206 30.4192 50.2206ZM34.2566 50.2206C34.0167 50.2206 33.8169 50.42 33.8169 50.6593C33.8169 50.8987 34.0167 51.0981 34.2566 51.0981C34.4964 51.0981 34.6963 50.8987 34.6963 50.6593C34.6963 50.42 34.4964 50.2206 34.2566 50.2206ZM38.0939 50.2206C37.8541 50.2206 37.6542 50.42 37.6542 50.6593C37.6542 50.8987 37.8541 51.0981 38.0939 51.0981C38.3338 51.0981 38.5336 50.8987 38.5336 50.6593C38.4937 50.42 38.3338 50.2206 38.0939 50.2206Z" fill="white"/>
<path d="M33.9126 62.6722L35.6004 66.767L59.4439 56.9798L57.7561 52.8851L33.9126 62.6722Z" fill="#C7C7C7"/>
<path d="M21.3454 66.6149L23.9036 72.7977L40.5722 65.9368L38.014 59.7938L21.3454 66.6149Z" fill="#263238"/>
<path d="M58.7598 37.4559C64.4359 27.9224 76.8275 24.811 86.3809 30.4753C95.9344 36.1396 99.0523 48.5052 93.3761 58.0388C87.7 67.5723 75.3085 70.6836 65.755 65.0194C56.2415 59.3551 53.0837 46.9894 58.7598 37.4559ZM60.7584 38.6526C55.7219 47.0692 58.48 58.0388 66.9542 63.0648C75.3884 68.0908 86.3809 65.3385 91.4175 56.882C96.454 48.4653 93.6959 37.4958 85.2217 32.4698C76.7475 27.4437 65.795 30.236 60.7584 38.6526Z" fill="#37474F"/>
<path d="M73.9894 68.37C71.0314 68.0908 68.1134 67.1335 65.4752 65.5379C60.7185 62.7058 57.3608 58.1983 56.0017 52.8132C54.6426 47.4282 55.4421 41.8836 58.2801 37.1368C61.1182 32.39 65.6351 29.0393 71.0314 27.683C76.4277 26.3268 81.9839 27.1246 86.7407 29.9567C96.574 35.8204 99.8118 48.5451 93.9358 58.3179C91.0977 63.0648 86.5808 66.4154 81.1845 67.7717C78.7861 68.4099 76.3478 68.6094 73.9894 68.37ZM78.0666 28.3612C75.8281 28.1218 73.5497 28.3213 71.2713 28.8797C66.1947 30.1562 61.9576 33.3074 59.2795 37.775C56.6013 42.2426 55.8418 47.4681 57.1209 52.534C58.4001 57.5999 61.5579 61.8282 66.0348 64.5008C68.5531 66.0166 71.3112 66.8542 74.0694 67.1335C81.3843 67.8515 88.8193 64.421 92.8565 57.7196C98.3727 48.4653 95.3348 36.4986 86.0612 30.9938C83.5828 29.5179 80.8647 28.6404 78.0666 28.3612ZM74.1893 66.0564C71.5511 65.7772 68.9528 64.9396 66.6344 63.5434C57.9204 58.3578 55.0424 47.0293 60.2388 38.3335C62.7571 34.1052 66.7544 31.1135 71.5511 29.9168C76.3478 28.7202 81.3044 29.4382 85.5015 31.9512C89.7386 34.4642 92.7366 38.4531 93.9358 43.2398C95.1349 48.0265 94.4154 52.9728 91.8972 57.1612C89.3789 61.3894 85.3816 64.3811 80.5849 65.5778C78.4663 66.1362 76.3078 66.2958 74.1893 66.0564ZM61.2781 38.9717C56.4014 47.1091 59.0796 57.6797 67.274 62.5462C71.2313 64.8997 75.8681 65.5778 80.3451 64.421C84.822 63.3041 88.5794 60.5119 90.9378 56.5628C93.2962 52.6138 93.9757 47.9866 92.8165 43.5191C91.6973 39.0515 88.8992 35.3019 84.9419 32.9484C80.9846 30.595 76.3478 29.9168 71.8709 31.0736C67.3939 32.2304 63.6365 35.0227 61.2781 38.9717Z" fill="#37474F"/>
<g opacity="0.2">
<path d="M82.6635 31.9914C73.9494 28.3615 63.8763 32.4701 60.2388 41.2058C56.6013 49.9017 60.7185 59.9538 69.4725 63.5837C78.2265 67.2136 88.2596 63.105 91.8971 54.3693C95.5347 45.6335 91.4175 35.6214 82.6635 31.9914Z" fill="white"/>
<path d="M77.9869 30.7545C70.5919 29.9169 63.2769 33.9855 60.279 41.1656C59.6394 42.6415 59.2796 44.1573 59.0798 45.713L77.9869 30.7545Z" fill="#EBEBEB"/>
<path d="M91.8572 41.0858L65.9549 61.549C67.0341 62.3468 68.2333 63.0249 69.5125 63.5434C70.9914 64.1418 72.5104 64.5407 74.0294 64.7401L93.1763 49.6221C93.4561 46.6703 92.9764 43.7584 91.8572 41.0858Z" fill="#EBEBEB"/>
<path d="M84.2224 32.7091L59.5193 52.2149C59.7991 53.2919 60.1988 54.3291 60.7185 55.3662L87.0205 34.5839C86.1811 33.9058 85.2217 33.2676 84.2224 32.7091Z" fill="#EBEBEB"/>
<path d="M90.7779 39.0116L64.1161 60.0731C64.276 60.2327 64.396 60.3523 64.5558 60.5119L91.0577 39.57C91.0178 39.3706 90.8978 39.1712 90.7779 39.0116Z" fill="#EBEBEB"/>
<path d="M91.5374 55.1268L79.7055 64.4609C80.2251 64.3412 80.7048 64.2216 81.1845 64.062L90.8179 56.4831C91.0977 56.0443 91.3375 55.6055 91.5374 55.1268Z" fill="#EBEBEB"/>
</g>
<path d="M32.138 29.3185C29.6197 31.0338 18.7072 39.8493 17.4281 44.9152C16.6286 48.0266 22.1848 58.9163 23.6638 61.549C24.3034 62.7058 32.138 58.7966 32.4578 57.4404C32.7376 56.0842 27.1015 46.1917 27.0215 45.1545C27.0215 45.1545 32.0581 37.057 34.7362 32.7091C37.2945 28.6404 36.8148 26.0875 32.138 29.3185Z" fill="#EB9481"/>
<path d="M35.6956 64.8998C36.575 66.2959 38.8934 67.3729 38.1339 68.2903C37.4144 69.128 35.8955 68.2106 35.8955 68.2106C35.8955 68.2106 37.2945 69.7662 36.2952 70.4842C35.2959 71.1624 33.8169 69.846 33.8169 69.846C33.8169 69.846 35.056 71.1225 33.9768 71.7208C32.9375 72.3191 31.4585 71.4416 31.4585 71.4416C31.4585 71.4416 31.5784 72.0399 30.6191 72.1197C29.26 72.2394 27.2614 70.1651 26.4619 68.8089C25.6625 67.4527 23.7438 61.948 23.464 61.1103L32.0981 55.9247C32.0981 55.9247 34.6163 57.6798 35.7755 58.7169C36.9347 59.754 39.8528 64.2615 38.7735 65.0593C37.6942 65.8571 35.6956 62.6261 35.056 61.948C34.3765 61.2698 34.1367 61.3097 34.1766 61.8283C34.1766 62.1474 35.2959 64.2615 35.6956 64.8998Z" fill="#EB9481"/>
<path d="M35.8155 68.1308C33.7769 66.7346 33.1373 65.7374 32.178 63.5036C32.178 63.4637 32.0981 63.4637 32.0981 63.5435C32.8176 65.8172 33.4571 67.1734 35.7755 68.2504C35.8555 68.2903 35.9354 68.2105 35.8155 68.1308Z" fill="#263238"/>
<path d="M33.8569 69.8461C31.8582 68.2106 31.1387 67.1336 29.9795 64.8599C29.9795 64.82 29.8996 64.8599 29.9395 64.8998C30.8989 67.2134 31.5784 68.5297 33.7769 69.9258C33.8569 70.0056 33.9768 69.9258 33.8569 69.8461Z" fill="#263238"/>
<path d="M31.4185 71.3618C29.6198 69.6067 28.7803 68.5297 27.9009 66.1363C27.861 66.0964 27.781 66.0964 27.821 66.1762C28.4605 68.6493 29.4998 70.0455 31.3386 71.4017C31.4585 71.4815 31.5384 71.4416 31.4185 71.3618Z" fill="#263238"/>
<path d="M31.7783 38.8122L23.7438 35.3817C23.7438 35.3817 31.2186 29.3185 33.8968 28.1617C36.9347 26.8454 36.9347 28.6803 35.8155 31.6321C34.6563 34.544 31.7783 38.8122 31.7783 38.8122Z" fill="#7DB445"/>
<path d="M28.9402 31.3529C28.9402 31.5922 28.7403 31.7517 28.5005 31.7517C28.4605 31.7517 28.4206 31.7517 28.4206 31.7517C28.5805 31.5922 28.7803 31.4725 28.9402 31.3529ZM32.3379 30.8742C32.098 30.8742 31.8982 31.0736 31.8982 31.313C31.8982 31.5523 32.098 31.7517 32.3379 31.7517C32.5777 31.7517 32.7776 31.5523 32.7776 31.313C32.7776 31.0736 32.5777 30.8742 32.3379 30.8742ZM35.7356 31.313C35.7356 31.3927 35.7755 31.5124 35.8155 31.5523C35.8954 31.313 35.9754 31.0736 36.0553 30.8742C35.8555 30.954 35.7356 31.1135 35.7356 31.313ZM34.2566 28.1218C34.0167 28.1218 33.8169 28.3213 33.8169 28.5606C33.8169 28.7999 34.0167 28.9994 34.2566 28.9994C34.4964 28.9994 34.6963 28.7999 34.6963 28.5606C34.6963 28.3213 34.4964 28.1218 34.2566 28.1218ZM28.5005 36.4188C28.2607 36.4188 28.0608 36.6182 28.0608 36.8576C28.0608 37.0969 28.2607 37.2963 28.5005 37.2963C28.7403 37.2963 28.9402 37.0969 28.9402 36.8576C28.9402 36.5783 28.7403 36.4188 28.5005 36.4188ZM32.3379 36.4188C32.098 36.4188 31.8982 36.6182 31.8982 36.8576C31.8982 37.0969 32.098 37.2963 32.3379 37.2963C32.5777 37.2963 32.7776 37.0969 32.7776 36.8576C32.7776 36.5783 32.5777 36.4188 32.3379 36.4188ZM26.6218 33.6265C26.382 33.6265 26.1821 33.826 26.1821 34.0653C26.1821 34.3047 26.382 34.5041 26.6218 34.5041C26.8616 34.5041 27.0615 34.3047 27.0615 34.0653C27.0215 33.826 26.8616 33.6265 26.6218 33.6265ZM30.4192 33.6265C30.1794 33.6265 29.9795 33.826 29.9795 34.0653C29.9795 34.3047 30.1794 34.5041 30.4192 34.5041C30.659 34.5041 30.8589 34.3047 30.8589 34.0653C30.8589 33.826 30.659 33.6265 30.4192 33.6265ZM34.2566 33.6265C34.0167 33.6265 33.8169 33.826 33.8169 34.0653C33.8169 34.3047 34.0167 34.5041 34.2566 34.5041C34.2965 34.5041 34.3765 34.5041 34.4165 34.4642C34.4964 34.3047 34.6163 34.1052 34.6963 33.9456C34.6163 33.7861 34.4564 33.6265 34.2566 33.6265Z" fill="white"/>
<path d="M25.4626 34.4243C25.7424 34.5041 28.3006 35.5412 28.8203 35.7805C29.3799 36.0199 31.5784 36.9772 32.138 37.2564C32.178 37.2564 32.138 37.2963 32.138 37.2963C31.5384 37.0969 29.3 36.1794 28.7403 35.9401C28.1807 35.7008 25.7024 34.6238 25.4626 34.4243Z" fill="#263238"/>
<path d="M31.1387 38.533C31.3785 38.6127 31.7783 38.7723 31.7783 38.7723C32.3379 37.9346 34.8961 33.467 35.4957 32.39H35.5357C35.2159 33.0282 34.8961 33.6266 34.5763 34.2648C34.6163 34.185 34.6963 34.1053 34.7362 34.0654C34.9361 33.826 35.136 33.5867 35.2959 33.3075C35.2959 33.2676 35.3358 33.3075 35.3358 33.3474C35.1759 33.6266 35.016 33.9058 34.8162 34.1451C34.6963 34.3047 34.5364 34.5041 34.3765 34.6637C34.1766 35.0227 34.0167 35.3817 33.8169 35.7407C33.2173 36.8177 32.6177 37.9745 31.9382 39.0116C31.9382 39.0116 31.3785 38.8122 31.1387 38.6526C31.0588 38.5728 31.0987 38.533 31.1387 38.533Z" fill="#263238"/>
<path d="M55.522 63.6632C54.6027 64.5008 53.6433 63.9025 53.6433 63.9025C53.6433 63.9025 53.8832 65.4183 52.8039 66.0964C52.2443 66.4554 51.205 65.8571 51.205 65.8571C51.205 65.8571 51.3249 67.0537 50.3256 67.6122C49.5261 68.051 48.6068 67.4127 48.6068 67.4127C48.6068 67.4127 48.1671 68.6493 47.2477 68.8089C45.329 69.1679 40.932 62.8654 42.5709 60.2726C43.3304 59.0759 44.3297 60.6715 44.3297 60.6715C44.3297 60.6715 43.4503 58.0388 44.7294 57.0814C46.0085 56.1241 47.1677 58.2781 47.1677 58.2781C47.1677 58.2781 46.3283 55.7252 47.7673 54.8875C49.2463 54.01 50.0458 56.3634 50.0458 56.3634C50.0458 56.3634 50.0058 54.2892 51.245 53.8903C53.2836 53.2521 53.1237 57.8393 54.4428 58.9961L57.4407 57.7596C57.4807 57.7596 56.5613 62.7457 55.522 63.6632Z" fill="#EB9481"/>
<path d="M48.4868 67.2931C48.4868 67.3329 48.5268 67.3329 48.4868 67.2931C46.4882 65.6177 44.8893 63.1047 44.3297 60.5518C44.3297 60.472 44.4496 60.3922 44.4896 60.472C45.5688 63.0249 46.728 65.1789 48.4868 67.2931Z" fill="#263238"/>
<path d="M51.245 65.8571C51.245 65.8969 51.245 65.8969 51.205 65.8969C49.2064 64.1019 47.4476 61.2698 47.1278 58.2382C47.1278 58.1185 47.2077 58.0388 47.2477 58.1584C47.6074 60.1529 49.6461 63.9424 51.245 65.8571Z" fill="#263238"/>
<path d="M50.1657 56.1241C50.5654 58.9961 51.8845 61.4693 53.5634 63.8227C53.6033 63.8626 53.5234 63.8626 53.5234 63.8626C52.3642 62.9452 51.4448 61.3496 50.8452 60.0332C50.2456 58.7967 49.9658 57.5202 50.0858 56.164C50.0458 56.0842 50.1657 56.0842 50.1657 56.1241Z" fill="#263238"/>
<path d="M44.3297 60.472C44.1298 59.9535 44.0499 59.395 44.0099 58.8366C43.9699 58.2781 44.0898 57.6798 44.4496 57.2011C44.6495 56.9618 44.8893 56.8022 45.2091 56.7224C45.5289 56.6426 45.8486 56.7224 46.0885 56.882C46.6081 57.2011 46.9279 57.6798 47.2077 58.1584L46.9679 58.2781C46.808 57.7197 46.728 57.1612 46.768 56.5629C46.808 56.0044 47.0079 55.4061 47.4476 54.9673C47.6474 54.7679 47.9272 54.6083 48.247 54.5285C48.5668 54.4487 48.8866 54.5285 49.1264 54.6881C49.646 55.0471 49.9259 55.5656 50.1257 56.0842L49.9259 56.1241C49.9658 55.8449 50.0058 55.5656 50.0857 55.3263C50.1657 55.0471 50.2856 54.8077 50.4055 54.5684C50.5654 54.3291 50.7653 54.1296 51.0051 53.9701C51.245 53.8504 51.5248 53.8105 51.8046 53.8504C51.5248 53.8504 51.245 53.8903 51.0451 54.0499C50.8053 54.2094 50.6454 54.4089 50.5254 54.6482C50.2856 55.1269 50.1657 55.6454 50.1257 56.164L50.0857 56.5629L49.9259 56.164C49.726 55.6853 49.4062 55.1667 48.9665 54.9274C48.7666 54.8077 48.4868 54.728 48.247 54.8077C48.0072 54.8476 47.7673 55.0072 47.6074 55.2066C47.2477 55.5656 47.0878 56.0842 47.0478 56.6427C47.0079 57.1612 47.0478 57.7197 47.2077 58.2382L47.4875 59.3551L46.9279 58.3579C46.6881 57.8792 46.3283 57.4404 45.9286 57.1612C45.7287 57.0415 45.4489 56.9618 45.2091 57.0017C44.9692 57.0415 44.7294 57.2011 44.5695 57.4005C44.2098 57.7994 44.0898 58.3579 44.0898 58.8764C44.1298 59.395 44.2098 59.9535 44.3297 60.472Z" fill="#263238"/>
<path d="M37.0547 29.1194C37.0147 29.5183 37.9341 32.1909 39.7728 32.5499C40.7321 32.7095 41.3317 30.1167 41.3317 30.1167L41.4517 29.9172L43.2105 26.9654L40.2525 23.3754L39.8128 22.8967C39.8128 22.8967 39.3731 23.7344 38.8534 24.7715C38.8135 24.8114 38.8135 24.8513 38.7735 24.9311C38.7335 24.971 38.6935 25.0507 38.6935 25.0906C38.6136 25.2502 38.5337 25.4097 38.4537 25.5693C38.4137 25.689 38.3338 25.8086 38.2938 25.9283C38.2139 26.048 38.1739 26.1676 38.1339 26.3272C37.5743 27.6037 37.0946 28.9599 37.0547 29.1194Z" fill="#EB9481"/>
<path d="M38.8934 24.7712C38.9734 27.6033 40.6922 29.2787 41.4916 29.9169L43.2504 26.9651L40.2925 23.3751L39.8528 22.8964C39.8128 22.8565 39.4131 23.6942 38.8934 24.7712Z" fill="#263238"/>
<path d="M49.4462 23.8937C47.9672 29.7175 44.2897 29.4782 43.0106 29.159C41.8514 28.8798 38.014 27.723 38.8934 21.7795C39.7728 15.8361 42.9706 14.6793 45.6088 15.1978C48.287 15.7164 50.9652 18.03 49.4462 23.8937Z" fill="#EB9481"/>
<path d="M39.1732 21.3806C40.5323 21.8593 41.2518 19.7451 41.2518 19.7451C41.2518 19.7451 42.8507 20.144 43.81 17.7108C43.81 17.7108 44.0099 19.4659 46.0085 20.503C46.4083 20.7025 45.329 19.067 45.329 19.067C45.329 19.067 46.5282 21.3008 50.0458 21.8194C50.2856 21.8593 51.0051 18.2294 48.8466 16.1551C46.6881 14.0809 44.1298 13.9213 41.9713 14.9983C41.9713 14.9983 40.2924 15.1579 39.453 16.8731C38.6136 18.5485 38.6136 21.1812 39.1732 21.3806Z" fill="#263238"/>
<path d="M39.8927 22.0588C39.8927 22.0588 39.2931 19.8649 38.2938 20.0244C37.3345 20.184 37.3744 23.0959 38.1739 23.774C39.0133 24.4521 39.6529 23.6942 39.6529 23.6942L39.8927 22.0588Z" fill="#EB9481"/>
<path d="M38.3738 20.8621C38.3338 20.8222 38.3338 20.8621 38.3738 20.8621C38.9334 21.3806 39.0533 22.1385 39.0933 22.8565C38.9734 22.5374 38.7735 22.2981 38.3338 22.4178C38.2938 22.4178 38.3338 22.4577 38.3338 22.4577C38.6136 22.4975 38.8135 22.6172 38.8934 22.8964C38.9734 23.0959 38.9734 23.3352 39.0133 23.5347C39.0133 23.6144 39.1332 23.6144 39.1332 23.5347C39.493 22.6571 39.2532 21.261 38.3738 20.8621Z" fill="#263238"/>
<path d="M48.4469 23.1756C48.327 23.1357 48.207 23.056 48.0871 22.9762C47.9672 22.8964 47.8473 22.8565 47.7673 22.697C47.7274 22.6172 47.7673 22.4975 47.8473 22.4576C48.0072 22.338 48.207 22.4177 48.3669 22.4975C48.5668 22.5773 48.6867 22.7369 48.7667 22.8964C48.8466 23.056 48.6068 23.2554 48.4469 23.1756Z" fill="#263238"/>
<path d="M44.9293 21.2609C45.0492 21.3008 45.2091 21.3008 45.329 21.3407C45.4889 21.3806 45.6088 21.4205 45.7687 21.3407C45.8486 21.3008 45.8886 21.1811 45.8486 21.1014C45.7687 20.9019 45.6088 20.8221 45.4089 20.7823C45.2091 20.7424 45.0492 20.7823 44.8493 20.862C44.6894 20.9418 44.7294 21.221 44.9293 21.2609Z" fill="#263238"/>
<path d="M45.2899 23.0161C45.2899 23.0161 45.2498 23.0161 45.2498 23.056C45.1298 23.4549 44.9697 23.8937 44.5695 23.8937V23.9336C45.0097 23.9735 45.2498 23.415 45.2899 23.0161Z" fill="#263238"/>
<path d="M45.0492 22.4975C44.4496 22.2582 44.0099 23.4947 44.5695 23.7341C45.1291 23.9335 45.5688 22.6969 45.0492 22.4975Z" fill="#263238"/>
<path d="M44.8103 22.4576C44.6902 22.4975 44.5302 22.5772 44.3701 22.5373C44.21 22.4975 44.13 22.3379 44.09 22.1783H44.0499C43.9699 22.4177 43.9699 22.6969 44.21 22.8166C44.4501 22.9362 44.6902 22.7767 44.8103 22.5373C44.8503 22.5373 44.8503 22.4576 44.8103 22.4576Z" fill="#263238"/>
<path d="M44.21 26.1274C44.25 26.2471 44.2901 26.4067 44.4501 26.4864C44.5702 26.5662 44.7703 26.5662 44.8903 26.5662C44.8903 26.5662 44.9304 26.5662 44.8903 26.6061C44.7303 26.7258 44.4901 26.7258 44.3301 26.6061C44.17 26.5263 44.13 26.3269 44.17 26.1673C44.17 26.1274 44.21 26.1274 44.21 26.1274Z" fill="#263238"/>
<path d="M46.3283 25.2498C46.3283 25.2498 46.2084 25.8481 46.1285 26.1273C46.1285 26.1672 46.0485 26.1273 45.9686 26.1273C45.4489 26.0476 45.0092 25.7285 44.8493 25.2099C44.8493 25.17 44.8893 25.17 44.8893 25.17C45.1691 25.5689 45.5289 25.7683 45.9686 25.888C46.0085 25.8082 46.1285 24.8509 46.1684 24.8509C46.3283 24.8908 46.5682 25.0902 46.7281 25.2099C47.0079 23.9334 47.0478 22.657 47.3676 21.4204C47.3676 21.3805 47.4476 21.3805 47.4476 21.4204C47.4875 22.7767 47.2077 24.2127 46.9279 25.529C46.9279 25.7285 46.4083 25.3695 46.3283 25.2498Z" fill="#263238"/>
<path d="M48.767 23.9733C48.6871 23.8936 48.5672 23.8537 48.4872 23.8138C48.3673 23.7739 48.2474 23.734 48.1674 23.734C48.0475 23.734 47.9276 23.734 47.8077 23.7739C47.6878 23.8138 47.5679 23.8936 47.4879 23.9733L47.328 24.1329L47.5679 24.1728C47.7277 24.2127 47.8876 24.2526 48.0475 24.2925C48.2074 24.3722 48.3273 24.452 48.4473 24.5717C48.4073 24.3722 48.2874 24.2526 48.1275 24.1329C47.9676 24.0132 47.8077 23.9733 47.6078 23.9335L47.6878 24.1329C47.8077 24.0132 48.0076 23.9335 48.2074 23.9335C48.3273 23.9335 48.5672 23.9335 48.767 23.9733Z" fill="#263238"/>
<path d="M47.8879 24.6515C47.7279 24.5318 47.5678 24.4919 47.4477 24.3324C47.4077 24.2925 47.3277 24.1728 47.3277 24.1329C47.3677 24.0531 47.4077 23.9734 47.4878 23.9335C47.4077 23.9734 47.3277 24.0531 47.2877 24.1329C47.2877 24.2127 47.3277 24.3324 47.4077 24.4121C47.5678 24.5318 47.7279 24.6116 47.8879 24.6515Z" fill="#263238"/>
<path d="M75.7082 11.0493C75.1486 16.5141 70.232 20.503 64.7557 19.9047C62.5572 19.6653 60.5986 18.7479 59.0396 17.3518L54.043 18.0698L56.5213 13.7617C55.9218 12.2858 55.6419 10.6504 55.8418 8.97504C56.4014 3.51022 61.3181 -0.438807 66.7943 0.119642C72.3105 0.71798 76.2678 5.62435 75.7082 11.0493Z" fill="white"/>
<path d="M75.7082 11.0493C75.5084 12.8842 74.8288 14.6394 73.7096 16.0754C73.4298 16.4344 73.11 16.7535 72.7902 17.1125C72.4305 17.4316 72.1107 17.7507 71.7509 17.99C71.0314 18.5485 70.192 18.9873 69.3526 19.3064C68.5131 19.6654 67.5938 19.825 66.6744 19.9446C66.1947 19.9845 65.755 20.0244 65.2754 19.9845C64.7957 19.9845 64.356 19.9047 63.9163 19.825C62.0775 19.5058 60.3587 18.6283 58.9997 17.3917L59.1196 17.4316L54.123 18.1895L53.7632 18.2294L53.9631 17.9103L56.4414 13.6022V13.7618C55.2422 10.9297 55.522 7.53908 57.041 4.90639C57.8005 3.59005 58.8797 2.43326 60.1589 1.59559C61.438 0.757917 62.917 0.199468 64.396 2.2158e-05C65.9149 -0.199424 67.4739 -0.0797563 68.9129 0.398914C70.3519 0.877584 71.671 1.71526 72.7502 2.75238C74.9088 4.94628 76.028 8.05764 75.7082 11.0493ZM75.7082 11.0493C76.028 8.05764 74.8688 4.94628 72.6703 2.87204C71.591 1.83493 70.2719 1.07703 68.8329 0.59836C67.3939 0.159579 65.8749 0.0399113 64.396 0.279247C62.917 0.518582 61.5179 1.03714 60.2788 1.9147C59.0796 2.75238 58.0403 3.86927 57.2808 5.14573C56.5213 6.42218 56.1216 7.89808 56.0017 9.33409C55.9218 10.81 56.1616 12.2859 56.7212 13.682L56.7612 13.7618L56.7212 13.8416L54.2029 18.1496L54.043 17.8704L59.0396 17.1923H59.1196L59.1595 17.2322C60.4786 18.4687 62.1575 19.3463 63.9163 19.6654C64.356 19.7452 64.7957 19.825 65.2754 19.825C65.7151 19.8648 66.1947 19.825 66.6344 19.825C67.5538 19.7452 68.4332 19.5856 69.3126 19.2266C70.152 18.9075 70.9914 18.5086 71.711 17.9502C72.1107 17.7108 72.4305 17.3518 72.7502 17.0726C73.07 16.7535 73.3898 16.4344 73.6696 16.0355C74.8288 14.6394 75.5084 12.8842 75.7082 11.0493Z" fill="#263238"/>
<path d="M66.5545 11.4882V12.6051C66.5545 13.0837 66.1947 13.4427 65.7151 13.4427C65.2754 13.4427 64.8756 13.0837 64.8756 12.6051V10.81C64.8756 10.81 64.8756 10.81 64.8756 10.7702C64.8756 10.7702 64.8756 10.7702 64.8756 10.7303C64.8756 10.2915 65.2754 9.89259 65.7151 9.89259C66.8343 9.89259 67.7137 9.01503 67.7137 7.93802C67.7137 6.86101 66.8343 5.98345 65.7151 5.98345C64.9955 5.98345 64.356 6.38234 64.0362 6.94079C63.7964 7.33968 63.2767 7.49924 62.837 7.25991C62.4373 7.02057 62.2774 6.50201 62.5572 6.10312C63.1968 5.02611 64.356 4.30811 65.7151 4.30811C67.7537 4.30811 69.3925 5.94356 69.3925 7.97791C69.3526 9.69315 68.1534 11.1292 66.5545 11.4882ZM66.5545 15.3175V15.6366C66.5545 16.1153 66.1947 16.4743 65.7151 16.4743C65.2754 16.4743 64.8756 16.1153 64.8756 15.6366V15.3175C64.8756 14.8389 65.2754 14.4799 65.7151 14.4799C66.1947 14.4799 66.5545 14.8389 66.5545 15.3175Z" fill="#0067C5"/>
</g>
<defs>
<clipPath id="clip0_289_7816">
<rect width="234" height="144" fill="white"/>
</clipPath>
</defs>
</svg>
