<svg width="16" height="16" viewBox="0 0 16 16" fill="none" xmlns="http://www.w3.org/2000/svg">
<path d="M15.1702 7.05457L14.1577 5.86957C13.9702 5.64457 13.8127 5.22457 13.8127 4.92457V3.64957C13.8127 2.85457 13.1602 2.20207 12.3652 2.20207H11.0902C10.7902 2.20207 10.3627 2.04457 10.1377 1.85707L8.95266 0.84457C8.43516 0.40207 7.58766 0.40207 7.07016 0.84457L5.87016 1.85707C5.64516 2.04457 5.22516 2.20207 4.92516 2.20207H3.62766C2.83266 2.20207 2.18016 2.85457 2.18016 3.64957V4.92457C2.18016 5.21707 2.03016 5.63707 1.84266 5.86207L0.830156 7.05457C0.395156 7.57957 0.395156 8.41957 0.830156 8.92957L1.84266 10.1221C2.03016 10.3396 2.18016 10.7671 2.18016 11.0596V12.3421C2.18016 13.1371 2.83266 13.7896 3.62766 13.7896H4.93266C5.22516 13.7896 5.65266 13.9471 5.87766 14.1346L7.06266 15.1471C7.58016 15.5896 8.42766 15.5896 8.94516 15.1471L10.1302 14.1346C10.3552 13.9471 10.7752 13.7896 11.0752 13.7896H12.3502C13.1452 13.7896 13.7977 13.1371 13.7977 12.3421V11.0671C13.7977 10.7671 13.9552 10.3471 14.1427 10.1221L15.1552 8.93707C15.6127 8.42707 15.6127 7.57957 15.1702 7.05457ZM7.43766 5.09707C7.43766 4.78957 7.69266 4.53457 8.00016 4.53457C8.30766 4.53457 8.56266 4.78957 8.56266 5.09707V8.71957C8.56266 9.02707 8.30766 9.28207 8.00016 9.28207C7.69266 9.28207 7.43766 9.02707 7.43766 8.71957V5.09707ZM8.00016 11.6521C7.58766 11.6521 7.25016 11.3146 7.25016 10.9021C7.25016 10.4896 7.58016 10.1521 8.00016 10.1521C8.41266 10.1521 8.75016 10.4896 8.75016 10.9021C8.75016 11.3146 8.42016 11.6521 8.00016 11.6521Z" fill="#0EA882"/>
</svg>
