<svg width="603" height="474" viewBox="0 0 603 474" fill="none" xmlns="http://www.w3.org/2000/svg">
<path d="M431.038 47.5132H214.199V229.458H431.038V47.5132Z" fill="white" stroke="#002FAD" stroke-width="0.7071" stroke-miterlimit="10"/>
<path d="M271.897 92.0098V61.8428C255.304 61.8428 241.728 75.2294 241.728 92.0098C241.728 108.602 255.115 122.177 271.897 122.177C288.49 122.177 302.066 108.79 302.066 92.0098C302.066 89.7473 301.877 87.6733 301.311 85.5993L271.897 92.0098Z" fill="#FF3BAF"/>
<path d="M304.894 80.5085C302.066 66.9333 289.998 56.752 275.479 56.752V86.919L304.894 80.5085Z" fill="#FFB0CA"/>
<path d="M237.203 142.539H234.751C233.054 142.539 231.546 141.22 231.546 139.334V136.883C231.546 135.186 232.866 133.678 234.751 133.678H237.203C238.9 133.678 240.408 134.998 240.408 136.883V139.334C240.408 141.031 238.9 142.539 237.203 142.539Z" fill="#ACF85F"/>
<path d="M237.203 156.303H234.751C233.054 156.303 231.546 154.983 231.546 153.098V150.647C231.546 148.95 232.866 147.441 234.751 147.441H237.203C238.9 147.441 240.408 148.761 240.408 150.647V153.098C240.408 154.983 238.9 156.303 237.203 156.303Z" fill="#ACF85F"/>
<path d="M237.203 170.255H234.751C233.054 170.255 231.546 168.935 231.546 167.05V164.599C231.546 162.902 232.866 161.394 234.751 161.394H237.203C238.9 161.394 240.408 162.713 240.408 164.599V167.05C240.408 168.747 238.9 170.255 237.203 170.255Z" fill="#ACF85F"/>
<path d="M308.665 140.842H250.59C249.459 140.842 248.516 139.9 248.516 138.768C248.516 137.637 249.459 136.694 250.59 136.694H308.665C309.796 136.694 310.739 137.637 310.739 138.768C310.739 139.9 309.796 140.842 308.665 140.842Z" fill="#8FBCFF"/>
<path d="M302.443 154.041H250.59C249.459 154.041 248.516 153.098 248.516 151.967C248.516 150.835 249.459 149.893 250.59 149.893H302.443C303.574 149.893 304.517 150.835 304.517 151.967C304.517 153.098 303.574 154.041 302.443 154.041Z" fill="#8FBCFF"/>
<path d="M319.978 167.427H250.59C249.459 167.427 248.516 166.485 248.516 165.353C248.516 164.222 249.459 163.279 250.59 163.279H319.978C321.11 163.279 322.053 164.222 322.053 165.353C322.053 166.485 321.11 167.427 319.978 167.427Z" fill="#8FBCFF"/>
<path d="M354.107 182.699H235.506C234.374 182.699 233.432 181.757 233.432 180.625C233.432 179.494 234.374 178.551 235.506 178.551H354.107C355.238 178.551 356.181 179.494 356.181 180.625C356.37 181.757 355.427 182.699 354.107 182.699Z" fill="#8FBCFF"/>
<path d="M354.107 194.012H235.506C234.374 194.012 233.432 193.069 233.432 191.938C233.432 190.807 234.374 189.864 235.506 189.864H354.107C355.238 189.864 356.181 190.807 356.181 191.938C356.37 193.069 355.427 194.012 354.107 194.012Z" fill="#8FBCFF"/>
<path d="M354.107 205.89H235.506C234.374 205.89 233.432 204.947 233.432 203.816C233.432 202.685 234.374 201.742 235.506 201.742H354.107C355.238 201.742 356.181 202.685 356.181 203.816C356.37 204.947 355.427 205.89 354.107 205.89Z" fill="#8FBCFF"/>
<path d="M354.107 217.014H235.506C234.374 217.014 233.432 216.071 233.432 214.94C233.432 213.809 234.374 212.866 235.506 212.866H354.107C355.238 212.866 356.181 213.809 356.181 214.94C356.37 216.071 355.427 217.014 354.107 217.014Z" fill="#8FBCFF"/>
<path d="M214.199 245.485H541.908" stroke="#002FAD" stroke-width="0.7071" stroke-miterlimit="10"/>
<mask id="mask0_537_14929" style="mask-type:luminance" maskUnits="userSpaceOnUse" x="183" y="0" width="376" height="284">
<path d="M216.65 283.948H524.938C543.417 283.948 558.501 268.864 558.501 250.387V34.3153C558.501 15.8379 543.417 0.754395 524.938 0.754395H216.65C198.172 0.754395 183.087 15.8379 183.087 34.3153V250.575C183.087 268.864 197.983 283.948 216.65 283.948Z" fill="white"/>
</mask>
<g mask="url(#mask0_537_14929)">
<path d="M363.723 126.891C363.723 126.891 354.107 118.595 355.804 115.389C357.501 112.373 360.329 114.635 360.329 114.635C360.329 114.635 357.501 112.184 359.198 110.299C360.895 108.413 362.78 109.356 362.78 109.356C362.78 109.356 361.083 105.774 363.346 104.831C365.609 103.888 368.814 105.208 368.814 105.208C368.814 105.208 367.871 102.38 368.249 101.249C368.437 100.306 370.134 98.4205 374.471 100.117C378.808 101.814 387.858 108.602 390.875 110.676C393.892 112.75 397.098 117.275 397.286 115.955C397.663 114.635 400.114 106.905 403.508 105.02C406.902 103.134 408.222 102.946 408.222 107.471C408.222 111.996 406.148 124.251 410.862 134.244C415.576 144.237 416.707 150.459 421.987 158.755C427.266 167.051 429.718 171.199 429.718 171.199L397.852 190.242C397.852 190.242 376.168 144.614 375.979 144.237C375.979 144.237 368.626 131.981 363.723 126.891Z" fill="white"/>
<path d="M359.575 114.446C359.575 114.446 356.935 108.225 363.346 109.733C369.946 111.43 378.053 118.783 381.825 122.742" stroke="#002FAD" stroke-width="0.6681" stroke-miterlimit="10"/>
<path d="M387.293 136.884C387.293 136.884 385.973 129.153 396.909 127.645C396.909 127.645 395.212 111.242 403.697 105.397C412.371 99.5519 405.583 116.898 409.165 128.588C412.748 140.277 416.896 151.779 421.61 158.189C426.135 164.788 429.906 171.576 429.906 171.576L397.852 190.619C397.852 190.619 390.121 174.215 378.242 148.762C366.363 123.308 352.976 120.857 355.804 115.39C359.386 108.791 374.848 127.833 374.848 127.833" stroke="#002FAD" stroke-width="0.6681" stroke-miterlimit="10"/>
<path d="M363.346 109.733C363.346 109.733 360.518 105.02 365.043 104.643C365.797 104.643 366.74 104.643 367.683 105.02C372.774 106.528 380.882 111.996 386.538 117.841" stroke="#002FAD" stroke-width="0.6681" stroke-miterlimit="10"/>
<path d="M397.286 117.463C397.286 117.463 386.538 104.077 372.585 100.117C367.494 98.609 367.117 103.888 371.831 106.716" stroke="#002FAD" stroke-width="0.6681" stroke-miterlimit="10"/>
<path d="M391.064 177.798L422.93 159.509C422.93 159.509 456.115 214.941 496.466 229.647L448.385 247.747L409.731 245.296C409.731 245.108 396.909 211.358 391.064 177.798Z" fill="white" stroke="#002FAD" stroke-width="0.6681" stroke-miterlimit="10"/>
<path d="M391.064 177.798C392.195 184.208 393.515 190.43 395.023 196.652L434.997 177.043C427.455 166.862 422.93 159.509 422.93 159.509L391.064 177.798Z" fill="#FF3BAF" stroke="#002FAD" stroke-width="0.6681" stroke-miterlimit="10"/>
<path d="M549.827 192.315C549.827 192.315 559.444 217.769 523.995 226.819C488.547 235.869 446.876 234.172 446.876 234.172C446.876 234.172 442.728 234.172 442.917 223.048C443.105 211.924 442.728 190.053 456.87 165.731C471.2 141.597 480.062 132.735 487.227 129.907C494.581 127.268 548.508 155.361 549.827 192.315Z" fill="white"/>
<path d="M550.77 199.857C550.393 197.217 549.827 192.315 549.827 192.315C549.45 183.642 546.245 175.535 541.531 167.993C517.773 174.969 476.291 173.084 458.755 162.902C458.19 163.845 457.624 164.788 457.058 165.919C449.893 178.174 446.499 189.864 444.802 199.857C464.978 209.096 517.396 215.883 550.77 199.857Z" fill="#FF3BAF"/>
<path d="M484.776 130.096C484.776 130.096 436.129 171.387 443.859 232.475" stroke="#002FAD" stroke-width="0.6681" stroke-miterlimit="10"/>
<path d="M506.271 128.022C506.271 128.022 517.962 128.022 528.709 131.981C539.457 135.941 556.238 141.409 573.774 158.378C573.774 158.378 599.229 183.265 601.303 205.137C603.377 227.008 601.114 240.206 573.397 254.912C573.397 254.912 553.221 262.643 530.783 258.495C508.345 254.347 489.113 249.256 474.971 250.953C460.829 252.838 454.984 252.838 447.442 260.003C439.9 267.168 433.677 273.578 433.677 273.578C433.677 273.578 431.792 276.218 429.718 276.029C427.455 275.841 427.832 274.332 428.209 273.012C428.586 271.881 429.906 269.053 427.078 271.881C424.25 274.709 422.93 276.029 421.233 275.841C419.536 275.652 419.724 273.012 420.101 271.316C420.478 269.619 421.233 266.79 421.233 266.79C421.233 266.79 421.61 264.905 418.781 268.11C415.953 271.316 414.256 272.07 412.748 271.316C411.428 270.561 411.993 266.979 412.748 264.905C413.502 262.831 416.142 258.306 416.142 258.306C416.142 258.306 413.125 260.191 411.805 260.757C410.485 261.323 407.657 259.249 408.599 256.421C409.542 253.592 415.953 240.771 430.095 233.795C444.236 226.819 457.812 222.483 472.708 221.163C487.604 219.843 501.934 219.466 513.436 218.335C524.938 217.203 535.309 214.564 539.268 211.924C543.228 209.285 549.827 205.514 544.359 193.07C538.891 180.626 527.389 167.805 527.389 167.805L509.099 147.819L506.271 128.022Z" fill="white"/>
<path d="M578.299 163.28C574.151 174.97 548.508 179.117 534.177 176.289C537.76 181.003 541.908 187.225 544.548 193.258C546.622 198.16 546.999 201.743 546.245 204.382C556.804 209.85 590.178 214.752 601.303 206.645C601.303 206.079 601.303 205.514 601.114 205.137C599.795 189.299 585.842 171.764 578.299 163.28Z" fill="#FF3BAF"/>
<path d="M503.631 235.115V221.351C503.631 221.351 503.82 219.654 502.689 219.654C501.557 219.843 492.129 220.597 489.301 220.408C486.473 220.408 484.399 220.408 484.399 220.408C484.399 220.408 482.513 220.597 482.702 221.351C482.89 222.105 483.644 241.903 483.644 241.903V248.69L484.022 250.198C484.022 250.198 483.833 250.953 484.776 250.953C485.719 250.953 490.998 251.518 490.998 251.518L498.352 252.461C498.352 252.461 503.82 253.404 503.82 252.65C503.631 252.084 503.631 235.115 503.631 235.115Z" fill="#FF3BAF"/>
<path d="M482.513 220.786L483.644 250.764" stroke="#002FAD" stroke-width="0.6681" stroke-miterlimit="10"/>
<path d="M503.631 219.843V253.592" stroke="#002FAD" stroke-width="0.6681" stroke-miterlimit="10"/>
<path d="M510.419 128.022C510.419 128.022 551.147 131.416 579.808 164.977C608.468 198.537 609.788 232.098 583.956 249.444C558.312 266.979 523.43 257.552 508.534 254.535C493.072 251.518 464.035 247.748 451.213 257.363C438.391 266.979 431.98 278.48 428.775 276.029C425.569 273.578 435.374 261.511 435.374 261.511C435.374 261.511 424.627 277.537 421.233 276.406C417.839 275.275 422.175 264.528 422.175 264.528" stroke="#002FAD" stroke-width="0.6681" stroke-miterlimit="10"/>
<path d="M523.618 163.845C523.618 163.845 551.336 191.561 545.868 206.456C540.588 221.163 480.25 220.974 480.25 220.974C480.25 220.974 439.523 223.614 419.913 241.903C419.913 241.903 406.714 253.592 408.977 259.626C411.239 265.848 418.781 255.101 418.781 255.101" stroke="#002FAD" stroke-width="0.6681" stroke-miterlimit="10"/>
<path d="M422.175 250.764C422.175 250.764 410.674 263.774 412.371 269.807C414.068 276.029 421.987 264.716 427.266 257.363" stroke="#002FAD" stroke-width="0.6681" stroke-miterlimit="10"/>
<path d="M521.356 94.2722C521.356 99.1744 517.396 103.134 512.305 103.134C507.402 103.134 503.254 99.1744 503.254 94.2722C503.254 89.3701 507.214 85.4106 512.305 85.4106C517.207 85.4106 521.356 89.3701 521.356 94.2722Z" stroke="#002FAD" stroke-width="1.3362" stroke-miterlimit="10"/>
<path d="M524.938 77.8691C526.447 96.1579 537.006 129.342 532.48 145.556C527.955 161.771 517.773 148.573 515.133 147.065C507.403 142.728 508.345 137.072 507.214 120.669C505.14 87.6734 518.527 77.8691 518.527 77.8691H524.938Z" fill="#002FAD"/>
<path d="M482.325 66.7451H493.638C501.18 66.7451 507.214 73.7212 507.214 82.2057V99.7403C507.214 100.306 507.214 100.683 507.214 101.249C507.402 101.814 507.403 102.38 507.403 102.757V113.316V113.881V124.44C507.403 128.211 504.197 131.416 500.426 131.416H495.901C492.13 131.416 488.924 128.211 488.924 124.44V115.012H482.325C474.782 115.012 468.749 108.036 468.749 99.5518V82.0172C468.56 73.7212 474.782 66.7451 482.325 66.7451Z" fill="white" stroke="#002FAD" stroke-width="0.6681" stroke-miterlimit="10"/>
<path d="M504.197 94.0839L502.123 80.3201C502.123 80.3201 464.223 85.0338 451.967 66.745C439.711 48.4562 452.533 41.103 458.755 42.0457C464.978 43.177 472.331 52.0385 472.331 52.0385C472.331 52.0385 466.486 44.1197 472.331 42.9884C478.176 41.6686 484.587 47.702 487.793 53.924C487.793 53.924 512.682 51.6614 521.167 66.745C529.652 81.8285 522.675 92.5755 507.402 108.036L506.46 99.3631L504.197 94.0839Z" fill="#002FAD"/>
<path d="M500.803 96.7235C500.803 100.306 497.975 103.134 494.392 103.134C490.81 103.134 487.981 100.306 487.981 96.7235C487.981 93.1411 490.81 90.313 494.392 90.313C497.786 90.313 500.803 93.1411 500.803 96.7235Z" fill="#FFB0CA"/>
<path d="M470.446 91.4443C470.069 91.4443 469.691 91.4443 469.314 91.6329V98.4205C469.314 99.3632 469.126 100.306 469.503 101.249C469.691 101.249 470.257 101.249 470.634 101.249C473.274 101.249 475.537 98.9861 475.537 96.3465C475.348 93.7069 473.085 91.4443 470.446 91.4443Z" fill="#FFB0CA"/>
<path d="M489.113 87.6732C489.113 88.993 488.17 89.9357 486.85 89.9357C485.53 89.9357 484.587 88.993 484.587 87.6732C484.587 86.3534 485.53 85.4106 486.85 85.4106C488.17 85.4106 489.113 86.3534 489.113 87.6732Z" fill="#002FAD"/>
<path d="M474.028 87.2961C474.028 88.4274 473.085 89.1815 472.143 89.1815C471.011 89.1815 470.257 88.2388 470.257 87.2961C470.257 86.3534 471.2 85.4106 472.143 85.4106C473.085 85.4106 474.028 86.1648 474.028 87.2961Z" fill="#002FAD"/>
<path d="M476.291 96.7235C476.291 96.7235 477.422 100.117 479.873 100.306C482.325 100.494 484.21 97.8547 484.399 95.7808L476.291 96.7235Z" fill="white"/>
<path d="M475.537 96.9118C475.914 98.2316 476.668 99.3629 477.799 100.306C479.685 101.814 482.136 101.06 483.456 99.3629C484.21 98.4202 484.776 97.1003 484.964 95.7805C484.964 95.4035 484.587 95.0264 484.21 95.0264C481.759 95.4035 479.496 95.592 477.045 95.9691C476.668 95.9691 476.291 95.9691 476.102 96.1576C475.914 96.1576 475.537 96.3462 475.537 96.9118C475.537 97.1004 475.914 97.4774 476.291 97.4774C478.742 97.1004 481.005 96.9118 483.456 96.5347C483.833 96.5347 484.21 96.5347 484.399 96.3462C484.21 96.1576 484.022 95.9691 483.644 95.592C483.456 97.1004 482.325 98.9858 480.816 99.3629C479.308 99.74 478.176 98.6087 477.422 97.2889C477.234 97.1003 477.234 96.7233 477.045 96.5347C477.045 96.3462 477.045 96.7233 477.045 96.5347C477.045 96.5347 477.045 96.5347 477.045 96.3462C477.045 96.3462 477.045 96.3462 477.045 96.1576C476.668 95.7805 475.348 95.9691 475.537 96.9118Z" fill="#002FAD"/>
<path d="M479.685 85.4106V93.141L475.537 90.6899L479.685 85.4106Z" fill="#FFB0CA"/>
<path d="M521.356 94.2722C521.356 99.1744 517.396 103.134 512.305 103.134C507.402 103.134 503.254 99.1744 503.254 94.2722C503.254 89.3701 507.214 85.4106 512.305 85.4106C517.207 85.4106 521.356 89.3701 521.356 94.2722Z" fill="white"/>
<path d="M508.345 95.4035C508.345 95.2149 508.345 95.0264 508.345 94.8378V94.6493V94.4608C508.345 94.2722 508.345 94.6493 508.345 94.4608C508.345 94.2722 508.345 93.8951 508.534 93.7066C508.534 93.518 508.534 93.518 508.722 93.3295V93.1409C508.722 93.1409 508.722 93.1409 508.722 92.9524L508.911 92.5753C508.911 92.3868 509.099 92.1982 509.099 92.1982L509.288 92.0097C509.477 91.8211 509.477 91.8211 509.665 91.6326L509.854 91.444C510.042 91.2555 510.231 91.2555 510.419 91.2555C510.231 91.2555 510.419 91.2555 510.608 91.2555C510.796 91.2555 510.796 91.2555 510.985 91.067C511.174 91.067 511.174 91.067 511.362 91.067C511.362 91.067 511.739 91.067 511.551 91.067C512.116 91.067 512.682 91.067 513.248 91.067C513.625 91.067 514.19 90.6899 514.19 90.1242C514.19 89.5586 513.813 89.3701 513.248 89.1815C511.362 88.993 509.288 89.3701 507.968 90.8784C507.025 92.0097 506.648 93.1409 506.648 94.6493C506.648 94.8378 506.648 95.2149 506.648 95.4035C506.648 95.7806 507.025 96.3462 507.591 96.3462C507.968 96.3462 508.345 95.9691 508.345 95.4035Z" fill="#002FAD"/>
<path d="M488.924 139.712H507.591C511.739 139.712 514.945 136.318 514.945 132.358V130.284C514.945 126.136 511.551 122.931 507.591 122.931H488.924C484.776 122.931 481.57 126.325 481.57 130.284V132.358C481.57 136.506 484.964 139.712 488.924 139.712Z" fill="#FF3BAF" stroke="#002FAD" stroke-width="0.6681" stroke-miterlimit="10"/>
</g>
<path d="M216.65 283.948H524.938C543.417 283.948 558.501 268.864 558.501 250.387V34.3153C558.501 15.8379 543.417 0.754395 524.938 0.754395H216.65C198.172 0.754395 183.087 15.8379 183.087 34.3153V250.575C183.087 268.864 197.983 283.948 216.65 283.948Z" stroke="#002FAD" stroke-width="0.7071" stroke-miterlimit="10"/>
<path d="M524.75 0.754395H216.65C199.492 0.754395 185.35 13.5754 183.464 30.1673H558.124C556.05 13.5754 541.908 0.754395 524.75 0.754395Z" fill="#FF3BAF" stroke="#002FAD" stroke-width="0.7071" stroke-miterlimit="10"/>
<path d="M219.29 16.5922C219.29 19.4204 217.027 21.8715 214.199 21.8715C211.371 21.8715 209.108 19.6089 209.108 16.5922C209.108 13.7641 211.371 11.313 214.199 11.313C217.027 11.313 219.29 13.5755 219.29 16.5922Z" fill="white" stroke="#002FAD" stroke-width="0.5738" stroke-miterlimit="10"/>
<path d="M239.842 16.5922C239.842 19.4204 237.58 21.8715 234.751 21.8715C231.923 21.8715 229.66 19.6089 229.66 16.5922C229.66 13.7641 231.923 11.313 234.751 11.313C237.391 11.313 239.842 13.5755 239.842 16.5922Z" fill="white" stroke="#002FAD" stroke-width="0.5738" stroke-miterlimit="10"/>
<path d="M260.206 16.5922C260.206 19.4204 257.944 21.8715 255.115 21.8715C252.287 21.8715 250.024 19.6089 250.024 16.5922C250.024 13.7641 252.287 11.313 255.115 11.313C257.944 11.313 260.206 13.5755 260.206 16.5922Z" fill="white" stroke="#002FAD" stroke-width="0.5738" stroke-miterlimit="10"/>
<path d="M183.841 29.9785H558.312" stroke="#002FAD" stroke-width="0.7071" stroke-miterlimit="10"/>
<path d="M0 453.072H573.963" stroke="#002FAD" stroke-width="0.7071" stroke-miterlimit="10"/>
<path d="M266.052 447.039H142.359V473.246H266.052V447.039Z" fill="white" stroke="#002FAD" stroke-width="0.7071" stroke-miterlimit="10"/>
<path d="M176.676 283.759C176.676 283.759 186.858 290.358 200.246 306.196C217.216 326.182 239.277 357.103 253.041 364.645C284.153 381.802 334.686 384.442 334.686 384.442L311.116 432.144L198.549 417.814L176.676 283.759Z" fill="white"/>
<path d="M246.819 360.12C240.597 354.841 233.243 346.545 225.889 337.683C218.536 347.676 199.492 351.447 187.801 350.693L193.835 388.024C209.296 387.647 241.162 379.917 246.819 360.12Z" fill="#9CE156"/>
<path d="M240.785 354.463C238.145 351.635 235.317 348.618 232.3 345.225C225.135 360.497 201.943 363.89 189.687 363.325L191.949 377.089C204.017 378.22 229.849 375.015 240.785 354.463Z" fill="white"/>
<path d="M176.676 283.759C176.676 283.759 186.858 290.358 200.246 306.196C217.216 326.182 239.277 357.103 253.041 364.645C284.153 381.802 334.686 384.442 334.686 384.442L311.116 432.144L198.549 417.814L176.676 283.759Z" stroke="#002FAD" stroke-width="0.7071" stroke-miterlimit="10"/>
<path d="M154.615 281.497C154.615 281.497 187.235 265.282 215.896 341.265C235.883 394.246 229.283 431.955 229.283 431.955L65.0516 430.07C65.2401 430.07 96.5403 302.614 154.615 281.497Z" fill="white"/>
<path d="M225.889 374.26C223.627 364.268 220.61 353.143 216.084 341.265C214.953 338.437 214.01 335.797 212.879 333.158C195.155 341.831 160.461 342.773 132.177 338.626L110.116 381.236C145.942 388.778 199.68 390.852 225.889 374.26Z" fill="#9CE156"/>
<path d="M222.118 359.366C221.175 355.972 220.044 352.389 218.724 348.807C194.212 358.234 155.181 357.857 124.258 353.521L118.036 365.399C147.639 370.678 186.293 372.752 222.118 359.366Z" fill="white"/>
<path d="M154.615 281.497C154.615 281.497 187.235 265.282 215.896 341.265C235.883 394.246 229.283 431.955 229.283 431.955L65.0516 430.07C65.2401 430.07 96.5403 302.614 154.615 281.497Z" stroke="#002FAD" stroke-width="0.7071" stroke-miterlimit="10"/>
<path d="M161.215 401.411L155.181 451.563C155.181 451.563 191.761 449.866 211.748 452.318C231.735 454.769 244.179 456.466 244.179 456.466C244.179 456.466 250.779 456.466 250.024 452.506C249.27 448.547 249.27 449.301 252.476 450.244C255.681 451.186 260.206 449.112 260.583 446.661C260.772 444.022 259.641 441.005 259.641 441.005C259.641 441.005 263.789 441.759 265.863 441.571C268.126 441.382 274.725 438.365 273.971 435.16C273.217 431.955 270.765 420.265 233.997 411.215C197.417 402.165 161.215 401.411 161.215 401.411Z" fill="white"/>
<path d="M152.541 451.563C152.541 451.563 199.114 448.17 237.391 455.711C240.597 456.277 253.23 458.351 249.459 450.244C245.688 442.325 226.644 437.8 217.404 436.668" stroke="#002FAD" stroke-width="0.7071" stroke-miterlimit="10"/>
<path d="M220.798 421.208C220.798 421.208 231.923 423.471 240.974 427.807C247.573 431.012 254.173 435.16 257.567 438.366C265.675 445.719 258.132 453.072 248.705 449.113" stroke="#002FAD" stroke-width="0.7071" stroke-miterlimit="10"/>
<path d="M158.952 401.222C158.952 401.222 207.034 401.411 247.385 414.986C287.924 428.561 274.348 447.038 258.887 439.874" stroke="#002FAD" stroke-width="0.7071" stroke-miterlimit="10"/>
<path d="M152.541 283.382C152.541 283.382 90.8837 281.685 44.122 351.258C-2.63977 421.019 3.01689 492.1 105.214 468.721C119.544 465.516 161.592 452.883 161.592 452.883L166.683 399.902C166.683 399.902 118.978 395.943 85.9812 394.057L152.541 283.382Z" fill="white"/>
<path d="M134.063 460.802C148.204 456.843 161.403 452.883 161.403 452.883L166.494 399.903C166.494 399.903 155.747 398.96 140.851 397.829L134.063 460.802Z" fill="#1E79FF" stroke="#002FAD" stroke-width="0.7071" stroke-miterlimit="10"/>
<path d="M139.72 407.821L165.552 409.518" stroke="#002FAD" stroke-width="0.7071" stroke-miterlimit="10"/>
<path d="M138.4 421.208H163.855" stroke="#002FAD" stroke-width="0.7071" stroke-miterlimit="10"/>
<path d="M137.08 434.406L163.477 432.521" stroke="#002FAD" stroke-width="0.7071" stroke-miterlimit="10"/>
<path d="M135.383 447.038L162.158 442.513" stroke="#002FAD" stroke-width="0.7071" stroke-miterlimit="10"/>
<path d="M64.2974 326.182C61.6576 347.676 120.675 352.012 131.046 340.134L106.911 387.27C106.911 387.27 45.0647 395.189 39.2195 358.8C47.7045 345.413 59.772 330.895 64.2974 326.182Z" fill="#9CE156"/>
<path d="M54.3039 336.74C55.2467 351.447 91.8265 367.661 121.43 358.988C112.756 376.523 112.379 376.335 112.379 376.335C112.379 376.335 51.0985 382.745 45.8189 348.618C50.7214 342.019 54.3039 336.74 54.3039 336.74Z" fill="white"/>
<path d="M152.541 283.382C152.541 283.382 90.8837 281.685 44.1219 351.258C-2.63978 421.019 3.01689 492.1 105.214 468.721C119.544 465.516 161.592 452.883 161.592 452.883L166.683 399.902C166.683 399.902 118.978 395.943 85.9812 394.057" stroke="#002FAD" stroke-width="0.7071" stroke-miterlimit="10"/>
<path d="M102.763 395L132.177 338.625" stroke="#002FAD" stroke-width="0.7071" stroke-miterlimit="10"/>
<path d="M131.8 237.754C131.8 243.788 136.703 248.69 142.925 248.69C148.959 248.69 154.05 243.788 154.05 237.754C154.05 231.721 149.147 226.819 142.925 226.819C136.703 226.819 131.8 231.721 131.8 237.754Z" stroke="#002FAD" stroke-width="1.4141" stroke-miterlimit="10"/>
<path d="M176.299 281.874C176.299 286.965 169.134 291.113 160.461 291.113C151.787 291.113 144.622 286.965 144.622 281.874C144.622 276.783 151.787 272.635 160.461 272.635C169.323 272.635 176.299 276.783 176.299 281.874Z" fill="#1E79FF" stroke="#002FAD" stroke-width="0.7071" stroke-miterlimit="10"/>
<path d="M179.882 203.816H165.929C156.69 203.816 149.147 212.489 149.147 222.859V244.353C149.147 244.919 149.147 245.485 149.147 246.239C148.959 246.804 148.959 247.559 148.959 248.124V261.134V261.888V274.898C148.959 279.611 152.918 283.571 157.632 283.571H163.1C167.814 283.571 171.774 279.611 171.774 274.898V263.396H179.882C189.121 263.396 196.663 254.723 196.663 244.353V222.859C196.663 212.489 189.121 203.816 179.882 203.816Z" fill="white" stroke="#002FAD" stroke-width="0.7071" stroke-miterlimit="10"/>
<path d="M168.946 230.024C168.946 231.721 170.265 233.229 172.151 233.229C173.848 233.229 175.356 231.91 175.356 230.024C175.356 228.139 174.037 226.819 172.151 226.819C170.454 226.819 168.946 228.139 168.946 230.024Z" fill="#002FAD"/>
<path d="M189.498 229.458C189.498 230.967 190.629 232.098 192.138 232.098C193.646 232.098 194.778 230.967 194.778 229.458C194.778 227.95 193.646 226.819 192.138 226.819C190.629 226.819 189.498 227.95 189.498 229.458Z" fill="#002FAD"/>
<path d="M186.481 242.28C186.481 242.28 184.973 246.805 181.579 247.182C178.185 247.559 175.734 243.788 175.545 240.96L186.481 242.28Z" fill="white"/>
<path d="M185.727 242.091C185.727 242.28 185.727 242.28 185.538 242.468C185.538 242.28 185.538 242.657 185.35 242.657C185.35 242.845 185.161 243.034 185.161 243.222C184.784 243.977 184.219 244.731 183.464 245.485C182.71 246.239 181.579 246.616 180.636 246.428C179.505 246.239 178.373 245.485 177.619 244.542C176.676 243.599 176.111 242.28 176.111 240.771C175.922 240.96 175.545 241.337 175.356 241.525C178.562 241.903 181.767 242.28 184.973 242.657C185.35 242.657 185.916 242.845 186.293 242.845C186.67 242.845 187.047 242.468 187.047 242.091C187.047 241.714 186.67 241.337 186.293 241.337C183.087 240.96 179.882 240.583 176.676 240.206C176.299 240.206 175.734 240.017 175.356 240.017C174.979 240.017 174.602 240.394 174.602 240.771C174.791 243.599 176.676 246.616 179.505 247.559C182.333 248.502 184.596 246.616 186.104 244.354C186.481 243.788 186.858 243.034 187.047 242.28C187.424 241.525 186.104 241.148 185.727 242.091Z" fill="#002FAD"/>
<path d="M158.009 241.526C158.009 245.862 161.403 249.256 165.74 249.256C170.077 249.256 173.471 245.862 173.471 241.526C173.471 237.189 170.077 233.795 165.74 233.795C161.592 233.607 158.009 237.189 158.009 241.526Z" fill="#FFB0CA"/>
<path d="M194.589 236.246C195.155 236.246 195.532 236.246 195.909 236.435V244.542C195.909 245.673 195.909 246.993 195.532 248.124C195.155 248.124 194.778 248.313 194.401 248.313C191.195 248.313 188.555 245.673 188.555 242.468C188.744 238.886 191.384 236.246 194.589 236.246Z" fill="#FFB0CA"/>
<path d="M182.899 226.819L182.333 237.566L187.424 234.361L182.899 226.819Z" fill="#FFB0CA"/>
<path d="M152.918 237.566L155.558 220.786C155.558 220.786 202.131 226.63 217.404 204.005C232.489 181.38 216.65 172.33 208.919 173.65C201.189 174.969 192.326 185.905 192.326 185.905C192.326 185.905 199.492 176.101 192.326 174.592C185.161 173.084 177.242 180.437 173.094 188.167C173.094 188.167 142.359 185.339 131.989 203.817C121.618 222.483 130.103 235.681 148.959 254.912L150.279 244.165L152.918 237.566Z" fill="#002FAD"/>
<path d="M131.8 237.754C131.8 243.788 136.703 248.69 142.925 248.69C148.959 248.69 154.05 243.788 154.05 237.754C154.05 231.721 149.147 226.819 142.925 226.819C136.703 226.819 131.8 231.721 131.8 237.754Z" fill="white"/>
<path d="M149.713 239.263C149.713 238.32 149.713 237.377 149.336 236.435C148.77 234.738 147.639 233.041 145.942 232.287C144.622 231.721 143.114 231.533 141.605 231.721C141.039 231.721 140.662 232.098 140.662 232.664C140.662 233.041 141.039 233.607 141.605 233.607C142.171 233.607 142.925 233.607 143.679 233.607H143.868C144.056 233.607 144.056 233.607 144.245 233.607C144.433 233.607 144.811 233.795 144.999 233.795C144.999 233.795 144.999 233.795 145.188 233.795C145.376 233.795 145.376 233.984 145.565 233.984C145.753 234.172 145.942 234.172 146.13 234.361L146.319 234.549C146.508 234.738 146.508 234.926 146.696 234.926L146.885 235.115C147.073 235.303 147.073 235.492 147.262 235.681C147.262 235.681 147.262 235.869 147.45 235.869C147.45 235.681 147.45 236.058 147.45 235.869C147.45 235.869 147.45 235.869 147.45 236.058C147.45 236.246 147.639 236.435 147.639 236.623C147.639 237 147.827 237.189 147.827 237.566V237.755C147.827 237.566 147.827 237.943 147.827 237.755C147.827 237.943 147.827 237.943 147.827 238.132C147.827 238.509 147.827 238.697 147.827 239.074C147.827 239.64 148.205 240.017 148.77 240.017C149.336 240.206 149.713 239.828 149.713 239.263Z" fill="#002FAD"/>
<path d="M493.072 401.6C489.113 402.542 485.719 401.977 485.341 400.468L476.102 360.12C475.725 358.612 478.742 356.538 482.513 355.783C486.473 354.841 490.432 355.218 490.81 356.915L499.483 397.263C499.86 398.771 497.032 400.657 493.072 401.6Z" fill="#9CE156"/>
<path d="M492.884 401.034C490.998 401.411 487.039 402.165 485.907 400.091C485.53 399.337 485.53 398.394 485.341 397.64C484.587 394.246 483.833 390.664 482.89 387.27C481.005 379.351 479.308 371.432 477.422 363.513C477.234 362.571 476.856 361.628 476.856 360.685C476.668 358.8 478.931 357.857 480.628 357.291C482.513 356.537 488.924 354.84 490.432 357.291C490.621 357.669 490.621 358.611 490.81 358.988C492.318 366.53 494.015 373.883 495.523 381.425C496.466 385.573 497.409 389.91 498.163 394.058C498.352 395 498.729 396.132 498.917 397.263C498.917 399.525 494.769 400.468 492.884 401.034C492.129 401.222 492.318 402.542 493.261 402.354C495.335 401.788 499.672 400.657 500.237 398.017C500.426 397.263 500.049 396.697 500.049 395.943C499.295 392.361 498.54 388.967 497.786 385.385C495.901 376.523 494.015 367.661 492.129 358.8C491.941 358.234 491.941 357.291 491.752 356.726C490.998 354.652 487.793 354.652 485.907 354.652C482.702 354.84 474.971 356.349 475.725 360.874C477.234 368.981 479.496 376.9 481.193 385.007C482.325 389.533 483.267 394.058 484.399 398.583C484.587 399.337 484.587 400.091 484.964 400.657C486.096 403.673 491.187 402.731 493.449 402.354C494.015 402.165 493.638 400.845 492.884 401.034Z" fill="#002FAD"/>
<path d="M496.891 385.464L482.556 388.75L483.609 393.344L497.944 390.058L496.891 385.464Z" fill="#002FAD"/>
<path d="M497.786 389.344C493.638 390.287 489.49 391.23 485.341 392.172C484.776 392.361 484.21 392.361 483.456 392.549C483.644 392.738 484.022 392.927 484.21 392.927C483.833 391.418 483.456 389.91 483.079 388.213C482.89 388.401 482.702 388.779 482.702 388.967C486.85 388.024 490.998 387.082 495.146 386.139C495.712 385.95 496.278 385.95 497.032 385.762C496.843 385.573 496.466 385.385 496.278 385.385C496.655 386.893 497.032 388.401 497.409 390.098C497.598 390.853 498.917 390.664 498.729 389.721C498.352 388.213 497.975 386.705 497.598 385.008C497.598 384.631 497.032 384.442 496.843 384.631C492.695 385.573 488.547 386.516 484.399 387.459C483.833 387.647 483.267 387.647 482.513 387.836C482.136 387.836 481.947 388.402 482.136 388.59C482.513 390.098 482.89 391.607 483.267 393.304C483.267 393.681 483.833 393.869 484.022 393.681C488.17 392.738 492.318 391.795 496.466 390.853C497.032 390.664 497.598 390.664 498.352 390.475C498.917 390.475 498.54 389.156 497.786 389.344Z" fill="#002FAD"/>
<path d="M476.291 359.365L479.873 343.716L490.244 356.16C490.432 356.537 489.867 357.103 488.924 357.291L477.988 359.743C477.045 359.931 476.291 359.743 476.291 359.365Z" fill="white"/>
<path d="M477.045 359.554C478.176 355.029 479.119 350.504 480.25 345.979C480.439 345.413 480.628 344.659 480.628 344.093C480.25 344.282 479.873 344.282 479.496 344.47C482.136 347.676 484.776 350.692 487.227 353.898C487.793 354.652 488.547 355.406 489.113 356.16C489.301 356.349 489.49 356.537 489.678 356.726C489.678 356.726 489.678 356.914 489.867 356.914C489.678 356.914 489.867 356.537 489.678 356.537C489.49 356.537 489.301 356.726 489.301 356.726C488.735 356.914 487.981 357.103 487.416 357.103C486.284 357.291 484.964 357.669 483.833 357.857C482.513 358.234 481.005 358.423 479.685 358.8C479.308 358.8 478.742 358.988 478.365 358.988C478.176 358.988 478.176 358.988 477.988 358.988C477.799 358.988 477.611 358.988 477.422 358.988C477.045 359.177 477.045 358.988 477.045 359.554C477.045 358.423 475.725 358.423 475.725 359.366C475.725 361.439 480.816 359.743 481.759 359.554C484.21 358.988 486.473 358.611 488.924 358.046C489.867 357.857 491.564 357.103 490.81 355.783C490.432 355.406 490.055 354.84 489.678 354.463C487.981 352.389 486.096 350.127 484.399 348.053C483.079 346.545 481.759 344.848 480.439 343.339C480.062 342.962 479.496 343.151 479.308 343.716C478.176 348.241 477.234 352.766 476.102 357.292C475.914 357.857 475.725 358.611 475.725 359.177C475.537 360.12 476.856 360.497 477.045 359.554Z" fill="#002FAD"/>
<path d="M478.553 351.824L485.341 350.315L479.873 343.716L478.553 351.824Z" fill="#002FAD"/>
<path d="M484.022 395L485.53 401.976C485.907 403.862 489.49 404.804 493.449 403.862C497.409 402.919 500.237 400.656 499.672 398.771L498.163 391.795L484.022 395Z" fill="#FF3BAF"/>
<path d="M483.456 395.189C483.833 396.886 484.21 398.583 484.587 400.468C484.776 401.034 484.776 401.788 484.964 402.353C485.342 403.673 486.661 404.239 487.793 404.616C491.187 405.559 495.523 404.616 498.163 402.542C499.106 401.788 500.049 400.845 500.426 399.525C500.614 398.771 500.237 398.205 500.237 397.451C499.86 395.377 499.295 393.492 498.917 391.418C498.917 391.041 498.352 390.852 498.163 391.041C494.015 391.983 489.867 392.926 485.719 393.869C485.153 394.057 484.587 394.057 483.833 394.246C483.079 394.435 483.267 395.754 484.21 395.566C488.358 394.623 492.507 393.68 496.655 392.738C497.22 392.549 497.786 392.549 498.54 392.361C498.352 392.172 497.975 391.983 497.786 391.983C498.163 393.492 498.352 395 498.729 396.509C498.917 397.263 499.106 398.017 499.295 398.771C499.483 399.525 499.106 400.279 498.54 400.845C496.278 403.108 492.318 404.05 489.113 403.485C488.17 403.296 486.661 402.919 486.473 401.788C486.284 401.222 486.284 400.657 486.096 400.091C485.719 398.394 485.342 396.509 484.964 394.812C484.399 394.057 483.267 394.435 483.456 395.189Z" fill="#002FAD"/>
<path d="M498.008 389.981L483.673 393.267L484.684 397.677L499.019 394.392L498.008 389.981Z" fill="#002FAD"/>
<path d="M498.729 393.869C494.581 394.812 490.433 395.754 486.284 396.697C485.719 396.886 485.153 396.886 484.399 397.074C484.587 397.263 484.964 397.451 485.153 397.451C484.776 395.943 484.399 394.435 484.21 392.926C484.022 393.115 483.833 393.492 483.833 393.681C487.981 392.738 492.13 391.795 496.278 390.852C496.843 390.664 497.409 390.664 498.163 390.475C497.975 390.287 497.598 390.098 497.409 390.098C497.786 391.607 498.163 393.115 498.352 394.623C498.54 395.377 499.86 395.189 499.672 394.246C499.295 392.738 498.918 391.229 498.729 389.721C498.729 389.344 498.163 389.155 497.975 389.344C493.827 390.287 489.678 391.229 485.53 392.172C484.964 392.361 484.399 392.361 483.645 392.549C483.267 392.549 483.079 393.115 483.267 393.303C483.644 394.812 484.022 396.32 484.21 397.828C484.21 398.206 484.776 398.394 484.964 398.206C489.113 397.263 493.261 396.32 497.409 395.377C497.975 395.189 498.54 395.189 499.295 395C499.86 395 499.672 393.68 498.729 393.869Z" fill="#002FAD"/>
<path d="M505.14 393.869C501.18 393.115 498.163 391.229 498.54 389.721L506.648 349.184C507.025 347.676 510.419 347.11 514.379 347.864C518.339 348.619 521.921 350.693 521.544 352.201L512.871 392.549C512.493 394.058 509.099 394.623 505.14 393.869Z" fill="#FF3BAF"/>
<path d="M505.328 393.115C503.443 392.738 499.295 391.795 499.295 389.533C499.295 388.778 499.672 387.836 499.86 387.082C500.614 383.688 501.18 380.294 501.934 376.9C503.631 368.981 505.14 360.874 506.837 352.955C507.402 350.127 507.025 348.053 510.796 348.053C512.871 347.864 515.133 348.43 517.207 349.184C518.339 349.561 520.978 350.504 521.356 352.012C521.356 352.578 521.167 353.332 520.978 353.709C519.47 361.062 517.773 368.604 516.265 375.957C515.322 380.105 514.379 384.442 513.625 388.59C513.436 389.721 513.248 390.852 512.871 391.795C511.362 394.246 507.402 393.492 505.328 393.115C504.574 392.926 504.197 394.246 504.951 394.435C507.214 394.812 511.551 395.566 513.059 393.304C513.436 392.738 513.625 391.984 513.813 391.23C514.568 387.647 515.322 384.065 516.076 380.483C517.962 371.621 519.847 362.948 521.733 354.086C521.921 353.521 522.11 352.767 522.11 352.201C522.298 349.75 519.281 348.619 517.396 347.864C514.379 346.733 506.837 344.848 505.705 349.373C503.82 357.48 502.5 365.776 500.803 373.883C499.86 378.409 498.917 382.745 498.163 387.27C497.975 388.024 497.786 388.778 497.786 389.344C497.786 392.549 502.5 393.681 504.951 394.246C505.894 394.623 506.083 393.304 505.328 393.115Z" fill="#002FAD"/>
<path d="M500.991 377.776L500.062 382.397L514.481 385.293L515.41 380.672L500.991 377.776Z" fill="#002FAD"/>
<path d="M514.568 384.631C510.419 383.876 506.271 382.934 502.123 382.18C501.557 381.991 500.992 381.991 500.237 381.802C500.426 381.991 500.614 382.368 500.614 382.557C500.992 381.048 501.18 379.54 501.557 377.843C501.369 378.032 500.992 378.22 500.803 378.22C504.951 378.974 509.099 379.917 513.248 380.671C513.813 380.86 514.379 380.86 515.133 381.048C514.945 380.86 514.756 380.483 514.756 380.294C514.379 381.802 514.19 383.311 513.813 385.008C513.625 385.762 514.945 386.139 515.133 385.385C515.51 383.876 515.699 382.368 516.076 380.671C516.076 380.294 516.076 379.917 515.699 379.917C511.551 379.163 507.402 378.22 503.254 377.466C502.689 377.277 502.123 377.277 501.369 377.089C500.992 377.089 500.614 377.089 500.614 377.466C500.237 378.974 500.049 380.483 499.672 382.18C499.672 382.557 499.672 382.934 500.049 382.934C504.197 383.688 508.345 384.631 512.493 385.385C513.059 385.573 513.625 385.573 514.379 385.762C514.945 386.139 515.322 384.819 514.568 384.631Z" fill="#002FAD"/>
<path d="M507.214 348.43L516.83 335.609L521.167 351.258C521.356 351.635 520.413 351.824 519.47 351.635L508.534 349.373C507.78 349.184 507.025 348.807 507.214 348.43Z" fill="white"/>
<path d="M507.968 348.807C510.796 345.036 513.625 341.265 516.453 337.683C516.83 337.117 517.207 336.552 517.584 336.175C517.207 336.175 516.83 335.986 516.453 335.986C517.584 339.946 518.527 343.905 519.659 347.864C519.847 348.807 520.224 349.75 520.413 350.693C520.413 350.881 520.601 351.258 520.601 351.447C520.601 351.258 520.601 351.258 520.413 351.258C520.224 351.258 520.036 351.258 519.847 351.258C517.962 351.07 516.076 350.504 514.379 350.127C513.059 349.75 511.739 349.561 510.231 349.184C509.854 349.184 509.477 348.996 508.911 348.996H508.722C508.534 348.996 508.534 348.996 508.345 348.996C508.157 348.996 508.157 348.996 507.968 348.807C507.968 348.807 507.78 348.807 507.78 348.619C507.78 348.43 507.78 348.43 507.968 348.807C508.345 348.053 507.214 347.299 506.837 348.053C505.894 350.127 510.985 350.504 512.116 350.881C514.568 351.447 516.83 351.824 519.281 352.389C520.224 352.578 522.298 352.767 521.921 351.258C521.921 350.693 521.544 350.127 521.544 349.561C520.79 346.922 520.036 344.282 519.281 341.642C518.716 339.568 518.15 337.683 517.584 335.609C517.396 335.043 516.642 335.043 516.453 335.421C513.625 339.191 510.796 342.962 507.968 346.545C507.591 347.11 507.214 347.676 506.837 348.053C506.271 348.807 507.402 349.561 507.968 348.807Z" fill="#002FAD"/>
<path d="M512.493 342.585L519.281 343.905L517.019 335.609L512.493 342.585Z" fill="#002FAD"/>
<path d="M499.672 384.065L498.352 391.041C497.975 392.927 500.803 395.189 504.763 395.943C508.722 396.697 512.305 395.755 512.682 393.869L514.19 386.893L499.672 384.065Z" fill="#FF3BAF"/>
<path d="M499.106 383.876C498.729 385.573 498.352 387.459 497.975 389.156C497.786 389.721 497.786 390.475 497.598 391.041C497.409 392.361 498.163 393.492 499.106 394.246C501.746 396.509 505.894 397.451 509.288 396.886C510.608 396.697 511.928 396.132 512.871 395C513.248 394.435 513.436 393.681 513.436 393.115C513.813 391.041 514.19 389.156 514.756 387.082C514.756 386.704 514.568 386.327 514.379 386.327C510.231 385.573 505.894 384.63 501.746 383.876C501.18 383.688 500.615 383.688 499.86 383.499C499.106 383.311 498.729 384.63 499.483 384.819C503.631 385.573 507.968 386.516 512.116 387.27C512.682 387.459 513.248 387.459 514.002 387.647C513.813 387.459 513.625 387.082 513.625 386.893C513.248 388.401 513.059 389.91 512.682 391.418C512.493 392.172 512.305 392.926 512.116 393.681C511.928 394.623 511.174 395 510.419 395.377C507.403 396.509 503.443 395.566 500.803 393.869C500.049 393.303 498.918 392.549 499.106 391.418C499.106 390.852 499.295 390.287 499.483 389.721C499.86 388.024 500.237 386.139 500.614 384.442C500.426 383.499 499.106 383.122 499.106 383.876Z" fill="#002FAD"/>
<path d="M499.975 382.557L499.084 386.993L513.503 389.889L514.394 385.453L499.975 382.557Z" fill="#002FAD"/>
<path d="M513.625 389.155C509.477 388.401 505.328 387.459 501.18 386.704C500.614 386.516 500.049 386.516 499.295 386.327C499.483 386.516 499.672 386.893 499.672 387.081C500.049 385.573 500.237 384.065 500.614 382.556C500.426 382.745 500.049 382.934 499.86 382.934C504.008 383.688 508.157 384.63 512.305 385.385C512.871 385.573 513.436 385.573 514.19 385.762C514.002 385.573 513.813 385.196 513.813 385.007C513.436 386.516 513.248 388.024 512.871 389.533C512.682 390.287 514.002 390.664 514.19 389.91C514.568 388.401 514.756 386.893 515.133 385.385C515.133 385.007 515.133 384.63 514.756 384.63C510.608 383.876 506.46 382.934 502.311 382.179C501.746 381.991 501.18 381.991 500.426 381.802C500.049 381.802 499.672 381.802 499.672 382.179C499.295 383.688 499.106 385.196 498.729 386.704C498.729 387.081 498.729 387.459 499.106 387.459C503.254 388.213 507.402 389.155 511.551 389.91C512.116 390.098 512.682 390.098 513.436 390.287C514.19 390.664 514.379 389.344 513.625 389.155Z" fill="#002FAD"/>
<path d="M495.712 399.714C493.072 399.714 490.998 397.64 490.998 395V325.051C490.998 322.411 493.072 320.337 495.712 320.337C498.352 320.337 500.426 322.411 500.426 325.051V395C500.426 397.64 498.163 399.714 495.712 399.714Z" fill="#FFB0CA" stroke="#002FAD" stroke-width="0.5682" stroke-miterlimit="10"/>
<path d="M490.998 339.757H500.426" stroke="#002FAD" stroke-width="0.5682" stroke-miterlimit="10"/>
<path d="M500.992 355.595C499.672 355.595 498.54 354.463 498.54 353.144V332.215C498.54 330.895 499.672 329.764 500.992 329.764C502.311 329.764 503.443 330.895 503.443 332.215V353.144C503.443 354.463 502.311 355.595 500.992 355.595Z" fill="#FFB0CA" stroke="#002FAD" stroke-width="0.5682" stroke-miterlimit="10"/>
<path d="M524.75 378.031H473.462V419.7H524.75V378.031Z" fill="#0067C5"/>
<path d="M524.75 399.714V398.205C519.847 394.812 513.059 388.213 512.493 378.031H511.551C512.116 389.155 519.659 396.32 524.75 399.714Z" fill="white"/>
<path d="M519.281 419.699C519.847 411.215 517.962 404.05 514.19 400.656C512.116 398.771 508.345 397.263 502.689 400.845C497.975 403.862 494.392 410.272 492.318 419.134C492.318 419.322 492.318 419.511 492.129 419.699H493.261C494.769 413.1 497.598 405.559 503.066 401.976C507.214 399.337 510.796 399.148 513.436 401.599C516.83 404.616 518.527 411.403 518.15 419.511H519.281V419.699Z" fill="white"/>
<path d="M478.365 419.7C478.931 413.478 483.079 407.633 490.621 399.337C497.032 392.172 501.369 385.007 503.443 378.031H502.311C500.237 384.63 496.089 391.418 489.867 398.394C482.136 406.879 477.799 413.1 477.234 419.7H478.365Z" fill="white"/>
<path d="M473.462 393.492C476.856 393.303 481.57 392.549 484.776 388.401C486.85 385.762 487.793 382.368 487.981 378.031H487.038C486.85 381.991 485.907 385.196 484.21 387.458C481.382 391.041 476.856 391.984 473.651 392.172V393.492H473.462Z" fill="white"/>
<path d="M524.75 378.031H473.462V419.7H524.75V378.031Z" stroke="#002FAD" stroke-width="0.5682" stroke-miterlimit="10"/>
<path d="M312.625 256.797H253.418C245.876 256.797 239.654 262.831 239.654 270.561V294.695V303.179V329.575L253.607 316.754H312.436C319.978 316.754 326.201 310.721 326.201 302.991V270.373C326.201 263.019 320.167 256.797 312.625 256.797Z" fill="white" stroke="#002FAD" stroke-width="0.7071" stroke-miterlimit="10"/>
<path d="M269.446 287.907C269.446 291.112 266.806 293.94 263.412 293.94C260.206 293.94 257.378 291.301 257.378 287.907C257.378 284.702 260.018 281.874 263.412 281.874C266.806 282.062 269.446 284.702 269.446 287.907Z" fill="#0067C5"/>
<path d="M290.187 287.907C290.187 291.112 287.547 293.94 284.153 293.94C280.947 293.94 278.119 291.301 278.119 287.907C278.119 284.702 280.759 281.874 284.153 281.874C287.547 282.062 290.187 284.702 290.187 287.907Z" fill="#0067C5"/>
<path d="M310.928 287.907C310.928 291.112 308.288 293.94 304.894 293.94C301.689 293.94 298.86 291.301 298.86 287.907C298.86 284.702 301.5 281.874 304.894 281.874C308.288 282.062 310.928 284.702 310.928 287.907Z" fill="#0067C5"/>
<path d="M560.009 440.628H495.901C490.244 440.628 485.53 445.153 485.53 450.998V452.129C485.53 457.785 490.055 462.499 495.901 462.499H560.009C560.009 462.499 556.615 457.408 556.615 451.563C556.615 445.719 560.009 440.628 560.009 440.628Z" fill="white" stroke="#002FAD" stroke-width="0.5169" stroke-miterlimit="10" stroke-linecap="round" stroke-linejoin="round"/>
<path d="M529.652 440.628H465.543C459.886 440.628 455.173 445.153 455.173 450.998V452.129C455.173 457.785 459.698 462.499 465.543 462.499H529.652C529.652 462.499 526.258 457.408 526.258 451.563C526.258 445.719 529.652 440.628 529.652 440.628Z" fill="white" stroke="#002FAD" stroke-width="0.5169" stroke-miterlimit="10" stroke-linecap="round" stroke-linejoin="round"/>
<path d="M455.173 450.998V452.129C455.173 456.277 457.624 459.859 461.206 461.368H462.526V442.136L461.772 441.193C458.001 442.89 455.173 446.661 455.173 450.998Z" fill="white" stroke="#002FAD" stroke-width="0.5169" stroke-miterlimit="10" stroke-linecap="round" stroke-linejoin="round"/>
<path d="M560.009 440.628H465.543C459.886 440.628 455.173 445.153 455.173 450.998V452.129C455.173 457.785 459.698 462.499 465.543 462.499H560.009" stroke="#002FAD" stroke-width="0.7071" stroke-miterlimit="10"/>
<path d="M462.903 445.53H494.204" stroke="#002FAD" stroke-width="0.5169" stroke-miterlimit="10" stroke-linecap="round" stroke-linejoin="round"/>
<path d="M498.729 448.358H503.443" stroke="#002FAD" stroke-width="0.5169" stroke-miterlimit="10" stroke-linecap="round" stroke-linejoin="round"/>
<path d="M468.937 448.358H494.581" stroke="#002FAD" stroke-width="0.5169" stroke-miterlimit="10" stroke-linecap="round" stroke-linejoin="round"/>
<path d="M462.903 454.769H478.931" stroke="#002FAD" stroke-width="0.5169" stroke-miterlimit="10" stroke-linecap="round" stroke-linejoin="round"/>
<path d="M510.796 458.351H514.379" stroke="#002FAD" stroke-width="0.5169" stroke-miterlimit="10" stroke-linecap="round" stroke-linejoin="round"/>
<path d="M488.547 458.351H507.968" stroke="#002FAD" stroke-width="0.5169" stroke-miterlimit="10" stroke-linecap="round" stroke-linejoin="round"/>
<path d="M468.937 458.351H482.702" stroke="#002FAD" stroke-width="0.5169" stroke-miterlimit="10" stroke-linecap="round" stroke-linejoin="round"/>
<path d="M496.466 440.628H406.714C401.057 440.628 396.343 445.153 396.343 450.998V452.129C396.343 457.785 400.869 462.499 406.714 462.499H496.466C496.466 462.499 493.072 457.408 493.072 451.563C493.072 445.719 496.466 440.628 496.466 440.628Z" fill="white" stroke="#002FAD" stroke-width="0.5169" stroke-miterlimit="10" stroke-linecap="round" stroke-linejoin="round"/>
<path d="M441.974 442.702V459.671" stroke="#002FAD" stroke-width="0.5169" stroke-miterlimit="10" stroke-linecap="round" stroke-linejoin="round"/>
<path d="M442.351 446.473H468.183" stroke="#002FAD" stroke-width="0.5169" stroke-miterlimit="10" stroke-linecap="round" stroke-linejoin="round"/>
<path d="M442.351 450.433H477.799" stroke="#002FAD" stroke-width="0.5169" stroke-miterlimit="10" stroke-linecap="round" stroke-linejoin="round"/>
<path d="M453.287 454.769H462.526" stroke="#002FAD" stroke-width="0.5169" stroke-miterlimit="10" stroke-linecap="round" stroke-linejoin="round"/>
<path d="M474.217 457.597H446.499" stroke="#002FAD" stroke-width="0.5169" stroke-miterlimit="10" stroke-linecap="round" stroke-linejoin="round"/>
<path d="M437.448 452.129V450.998C437.448 445.342 441.974 440.628 447.819 440.628H406.902C401.246 440.628 396.532 445.153 396.532 450.998V452.129C396.532 457.785 401.057 462.499 406.902 462.499H447.819C442.162 462.311 437.448 457.785 437.448 452.129Z" fill="#FF3BAF"/>
<path d="M491.752 440.628H406.714C401.057 440.628 396.343 445.153 396.343 450.998V452.129C396.343 457.785 400.869 462.499 406.714 462.499H491.752" stroke="#002FAD" stroke-width="0.7071" stroke-miterlimit="10"/>
<path d="M498.54 440.628H448.008C442.351 440.628 437.637 445.153 437.637 450.998V452.129C437.637 457.785 442.162 462.499 448.008 462.499H498.54" stroke="#002FAD" stroke-width="0.7071" stroke-miterlimit="10"/>
<path d="M550.204 418.757H486.096C480.439 418.757 475.725 423.282 475.725 429.127V430.258C475.725 435.914 480.25 440.628 486.096 440.628H550.204C550.204 440.628 546.811 435.537 546.811 429.692C546.811 423.659 550.204 418.757 550.204 418.757Z" fill="white" stroke="#002FAD" stroke-width="0.5169" stroke-miterlimit="10" stroke-linecap="round" stroke-linejoin="round"/>
<path d="M519.847 418.757H455.738C450.082 418.757 445.368 423.282 445.368 429.127V430.258C445.368 435.914 449.893 440.628 455.738 440.628H519.847C519.847 440.628 516.453 435.537 516.453 429.692C516.265 423.659 519.847 418.757 519.847 418.757Z" fill="white" stroke="#002FAD" stroke-width="0.5169" stroke-miterlimit="10" stroke-linecap="round" stroke-linejoin="round"/>
<path d="M445.368 429.127V430.258C445.368 434.406 447.819 437.988 451.402 439.497H452.721V419.134L451.967 419.511C448.196 421.019 445.368 424.79 445.368 429.127Z" fill="white" stroke="#002FAD" stroke-width="0.5169" stroke-miterlimit="10" stroke-linecap="round" stroke-linejoin="round"/>
<path d="M550.204 418.757H455.738C450.082 418.757 445.368 423.282 445.368 429.127V430.258C445.368 435.914 449.893 440.628 455.738 440.628H550.204" stroke="#002FAD" stroke-width="0.7071" stroke-miterlimit="10"/>
<path d="M453.099 423.659H484.399" stroke="#002FAD" stroke-width="0.5169" stroke-miterlimit="10" stroke-linecap="round" stroke-linejoin="round"/>
<path d="M488.924 426.487H493.638" stroke="#002FAD" stroke-width="0.5169" stroke-miterlimit="10" stroke-linecap="round" stroke-linejoin="round"/>
<path d="M459.132 426.487H484.776" stroke="#002FAD" stroke-width="0.5169" stroke-miterlimit="10" stroke-linecap="round" stroke-linejoin="round"/>
<path d="M453.099 432.898H469.126" stroke="#002FAD" stroke-width="0.5169" stroke-miterlimit="10" stroke-linecap="round" stroke-linejoin="round"/>
<path d="M500.992 436.48H504.574" stroke="#002FAD" stroke-width="0.5169" stroke-miterlimit="10" stroke-linecap="round" stroke-linejoin="round"/>
<path d="M478.742 436.48H498.163" stroke="#002FAD" stroke-width="0.5169" stroke-miterlimit="10" stroke-linecap="round" stroke-linejoin="round"/>
<path d="M459.132 436.48H472.897" stroke="#002FAD" stroke-width="0.5169" stroke-miterlimit="10" stroke-linecap="round" stroke-linejoin="round"/>
<path d="M279.628 360.12H445.368L415.199 473.246H250.213L279.628 360.12Z" fill="white" stroke="#002FAD" stroke-width="0.7071" stroke-miterlimit="10"/>
<path d="M153.296 236.812C153.296 244.919 148.016 251.518 141.605 251.518C135.194 251.518 129.915 244.919 129.915 236.812C129.915 228.705 135.194 222.105 141.605 222.105C148.016 222.105 153.296 228.705 153.296 236.812Z" fill="#1E79FF"/>
<path d="M148.393 236.812C148.393 242.657 144.622 247.37 140.097 247.37C135.383 247.37 131.8 242.657 131.8 236.812C131.8 230.967 135.571 226.253 140.097 226.253C144.622 226.253 148.393 230.967 148.393 236.812Z" fill="white"/>
<path d="M171.208 187.413C171.208 187.413 141.605 183.454 141.605 222.294" stroke="#1E79FF" stroke-width="1.2466" stroke-miterlimit="10" stroke-linecap="round" stroke-linejoin="round"/>
<path d="M148.77 245.862C148.77 245.862 152.164 254.535 159.895 256.986" stroke="#1E79FF" stroke-width="1.2466" stroke-miterlimit="10" stroke-linecap="round" stroke-linejoin="round"/>
<path d="M30.546 170.633H83.9071C90.6951 170.633 96.1632 176.101 96.1632 182.888V204.571V212.113V236.058L83.53 224.556H30.546C23.758 224.556 18.2899 219.089 18.2899 212.301V182.888C18.2899 176.101 23.758 170.633 30.546 170.633Z" fill="white" stroke="#002FAD" stroke-width="0.7071" stroke-miterlimit="10"/>
<path d="M169.134 126.702C168.003 120.103 164.232 115.766 160.084 113.127C153.107 108.602 143.679 108.602 136.514 113.127C132.366 115.766 128.595 120.103 127.463 126.702C125.201 138.957 135.948 145.368 138.023 148.007C138.023 148.007 139.342 149.139 140.097 150.458C140.285 150.836 140.474 151.778 140.662 153.287H148.393H156.124C156.312 151.967 156.501 150.836 156.69 150.458C157.255 149.139 158.764 148.007 158.764 148.007C160.649 145.368 171.397 138.769 169.134 126.702Z" fill="#ACF85F" stroke="#002FAD" stroke-width="0.7071" stroke-miterlimit="10"/>
<path d="M145.188 154.418C145.188 154.418 145.188 142.917 144.433 141.22C143.491 139.523 139.531 133.867 138.777 132.547C138.023 131.416 139.531 129.907 140.474 131.793C141.417 133.301 145.188 138.58 145.942 140.843C146.696 142.917 147.45 155.172 147.45 155.172L145.188 154.418Z" fill="white"/>
<path d="M151.599 154.418C151.599 154.418 151.599 142.917 152.353 141.22C153.296 139.523 157.067 133.867 157.821 132.547C158.575 131.416 157.067 129.907 156.124 131.793C155.181 133.301 151.41 138.58 150.656 140.843C149.902 142.917 149.147 155.172 149.147 155.172L151.599 154.418Z" fill="white"/>
<path d="M157.067 132.17C155.558 132.924 152.918 132.924 150.844 132.358C149.147 133.49 146.885 133.113 145.376 131.793C143.302 132.547 140.474 132.735 140.097 132.735V131.604C141.417 131.604 143.114 131.416 144.433 131.039C143.302 129.719 143.114 128.399 143.868 127.456C144.811 126.325 146.13 126.325 146.885 126.891C147.827 127.645 148.205 129.153 147.45 130.473C147.262 130.85 147.073 131.039 146.696 131.227C147.827 131.793 148.959 132.17 149.902 131.793C149.524 131.604 149.336 131.416 149.147 131.039C148.77 130.661 148.393 129.719 149.147 128.587C149.713 127.833 150.467 127.456 151.221 127.645C151.976 127.833 152.541 128.399 152.541 129.153C152.73 129.907 152.541 130.661 151.976 131.416C153.484 131.793 155.558 131.793 156.878 131.039L157.067 132.17ZM150.09 128.965C149.902 129.153 149.902 129.153 149.713 129.342C149.336 129.907 149.524 130.284 149.713 130.473C149.902 130.661 150.279 131.039 150.656 131.227C151.221 130.661 151.41 130.096 151.221 129.53C151.221 129.153 150.844 128.776 150.656 128.776C150.467 128.776 150.279 128.776 150.09 128.965ZM145.565 130.661C145.942 130.473 146.13 130.284 146.319 130.096C146.885 129.342 146.508 128.399 146.13 128.022C145.753 127.645 145.188 127.833 144.622 128.399C144.245 128.965 144.622 129.907 145.188 130.473C145.376 130.473 145.376 130.661 145.565 130.661Z" fill="white"/>
<path d="M148.393 151.967C144.245 151.967 140.662 150.836 140.097 150.458L140.285 150.647C140.851 151.778 141.605 161.394 143.114 165.165C143.302 165.731 143.679 166.296 144.056 166.485C144.999 167.05 146.696 167.616 148.582 167.616C150.467 167.616 152.353 167.05 153.107 166.485C153.484 166.296 153.673 165.731 154.05 165.165C155.558 161.394 156.312 151.778 156.878 150.647C156.878 150.647 156.878 150.458 157.067 150.458C156.124 150.836 152.541 151.967 148.393 151.967Z" fill="white" stroke="#002FAD" stroke-width="0.7071" stroke-miterlimit="10"/>
<path d="M148.393 156.303C150.844 156.303 153.484 155.926 155.935 155.172C156.124 154.041 156.312 153.098 156.312 152.155C151.221 154.041 145.565 154.041 140.474 152.155C140.662 152.909 140.662 154.041 140.851 155.172C143.302 155.926 145.942 156.115 148.393 156.303Z" fill="#002FAD"/>
<path d="M148.393 161.017C150.467 161.017 152.918 160.828 154.992 160.074C155.181 159.132 155.37 158.189 155.37 157.246C150.656 158.754 145.753 158.754 141.039 157.246C141.228 158.189 141.417 159.132 141.417 160.074C143.868 160.828 146.13 161.017 148.393 161.017Z" fill="#002FAD"/>
<path d="M141.982 162.525C142.171 163.468 142.548 164.411 142.736 165.165C142.736 165.354 142.736 165.354 142.925 165.542C144.622 165.919 146.508 166.108 148.205 166.108C149.902 166.108 151.787 165.919 153.484 165.542C153.484 165.354 153.673 165.354 153.673 165.165C153.861 164.411 154.238 163.657 154.427 162.525C150.467 163.657 146.13 163.657 141.982 162.525Z" fill="#002FAD"/>
<path d="M148.77 103.322C147.45 103.322 146.508 102.38 146.508 101.06V90.6898C146.508 89.37 147.45 88.4272 148.77 88.4272C150.09 88.4272 151.033 89.37 151.033 90.6898V101.06C151.033 102.38 149.902 103.322 148.77 103.322Z" fill="white" stroke="#002FAD" stroke-width="0.7071" stroke-miterlimit="10"/>
<path d="M164.797 106.339C163.666 105.773 163.289 104.453 163.855 103.322L168.757 94.0834C169.323 92.9522 170.643 92.5751 171.774 93.1407C172.905 93.7064 173.282 95.0262 172.717 96.1574L167.814 105.396C167.06 106.527 165.74 106.904 164.797 106.339Z" fill="white" stroke="#002FAD" stroke-width="0.7071" stroke-miterlimit="10"/>
<path d="M132.743 106.339C133.874 105.773 134.251 104.453 133.686 103.322L128.783 94.0834C128.218 92.9522 126.898 92.5751 125.766 93.1407C124.635 93.7064 124.258 95.0262 124.824 96.1574L129.726 105.396C130.292 106.527 131.612 106.904 132.743 106.339Z" fill="white" stroke="#002FAD" stroke-width="0.7071" stroke-miterlimit="10"/>
<path d="M120.864 118.406C120.675 119.725 119.356 120.48 118.224 120.102L108.042 118.028C106.911 117.84 106.157 116.52 106.345 115.389C106.534 114.258 107.854 113.503 108.985 113.692L119.167 115.766C120.298 116.143 121.053 117.274 120.864 118.406Z" fill="white" stroke="#002FAD" stroke-width="0.7071" stroke-miterlimit="10"/>
<path d="M120.298 135.186C119.921 134.055 118.79 133.301 117.47 133.678L107.477 136.506C106.345 136.883 105.591 138.014 105.968 139.334C106.345 140.465 107.477 141.219 108.796 140.842L118.79 137.826C119.921 137.637 120.675 136.317 120.298 135.186Z" fill="white" stroke="#002FAD" stroke-width="0.7071" stroke-miterlimit="10"/>
<path d="M176.488 118.406C176.676 119.725 177.996 120.48 179.128 120.102L189.31 118.028C190.441 117.84 191.195 116.52 191.007 115.389C190.818 114.258 189.498 113.503 188.367 113.692L178.185 115.766C177.053 116.143 176.299 117.274 176.488 118.406Z" fill="white" stroke="#002FAD" stroke-width="0.7071" stroke-miterlimit="10"/>
<path d="M177.053 135.186C177.431 134.055 178.562 133.301 179.882 133.678L189.875 136.694C191.007 137.071 191.761 138.203 191.384 139.523C191.007 140.654 189.875 141.408 188.555 141.031L178.562 138.014C177.431 137.637 176.865 136.317 177.053 135.186Z" fill="white" stroke="#002FAD" stroke-width="0.7071" stroke-miterlimit="10"/>
<path d="M55.8124 215.129C52.0413 215.129 49.0244 212.49 49.0244 208.907C49.0244 205.325 51.8527 202.874 55.8124 202.874C59.772 202.874 62.6004 205.513 62.6004 208.907C62.6004 212.49 59.772 215.129 55.8124 215.129ZM55.8124 204.194C52.6069 204.194 50.3443 206.268 50.3443 208.907C50.3443 211.735 52.6069 213.809 55.8124 213.809C58.8293 213.809 61.2805 211.735 61.2805 208.907C61.2805 206.268 59.0178 204.194 55.8124 204.194ZM61.2805 202.497H50.5328V201.743C50.5328 198.16 52.7955 196.086 54.4925 194.389C55.6238 193.447 56.5666 192.504 56.5666 191.561C56.5666 190.43 55.2467 190.053 54.1154 190.053C52.4184 190.053 50.7214 191.184 49.9672 192.881L49.5901 193.447L40.1623 188.733L40.5394 188.167C42.425 184.585 46.5732 180.437 55.4353 180.437C63.5431 180.437 68.6341 184.019 68.6341 189.864C68.6341 194.389 65.9944 196.652 63.7317 198.349C62.4118 199.48 61.2805 200.423 61.2805 201.554V202.497ZM51.8527 201.177H59.9606C60.3377 199.669 61.469 198.726 62.7889 197.595C64.863 195.898 67.1257 193.824 67.1257 190.053C67.1257 184.019 60.9034 181.945 55.2467 181.945C49.0244 181.945 44.3105 184.208 41.8593 188.544L48.8358 192.127C49.9672 190.241 51.8527 189.299 53.9268 189.299C56.1895 189.299 57.6979 190.43 57.6979 192.127C57.6979 193.635 56.5666 194.766 55.2467 195.898C53.7383 196.84 52.0413 198.537 51.8527 201.177Z" fill="#002FAD"/>
</svg>
