<svg width="336" height="52" viewBox="0 0 336 52" fill="none" xmlns="http://www.w3.org/2000/svg">
<path d="M189.707 41.7876V39.4334C187.982 41.3672 186.176 42.1239 183.548 42.1239C181.084 42.1239 178.867 41.2831 177.471 39.8538C175.089 37.3314 174.925 33.3797 174.925 29.0916C174.925 24.8036 175.089 20.8519 177.471 18.4136C178.867 16.9843 181.002 16.1435 183.466 16.1435C186.012 16.1435 187.9 16.8161 189.543 18.6658V6.97885H195.784V41.7876H189.707ZM185.272 21.7768C181.577 21.7768 181.084 24.9718 181.084 29.0916C181.084 33.2115 181.577 36.4065 185.272 36.4065C188.968 36.4065 189.543 33.2115 189.543 29.0916C189.543 24.9718 189.05 21.7768 185.272 21.7768Z" fill="#034EA2"/>
<path d="M214.428 41.7872V39.433C212.786 41.1987 210.486 42.0395 208.187 42.0395C205.723 42.0395 203.67 41.1987 202.274 39.7693C200.303 37.7514 199.728 35.3132 199.728 32.5385V16.3113H205.97V31.6978C205.97 35.145 208.105 36.3221 210.076 36.3221C212.047 36.3221 214.264 35.145 214.264 31.6978V16.3113H220.506V41.7872H214.428Z" fill="#034EA2"/>
<path d="M234.708 42.039C229.781 42.039 223.622 39.2644 223.622 29.0068C223.622 18.665 229.781 15.9745 234.708 15.9745C238.157 15.9745 240.703 17.0675 242.921 19.4218L238.732 23.7098C237.418 22.2804 236.351 21.6919 234.708 21.6919C233.23 21.6919 232.08 22.1964 231.177 23.3735C230.191 24.6347 229.781 26.3162 229.781 29.0068C229.781 31.6973 230.191 33.463 231.177 34.6401C232.08 35.7331 233.23 36.3216 234.708 36.3216C236.351 36.3216 237.418 35.7331 238.732 34.3037L242.921 38.5918C240.703 40.946 238.157 42.039 234.708 42.039Z" fill="#034EA2"/>
<path d="M257.624 41.7868V39.6007C255.981 41.2823 254.339 42.039 251.547 42.039C248.755 42.039 246.619 41.2823 245.223 39.7689C243.909 38.3395 243.17 36.3216 243.17 34.0515C243.17 30.0157 245.88 26.6526 251.793 26.6526H257.542V25.3914C257.542 22.6168 256.228 21.3556 252.943 21.3556C250.726 21.3556 249.494 22.0282 248.18 23.5416L244.238 19.5899C246.701 16.8153 249.001 15.9745 253.189 15.9745C260.17 15.9745 263.783 19.0014 263.783 24.971V41.7027H257.624V41.7868ZM257.46 31.0247H252.697C250.233 31.0247 249.001 32.0336 249.001 33.9674C249.001 35.7331 250.233 36.8261 252.779 36.8261C254.339 36.8261 255.407 36.658 256.474 35.5649C257.213 34.8923 257.46 33.9674 257.46 32.3699V31.0247Z" fill="#034EA2"/>
<path d="M275.526 41.7871C270.434 41.7871 268.299 38.0876 268.299 34.4722V21.8603H265.671V16.9837H268.299V9.41663H274.54V16.9837H278.893V21.8603H274.54V34.0518C274.54 35.4811 275.197 36.3219 276.675 36.3219H278.893V41.703H275.526V41.7871Z" fill="#034EA2"/>
<path d="M281.848 11.9392V6.81033H288.171V12.0232H281.848V11.9392ZM281.93 41.7872V17.068H288.171V41.7872H281.93Z" fill="#034EA2"/>
<path d="M309.612 38.9293C308.051 40.6109 305.588 42.0403 301.892 42.0403C298.196 42.0403 295.815 40.6109 294.172 38.9293C291.955 36.4911 291.38 33.6324 291.38 29.008C291.38 24.3837 291.955 21.6091 294.172 19.1708C295.733 17.4892 298.196 16.0598 301.892 16.0598C305.588 16.0598 308.051 17.4892 309.612 19.1708C311.829 21.6091 312.404 24.4678 312.404 29.008C312.486 33.6324 311.911 36.5751 309.612 38.9293ZM304.848 22.8702C304.109 22.1135 303.206 21.7772 301.974 21.7772C300.742 21.7772 299.839 22.1976 299.1 22.8702C297.786 24.1314 297.704 26.4016 297.704 29.008C297.704 31.6145 297.868 33.9687 299.1 35.2299C299.839 35.9866 300.742 36.3229 301.974 36.3229C303.206 36.3229 304.191 35.9025 304.848 35.2299C306.162 33.9687 306.245 31.6986 306.245 29.008C306.245 26.4016 306.08 24.1314 304.848 22.8702Z" fill="#034EA2"/>
<path d="M329.231 41.788V26.4016C329.231 22.9543 327.095 21.7772 325.125 21.7772C323.154 21.7772 320.936 22.9543 320.936 26.4016V41.788H314.695V16.3121H320.772V18.6663C322.414 16.9006 324.714 16.0598 327.013 16.0598C329.477 16.0598 331.53 16.9006 332.926 18.33C334.897 20.3479 335.472 22.7862 335.472 25.5608V41.8721H329.231V41.788Z" fill="#034EA2"/>
<path d="M152.094 35.8177C152.751 36.4903 153.08 37.247 153.08 38.3401C153.08 39.4331 152.751 40.1898 152.094 40.8624C151.191 41.7873 150.123 41.7873 148.399 41.7873C146.674 41.7873 145.606 41.7873 144.703 40.8624C144.046 40.1898 143.718 39.4331 143.718 38.3401C143.718 37.247 144.046 36.4903 144.703 35.8177C145.606 34.8928 146.674 34.8928 148.399 34.8928C150.123 34.8087 151.109 34.8928 152.094 35.8177ZM145.771 37.163C145.442 37.4152 145.278 37.8356 145.278 38.3401C145.278 38.8445 145.442 39.2649 145.771 39.5172C146.181 39.8535 146.592 39.9376 148.316 39.9376C150.041 39.9376 150.534 39.8535 150.862 39.5172C151.191 39.2649 151.355 38.8445 151.355 38.3401C151.355 37.8356 151.109 37.4152 150.862 37.163C150.452 36.8266 150.041 36.7426 148.316 36.7426C146.592 36.6585 146.181 36.8266 145.771 37.163Z" fill="#034EA2"/>
<path d="M152.915 28.1664L147.249 31.8659H152.915V33.7156H143.718V32.1181L149.302 28.4186H143.718V26.5689H152.915V28.1664Z" fill="#034EA2"/>
<path d="M152.915 25.0556H143.718V23.2058H151.273V18.9178H152.833V25.0556H152.915Z" fill="#034EA2"/>
<path d="M152.915 18.161H143.718V16.3113H152.915V18.161Z" fill="#034EA2"/>
<path d="M152.915 9.33255L147.249 13.032H152.915V14.8818H143.718V13.2843L149.302 9.58479H143.718V7.65097H152.915V9.33255Z" fill="#034EA2"/>
<path d="M152.915 6.22185H143.718V0H145.278V4.37211H147.413V0.672633H148.973V4.37211H151.191V0H152.751V6.22185H152.915Z" fill="#034EA2"/>
<path d="M22.1734 38.0877C19.5454 40.8623 16.4247 42.0394 12.5649 42.0394C8.95149 42.0394 5.83078 40.7782 3.36707 38.2559C1.88885 36.7424 0.985485 34.9768 0.574866 33.043C0.164247 31.1091 0 28.1664 0 24.3828C0 20.5993 0.164247 17.6565 0.574866 15.7227C0.985485 13.7048 1.88885 12.0232 3.36707 10.5098C5.83078 7.98738 8.95149 6.7262 12.5649 6.7262C20.2846 6.7262 24.4729 11.855 25.3762 17.9087H18.6421C17.8208 14.5456 15.8499 12.7799 12.4828 12.7799C10.6761 12.7799 9.27998 13.4525 8.21237 14.6296C6.98052 16.2271 6.5699 17.4883 6.5699 24.3828C6.5699 31.2773 6.81627 32.6226 8.21237 34.2201C9.19786 35.4813 10.6761 36.0698 12.4828 36.0698C14.4538 36.0698 16.0141 35.3972 17.246 34.136C18.2315 32.9589 18.8063 31.3614 18.8063 29.5116V28.1664H12.5649V22.449H25.4584V27.5778C25.3762 32.6226 24.4729 35.5653 22.1734 38.0877Z" fill="#034EA2"/>
<path d="M41.472 41.7868V39.6007C39.8295 41.2823 38.187 42.039 35.3127 42.039C32.5205 42.039 30.4674 41.2823 28.9891 39.7689C27.6751 38.3395 26.936 36.3216 26.936 34.0515C26.936 30.0157 29.6461 26.6526 35.4769 26.6526H41.3898V25.3914C41.3898 22.6168 40.0758 21.3556 36.7088 21.3556C34.3272 21.3556 33.1774 21.9441 31.9456 23.4576L27.9215 19.5058C30.3852 16.7312 32.7668 15.9745 36.9551 15.9745C43.9357 15.9745 47.5491 19.0014 47.5491 24.971V41.7868H41.472ZM41.3077 31.0247H36.3803C34.1629 31.0247 32.849 32.1177 32.849 33.8834C32.849 35.649 33.9987 36.8261 36.4624 36.8261C38.187 36.8261 39.2546 36.658 40.4043 35.5649C41.0613 34.8923 41.3077 33.8834 41.3077 32.3699V31.0247Z" fill="#034EA2"/>
<path d="M57.1603 41.7874C52.0687 41.7874 49.8513 38.0879 49.8513 34.4725V6.89456H56.0927V34.0521C56.0927 35.5655 56.7497 36.3223 58.3101 36.3223H60.6916V41.7033H57.1603V41.7874Z" fill="#034EA2"/>
<path d="M76.7024 41.7868V39.6007C75.0599 41.2823 73.4175 42.039 70.5431 42.039C67.7509 42.039 65.6978 41.2823 64.2196 39.7689C62.9056 38.3395 62.1665 36.3216 62.1665 34.0515C62.1665 30.0157 64.8766 26.6526 70.7074 26.6526H76.6203V25.3914C76.6203 22.6168 75.3063 21.3556 71.9392 21.3556C69.5576 21.3556 68.4079 21.9441 67.1761 23.4576L63.2341 19.5058C65.6978 16.7312 68.0794 15.9745 72.2677 15.9745C79.2482 15.9745 82.8617 19.0014 82.8617 24.971V41.7868H76.7024ZM76.5382 31.0247H71.6107C69.3934 31.0247 68.0794 32.1177 68.0794 33.8834C68.0794 35.649 69.2291 36.8261 71.6929 36.8261C73.4175 36.8261 74.4851 36.658 75.6348 35.5649C76.2918 34.8923 76.5382 33.8834 76.5382 32.3699V31.0247Z" fill="#034EA2"/>
<path d="M83.8462 16.3953H90.6625V24.8872L83.8462 16.3953Z" fill="#F58020"/>
<path d="M97.5642 24.8872H90.6658V16.3953L97.5642 24.8872Z" fill="#FCAF17"/>
<path d="M97.5632 24.8872H104.379V16.3953L97.5632 24.8872Z" fill="#FCAF17"/>
<path d="M111.275 16.3953H104.377V24.8872L111.275 16.3953Z" fill="#F58020"/>
<path d="M83.8462 41.7875H90.6625V33.2955L83.8462 41.7875Z" fill="#034EA2"/>
<path d="M97.5642 33.2955H90.6658V41.7875L97.5642 33.2955Z" fill="#00B7E6"/>
<path d="M90.6658 33.2956H97.5642V24.8036L90.6658 33.2956Z" fill="#5CA038"/>
<path d="M104.379 33.2956H97.5632V24.8036L104.379 33.2956Z" fill="#8DC63F"/>
<path d="M97.5632 33.2955H104.379V41.7875L97.5632 33.2955Z" fill="#00B7E6"/>
<path d="M111.275 41.7875H104.377V33.2955L111.275 41.7875Z" fill="#034EA2"/>
<path d="M124.663 45.9071C124.17 47.3364 123.595 48.4295 122.774 49.1862C121.378 50.6155 119.489 51.12 117.436 51.12H114.972V45.4026H116.368C118.175 45.4026 118.832 44.9822 119.489 43.1325L120.557 40.0216L112.016 16.3113H118.586L123.76 32.1181L128.769 16.3113H135.339L124.663 45.9071Z" fill="#034EA2"/>
<path d="M172.297 34.4727H153.983V41.7035H172.297V34.4727Z" fill="#034EA2"/>
<path d="M169.423 17.0675H153.983V24.2983H169.423V17.0675Z" fill="#8DC63F"/>
<path d="M172.297 0H153.983V7.2308H172.297V0Z" fill="#034EA2"/>
</svg>
