<svg width="75" height="61" viewBox="0 0 75 61" fill="none" xmlns="http://www.w3.org/2000/svg">
<g clip-path="url(#clip0_5958_11634)">
<path d="M37.7134 17.0393H40.8788V18.777H43.0175V42.3369H36.2591V40.5991H34.1204V22.8509L20.3042 45.1857C18.1655 48.6328 19.6626 51.4531 23.6121 51.4531H71.5624L73.53 54.6296L41.3778 2.68115L43.987 6.91166L37.7134 17.0535V17.0393ZM43.0175 50.8264H36.2591V49.0886H34.1204V43.0633H40.8788V44.8011H43.0175V50.8406V50.8264ZM48.4213 19.9023L62.2946 42.109C63.15 43.4764 62.7366 45.2712 61.3678 46.1258C59.999 46.9805 58.2025 46.5674 57.347 45.1999L43.4737 22.9933C42.6183 21.6259 43.0317 19.8311 44.4005 18.9765C45.7693 18.1218 47.5658 18.5349 48.4213 19.9023Z" fill="#F4CF38"/>
<path d="M73.5297 54.6296L71.5621 51.4532H23.6118C19.6623 51.4532 18.1652 48.6328 20.3039 45.1858L34.1201 22.8509V17.0393H37.7131L43.9867 6.89748L41.3775 2.66697C40.6646 1.51319 39.7948 0.758249 38.8681 0.373657L7.001 51.8948C4.87653 55.3418 6.35938 58.1622 10.3089 58.1622H74.4422C74.6133 57.1509 74.3282 55.9401 73.5154 54.6439L73.5297 54.6296Z" fill="#F0BB38"/>
<path d="M7.00238 51.8947L38.8694 0.387897C38.8409 0.373653 38.8124 0.359408 38.7696 0.359408C38.5985 0.288188 38.4417 0.245455 38.2706 0.202723C38.2278 0.202723 38.1708 0.174234 38.128 0.174234C37.7003 0.0887696 37.2725 0.103014 36.8448 0.174234C36.7877 0.174234 36.745 0.202723 36.6879 0.216967C36.5168 0.259699 36.36 0.302432 36.2031 0.373653C36.1461 0.387897 36.0891 0.416385 36.0463 0.430629C35.8324 0.516094 35.6328 0.630047 35.4332 0.758245C35.2336 0.886442 35.0482 1.04313 34.8629 1.21406C34.8058 1.25679 34.7488 1.31377 34.6918 1.37074C34.5492 1.49894 34.4209 1.64138 34.2926 1.79807C34.2355 1.85504 34.1785 1.92627 34.1357 1.98324C33.9646 2.1969 33.7935 2.43905 33.6367 2.69545L1.4702 54.6296C-0.668526 58.0767 0.828583 60.897 4.7781 60.897H70.2089C70.4941 60.897 70.7507 60.8828 71.0074 60.8543C71.0929 60.8543 71.1642 60.8258 71.2355 60.8258C71.4066 60.7973 71.5777 60.7689 71.7346 60.7261C71.8201 60.7119 71.8914 60.6834 71.9769 60.6691C72.1338 60.6264 72.2764 60.5694 72.4189 60.5125C72.476 60.484 72.5473 60.4697 72.6043 60.4412C72.7754 60.3558 72.9465 60.2703 73.1033 60.1706C73.1033 60.1706 73.1319 60.1706 73.1461 60.1421C73.3172 60.0282 73.4598 59.9142 73.5881 59.7718C73.6309 59.729 73.6594 59.6863 73.7022 59.6578C73.7877 59.5581 73.8733 59.4584 73.9588 59.3444C74.0016 59.2875 74.0301 59.2447 74.0586 59.1878C74.1299 59.0738 74.187 58.9598 74.2297 58.8459C74.2582 58.7889 74.2725 58.7319 74.301 58.675C74.3581 58.5325 74.4008 58.3758 74.4293 58.2049C74.4293 58.1764 74.4436 58.1622 74.4436 58.1337H10.3103C6.36076 58.1337 4.86365 55.3133 7.00238 51.8663V51.8947Z" fill="#EA9937"/>
<path d="M43.4591 23.0076L57.3323 45.2142C58.1878 46.5816 59.9843 46.9947 61.3531 46.1401C62.7219 45.2854 63.1354 43.4907 62.2799 42.1232L48.4067 19.9166C47.5512 18.5492 45.7546 18.1361 44.3858 18.9907C43.0171 19.8454 42.6036 21.6401 43.4591 23.0076Z" fill="white"/>
<path d="M36.2598 40.6133V42.3511H43.0181V18.7913H40.8794V40.6133H36.2598Z" fill="#EB9B37"/>
<path d="M40.8794 49.0886H36.2598V50.8407H43.0181V44.8011H40.8794V49.0886Z" fill="#EB9B37"/>
<path d="M36.2598 40.6134H40.8795V18.7913V17.0393H37.7142H34.1211V22.8652V40.6134H36.2598Z" fill="#442F46"/>
<path d="M40.8795 44.8011V43.0634H34.1211V49.0886H36.2598H40.8795V44.8011Z" fill="#442F46"/>
</g>
<defs>
<clipPath id="clip0_5958_11634">
<rect width="74" height="61" fill="white" transform="translate(0.5)"/>
</clipPath>
</defs>
</svg>
