<svg width="48" height="48" viewBox="0 0 48 48" fill="none" xmlns="http://www.w3.org/2000/svg">
<rect y="3.05176e-05" width="48" height="48" rx="24" fill="#DDFFF1"/>
<g clip-path="url(#clip0_12351_4448)">
<path d="M40 31.1414C39.95 31.348 39.9 31.5629 39.8417 31.7696C39.3417 33.4971 37.775 34.6708 35.925 34.6542C35.5167 34.6542 35.3 34.7534 35.1 35.1254C34.2333 36.7123 32.3417 37.5058 30.5667 37.0678C28.7667 36.6297 27.5 35.0758 27.4583 33.1912C27.425 31.2819 27.425 29.3643 27.4583 27.455C27.4917 25.6035 28.7583 24.0661 30.5333 23.6198C32.325 23.1735 34.1333 23.9256 35.0917 25.5209C35.125 25.5787 35.1667 25.6366 35.2083 25.711C35.5 23.0908 34.4333 19.1068 31.0917 16.4288C27.5083 13.5524 22.4667 13.1226 18.525 15.3378C14.3333 17.6934 12.4917 22.0246 12.7583 25.7358C12.8083 25.6779 12.8333 25.6448 12.8583 25.6035C13.8333 23.9917 15.5667 23.2065 17.3167 23.595C19.0833 23.9835 20.4167 25.4051 20.5083 27.2649C20.6083 29.3643 20.5917 31.4803 20.4917 33.588C20.4083 35.3651 19.0083 36.7702 17.2083 37.1339C15.525 37.4728 13.7167 36.6628 12.9 35.1336C12.6917 34.7452 12.4667 34.6625 12.0667 34.6708C10.375 34.6873 8.875 33.6789 8.275 32.125C8.15 31.8109 8.09167 31.472 8 31.1497C8 30.819 8 30.4884 8 30.1578C8.01667 30.133 8.04167 30.1082 8.05 30.0834C8.20833 29.0833 8.68333 28.265 9.45 27.5955C9.53333 27.5211 9.58333 27.3641 9.58333 27.2484C9.6 26.678 9.59167 26.116 9.59167 25.5457C9.575 24.0909 9.69167 22.6527 10.1333 21.2641C11.9583 15.5444 15.8417 12.0564 21.7833 11.0149C25.6583 10.3371 29.2667 11.2463 32.45 13.5524C35.8667 16.0238 37.8417 19.3713 38.3083 23.5537C38.4417 24.7439 38.3917 25.9424 38.4083 27.1409C38.4083 27.3641 38.4583 27.5211 38.6417 27.6699C39.2 28.1328 39.575 28.7196 39.8 29.4056C39.8833 29.6453 39.9333 29.8933 40.0083 30.1413C40 30.4719 40 30.8025 40 31.1414Z" fill="url(#paint0_linear_12351_4448)"/>
</g>
<defs>
<linearGradient id="paint0_linear_12351_4448" x1="6.09474" y1="24.0031" x2="40.0083" y2="24.0031" gradientUnits="userSpaceOnUse">
<stop stop-color="#0E9F97"/>
<stop offset="1" stop-color="#63D0BD"/>
</linearGradient>
<clipPath id="clip0_12351_4448">
<rect width="32" height="26.4" fill="white" transform="translate(8 10.8)"/>
</clipPath>
</defs>
</svg>
