<svg width="148" height="24" viewBox="0 0 148 24" fill="none" xmlns="http://www.w3.org/2000/svg">
<g clip-path="url(#clip0_152_18481)">
<path d="M4.00549 12.9675C3.98632 13.3763 4.89347 21.1889 4.95096 21.8022C5.05957 22.7732 5.49397 23.7889 6.23502 23.8144C6.97607 23.7889 7.41048 22.7732 7.51908 21.8022C7.58296 21.2592 8.4965 13.1719 8.47095 12.9419C8.26013 9.03879 4.24186 8.91103 4.00549 12.9675Z" fill="white"/>
<path d="M9.32699 4.24211C9.46753 4.38264 9.7039 4.38264 9.84444 4.24211L10.6047 3.48193C10.7452 3.335 10.7452 3.10503 10.6047 2.96449L10.5727 2.93255C10.4322 2.79201 10.1958 2.79201 10.0553 2.93255L9.29504 3.69273C9.1545 3.83327 9.1545 4.06963 9.29504 4.21017L9.32699 4.24211Z" fill="white"/>
<path d="M12.1187 5.65332H10.3172C10.1128 5.65332 9.95306 5.81941 9.95306 6.01744V6.05577C9.95306 6.26019 10.1192 6.41989 10.3172 6.41989H12.1187C12.3231 6.41989 12.4829 6.2538 12.4829 6.05577V6.02383C12.4892 5.81941 12.3231 5.65332 12.1187 5.65332Z" fill="white"/>
<path d="M9.71029 8.63665C9.56335 8.49612 9.33337 8.49612 9.19283 8.63665L9.16089 8.66221C9.02035 8.80913 9.02035 9.0391 9.16089 9.17964L9.9211 9.93982C10.068 10.0804 10.298 10.0804 10.4386 9.93982L10.4705 9.90788C10.6174 9.76734 10.6174 9.53098 10.4705 9.39045L9.71029 8.63665Z" fill="white"/>
<path d="M3.29003 8.63665C3.1431 8.49612 2.91312 8.49612 2.77257 8.63665L2.01236 9.39683C1.86543 9.54376 1.86543 9.77373 2.01236 9.91427L2.0443 9.94621C2.18485 10.0867 2.42121 10.0867 2.56176 9.94621L3.32197 9.18603C3.46252 9.04549 3.46252 8.80913 3.32197 8.66859L3.29003 8.63665Z" fill="white"/>
<path d="M2.53618 6.06181V6.02348C2.53618 5.81906 2.37008 5.65936 2.17204 5.65936H0.364136C0.166097 5.65297 0 5.81906 0 6.02348V6.06181C0 6.26623 0.166097 6.42593 0.364136 6.42593H2.16565C2.37008 6.43232 2.53618 6.26623 2.53618 6.06181Z" fill="white"/>
<path d="M2.63838 4.24211C2.77892 4.38264 3.01529 4.38264 3.15583 4.24211L3.18778 4.21017C3.32832 4.06963 3.32832 3.83327 3.18778 3.69273L2.42756 2.93255C2.28063 2.79201 2.05065 2.79201 1.91011 2.93255L1.88455 2.96449C1.73762 3.11142 1.73762 3.34139 1.88455 3.48193L2.63838 4.24211Z" fill="white"/>
<path d="M6.22223 2.67022H6.26056C6.46499 2.67022 6.6247 2.50413 6.6247 2.3061V0.36412C6.63108 0.16609 6.46499 0 6.26695 0H6.22223C6.0178 0 5.85809 0.16609 5.85809 0.36412V2.29971C5.85809 2.50413 6.0178 2.67022 6.22223 2.67022Z" fill="white"/>
<path d="M13.933 16.9537C13.933 20.876 16.5969 23.757 20.4172 23.8017L25.1701 23.8081V22.0322H20.5002C17.7213 22.0258 15.9261 19.7772 15.9261 16.9154C15.9261 14.0854 17.6446 11.7219 20.5194 11.6963H25.1637V9.99707H20.4108C16.5586 10.0737 13.933 13.1464 13.933 16.9537Z" fill="white"/>
<path d="M53.6622 20.8703L46.718 10.5152C46.4753 10.1702 46.0856 9.96582 45.6639 9.96582C44.9548 9.96582 44.3799 10.5407 44.3799 11.2498V23.8088H46.2708V12.8852L53.2405 23.2658C53.4769 23.6044 53.8666 23.8088 54.2818 23.8088C54.9845 23.8088 55.5531 23.2402 55.5531 22.5376V9.97221H53.6622V20.8703Z" fill="white"/>
<path d="M6.23501 3.56445C4.68264 3.56445 3.42413 4.8229 3.42413 6.37521C3.42413 7.92751 4.68264 9.18596 6.23501 9.18596C7.78738 9.18596 9.04588 7.92751 9.04588 6.37521C9.04588 4.8229 7.78738 3.56445 6.23501 3.56445Z" fill="white"/>
<path d="M39.94 22.1855H29.6164L27.834 23.214L26.7991 23.8145H42.7572L41.4412 23.0479L39.94 22.1855Z" fill="white"/>
<path d="M29.6164 22.1855L34.7782 12.9803V9.99707L26.7991 23.8145H26.8055L27.834 23.214L29.6164 22.1855Z" fill="white"/>
<path d="M27.834 23.2146L29.6228 22.1797L27.834 23.2146Z" fill="white"/>
<path d="M39.94 22.1791V22.1855L41.4413 23.0543L42.7573 23.8145L34.7782 9.99707V12.9803L39.94 22.1791Z" fill="white"/>
<path d="M41.4413 23.0543L39.94 22.1855L41.4413 23.0543Z" fill="white"/>
<path d="M147.456 10.3233C147.296 10.1636 147.098 10.0869 146.849 10.0869H144.792H142.971H139.183C138.94 10.0869 138.736 10.1636 138.576 10.3233C138.416 10.483 138.34 10.681 138.34 10.9301C138.34 11.1729 138.416 11.3773 138.576 11.537C138.736 11.6967 138.934 11.7734 139.183 11.7734H142.051V22.7609C142.051 23.2336 142.364 23.6552 142.799 23.7574C142.869 23.7766 142.946 23.7829 143.022 23.7829C143.233 23.7829 143.444 23.7127 143.616 23.5721C143.853 23.3869 143.987 23.1058 143.987 22.812V11.7734H146.855C147.098 11.7734 147.303 11.6967 147.462 11.537C147.622 11.3773 147.699 11.1793 147.699 10.9301C147.692 10.681 147.609 10.483 147.456 10.3233Z" fill="white"/>
<path d="M99.0514 10.0869C98.7959 10.0869 98.5787 10.17 98.3998 10.3424C98.2209 10.5149 98.1379 10.7321 98.1379 11.0004V20.5889L90.4974 10.4255C90.3122 10.2019 90.0758 10.0933 89.7947 10.0933C89.5392 10.0933 89.322 10.1763 89.1559 10.3488C88.9834 10.5213 88.9003 10.7385 88.9003 11.0068V22.8695C88.9003 23.125 88.9834 23.3422 89.1559 23.521C89.322 23.6999 89.5392 23.7829 89.7947 23.7829C90.063 23.7829 90.2802 23.6935 90.4527 23.521C90.6252 23.3486 90.7082 23.1314 90.7082 22.8695V13.2937L98.3487 23.4572C98.4317 23.5594 98.5404 23.6424 98.6745 23.6935C98.8087 23.7446 98.9364 23.7702 99.0514 23.7702C99.3197 23.7702 99.5369 23.6807 99.703 23.5083C99.8691 23.3358 99.9458 23.1186 99.9458 22.8567V11.0004C99.9458 10.7321 99.8627 10.5149 99.703 10.3424C99.5369 10.17 99.3197 10.0869 99.0514 10.0869Z" fill="white"/>
<path d="M112.786 10.0869C112.531 10.0869 112.314 10.17 112.135 10.3424C111.956 10.5149 111.873 10.7321 111.873 11.0004V20.5889L104.232 10.4255C104.047 10.2019 103.811 10.0933 103.53 10.0933C103.274 10.0933 103.057 10.1763 102.891 10.3488C102.718 10.5213 102.635 10.7385 102.635 11.0068V22.8695C102.635 23.125 102.718 23.3422 102.891 23.521C103.057 23.6999 103.274 23.7829 103.53 23.7829C103.798 23.7829 104.015 23.6935 104.188 23.521C104.36 23.3486 104.443 23.1314 104.443 22.8695V13.2937L112.084 23.4572C112.167 23.5594 112.275 23.6424 112.409 23.6935C112.544 23.7446 112.671 23.7702 112.786 23.7702C113.055 23.7702 113.272 23.6807 113.438 23.5083C113.604 23.3358 113.681 23.1186 113.681 22.8567V11.0004C113.681 10.7321 113.598 10.5149 113.438 10.3424C113.272 10.17 113.055 10.0869 112.786 10.0869Z" fill="white"/>
<path d="M125.857 11.5429C126.023 11.3896 126.1 11.1915 126.1 10.9488C126.1 10.6933 126.017 10.4824 125.857 10.3291C125.691 10.1694 125.48 10.0928 125.205 10.0928H117.284C117.028 10.0928 116.811 10.1758 116.632 10.3483C116.46 10.5144 116.37 10.738 116.37 11.0063V22.8753C116.37 23.1308 116.46 23.348 116.632 23.5269C116.811 23.6994 117.022 23.7888 117.284 23.7888H125.205C125.474 23.7888 125.691 23.7121 125.857 23.5524C126.023 23.3927 126.1 23.1883 126.1 22.9328C126.1 22.6901 126.017 22.4856 125.857 22.3387C125.691 22.1854 125.48 22.1087 125.205 22.1087H118.191V17.7265V16.0465V11.7856H125.205C125.474 11.7728 125.691 11.6962 125.857 11.5429Z" fill="white"/>
<path d="M119.865 16.0664C119.386 16.0664 118.996 16.4561 118.996 16.9352C118.996 17.4143 119.386 17.804 119.865 17.804H123.34C123.749 17.804 124.196 17.4782 124.209 16.9607C124.222 16.4752 123.793 16.0728 123.302 16.0728H119.865V16.0664Z" fill="white"/>
<path d="M139.081 19.8668C138.698 19.7007 138.244 19.8476 138.027 20.2181C137.279 21.4766 136.219 21.9429 135.471 22.1537C132.948 22.8628 130.974 21.7321 129.914 20.6397C128.834 19.5346 128.297 18.0653 128.406 16.513C128.578 14.0472 130.393 12.0414 132.82 11.6198C133.932 11.4281 135.043 11.5815 136.046 12.0542C136.404 12.2266 136.845 12.118 137.088 11.7923C137.241 11.5878 137.292 11.3259 137.235 11.0768C137.171 10.8213 136.998 10.6105 136.762 10.5019C135.74 10.0228 134.596 9.79279 133.459 9.8375C131.587 9.91416 129.856 10.7127 128.578 12.0797C127.307 13.4468 126.63 15.229 126.681 17.0944C126.739 19.0236 127.531 20.7931 128.923 22.0898C130.233 23.31 131.919 23.9679 133.715 23.9679C133.817 23.9679 133.919 23.9679 134.021 23.9615C135.344 23.904 136.5 23.5846 137.458 23.0097C138.244 22.537 138.908 21.8854 139.432 21.0869C139.566 20.8761 139.605 20.627 139.534 20.3906C139.471 20.1542 139.304 19.969 139.081 19.8668Z" fill="white"/>
<path d="M70.6999 10.8789C70.7254 10.8917 70.7572 10.9108 70.7827 10.93C70.7509 10.9108 70.7254 10.8917 70.6999 10.8789Z" fill="white"/>
<path d="M74.4052 21.3682C74.4306 21.4065 74.4561 21.4448 74.488 21.4831C74.5071 21.5087 74.5326 21.5279 74.5517 21.5534C74.5326 21.5279 74.5135 21.5087 74.488 21.4831C74.4561 21.4512 74.4243 21.4129 74.4052 21.3682Z" fill="white"/>
<path d="M85.9358 20.0264C85.904 20.0966 85.8657 20.1669 85.8275 20.2372C85.8657 20.1605 85.8976 20.0966 85.9358 20.0264Z" fill="white"/>
<path d="M85.8275 20.2306C85.8658 20.1603 85.8978 20.0901 85.9361 20.0198C85.8978 20.0964 85.8658 20.1667 85.8275 20.2306ZM79.733 23.9037H79.6883H79.7394H79.733ZM75.0503 20.1475H75.0567H75.0695H75.0503ZM74.4818 21.4827C74.4498 21.4443 74.4243 21.406 74.3987 21.3677C74.4243 21.4124 74.4562 21.4507 74.4818 21.4827C74.5009 21.5082 74.5201 21.5274 74.5457 21.5529C74.5265 21.5338 74.5073 21.5082 74.4818 21.4827ZM86.313 14.6027C85.9936 13.7148 85.4953 12.9162 84.8501 12.2199C84.6329 11.9836 84.3965 11.7664 84.1537 11.5684V11.8878C84.1537 12.4755 83.879 12.9929 83.4574 13.3315C84.256 14.1428 84.7926 15.2096 84.9267 16.3977C85.0928 17.9053 84.6329 19.3554 83.6299 20.4733C82.6397 21.5849 81.2215 22.2173 79.733 22.2173C78.1934 22.2173 76.7369 21.5401 75.7403 20.3584C75.5678 20.1539 75.325 20.0389 75.0567 20.0389C74.7756 20.0389 74.5137 20.1667 74.3476 20.3967C74.0985 20.7289 74.124 21.208 74.4115 21.5338C75.0503 22.2875 75.8617 22.9072 76.756 23.3224C77.6887 23.7632 78.6917 23.9868 79.733 23.9868C79.8097 23.9868 79.8863 23.9868 79.963 23.9868C81.6878 23.9293 83.3233 23.233 84.5818 22.0256C85.8403 20.8119 86.6005 19.2021 86.7155 17.4837C86.7858 16.5 86.6516 15.529 86.313 14.6027Z" fill="white"/>
<path d="M82.8505 8.70096C82.8314 8.6818 82.8058 8.66902 82.7803 8.64986C82.7483 8.6243 82.71 8.60514 82.6717 8.58597C82.5567 8.52848 82.4289 8.50293 82.2947 8.50293H79.7713C79.7266 8.50293 79.6819 8.50293 79.6372 8.50932C79.6116 8.51571 79.5797 8.52209 79.5541 8.52848C79.4455 8.56042 79.3433 8.60514 79.2539 8.67541C79.2347 8.69457 79.2092 8.70735 79.19 8.72651C79.1772 8.7329 79.1708 8.74568 79.1581 8.75845C79.0047 8.91177 78.9025 9.12896 78.9025 9.36532V9.83165V10.0425V11.8375V11.8886C78.9025 11.9717 78.9153 12.0483 78.9345 12.125C78.9409 12.1441 78.9472 12.1633 78.9536 12.1825C78.9728 12.2336 78.992 12.2783 79.0175 12.323C79.0367 12.3549 79.0558 12.3805 79.075 12.406C79.107 12.4444 79.1389 12.4827 79.1772 12.521C79.2028 12.5466 79.2283 12.5657 79.2539 12.5849C79.3114 12.6232 79.3689 12.6616 79.4328 12.6871C79.4647 12.6999 79.4966 12.7127 79.535 12.7191C79.5605 12.7254 79.5925 12.7318 79.618 12.7382C79.6436 12.7446 79.6755 12.7446 79.7011 12.751C79.7202 12.751 79.7394 12.751 79.7586 12.751H82.0839H82.282C82.4097 12.751 82.5375 12.7191 82.6461 12.668C82.6844 12.6488 82.7164 12.6296 82.7483 12.6105C82.7803 12.5913 82.8122 12.5657 82.8441 12.5402C82.8761 12.5146 82.9016 12.4891 82.9272 12.4571C82.9272 12.4571 82.9272 12.4571 82.9336 12.4508C82.9591 12.4188 82.9847 12.3933 83.0038 12.3613C83.0038 12.3613 83.0038 12.3549 83.0102 12.3549C83.0166 12.3422 83.0294 12.323 83.0358 12.3102V12.3038C83.0422 12.2847 83.055 12.2719 83.0613 12.2527C83.0613 12.2463 83.0613 12.2463 83.0677 12.2463C83.0741 12.2336 83.0805 12.2144 83.0869 12.2016L83.0933 12.1952C83.0997 12.1761 83.1061 12.1633 83.1125 12.1441V12.1377C83.1188 12.1186 83.1188 12.1058 83.1252 12.093V12.0803C83.1316 12.0611 83.1316 12.0419 83.138 12.0228V12.0164C83.138 11.9972 83.1444 11.9844 83.1444 11.9653C83.1444 11.9589 83.1444 11.9589 83.1444 11.9525C83.1444 11.9333 83.1444 11.9142 83.1444 11.895V10.8985V9.37171C83.1636 9.10341 83.0422 8.86066 82.8505 8.70096Z" fill="white"/>
<path d="M67.4802 23.9044C67.6207 23.9044 67.7612 23.9044 67.9018 23.8981C67.7612 23.8981 67.6207 23.9044 67.4802 23.9044ZM62.0437 21.2534C63.0722 22.5757 64.5735 23.5148 66.3047 23.8086C64.5671 23.5084 63.0658 22.5757 62.0437 21.2534ZM61.2515 14.0604C61.2898 13.9838 61.3218 13.9071 61.3601 13.8368C61.3218 13.9135 61.2898 13.9838 61.2515 14.0604ZM60.8746 18.9665C60.9065 19.0687 60.9321 19.1645 60.9704 19.2667C60.9385 19.1709 60.9065 19.0687 60.8746 18.9665ZM60.9129 14.9292C60.8874 15.0122 60.8618 15.0953 60.8363 15.1783C60.8618 15.0953 60.8874 15.0122 60.9129 14.9292ZM60.7277 18.3468C60.7468 18.4554 60.7724 18.5576 60.7979 18.6662C60.7724 18.5576 60.7468 18.4554 60.7277 18.3468C60.6382 17.8805 60.5935 17.4014 60.5999 16.9031C60.6063 16.5454 60.6382 16.1876 60.6957 15.8427C60.7021 15.7916 60.7149 15.7405 60.7213 15.6958C60.7468 15.5616 60.7724 15.4339 60.8107 15.3061C60.7788 15.4339 60.7468 15.5616 60.7213 15.6958C60.7149 15.7469 60.7021 15.7916 60.6957 15.8427C60.6382 16.1876 60.6063 16.5454 60.5999 16.9031C60.5935 17.4014 60.6382 17.8805 60.7277 18.3468ZM66.4516 11.7799C66.343 11.799 66.2408 11.8246 66.1322 11.8565C66.2408 11.8246 66.343 11.799 66.4516 11.7799ZM70.3485 12.374H70.3421H70.3358H70.3485ZM70.7765 10.9239C70.751 10.9047 70.7254 10.8919 70.6999 10.8728C70.7254 10.8919 70.751 10.9111 70.7765 10.9239ZM77.9315 10.234C73.3255 11.3199 72.6547 15.9449 72.0095 18.449C71.1471 21.477 69.0772 22.1733 67.4802 22.1733C65.9853 22.1733 64.599 21.5856 63.6088 20.4804C62.6058 19.3561 62.1459 17.9124 62.312 16.4048C62.5867 13.939 64.5862 12.0035 67.0585 11.7926C67.2055 11.7799 67.3588 11.7735 67.5057 11.7735C68.349 11.7735 69.1795 11.9779 69.9205 12.3676C70.0483 12.4378 70.1952 12.4698 70.3421 12.4698C70.6105 12.4698 70.8596 12.3548 71.0257 12.144C71.1918 11.9396 71.2621 11.6649 71.211 11.403C71.1535 11.1347 70.9874 10.9111 70.7446 10.7833C70.2527 10.5278 69.7352 10.3298 69.1986 10.1956C68.6492 10.0615 68.0743 9.99121 67.5057 9.99121C66.5666 9.99121 65.6595 10.1765 64.8034 10.5342C63.9793 10.8792 63.2319 11.3774 62.5867 12.0098C61.9478 12.6423 61.4368 13.3833 61.079 14.2073C60.7085 15.057 60.5169 15.9641 60.5041 16.8967C60.4913 17.8613 60.6638 18.794 61.0215 19.6691C61.3665 20.5188 61.8712 21.2789 62.51 21.9305C63.1489 22.5757 63.8963 23.0868 64.7332 23.4381C65.602 23.8086 66.5219 23.9939 67.4802 23.9939C70.7765 23.9939 72.8655 22.2052 73.6705 19.1134C74.4243 16.2196 74.8332 13.198 77.9443 12.0865C77.9379 12.0162 77.9315 11.9524 77.9315 11.8821V10.234Z" fill="white"/>
<path d="M83.5021 7.07815V6.17104C83.5021 5.90274 83.2849 5.68555 83.0166 5.68555H82.1095C81.8412 5.68555 81.624 5.90274 81.624 6.17104V7.07815C81.624 7.34645 81.8412 7.56364 82.1095 7.56364H83.0166C83.2849 7.56364 83.5021 7.34645 83.5021 7.07815Z" fill="white"/>
<path d="M85.9808 7.37207H84.5562C84.1027 7.37207 83.7385 7.73619 83.7385 8.18974V9.61429C83.7385 10.0678 84.1027 10.432 84.5562 10.432H85.9808C86.4344 10.432 86.7985 10.0678 86.7985 9.61429V8.18974C86.8049 7.74258 86.4344 7.37207 85.9808 7.37207Z" fill="white"/>
</g>
<defs>
<clipPath id="clip0_152_18481">
<rect width="147.692" height="24" fill="white"/>
</clipPath>
</defs>
</svg>
