<svg width="568" height="234" viewBox="0 0 568 234" fill="none" xmlns="http://www.w3.org/2000/svg">
<path d="M209.94 141.731C206.69 141.731 204.04 139.081 204.04 135.831V128.751C204.04 125.501 206.69 122.851 209.94 122.851H227.31V67.9208H209.94C206.69 67.9208 204.04 65.2708 204.04 62.0208V54.9408C204.04 51.6908 206.69 49.0408 209.94 49.0408H266.93C270.18 49.0408 272.83 51.6908 272.83 54.9408V62.0208C272.83 65.2708 270.18 67.9208 266.93 67.9208H249.56V122.851H266.93C270.18 122.851 272.83 125.501 272.83 128.751V135.831C272.83 139.081 270.18 141.731 266.93 141.731H209.94Z" fill="#0EA882"/>
<path d="M266.93 50.5408C269.36 50.5408 271.33 52.5108 271.33 54.9408V62.0208C271.33 64.4508 269.36 66.4208 266.93 66.4208H248.06V124.351H266.93C269.36 124.351 271.33 126.321 271.33 128.751V135.831C271.33 138.261 269.36 140.231 266.93 140.231H209.94C207.51 140.231 205.54 138.261 205.54 135.831V128.751C205.54 126.321 207.51 124.351 209.94 124.351H228.81V66.4208H209.94C207.51 66.4208 205.54 64.4508 205.54 62.0208V54.9408C205.54 52.5108 207.51 50.5408 209.94 50.5408H266.93ZM266.93 47.5408H209.94C205.86 47.5408 202.54 50.8608 202.54 54.9408V62.0208C202.54 66.1008 205.86 69.4208 209.94 69.4208H225.81V121.351H209.94C205.86 121.351 202.54 124.671 202.54 128.751V135.831C202.54 139.911 205.86 143.231 209.94 143.231H266.93C271.01 143.231 274.33 139.911 274.33 135.831V128.751C274.33 124.671 271.01 121.351 266.93 121.351H251.06V69.4208H266.93C271.01 69.4208 274.33 66.1008 274.33 62.0208V54.9408C274.33 50.8608 271.01 47.5408 266.93 47.5408Z" fill="white"/>
<path d="M287.34 141.731C284.09 141.731 281.44 139.081 281.44 135.831V54.9408C281.44 51.6908 284.09 49.0408 287.34 49.0408H341.82C345.07 49.0408 347.72 51.6908 347.72 54.9408V62.4008C347.72 65.6508 345.07 68.3008 341.82 68.3008H303.68V83.8008H335.15C338.4 83.8008 341.05 86.4508 341.05 89.7008V96.4708C341.05 99.7208 338.4 102.371 335.15 102.371H303.68V122.481H342.69C345.94 122.481 348.59 125.131 348.59 128.381V135.841C348.59 139.091 345.94 141.741 342.69 141.741H287.34V141.731Z" fill="#0EA882"/>
<path d="M341.82 50.5408C344.25 50.5408 346.22 52.5108 346.22 54.9408V62.4008C346.22 64.8308 344.25 66.8008 341.82 66.8008H302.18V85.3008H335.15C337.58 85.3008 339.55 87.2708 339.55 89.7008V96.4708C339.55 98.9008 337.58 100.871 335.15 100.871H302.18V123.981H342.69C345.12 123.981 347.09 125.951 347.09 128.381V135.841C347.09 138.271 345.12 140.241 342.69 140.241H287.34C284.91 140.241 282.94 138.271 282.94 135.841V54.9408C282.94 52.5108 284.91 50.5408 287.34 50.5408H341.82ZM341.82 47.5408H287.34C283.26 47.5408 279.94 50.8608 279.94 54.9408V135.831C279.94 139.911 283.26 143.231 287.34 143.231H342.69C346.77 143.231 350.09 139.911 350.09 135.831V128.371C350.09 124.291 346.77 120.971 342.69 120.971H305.18V103.861H335.15C339.23 103.861 342.55 100.541 342.55 96.4608V89.6908C342.55 85.6108 339.23 82.2908 335.15 82.2908H305.18V69.7908H341.82C345.9 69.7908 349.22 66.4708 349.22 62.3908V54.9308C349.22 50.8508 345.9 47.5308 341.82 47.5308V47.5408Z" fill="white"/>
<path d="M363.65 141.731C360.4 141.731 357.75 139.081 357.75 135.831V54.9408C357.75 51.6908 360.4 49.0408 363.65 49.0408H374.1C377.35 49.0408 380 51.6908 380 54.9408V122.481H417.33C420.58 122.481 423.23 125.131 423.23 128.381V135.841C423.23 139.091 420.58 141.741 417.33 141.741H363.66L363.65 141.731Z" fill="#0EA882"/>
<path d="M374.1 50.5408C376.53 50.5408 378.5 52.5108 378.5 54.9408V123.981H417.33C419.76 123.981 421.73 125.951 421.73 128.381V135.841C421.73 138.271 419.76 140.241 417.33 140.241H363.66C361.23 140.241 359.26 138.271 359.26 135.841V54.9408C359.26 52.5108 361.23 50.5408 363.66 50.5408H374.11M374.1 47.5408H363.65C359.57 47.5408 356.25 50.8608 356.25 54.9408V135.831C356.25 139.911 359.57 143.231 363.65 143.231H417.32C421.4 143.231 424.72 139.911 424.72 135.831V128.371C424.72 124.291 421.4 120.971 417.32 120.971H381.49V54.9408C381.49 50.8608 378.17 47.5408 374.09 47.5408H374.1Z" fill="white"/>
<path d="M438.95 141.731C435.7 141.731 433.049 139.081 433.049 135.831V68.2908H407.25C404 68.2908 401.35 65.6408 401.35 62.3908V54.9308C401.35 51.6808 404 49.0308 407.25 49.0308H481.23C484.48 49.0308 487.13 51.6808 487.13 54.9308V62.3908C487.13 65.6408 484.48 68.2908 481.23 68.2908H455.299V135.831C455.299 139.081 452.65 141.731 449.4 141.731H438.95Z" fill="#0EA882"/>
<path d="M481.22 50.5408C483.65 50.5408 485.62 52.5108 485.62 54.9408V62.4008C485.62 64.8308 483.65 66.8008 481.22 66.8008H453.79V135.841C453.79 138.271 451.82 140.241 449.39 140.241H438.94C436.51 140.241 434.54 138.271 434.54 135.841V66.8008H407.24C404.81 66.8008 402.84 64.8308 402.84 62.4008V54.9408C402.84 52.5108 404.81 50.5408 407.24 50.5408H481.22ZM481.22 47.5408H407.24C403.16 47.5408 399.84 50.8608 399.84 54.9408V62.4008C399.84 66.4808 403.16 69.8008 407.24 69.8008H431.54V135.841C431.54 139.921 434.86 143.241 438.94 143.241H449.39C453.47 143.241 456.79 139.921 456.79 135.841V69.8008H481.22C485.3 69.8008 488.62 66.4808 488.62 62.4008V54.9408C488.62 50.8608 485.3 47.5408 481.22 47.5408Z" fill="white"/>
<path d="M528.16 143.351C521.33 143.351 514.95 142.291 509.18 140.211C503.34 138.101 498.42 134.821 494.55 130.451C492.05 127.631 490.1 124.271 488.76 120.491C488.05 118.491 488.25 116.281 489.3 114.431C490.36 112.561 492.17 111.251 494.27 110.831L502.37 109.191C502.86 109.091 503.35 109.041 503.85 109.041C507.13 109.041 510.02 111.191 510.88 114.271C511.66 117.071 513.02 119.311 514.91 120.931C517.83 123.441 522.15 124.711 527.73 124.711C531.45 124.711 534.42 124.231 536.56 123.281C538.61 122.371 540.09 121.181 540.96 119.741C541.86 118.241 542.3 116.631 542.3 114.811C542.3 111.981 541.29 109.881 539.22 108.401C536.93 106.771 533.87 105.561 530.12 104.821L521.1 103.081C517.94 102.491 514.64 101.671 511.29 100.641C507.84 99.5909 504.6 98.0609 501.65 96.1009C498.63 94.0909 496.14 91.4309 494.27 88.1909C492.38 84.9209 491.42 80.8009 491.42 75.9509C491.42 69.7909 493.04 64.5009 496.23 60.2309C499.4 56.0009 503.74 52.7609 509.15 50.6109C514.47 48.4909 520.58 47.4209 527.3 47.4209C534.02 47.4209 539.82 48.4409 545.06 50.4509C550.35 52.4809 554.79 55.4709 558.25 59.3509C560.1 61.4209 561.64 63.7709 562.83 66.3209C563.81 68.4209 563.77 70.8009 562.74 72.8509C561.73 74.8609 559.88 76.2809 557.67 76.7309L549.84 78.3409C549.36 78.4409 548.86 78.4909 548.37 78.4909C545.3 78.4909 542.57 76.5809 541.43 73.6309C541.15 72.9209 540.83 72.2409 540.48 71.6109C539.48 69.8509 538.05 68.5109 536.1 67.5409C534.12 66.5509 531.39 66.0509 527.99 66.0509C524.95 66.0509 522.38 66.4609 520.35 67.2509C518.4 68.0209 516.92 69.0509 515.95 70.3409C515 71.6009 514.54 73.0509 514.54 74.7609C514.54 77.1509 515.69 78.9509 518.04 80.2709C520.73 81.7809 524.52 83.0109 529.33 83.9309L538.62 85.8009C543.04 86.6509 547.35 88.0909 551.44 90.0609C555.64 92.0909 559.12 95.0309 561.79 98.8009C564.5 102.611 565.87 107.621 565.87 113.681C565.87 120.041 564.22 125.511 560.97 129.951C557.74 134.361 553.23 137.731 547.58 139.991C542.01 142.211 535.48 143.331 528.18 143.331L528.16 143.351Z" fill="#0EA882"/>
<path d="M527.29 48.9209C533.68 48.9209 539.43 49.9009 544.51 51.8509C549.6 53.8009 553.8 56.6409 557.12 60.3509C558.88 62.3209 560.33 64.5209 561.46 66.9609C563.07 70.4309 561.1 74.5009 557.36 75.2709L549.53 76.8809C549.14 76.9609 548.75 77.0009 548.36 77.0009C545.93 77.0009 543.73 75.4509 542.82 73.0909C542.52 72.3109 542.17 71.5709 541.77 70.8709C540.63 68.8609 538.96 67.3009 536.76 66.2009C534.56 65.1009 531.63 64.5509 527.98 64.5509C524.74 64.5509 522.01 64.9909 519.79 65.8609C517.57 66.7309 515.89 67.9309 514.74 69.4409C513.6 70.9609 513.03 72.7309 513.03 74.7709C513.03 77.7209 514.45 79.9909 517.3 81.5909C520.14 83.1909 524.06 84.4709 529.04 85.4209L538.32 87.2909C542.64 88.1209 546.79 89.5009 550.78 91.4309C554.77 93.3609 558.03 96.1109 560.56 99.6809C563.09 103.251 564.36 107.921 564.36 113.691C564.36 119.751 562.82 124.881 559.75 129.071C556.68 133.261 552.43 136.441 547.01 138.601C541.59 140.761 535.31 141.841 528.17 141.841C521.48 141.841 515.33 140.821 509.7 138.791C504.07 136.761 499.4 133.641 495.69 129.451C493.3 126.761 491.47 123.601 490.19 119.991C489 116.641 491.09 113.001 494.58 112.291L502.68 110.651C503.07 110.571 503.47 110.531 503.86 110.531C506.4 110.531 508.74 112.151 509.45 114.661C510.31 117.761 511.81 120.231 513.95 122.061C517.17 124.821 521.77 126.201 527.75 126.201C531.69 126.201 534.84 125.681 537.19 124.641C539.54 123.601 541.23 122.221 542.27 120.501C543.31 118.781 543.83 116.881 543.83 114.801C543.83 111.481 542.59 108.941 540.12 107.171C537.65 105.411 534.42 104.131 530.43 103.341L521.4 101.601C518.29 101.021 515.07 100.221 511.75 99.2009C508.43 98.1809 505.35 96.7309 502.5 94.8409C499.66 92.9509 497.35 90.4809 495.59 87.4309C493.83 84.3809 492.94 80.5509 492.94 75.9409C492.94 70.0809 494.44 65.1409 497.46 61.1209C500.47 57.0909 504.56 54.0509 509.73 52.0009C514.9 49.9409 520.76 48.9209 527.33 48.9209M527.29 45.9209C520.38 45.9209 514.08 47.0309 508.59 49.2109C502.92 51.4609 498.36 54.8709 495.03 59.3309C491.64 63.8709 489.92 69.4609 489.92 75.9509C489.92 81.0709 490.95 85.4409 492.97 88.9409C494.96 92.3809 497.6 95.2109 500.82 97.3509C503.89 99.3909 507.27 100.981 510.85 102.081C514.25 103.121 517.61 103.961 520.83 104.561L529.84 106.301C533.37 107.001 536.24 108.121 538.35 109.631C540.02 110.821 540.8 112.471 540.8 114.821C540.8 116.351 540.43 117.711 539.67 118.971C538.96 120.141 537.71 121.141 535.95 121.911C534 122.771 531.23 123.211 527.73 123.211C522.51 123.211 518.53 122.061 515.89 119.791C514.2 118.341 513.04 116.401 512.33 113.861C511.29 110.131 507.81 107.531 503.85 107.531C503.26 107.531 502.66 107.591 502.08 107.711L493.98 109.351C491.45 109.861 489.28 111.441 488.01 113.681C486.75 115.911 486.51 118.571 487.36 120.981C488.77 124.951 490.81 128.461 493.45 131.431C497.48 135.981 502.61 139.411 508.69 141.601C514.62 143.741 521.17 144.831 528.18 144.831C535.67 144.831 542.38 143.671 548.13 141.381C554.05 139.021 558.78 135.471 562.18 130.841C565.62 126.141 567.37 120.371 567.37 113.681C567.37 106.991 565.91 102.001 563.02 97.9309C560.2 93.9609 556.53 90.8609 552.1 88.7109C547.9 86.6809 543.46 85.2009 538.9 84.3209L529.64 82.4609C524.97 81.5609 521.32 80.3909 518.78 78.9609C516.35 77.6009 516.04 76.0009 516.04 74.7509C516.04 73.3709 516.4 72.2209 517.15 71.2309C517.95 70.1709 519.21 69.3009 520.9 68.6409C522.76 67.9109 525.15 67.5409 527.99 67.5409C531.15 67.5409 533.66 67.9909 535.43 68.8709C537.1 69.7109 538.32 70.8409 539.17 72.3409C539.49 72.9109 539.78 73.5209 540.03 74.1609C541.4 77.7009 544.67 79.9809 548.37 79.9809C548.96 79.9809 549.56 79.9209 550.14 79.8009L557.97 78.1909C560.63 77.6409 562.86 75.9409 564.08 73.5109C565.32 71.0509 565.36 68.1909 564.19 65.6709C562.94 62.9809 561.32 60.5109 559.37 58.3309C555.74 54.2709 551.11 51.1409 545.59 49.0309C540.18 46.9609 534.03 45.9009 527.29 45.9009V45.9209Z" fill="white"/>
<path d="M91.14 212.401C41.71 212.401 1.5 172.191 1.5 122.761C1.5 73.3308 41.71 33.1208 91.14 33.1208C93.63 33.1208 96.11 33.2209 98.53 33.4309C127.91 35.8309 154.22 52.5709 168.9 78.2309C176.67 91.6508 180.78 107.051 180.78 122.761C180.78 172.191 140.57 212.401 91.14 212.401ZM113.93 72.6709C104.22 72.6709 96.3201 80.5709 96.3201 90.2809C96.3201 99.9909 104.22 107.891 113.93 107.891C123.64 107.891 131.54 99.9909 131.54 90.2809C131.54 80.5709 123.64 72.6709 113.93 72.6709Z" fill="#0EA882"/>
<path d="M91.14 34.6208C93.59 34.6208 96.01 34.7208 98.4 34.9308C128.08 37.3508 153.56 54.4508 167.6 78.9808C175.06 91.8608 179.29 106.821 179.29 122.761C179.29 171.451 139.8 210.901 91.15 210.901C42.5 210.901 3.01001 171.451 3.01001 122.761C3.01001 74.0708 42.46 34.6208 91.15 34.6208M113.93 109.401C124.46 109.401 133.04 100.851 133.04 90.2908C133.04 79.7308 124.45 71.1808 113.93 71.1808C103.41 71.1808 94.8201 79.7308 94.8201 90.2908C94.8201 100.851 103.37 109.401 113.93 109.401ZM91.14 31.6208C40.88 31.6208 0 72.5108 0 122.761C0 173.011 40.89 213.901 91.14 213.901C141.39 213.901 182.28 173.011 182.28 122.761C182.28 106.791 178.1 91.1308 170.19 77.4708C155.27 51.3908 128.52 34.3708 98.64 31.9308C96.19 31.7208 93.67 31.6108 91.14 31.6108V31.6208ZM113.93 106.401C105.04 106.401 97.8201 99.1708 97.8201 90.2908C97.8201 81.4108 105.05 74.1808 113.93 74.1808C122.81 74.1808 130.04 81.4108 130.04 90.2908C130.04 99.1708 122.81 106.401 113.93 106.401Z" fill="white"/>
<path d="M31.8401 230.661C29.8601 230.661 27.97 229.791 26.67 228.281C25.38 226.781 24.82 224.861 25.11 222.881L40.3 119.321C40.82 115.781 43.82 113.201 47.43 113.201C50.12 113.201 52.45 114.631 53.69 117.031C58.32 126.041 66.7201 138.541 80.4501 146.861C89.87 152.571 101.29 155.591 113.48 155.591C115.01 155.591 116.56 155.541 118.07 155.441C118.24 155.431 118.41 155.421 118.57 155.421C121.58 155.421 124.12 157.281 125.04 160.161C125.95 163.011 124.95 165.971 122.5 167.721L35.76 229.391C34.59 230.221 33.2401 230.661 31.8401 230.661Z" fill="#F25022"/>
<path d="M47.43 115.701C49.01 115.701 50.59 116.481 51.46 118.181C56.54 128.081 65.22 140.561 79.15 149.011C89.49 155.281 101.48 158.101 113.48 158.101C115.08 158.101 116.66 158.051 118.24 157.941C118.35 157.941 118.46 157.931 118.57 157.931C122.67 157.931 124.5 163.231 121.05 165.681L34.31 227.351C33.53 227.911 32.67 228.151 31.84 228.151C29.41 228.151 27.18 226.021 27.59 223.231L42.78 119.671C43.15 117.121 45.29 115.691 47.43 115.691M47.43 110.701C42.57 110.701 38.53 114.171 37.83 118.951L22.6399 222.511C22.2499 225.191 23.03 227.881 24.78 229.911C26.56 231.971 29.14 233.161 31.84 233.161C33.76 233.161 35.61 232.561 37.2 231.431L123.94 169.761C127.3 167.371 128.66 163.311 127.41 159.411C126.17 155.541 122.62 152.931 118.56 152.931C118.34 152.931 118.12 152.931 117.89 152.951C116.43 153.051 114.94 153.101 113.47 153.101C101.74 153.101 90.7699 150.211 81.7399 144.731C68.5099 136.711 60.39 124.621 55.91 115.891C54.27 112.691 51.02 110.701 47.43 110.701Z" fill="white"/>
<path d="M113.33 142.831C104.21 142.831 95.1698 140.441 87.1798 135.911C74.8398 128.931 65.9498 117.551 62.1698 103.871C58.3798 90.1908 60.1598 75.8508 67.1598 63.5108C73.0498 53.0908 83.0698 42.7908 96.9498 32.9008C116.87 18.6308 140.29 8.28083 152.48 3.39083C153.79 2.86083 155.16 2.60083 156.55 2.60083C161.94 2.60083 166.47 6.47083 167.32 11.8008C169.58 25.9808 172.94 53.5908 170.08 79.2708C168.45 94.1908 164.92 106.511 159.58 115.901C150.15 132.521 132.43 142.841 113.33 142.841V142.831ZM113.93 73.6708C112.61 73.6708 111.27 73.8308 109.95 74.1308C103.93 75.5308 99.0099 80.5208 97.7199 86.5608C96.6299 91.6308 97.8298 96.7908 101 100.721C104.17 104.651 108.89 106.901 113.93 106.901C115.19 106.901 116.47 106.761 117.74 106.481C123.78 105.151 128.76 100.191 130.11 94.1508C131.25 89.0708 130.08 83.8808 126.9 79.9208C123.72 75.9508 118.99 73.6708 113.92 73.6708H113.93Z" fill="#F25022"/>
<path d="M156.55 5.08081C160.53 5.08081 164.18 7.94081 164.85 12.1708C167.13 26.4708 170.41 53.6708 167.6 78.9708C166.17 92.0508 163.1 104.631 157.41 114.641C148.08 131.081 130.96 140.321 113.33 140.321C104.88 140.321 96.3001 138.191 88.4201 133.721C64.0901 119.961 55.5401 89.0508 69.3401 64.7308C75.6801 53.5208 86.41 43.4708 98.4 34.9208C117.93 20.9308 140.78 10.7608 153.41 5.69081C154.45 5.27081 155.51 5.08081 156.55 5.08081ZM113.93 109.401C115.35 109.401 116.8 109.251 118.28 108.921C125.31 107.371 130.98 101.711 132.55 94.6908C135.34 82.2108 125.89 71.1708 113.93 71.1708C112.45 71.1708 110.92 71.3408 109.38 71.7008C102.39 73.3208 96.78 79.0208 95.27 86.0408C92.6 98.4608 101.98 109.401 113.93 109.401ZM156.55 0.0808105C154.84 0.0808105 153.15 0.41081 151.55 1.05081C139.26 5.99081 115.63 16.4308 95.49 30.8608C81.33 40.9608 71.06 51.5308 64.99 62.2808C57.66 75.2008 55.8 90.2108 59.77 104.541C63.73 118.861 73.0301 130.771 85.9601 138.091C94.3101 142.831 103.78 145.341 113.34 145.341C133.34 145.341 151.9 134.531 161.77 117.131C167.27 107.441 170.91 94.7908 172.58 79.5308C175.46 53.5708 172.08 25.7008 169.8 11.4008C168.76 4.85081 163.19 0.0908105 156.56 0.0908105L156.55 0.0808105ZM113.93 104.401C109.64 104.401 105.64 102.491 102.94 99.1508C100.2 95.7608 99.21 91.4808 100.16 87.0908C101.26 81.9808 105.42 77.7508 110.51 76.5708C111.65 76.3108 112.8 76.1708 113.93 76.1708C118.23 76.1708 122.25 78.1008 124.95 81.4808C127.69 84.9008 128.65 89.2008 127.67 93.6008C126.52 98.7208 122.32 102.911 117.2 104.041C116.11 104.281 115.01 104.401 113.93 104.401Z" fill="white"/>
<path d="M226.57 200.631C222.25 200.631 218.22 199.661 214.59 197.741C210.92 195.811 207.96 192.961 205.78 189.281C203.61 185.611 202.51 181.271 202.51 176.381C202.51 171.881 203.57 167.751 205.65 164.101C207.74 160.441 210.65 157.531 214.3 155.451C217.95 153.371 222.08 152.311 226.58 152.311C231.08 152.311 235.03 153.401 238.82 155.541C240.28 156.331 241.1 157.701 241.1 159.371C241.1 160.471 240.73 161.491 240.01 162.391C239.25 163.411 238.11 163.961 236.75 163.961C235.91 163.961 235.09 163.751 234.33 163.341C231.93 161.991 229.33 161.311 226.57 161.311C223.81 161.311 221.12 161.941 218.94 163.201C216.77 164.441 215.06 166.211 213.86 168.461C212.64 170.731 212.02 173.401 212.02 176.381C212.02 179.611 212.66 182.401 213.92 184.701C215.18 187.001 216.87 188.691 219.07 189.891C221.28 191.091 223.8 191.701 226.57 191.701C229.34 191.701 231.99 191.011 234.27 189.641L234.37 189.581C235.08 189.221 235.86 189.041 236.68 189.041C238.07 189.041 239.25 189.611 240.08 190.701C240.78 191.581 241.15 192.571 241.15 193.641C241.15 194.431 240.94 195.171 240.52 195.851C240.11 196.521 239.55 197.041 238.86 197.421C237.13 198.401 235.15 199.191 233 199.761C230.84 200.341 228.68 200.631 226.58 200.631H226.57Z" fill="#414042"/>
<path d="M226.57 153.811C230.66 153.811 234.49 154.821 238.07 156.841C239.08 157.391 239.59 158.231 239.59 159.371C239.59 160.131 239.34 160.821 238.83 161.461C238.32 162.131 237.63 162.471 236.74 162.471C236.15 162.471 235.58 162.321 235.03 162.031C232.42 160.561 229.59 159.821 226.56 159.821C223.53 159.821 220.61 160.521 218.19 161.911C215.77 163.301 213.88 165.251 212.53 167.761C211.18 170.271 210.51 173.141 210.51 176.391C210.51 179.891 211.21 182.901 212.6 185.431C213.99 187.961 215.91 189.891 218.35 191.211C220.79 192.541 223.53 193.201 226.57 193.201C229.61 193.201 232.51 192.441 235.04 190.931C235.55 190.681 236.09 190.551 236.68 190.551C237.61 190.551 238.34 190.911 238.89 191.621C239.4 192.251 239.65 192.931 239.65 193.641C239.65 194.141 239.51 194.621 239.24 195.061C238.97 195.501 238.6 195.851 238.13 196.101C236.49 197.031 234.64 197.771 232.6 198.311C230.56 198.861 228.54 199.131 226.56 199.131C222.47 199.131 218.71 198.221 215.28 196.411C211.85 194.601 209.11 191.971 207.06 188.511C205.02 185.061 203.99 181.011 203.99 176.381C203.99 172.121 204.97 168.281 206.93 164.841C208.89 161.411 211.59 158.711 215.02 156.751C218.45 154.791 222.3 153.811 226.55 153.811M226.57 150.811C221.81 150.811 217.43 151.931 213.55 154.141C209.66 156.361 206.56 159.461 204.34 163.351C202.13 167.231 201.01 171.611 201.01 176.371C201.01 181.531 202.18 186.131 204.49 190.031C206.81 193.951 209.97 196.991 213.89 199.061C217.74 201.091 222.01 202.121 226.57 202.121C228.8 202.121 231.09 201.811 233.38 201.201C235.65 200.591 237.75 199.751 239.61 198.701C240.49 198.221 241.24 197.511 241.79 196.631C242.36 195.701 242.65 194.691 242.65 193.621C242.65 192.241 242.17 190.901 241.25 189.751C240.14 188.311 238.52 187.531 236.68 187.531C235.62 187.531 234.62 187.761 233.69 188.231L233.59 188.281L233.49 188.341C231.42 189.581 229.15 190.191 226.56 190.191C223.97 190.191 221.79 189.661 219.78 188.561C217.83 187.501 216.34 186.001 215.23 183.971C214.09 181.901 213.52 179.351 213.52 176.381C213.52 173.651 214.08 171.231 215.18 169.171C216.27 167.151 217.74 165.621 219.69 164.511C221.67 163.371 223.92 162.821 226.57 162.821C229.22 162.821 231.39 163.421 233.56 164.641H233.58L233.6 164.671C234.59 165.201 235.64 165.471 236.73 165.471C238.54 165.471 240.12 164.701 241.19 163.301C242.1 162.151 242.58 160.791 242.58 159.381C242.58 157.141 241.49 155.311 239.52 154.231C235.5 151.971 231.15 150.821 226.56 150.821L226.57 150.811Z" fill="white"/>
<path d="M273.85 200.001C272.6 200.001 271.5 199.541 270.65 198.661C269.82 197.801 269.38 196.691 269.38 195.471V178.591C269.38 172.641 266.47 171.871 263.93 171.871C261.83 171.871 260.14 172.511 258.78 173.821C257.43 175.121 256.78 176.681 256.78 178.591V195.471C256.78 196.691 256.34 197.801 255.51 198.661C254.66 199.541 253.54 200.001 252.25 200.001C250.96 200.001 249.85 199.551 249.02 198.691C248.21 197.851 247.78 196.731 247.78 195.471V154.771C247.78 153.551 248.22 152.451 249.05 151.581C249.9 150.701 251 150.241 252.25 150.241C253.5 150.241 254.66 150.701 255.51 151.581C256.34 152.451 256.78 153.551 256.78 154.771V166.821C257.43 166.271 258.15 165.751 258.92 165.281C261.05 163.981 263.35 163.321 265.77 163.321C271.53 163.321 278.39 165.971 278.39 178.601V195.481C278.39 196.701 277.95 197.811 277.12 198.671C276.27 199.551 275.15 200.011 273.86 200.011L273.85 200.001Z" fill="#414042"/>
<path d="M252.23 151.721C253.11 151.721 253.84 152.011 254.41 152.601C254.98 153.191 255.26 153.911 255.26 154.751V170.741C256.31 169.101 257.79 167.701 259.68 166.541C261.57 165.381 263.6 164.801 265.75 164.801C273.17 164.801 276.87 169.391 276.87 178.581V195.461C276.87 196.301 276.59 197.021 276.02 197.611C275.45 198.201 274.72 198.491 273.84 198.491C272.96 198.491 272.29 198.201 271.72 197.611C271.15 197.021 270.87 196.301 270.87 195.461V178.581C270.87 173.101 268.55 170.361 263.92 170.361C261.43 170.361 259.37 171.151 257.73 172.731C256.09 174.311 255.27 176.261 255.27 178.581V195.461C255.27 196.301 254.99 197.021 254.42 197.611C253.85 198.201 253.12 198.491 252.24 198.491C251.36 198.491 250.64 198.211 250.09 197.641C249.54 197.071 249.27 196.341 249.27 195.461V154.761C249.27 153.921 249.55 153.201 250.12 152.611C250.69 152.021 251.39 151.731 252.24 151.731M252.23 148.721C250.57 148.721 249.09 149.341 247.95 150.521C246.84 151.671 246.26 153.131 246.26 154.751V195.451C246.26 197.111 246.83 198.581 247.92 199.711C249.03 200.871 250.52 201.481 252.23 201.481C253.94 201.481 255.44 200.861 256.57 199.681C257.68 198.531 258.26 197.071 258.26 195.451V178.571C258.26 177.071 258.75 175.901 259.8 174.891C260.89 173.841 262.2 173.361 263.91 173.361C265.99 173.361 267.86 173.761 267.86 178.581V195.461C267.86 197.081 268.45 198.541 269.55 199.691C270.68 200.871 272.16 201.491 273.83 201.491C275.5 201.491 277.04 200.871 278.17 199.691C279.28 198.541 279.86 197.081 279.86 195.461V178.581C279.86 163.981 271.01 161.801 265.74 161.801C263.09 161.801 260.57 162.501 258.25 163.891V154.751C258.25 153.131 257.66 151.671 256.56 150.521C255.42 149.341 253.92 148.721 252.22 148.721H252.23Z" fill="white"/>
<path d="M304.12 200.631C300.47 200.631 297.19 199.841 294.39 198.291C291.56 196.721 289.34 194.511 287.8 191.691C286.27 188.911 285.5 185.731 285.5 182.251C285.5 178.481 286.29 175.101 287.86 172.211C289.44 169.311 291.55 167.051 294.16 165.481C296.77 163.911 299.61 163.121 302.61 163.121C305.61 163.121 308.37 163.891 310.96 165.411C313.53 166.931 315.62 169.041 317.18 171.701C318.74 174.361 319.55 177.371 319.6 180.651V180.761C319.53 181.911 319.03 182.941 318.15 183.721C317.28 184.501 316.24 184.891 315.07 184.891H294.58C295.03 186.831 295.94 188.411 297.34 189.671C299.11 191.281 301.23 192.061 303.82 192.061C305.61 192.061 307.06 191.811 308.12 191.321C309.23 190.801 310.22 190.131 311.07 189.321L311.19 189.201L311.33 189.111C312.2 188.591 313.07 188.331 313.94 188.331C315.06 188.331 316.06 188.751 316.82 189.551C317.57 190.331 317.96 191.301 317.96 192.361C317.96 193.271 317.66 194.621 316.22 195.861C314.87 197.201 313.08 198.341 310.91 199.241C308.71 200.161 306.43 200.621 304.14 200.621L304.12 200.631ZM310.01 176.831C309.66 175.521 308.92 174.421 307.76 173.501C306.23 172.281 304.54 171.681 302.6 171.681C300.56 171.681 298.85 172.231 297.38 173.361C296.34 174.161 295.54 175.321 295.01 176.831H310.01Z" fill="#414042"/>
<path d="M302.61 164.621C305.31 164.621 307.83 165.321 310.19 166.701C312.55 168.091 314.44 170.011 315.88 172.451C317.31 174.891 318.05 177.631 318.09 180.671C318.05 181.431 317.73 182.071 317.14 182.601C316.55 183.131 315.85 183.391 315.05 183.391H292.8C293.09 186.471 294.26 188.931 296.31 190.781C298.35 192.631 300.85 193.561 303.8 193.561C305.82 193.561 307.47 193.271 308.73 192.681C309.99 192.091 311.11 191.331 312.08 190.401C312.71 190.021 313.32 189.831 313.91 189.831C314.63 189.831 315.23 190.081 315.71 190.591C316.19 191.101 316.44 191.691 316.44 192.361C316.44 193.241 316.02 194.051 315.18 194.761C313.96 195.981 312.34 197.011 310.31 197.861C308.29 198.701 306.22 199.121 304.12 199.121C300.71 199.121 297.7 198.401 295.11 196.971C292.52 195.541 290.52 193.541 289.11 190.971C287.7 188.401 286.99 185.491 286.99 182.251C286.99 178.711 287.72 175.601 289.17 172.931C290.62 170.261 292.54 168.201 294.92 166.771C297.3 165.341 299.86 164.621 302.6 164.621M293.06 178.331H311.71V177.821C311.5 175.591 310.5 173.751 308.71 172.321C306.92 170.891 304.89 170.171 302.61 170.171C300.33 170.171 298.21 170.831 296.48 172.161C294.75 173.491 293.61 175.541 293.07 178.321M302.61 161.621C299.33 161.621 296.23 162.491 293.38 164.201C290.55 165.911 288.24 168.361 286.54 171.501C284.85 174.611 284 178.231 284 182.261C284 186.001 284.84 189.421 286.49 192.431C288.17 195.491 290.59 197.911 293.67 199.621C296.7 201.291 300.22 202.141 304.13 202.141C306.62 202.141 309.1 201.641 311.48 200.651C313.81 199.681 315.75 198.441 317.23 196.991C319.07 195.381 319.45 193.601 319.45 192.391C319.45 190.941 318.91 189.611 317.89 188.551C316.83 187.451 315.46 186.861 313.92 186.861C312.78 186.861 311.64 187.201 310.54 187.861L310.25 188.031L310.01 188.261C309.28 188.961 308.42 189.541 307.46 189.991C306.61 190.381 305.35 190.591 303.8 190.591C301.6 190.591 299.81 189.931 298.33 188.591C297.64 187.961 297.09 187.241 296.68 186.421H315.05C316.58 186.421 318 185.881 319.13 184.871C320.31 183.811 320.99 182.431 321.08 180.871V180.761V180.651C321.03 177.101 320.15 173.841 318.46 170.961C316.77 168.081 314.5 165.791 311.71 164.141C308.89 162.481 305.83 161.641 302.6 161.641L302.61 161.621ZM297.5 175.331C297.74 175.031 298.01 174.771 298.3 174.551C299.5 173.631 300.91 173.181 302.6 173.181C304.19 173.181 305.57 173.671 306.83 174.671C307.09 174.881 307.33 175.101 307.53 175.331H297.5Z" fill="white"/>
<path d="M342.299 200.631C338.829 200.631 335.719 199.801 333.049 198.171C330.379 196.541 328.289 194.251 326.839 191.371C325.409 188.541 324.689 185.341 324.689 181.881C324.689 178.421 325.449 175.201 326.949 172.361C328.459 169.491 330.609 167.211 333.319 165.581C336.029 163.951 339.159 163.121 342.629 163.121C346.099 163.121 349.179 163.701 351.589 164.851C355.039 166.491 355.759 168.691 355.759 170.251C355.759 171.321 355.409 172.281 354.729 173.121C353.979 174.041 352.959 174.531 351.799 174.531C350.989 174.531 350.339 174.391 349.799 174.101C349.429 173.901 348.959 173.601 348.359 173.191L348.249 173.111L348.149 173.011C348.059 172.921 347.829 172.721 347.289 172.381C347.019 172.251 346.509 172.071 345.599 171.911C344.759 171.761 343.999 171.681 343.339 171.681C341.429 171.681 339.739 172.121 338.299 172.981C336.839 173.851 335.749 175.031 334.939 176.591C334.129 178.161 333.719 179.941 333.719 181.871C333.719 183.801 334.119 185.641 334.909 187.191C335.699 188.721 336.769 189.891 338.179 190.771C339.599 191.641 341.179 192.071 343.019 192.071C344.969 192.071 346.529 191.781 347.659 191.221C347.749 191.171 348.059 190.971 348.629 190.541C349.089 190.171 349.529 189.871 349.929 189.661C350.469 189.371 351.099 189.231 351.809 189.231C353.069 189.231 354.139 189.671 354.899 190.501C355.649 191.311 356.019 192.351 356.019 193.571C356.019 194.941 355.259 196.221 353.759 197.381C352.499 198.361 350.819 199.151 348.769 199.751C346.759 200.331 344.589 200.631 342.309 200.631H342.299Z" fill="#414042"/>
<path d="M342.61 164.621C345.94 164.621 348.71 165.151 350.92 166.201C353.13 167.251 354.24 168.601 354.24 170.241C354.24 170.961 354.01 171.601 353.54 172.171C353.08 172.741 352.49 173.021 351.77 173.021C351.22 173.021 350.79 172.941 350.47 172.771C350.15 172.601 349.72 172.331 349.17 171.951C348.92 171.701 348.52 171.401 347.97 171.071C347.46 170.821 346.75 170.611 345.82 170.441C344.89 170.271 344.05 170.191 343.29 170.191C341.1 170.191 339.16 170.701 337.48 171.711C335.79 172.721 334.49 174.121 333.56 175.911C332.63 177.701 332.17 179.691 332.17 181.881C332.17 184.071 332.62 186.121 333.53 187.881C334.44 189.651 335.71 191.041 337.35 192.051C338.99 193.061 340.87 193.571 342.97 193.571C345.07 193.571 346.93 193.231 348.28 192.561C348.57 192.391 348.98 192.121 349.48 191.741C349.9 191.401 350.27 191.151 350.59 190.981C350.91 190.811 351.3 190.731 351.76 190.731C352.6 190.731 353.27 190.991 353.75 191.521C354.23 192.051 354.48 192.731 354.48 193.571C354.48 194.451 353.92 195.331 352.81 196.191C351.69 197.051 350.2 197.761 348.32 198.311C346.44 198.861 344.43 199.131 342.28 199.131C339.08 199.131 336.25 198.381 333.81 196.891C331.37 195.391 329.48 193.331 328.15 190.701C326.82 188.071 326.16 185.131 326.16 181.881C326.16 178.631 326.86 175.701 328.25 173.061C329.64 170.431 331.58 168.361 334.06 166.871C336.55 165.371 339.39 164.631 342.59 164.631M342.61 161.621C338.87 161.621 335.48 162.521 332.53 164.291C329.58 166.061 327.25 168.541 325.61 171.651C324 174.711 323.18 178.151 323.18 181.871C323.18 185.591 323.96 188.991 325.49 192.041C327.07 195.171 329.34 197.661 332.26 199.441C335.17 201.221 338.54 202.121 342.3 202.121C344.72 202.121 347.03 201.801 349.18 201.181C351.41 200.531 353.25 199.651 354.66 198.561C356.54 197.101 357.5 195.421 357.5 193.561C357.5 191.971 356.98 190.561 355.98 189.481C355.24 188.671 353.91 187.721 351.78 187.721C350.82 187.721 349.95 187.921 349.2 188.321C348.72 188.571 348.22 188.911 347.67 189.351C347.24 189.671 347 189.831 346.88 189.901C345.97 190.331 344.63 190.561 342.99 190.561C341.35 190.561 340.11 190.211 338.94 189.491C337.76 188.761 336.87 187.791 336.21 186.511C335.52 185.161 335.18 183.641 335.18 181.871C335.18 180.101 335.52 178.651 336.23 177.281C336.9 175.981 337.82 175.001 339.03 174.271C340.25 173.541 341.65 173.181 343.3 173.181C343.87 173.181 344.54 173.251 345.29 173.381C346 173.511 346.38 173.641 346.54 173.701C346.92 173.951 347.05 174.061 347.05 174.071L347.24 174.261L347.46 174.411C348.11 174.861 348.63 175.191 349.06 175.411C349.82 175.821 350.71 176.011 351.77 176.011C353.38 176.011 354.83 175.321 355.86 174.051C356.76 172.951 357.23 171.621 357.23 170.231C357.23 168.241 356.36 165.461 352.2 163.481C349.59 162.241 346.36 161.611 342.6 161.611L342.61 161.621Z" fill="white"/>
<path d="M367.39 200.001C366.1 200.001 364.97 199.541 364.13 198.661C363.3 197.801 362.86 196.691 362.86 195.471V154.771C362.86 153.551 363.3 152.451 364.13 151.581C364.98 150.701 366.1 150.241 367.39 150.241C368.68 150.241 369.74 150.701 370.59 151.581C371.42 152.451 371.86 153.551 371.86 154.771V177.021L384.83 165.111C385.85 164.211 386.93 163.771 388.06 163.771C389.19 163.771 390.23 164.241 391.1 165.141C391.97 166.041 392.41 167.041 392.41 168.111C392.41 169.011 392.11 170.331 390.67 171.531L380.91 180.221L392.01 192.241C392.9 193.191 393.35 194.281 393.35 195.471C393.35 196.741 392.83 197.871 391.86 198.721C390.93 199.531 389.91 199.941 388.82 199.941C387.46 199.941 386.31 199.421 385.48 198.421L374.07 186.311L371.86 188.301V195.471C371.86 196.691 371.42 197.801 370.59 198.661C369.74 199.541 368.64 200.001 367.39 200.001Z" fill="#414042"/>
<path d="M367.39 151.721C368.23 151.721 368.94 152.011 369.51 152.601C370.08 153.191 370.36 153.911 370.36 154.751V180.411L385.85 166.191C386.57 165.561 387.3 165.241 388.06 165.241C388.78 165.241 389.43 165.551 390.02 166.161C390.61 166.771 390.9 167.411 390.9 168.091C390.9 168.931 390.5 169.691 389.7 170.371L378.77 180.101L390.91 193.251C391.54 193.921 391.86 194.661 391.86 195.461C391.86 196.301 391.53 197.011 390.88 197.581C390.23 198.151 389.54 198.431 388.83 198.431C387.9 198.431 387.16 198.091 386.62 197.421L374.17 184.211L370.38 187.621V195.461C370.38 196.301 370.1 197.021 369.53 197.611C368.96 198.201 368.25 198.491 367.41 198.491C366.52 198.491 365.8 198.201 365.23 197.611C364.66 197.021 364.38 196.301 364.38 195.461V154.761C364.38 153.921 364.66 153.201 365.23 152.611C365.8 152.021 366.52 151.731 367.41 151.731M367.39 148.721C365.69 148.721 364.19 149.341 363.05 150.521C361.94 151.671 361.36 153.131 361.36 154.751V195.451C361.36 197.071 361.95 198.531 363.05 199.681C364.18 200.861 365.68 201.481 367.39 201.481C369.1 201.481 370.53 200.861 371.67 199.681C372.78 198.531 373.36 197.071 373.36 195.451V188.951L373.98 188.391L384.36 199.401C385.47 200.701 387.04 201.421 388.82 201.421C390.26 201.421 391.65 200.871 392.84 199.831C394.16 198.681 394.85 197.171 394.85 195.451C394.85 193.891 394.24 192.421 393.09 191.191L383.04 180.301L391.67 172.621C393.52 171.051 393.9 169.291 393.9 168.081C393.9 167.071 393.6 165.551 392.18 164.071C390.71 162.551 389.13 162.241 388.06 162.241C386.99 162.241 385.45 162.531 383.86 163.941L383.84 163.961L383.82 163.981L373.36 173.581V154.751C373.36 153.131 372.78 151.671 371.67 150.521C370.53 149.341 369.05 148.721 367.39 148.721Z" fill="white"/>
<path d="M448.16 200.001C446.87 200.001 445.74 199.541 444.9 198.661C444.07 197.801 443.63 196.691 443.63 195.471V178.661C443.63 172.651 440.72 171.881 438.18 171.881C436.78 171.881 435.56 172.181 434.45 172.801C433.35 173.411 432.53 174.211 431.92 175.251C431.31 176.291 431.02 177.411 431.02 178.671V195.481C431.02 196.701 430.58 197.811 429.75 198.671C428.91 199.551 427.78 200.011 426.49 200.011C425.2 200.011 424.09 199.561 423.26 198.701C422.45 197.861 422.02 196.741 422.02 195.481V178.601C422.02 176.441 421.58 174.721 420.71 173.491C419.95 172.411 418.63 171.881 416.69 171.881C414.59 171.881 412.92 172.521 411.57 173.821C410.24 175.121 409.59 176.681 409.59 178.591V195.471C409.59 196.691 409.15 197.801 408.32 198.661C407.47 199.541 406.35 200.001 405.06 200.001C403.77 200.001 402.66 199.551 401.83 198.691C401.01 197.841 400.59 196.751 400.59 195.471V168.421C400.59 167.201 401.03 166.091 401.86 165.231C402.71 164.351 403.81 163.891 405.06 163.891C406.31 163.891 407.47 164.351 408.32 165.231C408.8 165.731 409.15 166.301 409.36 166.941C410.07 166.311 410.86 165.741 411.71 165.221C413.77 163.961 416.05 163.331 418.46 163.331C423.25 163.331 426.82 165.191 428.91 168.761C429.85 167.681 431.02 166.661 432.42 165.731C434.81 164.141 437.39 163.331 440.08 163.331C445.81 163.331 452.64 165.981 452.64 178.611V195.491C452.64 196.751 452.21 197.871 451.4 198.711C450.57 199.571 449.46 200.021 448.17 200.021L448.16 200.001Z" fill="#414042"/>
<path d="M440.07 164.811C447.44 164.811 451.13 169.401 451.13 178.591V195.471C451.13 196.351 450.86 197.081 450.31 197.651C449.76 198.221 449.05 198.501 448.16 198.501C447.27 198.501 446.55 198.211 445.98 197.621C445.41 197.031 445.13 196.311 445.13 195.471V178.661C445.13 173.141 442.81 170.381 438.18 170.381C436.54 170.381 435.05 170.751 433.72 171.491C432.39 172.231 431.36 173.231 430.62 174.491C429.88 175.751 429.51 177.141 429.51 178.661V195.471C429.51 196.311 429.23 197.031 428.66 197.621C428.09 198.211 427.36 198.501 426.48 198.501C425.6 198.501 424.88 198.221 424.33 197.651C423.78 197.081 423.51 196.351 423.51 195.471V178.591C423.51 176.101 422.98 174.111 421.93 172.621C420.88 171.121 419.13 170.381 416.68 170.381C414.23 170.381 412.14 171.171 410.52 172.751C408.9 174.331 408.09 176.281 408.09 178.601V195.481C408.09 196.321 407.8 197.041 407.24 197.631C406.67 198.221 405.94 198.511 405.06 198.511C404.18 198.511 403.46 198.231 402.91 197.661C402.36 197.091 402.09 196.361 402.09 195.481V168.431C402.09 167.591 402.37 166.871 402.94 166.281C403.51 165.691 404.21 165.401 405.06 165.401C405.91 165.401 406.67 165.701 407.24 166.281C407.81 166.871 408.09 167.591 408.09 168.431V170.641C409.18 169.001 410.65 167.621 412.48 166.501C414.31 165.381 416.3 164.831 418.45 164.831C423.67 164.831 427.07 167.151 428.63 171.781C429.56 170.011 431.09 168.411 433.24 166.981C435.39 165.551 437.66 164.831 440.07 164.831M440.07 161.811C437.08 161.811 434.22 162.701 431.58 164.461C430.67 165.071 429.85 165.711 429.11 166.381C426.69 163.371 423.08 161.811 418.45 161.811C415.75 161.811 413.22 162.521 410.92 163.921C410.54 164.151 410.17 164.401 409.81 164.651C409.68 164.491 409.55 164.331 409.4 164.181C408.26 163.001 406.76 162.381 405.06 162.381C403.36 162.381 401.92 163.001 400.78 164.181C399.67 165.331 399.09 166.791 399.09 168.411V195.461C399.09 197.121 399.67 198.601 400.75 199.721C401.86 200.881 403.35 201.491 405.06 201.491C406.77 201.491 408.26 200.871 409.4 199.691C410.51 198.541 411.09 197.081 411.09 195.461V178.581C411.09 177.071 411.57 175.901 412.62 174.881C413.68 173.841 414.98 173.361 416.69 173.361C418.8 173.361 419.31 174.091 419.48 174.331C420.16 175.301 420.51 176.731 420.51 178.571V195.451C420.51 197.111 421.08 198.581 422.17 199.711C423.28 200.871 424.77 201.481 426.48 201.481C428.19 201.481 429.69 200.861 430.82 199.681C431.93 198.531 432.51 197.071 432.51 195.451V178.641C432.51 177.651 432.74 176.781 433.21 175.981C433.68 175.181 434.32 174.561 435.17 174.091C436.05 173.601 437.04 173.361 438.17 173.361C440.17 173.361 442.12 173.771 442.12 178.641V195.451C442.12 197.071 442.71 198.531 443.82 199.681C444.95 200.861 446.45 201.481 448.16 201.481C449.87 201.481 451.35 200.871 452.47 199.711C453.56 198.581 454.13 197.111 454.13 195.451V178.571C454.13 163.971 445.32 161.791 440.07 161.791V161.811Z" fill="white"/>
<path d="M476.54 200.631C473.4 200.631 470.5 199.811 467.93 198.191C465.37 196.581 463.34 194.301 461.89 191.431C460.46 188.601 459.74 185.381 459.74 181.871C459.74 178.361 460.46 175.151 461.89 172.321C463.33 169.461 465.35 167.181 467.89 165.571C470.44 163.951 473.29 163.121 476.34 163.121C478.79 163.121 481.1 163.641 483.22 164.661C484.22 165.141 485.13 165.691 485.94 166.311C486.14 165.751 486.45 165.251 486.87 164.801C487.7 163.911 488.82 163.441 490.12 163.441C491.42 163.441 492.52 163.891 493.36 164.731C494.22 165.591 494.65 166.701 494.65 168.031V195.461C494.65 196.681 494.21 197.791 493.38 198.651C492.54 199.531 491.41 199.991 490.12 199.991C488.83 199.991 487.72 199.541 486.89 198.681C486.47 198.241 486.16 197.751 485.95 197.191C485.18 197.811 484.32 198.381 483.38 198.891C481.27 200.041 478.97 200.621 476.53 200.621L476.54 200.631ZM477.24 171.681C475.54 171.681 474.09 172.101 472.79 172.951C471.47 173.821 470.46 174.991 469.71 176.531C468.95 178.081 468.57 179.881 468.57 181.881C468.57 183.881 468.95 185.671 469.71 187.231C470.46 188.771 471.47 189.941 472.79 190.811C474.09 191.671 475.55 192.081 477.24 192.081C478.93 192.081 480.39 191.661 481.69 190.811C483.01 189.941 484.02 188.771 484.77 187.231C485.53 185.681 485.91 183.881 485.91 181.881C485.91 179.881 485.53 178.151 484.77 176.601C484.02 175.061 483.01 173.881 481.68 172.981C480.38 172.111 478.93 171.691 477.24 171.691V171.681Z" fill="#414042"/>
<path d="M476.35 164.621C478.58 164.621 480.66 165.081 482.58 166.011C484.5 166.941 486.03 168.121 487.16 169.551V168.031C487.16 167.151 487.43 166.411 487.98 165.821C488.53 165.231 489.24 164.941 490.13 164.941C491.02 164.941 491.74 165.231 492.31 165.791C492.88 166.351 493.16 167.111 493.16 168.031V195.461C493.16 196.301 492.88 197.021 492.31 197.611C491.74 198.201 491.02 198.491 490.13 198.491C489.24 198.491 488.53 198.211 487.98 197.641C487.43 197.071 487.16 196.341 487.16 195.461V193.821C486.06 195.291 484.57 196.551 482.67 197.581C480.77 198.611 478.73 199.131 476.54 199.131C473.67 199.131 471.07 198.391 468.73 196.921C466.39 195.451 464.56 193.391 463.23 190.761C461.9 188.131 461.24 185.171 461.24 181.881C461.24 178.591 461.9 175.631 463.23 173.001C464.56 170.371 466.38 168.311 468.7 166.841C471.02 165.371 473.57 164.631 476.35 164.631M477.24 193.571C479.22 193.571 480.98 193.061 482.52 192.051C484.06 191.041 485.26 189.651 486.12 187.881C486.98 186.111 487.41 184.111 487.41 181.881C487.41 179.651 486.98 177.711 486.12 175.941C485.26 174.171 484.05 172.771 482.52 171.741C480.98 170.711 479.22 170.191 477.24 170.191C475.26 170.191 473.5 170.701 471.96 171.711C470.42 172.721 469.22 174.111 468.36 175.881C467.5 177.651 467.06 179.651 467.06 181.881C467.06 184.111 467.49 186.121 468.36 187.881C469.22 189.651 470.42 191.041 471.96 192.051C473.5 193.061 475.26 193.571 477.24 193.571ZM476.35 161.621C473 161.621 469.89 162.521 467.09 164.301C464.32 166.061 462.12 168.531 460.55 171.641C459.02 174.691 458.24 178.131 458.24 181.871C458.24 185.611 459.02 189.061 460.55 192.101C462.12 195.211 464.33 197.691 467.13 199.451C469.94 201.221 473.11 202.121 476.54 202.121C479.23 202.121 481.77 201.481 484.1 200.211C484.59 199.941 485.06 199.661 485.5 199.371C485.6 199.491 485.7 199.611 485.81 199.721C486.92 200.881 488.41 201.491 490.12 201.491C491.83 201.491 493.33 200.871 494.46 199.691C495.57 198.541 496.15 197.081 496.15 195.461V168.031C496.15 166.311 495.55 164.801 494.42 163.661C493.29 162.531 491.8 161.931 490.12 161.931C488.44 161.931 486.89 162.571 485.77 163.771C485.65 163.891 485.55 164.021 485.44 164.151C484.94 163.851 484.42 163.561 483.87 163.301C481.55 162.181 479.02 161.611 476.34 161.611L476.35 161.621ZM477.24 190.571C475.85 190.571 474.66 190.241 473.61 189.551C472.52 188.831 471.68 187.861 471.06 186.571C470.39 185.201 470.07 183.671 470.07 181.881C470.07 180.091 470.4 178.541 471.06 177.191C471.69 175.901 472.52 174.931 473.62 174.211C474.67 173.521 475.85 173.191 477.25 173.191C478.65 173.191 479.81 173.531 480.86 174.231C481.96 174.971 482.8 175.961 483.44 177.261C484.11 178.631 484.43 180.141 484.43 181.881C484.43 183.621 484.11 185.201 483.44 186.571C482.81 187.861 481.98 188.831 480.89 189.551C479.84 190.241 478.65 190.571 477.26 190.571H477.24Z" fill="white"/>
<path d="M516.49 200.001C514.98 200.001 513.569 199.841 512.299 199.511C510.809 199.131 509.489 198.191 508.379 196.721C507.259 195.241 506.719 193.161 506.719 190.351V172.761H504.549C503.359 172.761 502.3 172.331 501.5 171.531C500.7 170.731 500.27 169.671 500.27 168.481C500.27 167.291 500.7 166.221 501.52 165.441C502.32 164.671 503.369 164.261 504.549 164.261H506.719V160.451C506.719 159.231 507.16 158.121 507.99 157.261C508.84 156.381 509.96 155.921 511.25 155.921C512.54 155.921 513.599 156.381 514.449 157.261C515.279 158.131 515.719 159.231 515.719 160.451V164.261H519.469C520.659 164.261 521.72 164.681 522.52 165.491C523.33 166.301 523.75 167.351 523.75 168.541C523.75 169.731 523.32 170.801 522.5 171.581C521.7 172.351 520.649 172.761 519.469 172.761H515.719V190.091C515.719 191.631 516.249 191.751 517.059 191.751C517.099 191.751 517.319 191.751 517.839 191.591C518.489 191.401 519.019 191.311 519.459 191.311C520.459 191.311 521.34 191.741 522.01 192.561C522.61 193.301 522.919 194.211 522.919 195.281C522.919 196.261 522.529 197.681 520.699 198.831C519.449 199.611 518.04 200.011 516.49 200.011V200.001Z" fill="#414042"/>
<path d="M511.24 157.411C512.08 157.411 512.79 157.701 513.36 158.291C513.93 158.881 514.21 159.601 514.21 160.441V165.751H519.46C520.26 165.751 520.92 166.011 521.45 166.541C521.98 167.071 522.24 167.731 522.24 168.531C522.24 169.331 521.98 169.981 521.45 170.491C520.92 170.991 520.26 171.251 519.46 171.251H514.21V190.081C514.21 192.191 515.16 193.241 517.05 193.241C517.34 193.241 517.75 193.171 518.25 193.021C518.75 192.871 519.16 192.801 519.45 192.801C520 192.801 520.46 193.031 520.84 193.501C521.22 193.961 521.41 194.551 521.41 195.271C521.41 196.151 520.9 196.911 519.89 197.551C518.88 198.181 517.74 198.501 516.48 198.501C515.09 198.501 513.81 198.351 512.66 198.061C511.5 197.771 510.47 197.021 509.56 195.821C508.65 194.621 508.2 192.801 508.2 190.351V171.261H504.53C503.73 171.261 503.07 171.001 502.54 170.471C502.01 169.941 501.75 169.281 501.75 168.481C501.75 167.681 502.01 167.031 502.54 166.521C503.07 166.021 503.73 165.761 504.53 165.761H508.2V160.451C508.2 159.611 508.48 158.891 509.05 158.301C509.62 157.711 510.35 157.421 511.23 157.421M511.24 154.411C509.54 154.411 508.04 155.031 506.9 156.211C505.79 157.361 505.21 158.821 505.21 160.441V162.751H504.54C502.97 162.751 501.56 163.301 500.47 164.341C499.35 165.421 498.76 166.841 498.76 168.461C498.76 170.081 499.34 171.481 500.43 172.571C501.52 173.661 502.94 174.241 504.54 174.241H505.21V190.331C505.21 193.481 505.85 195.861 507.18 197.611C508.5 199.361 510.1 200.491 511.93 200.951C513.32 201.301 514.86 201.481 516.49 201.481C518.32 201.481 520 201.011 521.49 200.081C524.04 198.491 524.42 196.381 524.42 195.261C524.42 193.861 523.99 192.591 523.17 191.591C522.22 190.431 520.9 189.801 519.46 189.801C518.87 189.801 518.22 189.911 517.42 190.141C517.34 190.161 517.27 190.181 517.22 190.201C517.22 190.161 517.22 190.131 517.22 190.091V174.261H519.47C521.04 174.261 522.45 173.711 523.54 172.671C524.66 171.591 525.26 170.161 525.26 168.541C525.26 166.921 524.68 165.521 523.59 164.431C522.49 163.341 521.07 162.761 519.48 162.761H517.23V160.451C517.23 158.831 516.64 157.371 515.54 156.221C514.4 155.041 512.92 154.421 511.26 154.421L511.24 154.411Z" fill="white"/>
<path d="M547.2 200.631C543.55 200.631 540.27 199.841 537.47 198.291C534.64 196.721 532.42 194.511 530.88 191.691C529.35 188.911 528.58 185.731 528.58 182.251C528.58 178.471 529.37 175.101 530.94 172.211C532.52 169.311 534.64 167.041 537.24 165.481C539.85 163.911 542.69 163.121 545.69 163.121C548.69 163.121 551.45 163.891 554.04 165.411C556.61 166.931 558.7 169.041 560.26 171.701C561.82 174.361 562.63 177.371 562.68 180.651V180.761C562.61 181.911 562.11 182.941 561.23 183.721C560.36 184.501 559.32 184.891 558.15 184.891H537.66C538.11 186.831 539.02 188.411 540.42 189.671C542.19 191.281 544.31 192.061 546.9 192.061C548.69 192.061 550.14 191.811 551.19 191.321C552.3 190.801 553.29 190.131 554.14 189.321L554.26 189.201L554.4 189.111C555.26 188.591 556.14 188.331 557.01 188.331C558.13 188.331 559.13 188.751 559.89 189.551C560.64 190.331 561.03 191.301 561.03 192.361C561.03 193.271 560.73 194.621 559.29 195.861C557.94 197.201 556.15 198.341 553.98 199.241C551.78 200.161 549.5 200.621 547.21 200.621L547.2 200.631ZM553.09 176.831C552.74 175.521 552 174.421 550.84 173.501C549.31 172.281 547.62 171.681 545.68 171.681C543.64 171.681 541.93 172.231 540.46 173.361C539.42 174.161 538.62 175.321 538.09 176.831H553.09Z" fill="#414042"/>
<path d="M545.69 164.621C548.39 164.621 550.91 165.321 553.27 166.701C555.63 168.091 557.52 170.011 558.96 172.451C560.39 174.891 561.13 177.631 561.17 180.671C561.13 181.431 560.81 182.071 560.22 182.601C559.63 183.131 558.93 183.391 558.13 183.391H535.88C536.17 186.471 537.34 188.931 539.39 190.781C541.43 192.631 543.93 193.561 546.88 193.561C548.9 193.561 550.55 193.271 551.81 192.681C553.07 192.091 554.19 191.331 555.16 190.401C555.79 190.021 556.4 189.831 556.99 189.831C557.71 189.831 558.31 190.081 558.79 190.591C559.27 191.101 559.52 191.691 559.52 192.361C559.52 193.241 559.1 194.051 558.26 194.761C557.04 195.981 555.42 197.011 553.39 197.861C551.37 198.701 549.3 199.121 547.2 199.121C543.79 199.121 540.78 198.401 538.19 196.971C535.6 195.541 533.6 193.541 532.19 190.971C530.78 188.401 530.07 185.491 530.07 182.251C530.07 178.711 530.8 175.601 532.25 172.931C533.7 170.261 535.62 168.201 538 166.771C540.38 165.341 542.94 164.621 545.68 164.621M536.14 178.331H554.79V177.821C554.58 175.591 553.58 173.751 551.79 172.321C550 170.891 547.97 170.171 545.69 170.171C543.41 170.171 541.29 170.831 539.56 172.161C537.83 173.491 536.69 175.541 536.15 178.321M545.69 161.621C542.41 161.621 539.31 162.491 536.46 164.201C533.63 165.911 531.32 168.361 529.62 171.501C527.93 174.611 527.08 178.231 527.08 182.261C527.08 186.001 527.92 189.421 529.57 192.431C531.25 195.491 533.67 197.911 536.75 199.621C539.78 201.291 543.3 202.141 547.21 202.141C549.7 202.141 552.18 201.641 554.56 200.651C556.89 199.681 558.83 198.441 560.31 196.991C562.15 195.381 562.53 193.601 562.53 192.391C562.53 190.941 561.99 189.611 560.97 188.551C559.91 187.451 558.54 186.861 557 186.861C555.86 186.861 554.72 187.201 553.62 187.861L553.33 188.031L553.09 188.261C552.36 188.961 551.5 189.541 550.54 189.991C549.69 190.381 548.43 190.591 546.88 190.591C544.68 190.591 542.89 189.931 541.41 188.591C540.72 187.961 540.17 187.241 539.76 186.421H558.14C559.67 186.421 561.09 185.881 562.22 184.871C563.4 183.811 564.08 182.431 564.17 180.871V180.761V180.651C564.12 177.101 563.24 173.841 561.55 170.961C559.86 168.081 557.59 165.791 554.8 164.141C551.98 162.481 548.92 161.641 545.69 161.641V161.621ZM540.58 175.331C540.82 175.031 541.09 174.771 541.38 174.551C542.58 173.631 543.99 173.181 545.68 173.181C547.27 173.181 548.65 173.671 549.91 174.671C550.17 174.881 550.41 175.101 550.61 175.331H540.58Z" fill="white"/>
</svg>
