<svg width="18" height="18" viewBox="0 0 18 18" fill="none" xmlns="http://www.w3.org/2000/svg">
<path d="M8.99995 16.4479C5.21995 16.4479 2.13745 13.3729 2.13745 9.58539V8.17539C2.13745 7.88289 2.37745 7.65039 2.66245 7.65039C2.94745 7.65039 3.18745 7.89039 3.18745 8.17539V9.58539C3.18745 12.7879 5.78995 15.3904 8.99245 15.3904C12.195 15.3904 14.7975 12.7879 14.7975 9.58539V8.17539C14.7975 7.88289 15.0375 7.65039 15.3225 7.65039C15.6075 7.65039 15.8475 7.89039 15.8475 8.17539V9.58539C15.8625 13.3729 12.78 16.4479 8.99995 16.4479Z" fill="#0056A4"/>
<path d="M9.00005 1.5C6.48005 1.5 4.42505 3.555 4.42505 6.075V9.5925C4.42505 12.1125 6.48005 14.1675 9.00005 14.1675C11.52 14.1675 13.575 12.1125 13.575 9.5925V6.075C13.575 3.555 11.52 1.5 9.00005 1.5ZM10.635 7.9425C10.5825 8.145 10.395 8.28 10.1925 8.28C10.155 8.28 10.11 8.2725 10.0725 8.265C9.30755 8.055 8.49755 8.055 7.73255 8.265C7.48505 8.3325 7.23755 8.19 7.17005 7.9425C7.10255 7.7025 7.24505 7.4475 7.49255 7.38C8.41505 7.125 9.39005 7.125 10.3125 7.38C10.56 7.4475 10.7025 7.695 10.635 7.9425ZM11.2725 5.865C11.205 6.0525 11.0325 6.165 10.845 6.165C10.7925 6.165 10.74 6.1575 10.6875 6.135C9.54005 5.715 8.28005 5.715 7.13255 6.135C6.89255 6.225 6.63005 6.105 6.54005 5.865C6.45755 5.6325 6.57755 5.37 6.81755 5.28C8.16755 4.7925 9.65255 4.7925 10.995 5.28C11.235 5.37 11.355 5.6325 11.2725 5.865Z" fill="#0056A4"/>
</svg>
