<svg width="146" height="151" viewBox="0 0 146 151" fill="none" xmlns="http://www.w3.org/2000/svg">
<g id="Frame" clip-path="url(#clip0_4811_45353)">
<g id="Group">
<path id="Vector" d="M0.5 132.143C46.9639 131.929 99.0361 131.929 145.5 132.143C99.0361 132.392 46.9639 132.356 0.5 132.143Z" fill="#263238"/>
</g>
<g id="Group_2">
<g id="Group_3">
<g id="Group_4">
<g id="Group_5">
<path id="Vector_2" d="M51.3299 69.5938C51.8623 83.8612 59.6004 115.207 65.7411 120.793C69.7167 124.386 86.7901 128.941 96.4804 129.403C98.6812 129.51 103.864 103.821 100.882 103.537C93.4278 102.825 81.8917 100.655 79.336 99.1604C77.3482 98.0219 72.6628 87.9173 59.6714 68.5264C54.8084 61.3037 51.0104 61.5528 51.3299 69.5938Z" fill="#AD6359"/>
<g id="Group_6">
<path id="Vector_3" d="M91.1205 127.055C91.511 127.304 97.2613 130.791 100.846 132.178C103.544 133.21 111.353 135.95 112.773 133.103C113.731 131.147 109.33 129.012 106.242 127.411C104.609 126.557 102.692 124.635 103.26 123.604C104.289 121.789 108.442 124.031 111.176 125.916C116.429 129.581 123.28 135.95 126.9 133.424C128.249 132.463 126.936 130.435 124.912 128.336C128.249 130.826 131.834 132.926 133.396 131.929C134.283 131.36 134.39 130.471 133.999 129.439C135.064 129.866 136.023 129.901 136.733 129.225C137.975 128.122 137.549 126.308 136.449 124.386C136.839 124.386 137.229 124.209 137.549 123.782C140.247 120.295 129.03 108.731 124.948 107.379C112.915 103.466 99.746 103.466 99.746 103.466C94.6346 106.988 91.1205 127.055 91.1205 127.055Z" fill="#AD6359"/>
<g id="Group_7">
<path id="Vector_4" d="M110.111 117.199C112.95 117.875 115.719 119.192 118.062 121.042C121.008 123.355 122.889 125.952 125.303 128.585C125.374 128.656 125.267 128.763 125.196 128.692C124.061 127.446 119.233 122.679 117.991 121.576C115.684 119.583 113.057 118.089 110.111 117.27C110.075 117.235 110.075 117.164 110.111 117.199Z" fill="#263238"/>
<path id="Vector_5" d="M112.808 112.147C115.968 113.286 119.198 114.46 122.073 116.239C125.232 118.196 127.575 121.113 129.882 123.959C131.266 125.667 132.615 127.411 133.928 129.154C133.999 129.225 133.893 129.332 133.822 129.261C131.479 126.343 129.065 123.461 126.545 120.686C124.167 118.089 121.469 115.99 118.31 114.495C116.535 113.641 114.654 112.93 112.808 112.218C112.773 112.183 112.773 112.147 112.808 112.147Z" fill="#263238"/>
<path id="Vector_6" d="M116.642 107.842C119.73 108.731 122.428 109.514 125.054 111.435C128.568 113.962 131.799 118.018 132.934 119.441C134.177 121.042 135.384 122.643 136.555 124.28C136.591 124.351 136.484 124.422 136.449 124.351C133.751 120.757 130.805 117.306 127.646 114.068C126.155 112.538 124.486 111.151 122.57 110.155C120.724 109.194 118.665 108.553 116.642 107.842Z" fill="#263238"/>
</g>
</g>
</g>
<g id="Group_8">
<path id="Vector_7" d="M54.773 102.718L73.3372 86.1027C73.3372 86.1027 63.4339 70.5544 56.6187 63.652C52.7852 59.7738 49.7326 62.7269 49.5551 67.6369C48.8097 84.8574 54.773 102.718 54.773 102.718Z" fill="#9CE156"/>
<path id="Vector_8" d="M54.773 102.718L73.3372 86.1027C73.3372 86.1027 63.4339 70.5544 56.6187 63.652C52.7852 59.7738 49.7326 62.7269 49.5551 67.6369C48.8097 84.8574 54.773 102.718 54.773 102.718Z" fill="#EBEBEB"/>
<path id="Vector_9" opacity="0.1" d="M72.4143 86.9211L54.7729 102.718C54.7729 102.718 48.8097 84.893 49.5196 67.6369C49.6261 64.7549 50.7264 62.5846 52.3592 62.0153L72.4143 86.9211Z" fill="black"/>
<g id="Group_9">
<g id="Group_10">
<path id="Vector_10" d="M70.0716 83.7189C67.019 86.0316 58.855 92.5782 54.134 97.5238C54.0985 97.5594 54.205 97.6661 54.2405 97.6661C58.784 94.1437 67.3739 86.4941 70.2136 83.9324C70.2846 83.8612 70.1426 83.6833 70.0716 83.7189Z" fill="#263238"/>
</g>
</g>
<path id="Vector_11" d="M55.0214 104.853L52.9272 98.0931L70.888 81.6908L74.828 87.2057L55.0214 104.853Z" fill="#9CE156"/>
</g>
</g>
<g id="Group_11">
<path id="Vector_12" d="M69.0777 132.072L4.65298 132C4.65298 132 18.3188 83.1852 36.8831 62.7269C42.7754 56.2158 52.3592 58.8843 55.8023 62.7625C64.6053 72.6536 69.2907 131.858 69.0777 132.072Z" fill="#EBEBEB"/>
</g>
<g id="Group_12">
<g id="Group_13">
<path id="Vector_13" d="M33.227 66.7118C18.7448 86.7787 2.84271 123.639 7.98958 130.471C13.7399 138.049 34.3984 112.752 33.4755 111.649C32.6946 110.724 38.2319 87.0278 42.1365 69.8428C46.041 52.6579 36.8121 61.7307 33.227 66.7118Z" fill="#AD6359"/>
<g id="Group_14">
<path id="Vector_14" d="M15.4082 90.7992L40.2552 91.8666C40.2552 91.8666 43.9822 73.7922 43.8757 64.0433C43.8047 58.5997 40.6456 58.7776 37.0961 62.1932C24.6016 74.0768 15.4082 90.7992 15.4082 90.7992Z" fill="#EBEBEB"/>
<g id="Group_15">
<g id="Group_16">
<path id="Vector_15" d="M39.5453 87.9173C35.7472 87.4192 25.3825 86.4229 18.5318 86.6364C18.4963 86.6364 18.4608 86.7787 18.5318 86.8143C24.2466 87.4903 35.6762 87.9884 39.5098 88.1663C39.6163 88.1663 39.6163 87.9529 39.5453 87.9173Z" fill="#263238"/>
</g>
</g>
<g id="Group_17">
<path id="Vector_16" d="M37.2025 91.7599C38.2319 91.7243 39.2258 91.6887 40.2551 91.6887L40.0777 91.831C40.4326 89.0914 40.8941 86.3518 41.391 83.6121C41.8879 80.8725 42.4559 78.1685 43.1658 75.5C42.8818 78.2752 42.4914 81.0148 42.0299 83.7545C41.5685 86.4941 41.0361 89.1981 40.4326 91.9022L40.3971 92.0801H40.2551C39.2258 92.0089 38.2319 91.9022 37.2025 91.7599Z" fill="#263238"/>
<path id="Vector_17" d="M42.2429 80.9793C42.3849 80.3744 42.5979 79.8407 42.8463 79.3426C43.0948 78.8089 43.4143 78.3108 43.7692 77.8127C43.7692 78.1329 43.6982 78.4175 43.5918 78.7022C43.5208 78.9868 43.3788 79.2714 43.2723 79.5205C43.0238 80.0542 42.7044 80.5523 42.2429 80.9793Z" fill="#263238"/>
</g>
<path id="Vector_18" d="M14.2368 91.9022L17.5734 85.6758L41.391 87.2413L40.1842 93.9302L14.2368 91.9022Z" fill="#9CE156"/>
</g>
</g>
</g>
<g id="Group_18">
<g id="Group_19">
<g id="Group_20">
<path id="Vector_19" d="M52.2172 73.721C48.2772 72.7959 44.8696 64.3991 44.6566 58.8487C44.6566 58.4573 51.8267 47.0719 52.9981 44.688C53.2466 44.1899 66.238 55.8244 66.238 55.8244C66.238 55.8244 62.2625 60.1296 60.2037 64.328C60.0618 64.6838 56.0152 74.6105 52.2172 73.721Z" fill="#AD6359"/>
</g>
<path id="Vector_20" d="M66.238 55.8244C66.238 55.8244 61.1976 62.4423 59.1744 66.6407C59.1389 66.7118 50.336 62.5134 49.8745 50.0605C51.4363 47.4632 52.5367 45.6487 52.9981 44.688C53.2111 44.1899 66.238 55.8244 66.238 55.8244Z" fill="#263238"/>
</g>
<g id="Group_21">
<g id="Group_22">
<path id="Vector_21" d="M51.9333 28.606C48.9161 34.0497 48.3837 51.5905 51.7203 56.2514C56.5477 63.0115 66.2735 65.6444 72.4498 59.3824C78.4486 53.3339 78.7325 30.4917 74.828 26.0799C69.0777 19.5688 56.4057 20.565 51.9333 28.606Z" fill="#AD6359"/>
</g>
<g id="Group_23">
<g id="Group_24">
<path id="Vector_22" d="M64.8182 44.3322C64.8182 44.2966 64.7118 44.3678 64.7118 44.439C64.7118 45.6131 64.4988 46.9651 63.4339 47.3209C63.3984 47.3209 63.3984 47.3921 63.4339 47.3921C64.7473 47.2497 64.9957 45.4352 64.8182 44.3322Z" fill="#263238"/>
<path id="Vector_23" d="M63.8243 43.0513C61.9431 42.8379 61.6591 46.6449 63.3984 46.8228C65.1022 47.0363 65.3862 43.2292 63.8243 43.0513Z" fill="#263238"/>
</g>
<g id="Group_25">
<path id="Vector_24" d="M71.5979 45.0082C71.5979 44.9726 71.6689 45.0794 71.6689 45.115C71.5269 46.2891 71.5979 47.6411 72.6273 48.1392C72.6628 48.1392 72.6628 48.2104 72.6273 48.2104C71.3495 47.9258 71.314 46.1112 71.5979 45.0082Z" fill="#263238"/>
<path id="Vector_25" d="M72.7693 43.8697C74.6861 43.8697 74.5441 47.6767 72.7693 47.6767C71.03 47.6767 71.172 43.8697 72.7693 43.8697Z" fill="#263238"/>
</g>
<path id="Vector_26" d="M62.298 40.4896C62.795 40.7387 63.2564 40.8454 63.7534 41.0233C64.3213 41.2368 64.7472 41.4503 65.3507 41.308C65.6701 41.2368 65.9186 40.8098 65.8831 40.4896C65.7766 39.7424 65.1377 39.3155 64.4633 39.0309C63.7534 38.7462 63.1144 38.6751 62.369 38.9241C61.6236 39.1376 61.6591 40.1694 62.298 40.4896Z" fill="#263238"/>
<path id="Vector_27" d="M74.4021 41.0233C73.9051 40.8454 73.4437 40.6319 72.9823 40.4185C72.4498 40.1694 71.9884 40.0271 71.6334 39.4934C71.4559 39.2087 71.5624 38.7462 71.8109 38.5327C72.4143 38.0702 73.1597 38.2125 73.8342 38.4616C74.5796 38.7462 75.041 39.1732 75.4315 39.8492C75.8219 40.4896 75.0765 41.2368 74.4021 41.0233Z" fill="#263238"/>
<path id="Vector_28" d="M62.9725 54.8994C63.221 55.184 63.4694 55.611 63.8954 55.6821C64.2858 55.7533 64.7828 55.611 65.1732 55.4686C65.2087 55.4686 65.2442 55.5042 65.2087 55.5398C64.8538 55.9668 64.2148 56.2158 63.6824 56.0735C63.15 55.9312 62.937 55.4686 62.8305 54.9705C62.8305 54.8994 62.937 54.8638 62.9725 54.8994Z" fill="#263238"/>
<g id="Group_26">
<g id="Group_27">
<path id="Vector_29" d="M64.4633 51.4837C65.0312 52.5511 65.9541 53.1915 66.9835 53.4762C67.4449 53.6185 67.9419 53.6541 68.4033 53.6541C68.5098 53.6541 68.5808 53.6541 68.6873 53.6541C68.7583 53.6541 68.8647 53.6541 68.9357 53.6185C69.0777 53.6185 69.1487 53.5118 69.1842 53.3694C69.1842 53.3339 69.1842 53.2983 69.1842 53.2627V53.156C69.2907 52.2665 69.2907 50.8789 69.2907 50.8789C69.6102 51.0568 71.243 51.9462 71.243 51.4837C71.3139 47.5344 71.3849 43.1581 70.604 39.2443C70.5685 39.102 70.3911 39.1376 70.3911 39.2443C70.1781 43.0158 70.6395 46.8228 70.4975 50.6298C69.9651 50.3807 69.1132 49.9538 68.6518 49.9182C68.5098 49.9538 68.6873 52.5867 68.5808 53.0136C68.5808 53.0136 68.5808 53.0136 68.5808 53.0492C67.0545 53.1204 65.9186 52.5867 64.5343 51.4481C64.4988 51.3058 64.3923 51.377 64.4633 51.4837Z" fill="#263238"/>
</g>
</g>
</g>
<g id="Group_28">
<path id="Vector_30" d="M48.9162 42.3398C53.1757 43.6206 56.6188 38.9597 56.5123 34.5478C56.5123 34.5478 67.6934 38.6751 70.3201 29.5311C70.3201 29.5311 71.6689 34.0497 76.8868 35.3662L77.4192 39.0664C78.6616 38.9953 80.6848 35.8998 78.3776 32.6265C78.3776 32.6265 79.2295 27.9656 76.4254 24.4076C73.6567 20.8497 69.8587 21.917 69.8587 21.917C69.8587 21.917 67.6579 19.0351 63.2919 18.6437C58.926 18.2168 56.2993 21.7036 56.2993 21.7036C56.2993 21.7036 50.336 21.5257 48.4547 25.3683C46.5735 29.2109 48.0643 32.413 48.0643 32.413C48.0643 32.413 46.2895 33.6939 46.2185 37.323C46.2185 39.7069 47.6383 41.984 48.9162 42.3398Z" fill="#263238"/>
<path id="Vector_31" d="M70.2491 28.6772C70.1426 29.4599 70.0006 30.2071 69.7522 30.9543C69.5392 31.7015 69.2197 32.3775 68.8293 33.0535C68.0484 34.3343 66.8415 35.3662 65.4217 35.7931C64.0019 36.3268 62.4401 36.0778 60.9492 35.8999C60.2038 35.722 59.4584 35.5796 58.713 35.3306C57.9676 35.0815 57.2577 34.8325 56.5123 34.5834C57.2222 34.9392 57.9321 35.2594 58.642 35.5796C59.3519 35.8643 60.1328 36.0422 60.8782 36.2912C62.4046 36.5759 64.0374 36.7893 65.5992 36.2912C67.161 35.7931 68.4743 34.6546 69.2197 33.2314C69.9651 31.8438 70.2846 30.2427 70.2491 28.6772Z" fill="#263238"/>
<path id="Vector_32" d="M56.3348 21.7747C54.8795 21.4545 53.3531 21.4545 51.8623 21.7391C50.3715 22.0238 48.9517 22.7709 47.9578 24.0162C47.4963 24.6567 47.1414 25.3327 46.9284 26.0799C46.6799 26.7914 46.538 27.5742 46.538 28.3214C46.538 29.8513 47.0704 31.3812 48.0643 32.4842C47.2479 31.2389 46.8574 29.7801 46.9639 28.3569C47.0704 26.9338 47.5673 25.475 48.3837 24.372C48.8097 23.8028 49.3421 23.3402 49.9456 22.9844C50.549 22.6286 51.2234 22.3796 51.9333 22.1661C53.3886 21.7747 54.844 21.668 56.3348 21.7747Z" fill="#263238"/>
<path id="Vector_33" d="M69.8942 21.9882C71.101 21.8459 72.2724 21.8815 73.4437 22.095C74.5796 22.344 75.68 22.8066 76.5319 23.5537C77.3838 24.3009 78.0227 25.2971 78.4131 26.4001C78.8036 27.5031 79.0166 28.6772 79.0876 29.8869C79.265 28.6772 79.1585 27.4675 78.8391 26.2578C78.5196 25.0836 77.8452 23.9451 76.9223 23.1268C75.9639 22.3084 74.7571 21.8103 73.5502 21.668C72.2724 21.5257 71.03 21.5968 69.8942 21.9882Z" fill="#263238"/>
<path id="Vector_34" d="M75.0055 35.3662C73.8342 34.619 72.7693 33.7295 71.9174 32.6977C71.4915 32.1996 71.172 31.5947 70.888 30.9899C70.6041 30.385 70.4621 29.709 70.3201 29.033C70.2491 29.7446 70.2846 30.4562 70.4976 31.1678C70.7105 31.8438 71.03 32.5198 71.4915 33.0891C71.9529 33.6583 72.4853 34.1565 73.0888 34.5478C73.6922 34.8681 74.3311 35.1883 75.0055 35.3662Z" fill="#263238"/>
</g>
<g id="Group_29">
<path id="Vector_35" d="M61.2687 49.598C58.9259 49.0643 57.1512 46.9651 57.0802 44.439C57.0092 41.4503 59.3874 38.9597 62.369 38.8885C65.3507 38.8174 67.8354 41.2012 67.9064 44.1899C67.9773 47.1786 65.5991 49.6692 62.6175 49.7403C62.1561 49.7403 61.7301 49.7048 61.2687 49.598ZM63.5759 39.7425C63.2209 39.6713 62.8305 39.6001 62.4045 39.6357C59.8133 39.7069 57.7546 41.8417 57.8256 44.439C57.8966 47.0363 60.0263 49.0999 62.6175 49.0287C65.2087 48.9576 67.2674 46.8228 67.1964 44.2255C67.1255 42.0196 65.5991 40.205 63.5759 39.7425Z" fill="#9CE156"/>
<path id="Vector_36" d="M73.6212 50.9145C71.5979 50.4519 70.2491 47.9614 70.5685 45.1506C70.7105 43.7274 71.2784 42.4465 72.1303 41.5214C73.0177 40.5608 74.0826 40.0983 75.183 40.205C76.2833 40.3117 77.2417 41.0233 77.8806 42.1619C78.4841 43.2648 78.768 44.6524 78.5906 46.0401C78.2711 48.9932 76.2123 51.2347 73.9761 50.9856C73.8696 50.95 73.7276 50.9501 73.6212 50.9145ZM75.3604 40.9522C75.254 40.9166 75.183 40.9166 75.0765 40.9166C74.2246 40.8098 73.3727 41.2012 72.6273 41.984C71.8819 42.8023 71.3849 43.9409 71.2429 45.2217C70.959 47.7835 72.2013 50.0606 74.0116 50.2385C75.8219 50.4519 77.5257 48.4951 77.8097 45.9333C77.9516 44.6525 77.7387 43.4427 77.1707 42.4821C76.7803 41.6638 76.1059 41.1301 75.3604 40.9522Z" fill="#9CE156"/>
<path id="Vector_37" d="M67.6579 44.7948L67.2675 44.1899C68.1548 43.5851 70.1426 42.8735 71.314 44.439L70.746 44.8659C69.6812 43.4783 67.7289 44.7592 67.6579 44.7948Z" fill="#9CE156"/>
<path id="Vector_38" d="M45.0826 43.763L44.4792 43.3716C44.6567 43.0869 46.3605 40.6319 47.9933 40.5252C49.5196 40.454 57.5416 42.1975 57.9321 42.2686L57.7901 42.9802C55.0569 42.4109 49.2001 41.2012 48.0288 41.2368C46.9284 41.308 45.5441 43.0869 45.0826 43.763Z" fill="#9CE156"/>
</g>
<g id="Group_30">
<path id="Vector_39" d="M53.2466 42.9802C53.2466 42.9802 50.478 36.7538 47.7448 37.6432C45.0116 38.5327 46.325 47.0363 49.0226 48.6729C51.7203 50.3096 53.2821 47.8546 53.2821 47.8546L53.2466 42.9802Z" fill="#AD6359"/>
<path id="Vector_40" d="M48.2063 40.0627C48.1708 40.0627 48.1353 40.0982 48.1708 40.1338C50.052 41.3435 50.762 43.4783 51.1169 45.5775C50.6555 44.688 49.9101 44.1187 48.7742 44.6524C48.7032 44.688 48.7387 44.7592 48.8097 44.7592C49.6971 44.7592 50.265 45.0082 50.691 45.791C51.0104 46.3603 51.1524 47.0007 51.3299 47.6056C51.4009 47.819 51.7558 47.7835 51.7203 47.5344V47.4988C52.2528 44.9015 50.9394 40.881 48.2063 40.0627Z" fill="#263238"/>
</g>
</g>
<g id="Group_31">
<path id="Vector_41" d="M60.3103 64.6838L54.5954 71.7997L44.5147 58.1015L40.6456 61.4816C40.6456 61.4816 49.4131 82.2245 49.626 81.3706L54.7019 73.7566L59.5294 80.2677L61.1267 65.9291L60.3103 64.6838Z" fill="#9CE156"/>
<path id="Vector_42" d="M60.7007 73.1873C60.8782 70.8035 61.1267 68.4196 61.1976 66.0358C61.1976 65.9647 61.0912 65.8935 61.0557 66.0002C60.2748 68.2062 59.6003 77.3146 59.2809 79.4493C59.2809 79.4493 59.2809 79.4138 59.2454 79.4138C59.0324 79.1291 54.7374 73.6499 54.6664 73.721C53.6371 74.8951 49.91 80.4456 49.6615 80.9437C48.2772 77.6348 42.8819 65.6444 41.1426 62.4423C41.1071 62.3355 40.9651 62.4067 41.0006 62.5134C42.1364 65.9291 49.2711 82.1178 49.4131 82.0822C49.4841 82.1534 54.0985 75.3577 54.7374 74.0057C55.4473 75.1798 59.7068 81.2639 59.7778 80.9081C60.2038 78.631 60.5232 75.5712 60.7007 73.1873Z" fill="#263238"/>
</g>
</g>
<g id="Group_32">
<g id="Group_33">
<g id="Group_34">
<path id="Vector_43" d="M97.6873 114.851L91.0496 120.01L66.2026 88.1308L72.8758 82.9717L97.6873 114.851Z" fill="#9CE156"/>
<g id="Group_35" opacity="0.1">
<g id="Group_36">
<path id="Vector_44" d="M95.6996 115.065L92.7534 111.4L89.8428 107.735L84.0215 100.37L78.2357 92.9696L75.325 89.2693L72.4854 85.569L75.396 89.2337L78.3066 92.8984L84.1634 100.263L89.9492 107.664L92.8244 111.364L95.6996 115.065Z" fill="black"/>
</g>
<g id="Group_37">
<path id="Vector_45" d="M94.4927 116.025L91.5465 112.361L88.6359 108.66L82.8146 101.295L77.0288 93.9303L74.1181 90.23L71.243 86.4941L74.1891 90.1588L77.0998 93.8235L82.9566 101.188L88.7069 108.589L91.6175 112.289L94.4927 116.025Z" fill="black"/>
</g>
<g id="Group_38">
<path id="Vector_46" d="M93.2858 116.95L90.3397 113.286L87.429 109.585L81.5722 102.256L75.8219 94.8553L72.9113 91.155L70.0361 87.4192L72.9823 91.0839L75.8929 94.7842L81.7142 102.114L87.5 109.514L90.4107 113.214L93.2858 116.95Z" fill="black"/>
</g>
<g id="Group_39">
<path id="Vector_47" d="M92.0435 117.875L89.1328 114.211L86.2222 110.546L80.3654 103.181L74.5796 95.7804L71.7044 92.0801L68.8293 88.3442L71.7754 92.0089L74.6861 95.7092L80.5074 103.074L86.2932 110.439L89.2038 114.139L92.0435 117.875Z" fill="black"/>
</g>
</g>
</g>
<path id="Vector_48" d="M63.3274 84.6084C63.3274 84.6084 59.6714 80.8013 63.4694 77.8838C67.2674 74.9663 70.0006 79.4493 70.0006 79.4493L63.3274 84.6084Z" fill="#FF9ABB"/>
<path id="Vector_49" d="M70.6531 79.0009L62.8767 85.0315L64.3319 86.9169L72.1083 80.8862L70.6531 79.0009Z" fill="#A6A6A6"/>
<path id="Vector_50" d="M72.2855 81.0896L64.5091 87.1202L65.9643 89.0056L73.7407 82.9749L72.2855 81.0896Z" fill="#A6A6A6"/>
<g id="Group_40">
<path id="Vector_51" d="M97.7228 114.851L98.9296 121.611L99.3201 123.853L97.2613 122.928L91.0496 120.081L90.9786 118.587C90.9786 118.587 92.3629 119.049 92.3984 119.049L92.3274 117.555C92.3274 117.555 93.7118 118.018 93.7472 118.018L93.6408 116.523C93.6408 116.523 95.0251 116.95 95.0606 116.986L94.9541 115.492C94.9541 115.492 96.3384 115.918 96.3739 115.954L96.2674 114.46C96.2674 114.389 97.6873 114.851 97.7228 114.851Z" fill="#9CE156"/>
<path id="Vector_52" opacity="0.8" d="M97.7228 114.851L98.9296 121.611L99.3201 123.853L97.2613 122.928L91.0496 120.081L90.9786 118.587C90.9786 118.587 92.3629 119.049 92.3984 119.049L92.3274 117.555C92.3274 117.555 93.7118 118.018 93.7472 118.018L93.6408 116.523C93.6408 116.523 95.0251 116.95 95.0606 116.986L94.9541 115.492C94.9541 115.492 96.3384 115.918 96.3739 115.954L96.2674 114.46C96.2674 114.389 97.6873 114.851 97.7228 114.851Z" fill="white"/>
<path id="Vector_53" d="M98.8942 121.611L99.3201 123.817L97.2614 122.892L98.8942 121.611Z" fill="#263238"/>
</g>
</g>
<g id="Group_41">
<path id="Vector_54" d="M9.58689 131.538C15.7986 134.384 35.0728 129.795 60.5232 120.757C64.0373 119.512 52.4657 95.389 48.6677 96.5276C43.8403 97.9507 25.418 104.604 24.1401 105.245C13.3139 110.759 5.3984 129.617 9.58689 131.538Z" fill="#AD6359"/>
<g id="Group_42">
<g id="Group_43">
<g id="Group_44">
<path id="Vector_55" d="M42.2784 99.7653C42.2784 99.7653 43.7693 98.9826 51.0814 93.6456C56.1218 89.9453 70.746 84.1814 85.5832 93.61C91.2625 97.2391 91.1915 102.79 84.6603 100.086C80.0459 98.1642 76.9933 96.4564 75.325 96.2785C75.325 96.2785 79.052 102.967 77.1352 106.988C76.2833 108.767 73.8341 113.606 71.3849 117.128C71.3849 117.128 70.4975 116.808 69.3972 116.239C69.3972 116.239 66.8415 121.22 60.5587 120.793L42.2784 99.7653Z" fill="#AD6359"/>
</g>
</g>
<g id="Group_45">
<path id="Vector_56" d="M56.4412 90.906C59.7068 91.1906 66.593 91.9022 72.0593 94.4639C78.0936 97.3103 88.9908 104.391 86.8611 108.838C85.2992 112.111 80.8978 109.763 80.8978 109.763C80.8978 109.763 84.7668 113.641 82.7081 116.274C80.8268 118.694 77.5257 116.666 77.5257 116.666C77.5257 116.666 79.4779 119.441 77.2417 121.398C74.544 123.782 70.888 117.591 66.0961 117.626C64.9957 117.626 56.4412 90.906 56.4412 90.906Z" fill="#AD6359"/>
<g id="Group_46">
<path id="Vector_57" d="M67.9773 100.37C70.9945 101.153 77.4192 104.64 80.8623 109.621C80.9333 109.728 80.8978 109.87 80.7913 109.763C75.8574 105.102 70.3555 101.722 67.9418 100.406C67.9418 100.406 67.9773 100.335 67.9773 100.37Z" fill="#263238"/>
</g>
<g id="Group_47">
<path id="Vector_58" d="M65.3152 106.561C67.8708 107.486 74.2956 111.4 77.6322 116.559C77.7032 116.666 77.6677 116.808 77.5612 116.701C72.5918 111.613 67.6224 108.02 65.2797 106.597C65.2442 106.597 65.2797 106.525 65.3152 106.561Z" fill="#263238"/>
</g>
</g>
</g>
<g id="Group_48">
<path id="Vector_59" d="M69.9296 88.5221C73.2307 88.5221 76.4963 89.3049 79.5844 90.4434C81.1462 91.0127 82.637 91.6887 84.0924 92.5071C85.5477 93.2898 86.9675 94.2149 88.1389 95.4246C88.7068 96.0294 89.2747 96.7055 89.6297 97.4882C89.8072 97.8796 89.9492 98.3065 89.9847 98.7691C90.0202 99.2316 89.9492 99.6941 89.7007 100.121C89.4522 100.548 89.0263 100.833 88.6003 100.975C88.1744 101.117 87.7129 101.153 87.287 101.153C86.4351 101.117 85.5832 100.904 84.8023 100.619C84.0214 100.335 83.2405 99.9788 82.4951 99.5874C81.7852 99.196 81.0752 98.8047 80.3298 98.4844C78.839 97.844 77.3127 97.2747 75.7509 96.7766L75.9993 96.1718C76.8867 96.6699 77.7386 97.2392 78.5905 97.844C79.4424 98.4133 80.2588 99.0181 81.0752 99.623C81.8916 100.228 82.708 100.833 83.4889 101.473C84.2699 102.114 85.0508 102.825 85.6897 103.643C86.3286 104.462 86.932 105.351 87.216 106.383C87.358 106.917 87.429 107.451 87.358 108.02C87.287 108.589 87.074 109.123 86.7546 109.585C86.4351 110.048 85.9736 110.439 85.4767 110.653C84.9443 110.866 84.3763 110.937 83.8439 110.866C83.3115 110.831 82.779 110.688 82.2821 110.51C81.7851 110.332 81.3237 110.119 80.8623 109.834L81.2527 109.336C81.6787 109.763 81.9981 110.226 82.2821 110.688C82.5661 111.151 82.85 111.649 83.063 112.183C83.276 112.716 83.4534 113.25 83.5599 113.819C83.6664 114.389 83.6309 114.993 83.4534 115.563C83.0275 116.737 81.8916 117.484 80.7558 117.626C80.1878 117.697 79.5844 117.626 79.052 117.52C78.4841 117.377 77.9871 117.199 77.4547 116.915L77.7741 116.559C78.0936 117.164 78.3066 117.769 78.4486 118.445C78.555 119.085 78.555 119.832 78.2356 120.473C78.0936 120.793 77.8451 121.078 77.5967 121.291C77.3482 121.504 77.0287 121.718 76.7093 121.825C76.0703 122.109 75.3249 122.038 74.686 121.825C74.0471 121.611 73.4792 121.291 72.9112 120.935C72.3788 120.579 71.8464 120.188 71.3139 119.832C70.7815 119.441 70.2845 119.085 69.7166 118.765C69.1842 118.445 68.6162 118.16 67.9773 118.018L68.0838 117.982C67.6579 118.373 67.2319 118.729 66.7705 119.085C66.309 119.405 65.8121 119.69 65.2796 119.939C64.2503 120.437 63.1499 120.722 62.014 120.757C63.1499 120.686 64.2503 120.366 65.2441 119.832C65.7411 119.583 66.238 119.299 66.664 118.943C67.1254 118.623 67.5514 118.231 67.9418 117.84L67.9773 117.804H68.0483C68.6872 117.947 69.2907 118.231 69.8586 118.551C70.4265 118.872 70.959 119.227 71.4914 119.583C72.0238 119.939 72.5563 120.33 73.0887 120.651C73.6211 120.971 74.1891 121.291 74.7925 121.469C75.3604 121.647 75.9993 121.682 76.5318 121.433C76.8157 121.327 77.0642 121.149 77.2772 120.935C77.4902 120.722 77.7031 120.508 77.8096 120.259C78.0581 119.725 78.0581 119.085 77.9516 118.516C77.8451 117.911 77.5967 117.306 77.3127 116.772L76.9222 116.096L77.6322 116.452C78.555 116.915 79.6199 117.164 80.6138 117.057C81.1107 116.986 81.5722 116.808 81.9626 116.488C82.3531 116.168 82.6725 115.812 82.8145 115.349C82.9565 114.887 82.9565 114.389 82.8855 113.89C82.8145 113.392 82.637 112.894 82.4241 112.396C82.2111 111.898 81.9626 111.435 81.6787 111.008C81.3947 110.582 81.0752 110.119 80.7203 109.799L78.9455 108.091L81.1107 109.301C81.9271 109.763 82.8855 110.119 83.8084 110.19C84.2698 110.226 84.7313 110.19 85.1572 110.012C85.5477 109.834 85.9027 109.55 86.1511 109.158C86.6836 108.411 86.7546 107.451 86.4706 106.525C86.1866 105.636 85.6542 104.782 85.0508 104.035C84.4473 103.252 83.7019 102.612 82.921 101.971C82.1401 101.331 81.3592 100.726 80.5428 100.121C79.7264 99.5162 78.91 98.9114 78.0936 98.3421C77.2772 97.7728 76.4253 97.2036 75.5734 96.7055L72.9112 95.1755L75.8219 96.1006C77.4192 96.5987 78.9455 97.168 80.4718 97.844C81.2172 98.1642 81.9981 98.5556 82.708 98.9826C83.418 99.3739 84.1279 99.7297 84.9088 99.9788C85.6542 100.228 86.4351 100.441 87.216 100.477C87.9969 100.512 88.7778 100.335 89.1328 99.7297C89.5232 99.1249 89.3812 98.3065 89.0618 97.5949C88.7423 96.8834 88.2454 96.2429 87.6774 95.6381C86.5771 94.4639 85.1927 93.5389 83.7729 92.7205C82.3531 91.9022 80.8623 91.1906 79.3714 90.5858C76.4608 89.4828 73.2307 88.6645 69.9296 88.5221Z" fill="#263238"/>
</g>
</g>
<path id="Vector_60" d="M15.8341 113.214C16.6151 112.111 18.8158 108.625 22.7203 106.063C26.0924 103.821 32.4816 101.687 35.1438 101.046C35.2148 101.046 35.2503 101.117 35.1793 101.117C32.9786 102.185 27.0153 104.32 23.3947 106.632C19.5967 109.052 16.757 112.254 15.9406 113.25C15.8696 113.321 15.7987 113.286 15.8341 113.214Z" fill="#263238"/>
</g>
</g>
</g>
<g id="Group_49">
<g id="Group_50">
<g id="Group_51">
<g id="Group_52">
<path id="Vector_61" d="M30.4939 135.594L63.9663 149.897L136.378 144.275L102.408 131.823C102.408 131.823 80.9688 131.36 79.9394 131.396C78.9455 131.467 69.3262 132.605 69.3262 132.605C69.3262 132.605 56.0153 132.605 55.1279 132.676C54.2405 132.748 30.4939 135.594 30.4939 135.594Z" fill="white"/>
<path id="Vector_62" d="M30.4939 135.594L63.9663 149.897C63.8953 149.897 136.378 144.204 136.378 144.204L136.342 144.382C136.342 144.382 102.337 131.858 102.408 131.894C99.2846 131.823 84.4829 131.502 81.7142 131.467C81.1108 131.467 80.2589 131.396 79.6554 131.502L77.5967 131.751L69.3617 132.676C67.6224 132.676 58.713 132.676 57.1512 132.676C56.4767 132.712 55.3764 132.641 54.7019 132.748C51.4363 133.103 34.0789 135.167 30.4939 135.594ZM30.4939 135.594C34.2209 135.131 51.4008 133.103 54.7374 132.712C55.4119 132.605 56.4767 132.641 57.1866 132.641C58.6775 132.641 67.6934 132.605 69.3972 132.605L77.6322 131.68L79.6909 131.431C80.2944 131.324 81.1463 131.396 81.7497 131.396C84.4474 131.431 99.4266 131.716 102.444 131.787C102.479 131.787 136.413 144.24 136.449 144.24L136.839 144.382L136.413 144.418C136.413 144.418 63.9663 150.004 63.9663 149.968C63.9308 149.933 30.4939 135.594 30.4939 135.594Z" fill="#EBEBEB"/>
</g>
<g id="Group_53">
<path id="Vector_63" d="M69.3617 132.605C71.9884 133.851 74.6151 135.06 77.2772 136.27L85.2993 139.899L93.3923 143.457C96.09 144.631 98.8231 145.805 101.556 146.98C98.9296 145.734 96.3029 144.525 93.6408 143.315L85.6187 139.686L77.5257 136.128C74.7925 134.954 72.0949 133.779 69.3617 132.605Z" fill="#DBDBDB"/>
<path id="Vector_64" d="M42.8109 138.013C45.3311 137.729 47.8513 137.48 50.3715 137.16L57.8966 136.27L59.7779 136.057C60.4168 135.985 61.0202 135.879 61.6591 135.879L65.5637 135.772C68.1904 135.701 70.7815 135.594 73.4082 135.487C70.7815 135.487 68.1549 135.523 65.5282 135.558C64.2148 135.558 62.9015 135.594 61.5882 135.63C60.9137 135.63 60.2748 135.736 59.6359 135.807L57.7546 136.021C55.2699 136.341 52.7497 136.626 50.3005 136.982C47.7093 137.302 45.2601 137.658 42.8109 138.013Z" fill="#DBDBDB"/>
<path id="Vector_65" d="M47.4609 139.899C49.9456 139.65 52.3948 139.365 54.8795 139.081L62.2626 138.191C63.4694 138.049 64.7118 137.871 65.9186 137.764C67.1965 137.729 68.4743 137.693 69.7522 137.622C72.3079 137.551 74.8991 137.444 77.4548 137.337C74.8636 137.337 72.2724 137.373 69.6812 137.409C68.4033 137.444 67.1255 137.444 65.8122 137.515C64.4988 137.622 63.3275 137.764 62.0851 137.907C59.6359 138.227 57.1867 138.512 54.7375 138.832C52.3238 139.188 49.8746 139.543 47.4609 139.899Z" fill="#DBDBDB"/>
<path id="Vector_66" d="M49.8036 140.824C52.2883 140.575 54.7375 140.291 57.1867 140.006L64.5343 139.116C65.7412 138.974 66.9835 138.796 68.1904 138.689C69.4327 138.618 70.7461 138.618 72.0239 138.547C74.5796 138.476 77.1353 138.369 79.691 138.262C77.0998 138.262 74.5441 138.298 71.9529 138.334C70.6751 138.369 69.3972 138.369 68.0839 138.44C66.806 138.547 65.5992 138.689 64.3568 138.867C61.9076 139.188 59.4584 139.472 57.0447 139.792C54.631 140.113 52.2173 140.468 49.8036 140.824Z" fill="#DBDBDB"/>
<path id="Vector_67" d="M52.1463 141.749C54.5955 141.5 57.0092 141.216 59.4229 140.931L66.664 140.077C67.8709 139.935 69.0778 139.757 70.2846 139.65C71.4915 139.579 72.8048 139.543 74.0472 139.508C76.5674 139.437 79.0875 139.33 81.6077 139.223C79.0521 139.223 76.5319 139.259 73.9762 139.294C72.6983 139.33 71.456 139.33 70.1781 139.401C68.9358 139.508 67.7289 139.65 66.5221 139.828C64.1084 140.148 61.6946 140.433 59.3164 140.753C56.9027 141.073 54.5245 141.393 52.1463 141.749Z" fill="#DBDBDB"/>
<path id="Vector_68" d="M56.4058 143.671C58.8905 143.386 61.3397 143.137 63.7889 142.817L71.1365 141.927L74.7925 141.5C75.9994 141.393 77.3127 141.393 78.5906 141.358C81.1463 141.287 83.702 141.18 86.2577 141.073C83.6665 141.073 81.0753 141.109 78.5196 141.144C77.2417 141.18 75.9639 141.18 74.6506 141.251C73.4082 141.393 72.1659 141.536 70.959 141.678C68.5098 141.998 66.0606 142.283 63.6469 142.639C61.2332 142.995 58.8195 143.35 56.4058 143.671Z" fill="#DBDBDB"/>
<path id="Vector_69" d="M58.7485 144.631C61.1977 144.347 63.6824 144.098 66.1316 143.777L73.4792 142.888L77.1353 142.461C78.3421 142.354 79.6555 142.354 80.9333 142.319C83.489 142.247 86.0447 142.141 88.6004 142.034C86.0092 142.034 83.4535 142.07 80.8623 142.105C79.5845 142.141 78.3066 142.141 76.9933 142.247C75.7509 142.39 74.5441 142.532 73.3017 142.674C70.8525 142.995 68.4388 143.279 66.0251 143.635C63.5759 143.955 61.1622 144.275 58.7485 144.631Z" fill="#DBDBDB"/>
<path id="Vector_70" d="M61.0912 145.663C63.4694 145.378 65.8476 145.094 68.2258 144.809C70.604 144.525 72.9468 144.204 75.325 143.92L78.8745 143.457C79.478 143.386 80.0104 143.315 80.6493 143.315L82.4951 143.244C84.9798 143.172 87.4645 143.066 89.9492 142.959C87.429 142.959 84.9443 142.995 82.4241 143.03L80.5428 143.066C80.2234 143.066 79.9039 143.066 79.5845 143.101C79.265 143.137 78.981 143.172 78.6616 143.208C77.4547 143.35 76.2834 143.493 75.112 143.635C72.7693 143.955 70.3911 144.24 68.0483 144.596C65.7411 144.951 63.4339 145.307 61.0912 145.663Z" fill="#DBDBDB"/>
<path id="Vector_71" d="M63.4339 146.553C65.8476 146.339 68.2613 146.09 70.675 145.841C73.0887 145.592 75.5024 145.343 77.8807 145.094C79.0875 144.987 80.2944 144.845 81.4657 144.738L85.1573 144.525C87.6065 144.382 90.0557 144.204 92.5049 143.991C90.0202 144.062 87.5355 144.169 85.0508 144.275L81.3592 144.453C80.1169 144.56 78.91 144.667 77.7032 144.809C75.2895 145.094 72.9113 145.343 70.533 145.627C68.1548 145.948 65.8121 146.232 63.4339 146.553Z" fill="#DBDBDB"/>
<path id="Vector_72" d="M98.8942 143.813C101.201 143.599 103.473 143.386 105.745 143.137L107.449 142.959C108.017 142.888 108.549 142.852 109.152 142.852L112.666 142.674L119.659 142.319C122.002 142.212 124.309 142.034 126.652 141.927C124.309 141.998 121.931 142.07 119.588 142.176L112.56 142.461L109.046 142.603C108.478 142.639 107.839 142.639 107.271 142.71C106.703 142.781 106.135 142.852 105.567 142.888C103.331 143.172 101.095 143.457 98.8942 143.813Z" fill="#DBDBDB"/>
<path id="Vector_73" d="M96.6579 142.674C98.9296 142.532 101.166 142.39 103.402 142.212C104.502 142.141 105.638 142.034 106.739 141.963L110.146 141.785L116.926 141.393C119.198 141.287 121.434 141.109 123.67 140.967C121.398 141.073 119.127 141.144 116.855 141.216L110.04 141.536C107.804 141.643 105.461 141.714 103.26 141.963C101.024 142.176 98.8231 142.425 96.6579 142.674Z" fill="#DBDBDB"/>
<path id="Vector_74" d="M94.4927 141.678C96.7289 141.536 98.9651 141.393 101.166 141.216L104.467 140.967L107.839 140.824L114.619 140.54C116.89 140.433 119.127 140.326 121.363 140.219C119.091 140.255 116.819 140.326 114.548 140.362L107.768 140.575L104.36 140.682C103.225 140.753 102.124 140.86 101.024 140.967C98.8232 141.18 96.6579 141.393 94.4927 141.678Z" fill="#DBDBDB"/>
<path id="Vector_75" d="M90.5881 139.97C92.8244 139.792 94.9896 139.508 97.1548 139.259C97.7228 139.223 98.2197 139.116 98.7876 139.116L100.491 139.081L103.899 139.01C108.478 138.903 113.021 138.796 117.565 138.654C112.986 138.689 108.407 138.725 103.828 138.796L100.385 138.867L98.6812 138.903C98.1132 138.903 97.5098 138.974 96.9774 139.045C94.8121 139.259 92.6469 139.579 90.5881 139.97Z" fill="#DBDBDB"/>
<path id="Vector_76" d="M88.5294 139.01C90.7656 138.832 92.9309 138.547 95.0961 138.298C95.6641 138.262 96.161 138.156 96.7289 138.156L98.4327 138.12L101.84 138.049C106.419 137.942 110.963 137.836 115.506 137.693C110.927 137.729 106.348 137.764 101.769 137.836L98.3262 137.907L96.6224 137.942C96.0545 137.942 95.4511 138.013 94.9186 138.085C92.7534 138.334 90.6237 138.654 88.5294 139.01Z" fill="#DBDBDB"/>
<path id="Vector_77" d="M86.5062 138.085C88.7424 137.907 90.9076 137.622 93.0729 137.373C93.6408 137.337 94.1377 137.231 94.7057 137.231L96.4095 137.195L99.8171 137.124C104.396 137.017 108.939 136.91 113.483 136.768C108.904 136.804 104.325 136.839 99.7461 136.91L96.3385 136.982L94.6347 137.017C94.0668 137.017 93.4633 137.088 92.9309 137.16C90.7302 137.409 88.5649 137.693 86.5062 138.085Z" fill="#DBDBDB"/>
<path id="Vector_78" d="M83.8085 137.266C86.0447 137.088 88.2099 136.804 90.3752 136.555C90.9431 136.519 91.44 136.412 92.008 136.412L93.7118 136.377L97.1194 136.306C101.698 136.199 106.242 136.092 110.785 135.95C106.206 135.985 101.627 136.021 97.0484 136.092L93.6053 136.163L91.9015 136.199C91.3336 136.199 90.7301 136.27 90.1977 136.341C88.068 136.555 85.9027 136.875 83.8085 137.266Z" fill="#DBDBDB"/>
<path id="Vector_79" d="M79.194 135.487C81.4303 135.309 83.5955 135.025 85.7607 134.776C86.3287 134.74 86.8256 134.633 87.3935 134.633L89.0973 134.598L92.5404 134.562C97.1194 134.491 101.663 134.42 106.242 134.313C101.663 134.278 97.0839 134.313 92.5049 134.349L89.0618 134.384L87.358 134.42C86.7546 134.42 86.1867 134.491 85.6543 134.562C83.418 134.811 81.2883 135.096 79.194 135.487Z" fill="#DBDBDB"/>
<path id="Vector_80" d="M77.1353 134.562C79.3715 134.384 81.5012 134.1 83.702 133.851C84.2699 133.815 84.7668 133.708 85.3348 133.708H87.0386H90.4816C95.0606 133.673 99.6395 133.673 104.183 133.602C99.604 133.53 94.9896 133.495 90.4107 133.459H86.9676H85.2638C84.6603 133.459 84.0924 133.53 83.56 133.602C81.3592 133.886 79.2295 134.171 77.1353 134.562Z" fill="#DBDBDB"/>
<path id="Vector_81" d="M75.112 133.637C77.3127 133.459 79.478 133.175 81.6432 132.926C82.2111 132.89 82.7081 132.783 83.2405 132.783H84.9443L88.3874 132.819C92.9663 132.89 97.5453 132.926 102.124 132.961C97.5098 132.819 92.9309 132.676 88.3519 132.605L84.9088 132.534L83.1695 132.499C82.5661 132.499 81.9982 132.57 81.4657 132.641C79.3005 132.961 77.1708 133.246 75.112 133.637Z" fill="#DBDBDB"/>
<path id="Vector_82" d="M65.7766 147.798C68.2613 147.62 70.7105 147.406 73.1597 147.193L80.5073 146.553C81.7142 146.446 82.9565 146.303 84.1634 146.232L87.8904 145.983C90.3751 145.805 92.8243 145.592 95.2736 145.378C92.7534 145.485 90.2687 145.627 87.784 145.77L84.0569 145.983C82.8146 146.09 81.5722 146.197 80.3654 146.303C77.9161 146.553 75.4669 146.766 73.0532 147.015C70.604 147.264 68.1903 147.513 65.7766 147.798Z" fill="#DBDBDB"/>
<path id="Vector_83" d="M100.562 144.88C103.047 144.702 105.532 144.56 108.017 144.347L115.435 143.777L119.127 143.493L122.889 143.279C125.374 143.137 127.859 142.959 130.343 142.781C127.823 142.852 125.303 142.959 122.783 143.066L119.02 143.244C117.742 143.315 116.536 143.422 115.293 143.528C112.844 143.742 110.359 143.92 107.91 144.169C105.461 144.382 103.012 144.631 100.562 144.88Z" fill="#DBDBDB"/>
</g>
<path id="Vector_84" d="M136.378 144.275L137.62 145.165L102.408 147.94L62.582 151L29.287 136.839L30.4584 135.594L63.9308 149.897C63.9308 149.897 80.3654 148.509 84.0214 148.011C87.6775 147.513 94.2797 146.161 101.521 146.98C101.521 146.98 109.827 145.948 113.767 145.45C117.707 144.916 136.378 144.275 136.378 144.275Z" fill="#EBEBEB"/>
</g>
</g>
</g>
<g id="Group_54">
<g id="Group_55">
<g id="Group_56">
<path id="Vector_85" d="M121.682 19.2486C121.682 29.8513 113.128 38.426 102.55 38.426C98.2907 38.426 94.3506 37.0384 91.156 34.6546L81.7852 37.0384L85.6897 28.2858C84.2344 25.5818 83.418 22.4863 83.418 19.2486C83.418 8.64586 91.9724 0.071167 102.55 0.071167C113.128 0.071167 121.682 8.64586 121.682 19.2486Z" fill="#9CE156"/>
<path id="Vector_86" d="M121.682 19.2486C121.647 22.771 120.724 26.3289 118.843 29.3176L118.488 29.8869C118.381 30.0648 118.239 30.2427 118.097 30.4206L117.316 31.488C116.713 32.1284 116.181 32.84 115.471 33.4093L114.974 33.8718L114.725 34.0853C114.654 34.1565 114.548 34.2276 114.477 34.2988L113.412 35.0815C113.057 35.3306 112.666 35.5441 112.276 35.7931L111.708 36.1489C111.531 36.2557 111.318 36.3624 111.105 36.4336C110.714 36.6115 110.324 36.8249 109.898 37.0028L108.655 37.4654C108.229 37.6433 107.804 37.75 107.378 37.8567L106.739 38.0346C106.526 38.1058 106.313 38.1414 106.1 38.177L104.786 38.3904L104.467 38.426C104.36 38.426 104.254 38.426 104.147 38.4616L103.473 38.4972C102.586 38.5683 101.698 38.5683 100.811 38.4972C99.0361 38.3549 97.2968 37.9635 95.664 37.3231C93.9957 36.6826 92.4339 35.8287 91.014 34.7969L91.1205 34.8325L81.7497 37.2519L81.4657 37.3231L81.5722 37.074L85.4412 28.3214V28.4637C84.7313 27.1829 84.1989 25.7952 83.8084 24.4076C83.418 22.9845 83.205 21.5257 83.1695 20.0669C83.134 17.1494 83.5954 14.1963 84.8378 11.5278C86.0446 8.85934 87.8549 6.4755 90.0557 4.58978C92.2919 2.70406 94.9541 1.38761 97.7937 0.676021C100.633 -0.0355719 103.615 -0.106731 106.455 0.533702C109.294 1.13856 111.992 2.41942 114.264 4.23398C118.985 7.64963 121.718 13.4491 121.682 19.2486ZM121.682 19.2486C121.682 13.4491 118.878 7.68521 114.264 4.16283C111.992 2.38384 109.294 1.13856 106.49 0.533702C103.651 -0.0711516 100.704 0.0355873 97.9002 0.74718C95.096 1.45877 92.4694 2.77522 90.2686 4.66094C88.0679 6.54666 86.3286 8.89492 85.1573 11.5278C83.9504 14.1607 83.489 17.0782 83.5599 19.9602C83.6664 22.8421 84.4473 25.6885 85.7962 28.2147L85.8317 28.2858L85.7962 28.357L81.8561 37.1096L81.6787 36.9317L91.0495 34.5478H91.085L91.1205 34.5834C92.5404 35.6152 94.0667 36.5047 95.6995 37.1096C97.3323 37.75 99.0716 38.1414 100.811 38.2837C101.698 38.3549 102.55 38.3904 103.438 38.3193L104.112 38.2837C104.218 38.2837 104.325 38.2837 104.431 38.2481L104.751 38.2125L106.064 38.0346C106.277 37.9991 106.49 37.9635 106.703 37.8923L107.342 37.7144C107.768 37.6077 108.194 37.5009 108.62 37.3586L109.862 36.8961C110.253 36.7182 110.643 36.5047 111.069 36.3268C111.282 36.2201 111.46 36.1489 111.673 36.0422L112.24 35.6864C112.595 35.4373 112.986 35.2594 113.341 34.9748L114.406 34.192C114.477 34.1209 114.583 34.0497 114.654 33.9786L114.903 33.7651L115.4 33.3381C116.074 32.7689 116.642 32.0928 117.245 31.4524L118.026 30.385C118.168 30.2071 118.31 30.0292 118.417 29.8513L118.772 29.2821C120.688 26.3289 121.647 22.771 121.682 19.2486Z" fill="#263238"/>
</g>
</g>
<g id="Group_57">
<path id="Vector_87" d="M109.223 19.2486C109.223 20.316 110.075 21.1699 111.14 21.1699C112.205 21.1699 113.057 20.316 113.057 19.2486C113.057 18.1812 112.205 17.3273 111.14 17.3273C110.075 17.3273 109.223 18.1812 109.223 19.2486Z" fill="#263238"/>
<path id="Vector_88" d="M100.669 19.2486C100.669 20.316 101.521 21.1699 102.586 21.1699C103.651 21.1699 104.502 20.316 104.502 19.2486C104.502 18.1812 103.651 17.3273 102.586 17.3273C101.521 17.3273 100.669 18.1812 100.669 19.2486Z" fill="#263238"/>
<path id="Vector_89" d="M92.1144 19.2486C92.1144 20.316 92.9663 21.1699 94.0312 21.1699C95.0961 21.1699 95.948 20.316 95.948 19.2486C95.948 18.1812 95.0961 17.3273 94.0312 17.3273C92.9663 17.3273 92.1144 18.1812 92.1144 19.2486Z" fill="#263238"/>
</g>
</g>
<g id="Group_58">
<g id="Group_59">
<g id="Group_60">
<path id="Vector_90" d="M104.076 90.1944C91.2625 90.1944 80.8978 79.7696 80.8978 66.9609C80.8978 61.7663 82.6016 56.9986 85.4767 53.1204L82.5661 41.7349L93.1438 46.467C96.4094 44.688 100.136 43.7274 104.076 43.7274C116.89 43.7274 127.255 54.1522 127.255 66.9609C127.255 79.7696 116.89 90.1944 104.076 90.1944Z" fill="white"/>
<path id="Vector_91" d="M104.076 90.1944C99.817 90.1944 95.522 89.0203 91.9014 86.7787C88.2454 84.5372 85.2637 81.2639 83.3115 77.4213C81.3592 73.6143 80.5073 69.238 80.8978 64.9329C81.0752 62.7981 81.5367 60.6633 82.3176 58.6708C83.063 56.6784 84.1279 54.7571 85.4057 53.0137L85.3702 53.1204L82.4596 41.7349L82.3886 41.4503L82.6371 41.557L93.2148 46.2891H93.0728C94.6346 45.4352 96.2674 44.7948 97.9712 44.3322C99.675 43.8697 101.45 43.6206 103.189 43.5495C106.703 43.4427 110.288 44.0832 113.518 45.5775C115.116 46.2891 116.677 47.2142 118.062 48.2816C119.482 49.349 120.759 50.5943 121.895 51.9463C124.167 54.6503 125.8 57.8881 126.652 61.3037C127.504 64.7194 127.575 68.3485 126.829 71.7997C126.084 75.2509 124.557 78.5243 122.392 81.2995C120.227 84.0747 117.423 86.3518 114.264 87.8817C111.105 89.3761 107.591 90.1944 104.076 90.1944ZM104.076 90.1944C107.591 90.1944 111.105 89.3761 114.228 87.8106C117.387 86.2451 120.156 84.0035 122.321 81.1927C124.487 78.4175 125.977 75.1442 126.687 71.7286C127.397 68.2773 127.326 64.6838 126.474 61.3037C125.622 57.9237 123.99 54.7215 121.718 52.053C120.582 50.7366 119.304 49.5269 117.92 48.4595C116.535 47.4277 115.009 46.5382 113.412 45.8266C110.217 44.4034 106.703 43.763 103.225 43.8697C99.746 44.012 96.3029 44.9371 93.2148 46.5738L93.1438 46.6093L93.0728 46.5738L82.4951 41.8417L82.6726 41.6638L85.5477 53.0493V53.0848L85.5122 53.1204C84.2344 54.8282 83.205 56.714 82.4596 58.7064C81.7142 60.6989 81.2172 62.7981 81.0398 64.9329C80.6493 69.1668 81.5012 73.5431 83.3825 77.3501C85.2992 81.1572 88.2809 84.4305 91.9014 86.7076C95.5575 88.9491 99.817 90.1588 104.076 90.1944Z" fill="#263238"/>
</g>
</g>
<g id="Group_61">
<g id="Group_62">
<g id="Group_63">
<path id="Vector_92" d="M92.0434 65.1108C91.8304 65.1108 91.6529 65.0752 91.5109 65.004C91.369 64.9329 91.227 64.8261 91.1205 64.6838C91.014 64.5415 90.943 64.3992 90.872 64.2213C90.801 64.0434 90.801 63.8299 90.801 63.652C90.801 63.3674 90.872 63.0827 90.9785 62.7981C91.085 62.5134 91.227 62.3 91.4045 62.0865C91.5819 61.873 91.7949 61.7307 92.0434 61.5884C92.2918 61.4816 92.5403 61.4105 92.7888 61.4105C93.0373 61.4105 93.2502 61.4816 93.4277 61.624C93.6052 61.7663 93.7117 61.9442 93.8182 62.1576L93.9601 61.4816H94.7056L94.1376 64.1857C94.1376 64.2213 94.1376 64.2213 94.1376 64.2568V64.2924C94.1376 64.3992 94.1731 64.4347 94.2796 64.4347L94.1376 65.0752C94.0666 65.0752 94.0311 65.0752 93.9601 65.1108C93.9246 65.1108 93.8537 65.1108 93.8182 65.1108C93.5342 65.1108 93.3567 65.004 93.3567 64.755C93.3567 64.6838 93.3567 64.5771 93.3922 64.4347C93.2147 64.6838 93.0018 64.8617 92.7533 64.9684C92.5403 65.0396 92.2918 65.1108 92.0434 65.1108ZM92.3628 64.4703C92.4693 64.4703 92.5403 64.4347 92.6468 64.3992C92.7533 64.3636 92.8598 64.328 92.9663 64.2568C93.0728 64.1857 93.1437 64.1145 93.2502 64.0434C93.3212 63.9722 93.3922 63.8655 93.4632 63.7587L93.6407 62.8337C93.6407 62.7269 93.6052 62.6202 93.5342 62.5134C93.4987 62.4067 93.4277 62.3355 93.3567 62.2644C93.2857 62.1932 93.2147 62.1221 93.1082 62.0865C93.0373 62.0509 92.9308 62.0153 92.8243 62.0153C92.6468 62.0153 92.5048 62.0509 92.3273 62.1576C92.1854 62.2288 92.0434 62.3711 91.9369 62.4779C91.8304 62.6202 91.7239 62.7625 91.6529 62.9404C91.5819 63.1183 91.5464 63.2962 91.5464 63.4741C91.5464 63.6164 91.5819 63.7232 91.6174 63.8655C91.6529 63.9722 91.7239 64.0789 91.7949 64.1501C91.8659 64.2213 91.9369 64.2924 92.0434 64.3636C92.1499 64.4347 92.2563 64.4703 92.3628 64.4703Z" fill="#263238"/>
<path id="Vector_93" d="M94.8475 65.0396L95.025 64.1501H95.6639L95.4865 65.0396H94.8475Z" fill="#263238"/>
<path id="Vector_94" d="M92.5048 73.3652C92.2209 73.3652 92.0079 73.2941 91.8304 73.1518C91.6529 73.0094 91.511 72.8315 91.44 72.6181L91.298 73.2585H90.6591L91.7239 68.2418H92.4693L92.0434 70.341C92.2209 70.1275 92.4338 69.9496 92.6468 69.8073C92.8598 69.6649 93.1083 69.5938 93.3922 69.5938C93.5697 69.5938 93.7472 69.6294 93.8892 69.7005C94.0312 69.7717 94.1731 69.8784 94.2441 70.0207C94.3506 70.1631 94.4216 70.3054 94.4571 70.4833C94.4926 70.6612 94.5281 70.8391 94.5281 71.0525C94.5281 71.3728 94.4571 71.6574 94.3506 71.942C94.2441 72.2267 94.0666 72.4402 93.8892 72.6536C93.7117 72.8671 93.4987 73.0094 93.2502 73.1518C93.0373 73.2941 92.7533 73.3652 92.5048 73.3652ZM92.4693 72.6892C92.6468 72.6892 92.7888 72.6536 92.9308 72.5825C93.0728 72.5113 93.2148 72.4046 93.3567 72.2623C93.4632 72.1199 93.5697 71.9776 93.6407 71.7997C93.7117 71.6218 93.7472 71.4439 93.7472 71.2304C93.7472 71.0881 93.7472 70.9814 93.7117 70.8747C93.6762 70.7679 93.6407 70.6612 93.5697 70.5544C93.4987 70.4833 93.4277 70.4121 93.3212 70.341C93.2147 70.3054 93.1083 70.2698 93.0018 70.2698C92.8953 70.2698 92.7888 70.3054 92.6823 70.341C92.5758 70.3765 92.4693 70.4477 92.3983 70.5189C92.2919 70.59 92.2209 70.6612 92.1144 70.7679C92.0434 70.8747 91.9369 70.9458 91.9014 71.0525L91.6884 72.0132C91.6884 72.2267 91.7949 72.369 91.9369 72.5113C92.0789 72.6536 92.2564 72.6892 92.4693 72.6892Z" fill="#263238"/>
<path id="Vector_95" d="M94.7766 73.2941L94.954 72.4046H95.5929L95.4155 73.2941H94.7766Z" fill="#263238"/>
<path id="Vector_96" d="M92.1854 81.5841C91.9724 81.5841 91.7594 81.5486 91.5819 81.4774C91.4045 81.4062 91.2625 81.2995 91.1205 81.1572C91.014 81.0149 90.9075 80.8725 90.8365 80.6591C90.7655 80.4812 90.73 80.2677 90.73 80.0898C90.73 79.8052 90.801 79.5205 90.9075 79.2715C91.014 79.0224 91.1915 78.7733 91.369 78.5599C91.5819 78.3464 91.7949 78.2041 92.0789 78.0617C92.3628 77.955 92.6468 77.8839 92.9663 77.8839C93.3212 77.8839 93.6052 77.955 93.8182 78.1329C94.0311 78.3108 94.1731 78.5243 94.2441 78.7733L93.4987 78.9868C93.4632 78.8445 93.3567 78.7022 93.2502 78.631C93.1437 78.5599 93.0018 78.4887 92.8243 78.4887C92.6468 78.4887 92.5048 78.5243 92.3628 78.5954C92.2209 78.6666 92.0789 78.7733 91.9369 78.9157C91.8304 79.058 91.7239 79.2003 91.6529 79.3782C91.5819 79.5561 91.5464 79.734 91.5464 79.9475C91.5464 80.0898 91.5819 80.1965 91.6174 80.3388C91.6529 80.4456 91.7239 80.5523 91.7594 80.6591C91.8304 80.7302 91.9014 80.8014 92.0079 80.8725C92.1144 80.9081 92.2209 80.9437 92.3274 80.9437C92.3983 80.9437 92.5048 80.9437 92.5758 80.9081C92.6468 80.8725 92.7533 80.837 92.8243 80.8014C92.8953 80.7658 92.9663 80.6946 93.0373 80.6591C93.1083 80.5879 93.1438 80.5523 93.1792 80.4812L93.8892 80.6946C93.8182 80.837 93.7117 80.9437 93.5697 81.0504C93.4632 81.1572 93.3212 81.2639 93.1792 81.3351C93.0373 81.4062 92.8598 81.4774 92.7178 81.513C92.5403 81.5841 92.3628 81.5841 92.1854 81.5841Z" fill="#263238"/>
<path id="Vector_97" d="M94.2796 81.5485L94.4571 80.6591H95.096L94.9185 81.5485H94.2796Z" fill="#263238"/>
<path id="Vector_98" d="M116.535 62.5846H96.9773V63.9366H116.535V62.5846Z" fill="#EBEBEB"/>
<path id="Vector_99" d="M116.535 70.8035H96.9773V72.1555H116.535V70.8035Z" fill="#EBEBEB"/>
<path id="Vector_100" d="M116.535 79.058H96.9773V80.41H116.535V79.058Z" fill="#EBEBEB"/>
</g>
<path id="Vector_101" d="M115.187 56.2514H92.9308V57.6034H115.187V56.2514Z" fill="#EBEBEB"/>
<path id="Vector_102" d="M117.529 53.7608H90.6591V55.1129H117.529V53.7608Z" fill="#EBEBEB"/>
</g>
<g id="Group_64">
<path id="Vector_103" d="M94.2441 67.6013C93.9957 67.5657 93.7472 67.6369 93.4987 67.6725C93.2503 67.7081 93.0018 67.7792 92.7533 67.8504C92.2919 67.9927 91.8304 68.2062 91.4045 68.4552C90.5526 68.9534 89.8427 69.6649 89.3812 70.5189C89.1682 70.9458 88.9908 71.4083 88.9198 71.8353C88.8488 72.2978 88.9198 72.7604 89.0973 73.1518C89.4522 73.9701 90.3396 74.4326 91.2625 74.5394C92.1854 74.6461 93.1438 74.4326 94.0312 74.0412C94.8831 73.6499 95.664 73.0094 96.1609 72.1911C96.4094 71.7997 96.5869 71.3372 96.5869 70.8747C96.6224 70.4121 96.4449 69.9852 96.1254 69.6649C95.8059 69.3447 95.309 69.1668 94.8476 69.0601C94.3506 68.9889 93.8537 68.9889 93.3567 68.9889C93.8537 68.8822 94.3506 68.811 94.8831 68.8466C95.38 68.8822 95.9479 69.0245 96.3739 69.3447C96.8353 69.7005 97.0838 70.2698 97.0838 70.8391C97.0838 71.4084 96.9063 71.942 96.6578 72.4046C96.1254 73.3652 95.2735 74.0768 94.3151 74.5749C93.3567 75.0375 92.2564 75.2865 91.156 75.1798C90.6236 75.1086 90.0556 74.9307 89.5942 74.6461C89.0973 74.3615 88.7068 73.8989 88.4583 73.3652C88.2454 72.8315 88.1744 72.2267 88.2809 71.693C88.3518 71.1237 88.6003 70.6256 88.8843 70.1986C90.0201 68.3841 92.2209 67.3879 94.2441 67.6013Z" fill="#9CE156"/>
</g>
</g>
</g>
<g id="Group_65">
<g id="Group_66">
<g id="Group_67" opacity="0.5">
<path id="Vector_104" d="M39.9003 12.9154C42.172 22.9844 34.8954 28.4993 34.8954 28.4993C34.7534 30.1715 35.1438 34.2276 35.1438 34.2276L24.2112 37.6077C24.2112 37.6077 22.2589 34.0497 21.194 32.7333C21.194 32.7333 12.1071 32.3063 8.27357 22.6998C5.6114 16.0464 7.35069 4.41187 18.7803 0.853908L18.8868 0.818328C30.3519 -2.70406 38.3384 5.90622 39.9003 12.9154Z" fill="#9CE156"/>
</g>
<g id="Group_68" opacity="0.7">
<path id="Vector_105" d="M38.5514 13.378C40.6102 22.5931 33.9725 27.6454 33.9725 27.6454C33.8305 29.1753 34.6824 34.3699 34.6824 34.3699L24.7081 37.4654C24.7081 37.4654 22.4364 32.6977 21.478 31.5236C21.478 31.5236 13.172 31.1322 9.65791 22.344C7.24421 16.2599 8.80602 5.62159 19.2773 2.38385L19.3837 2.34827C29.8195 -0.88948 37.1316 6.97362 38.5514 13.378Z" fill="#9CE156"/>
</g>
<g id="Group_69">
<path id="Vector_106" d="M27.3348 37.6788L18.7803 21.4545" stroke="white" stroke-width="3" stroke-miterlimit="10"/>
<path id="Vector_107" d="M32.6236 36.0422L30.5294 17.7898" stroke="white" stroke-width="3" stroke-miterlimit="10"/>
<path id="Vector_108" d="M19.2773 22.0238C19.2773 22.0238 20.9456 25.1904 22.4719 24.7279C23.9982 24.2653 23.8562 18.7861 21.8684 19.3909C19.8807 19.9958 23.8562 26.0087 26.3764 25.226C28.9321 24.4432 28.3287 17.3984 26.5539 17.9321C24.7791 18.5014 26.9443 23.5537 29.3935 22.8066C30.7069 22.4152 30.6004 18.7149 30.6004 18.7149" stroke="white" stroke-miterlimit="10"/>
</g>
<g id="Group_70">
<path id="Vector_109" d="M36.5309 33.81L22.867 38.0528L25.1987 45.5976L38.8626 41.3548L36.5309 33.81Z" fill="#455A64"/>
<g id="Group_71">
<path id="Vector_110" d="M37.3091 41.8416C36.9541 43.5139 35.7828 45.2929 32.8721 46.1824C29.926 47.1074 28.0092 46.2891 26.7314 45.115L37.3091 41.8416Z" fill="#455A64"/>
<path id="Vector_111" d="M37.3091 41.8416C37.2026 42.3042 37.0251 42.8023 36.7766 43.2648L27.1218 45.4708C26.9798 45.364 26.8378 45.2573 26.6959 45.115L37.3091 41.8416Z" fill="#37474F"/>
</g>
<g id="Group_72">
<path id="Vector_112" d="M37.3801 35.1171L23.3238 40.9521L23.1108 40.3117L37.1671 34.4767L37.3801 35.1171Z" fill="#37474F"/>
<path id="Vector_113" d="M37.9835 37.1096L23.9272 42.9446L23.7142 42.3042L37.7705 36.4691L37.9835 37.1096Z" fill="#37474F"/>
<path id="Vector_114" d="M38.6224 39.102L24.5306 44.9371L24.3531 44.2966L38.4094 38.4616L38.6224 39.102Z" fill="#37474F"/>
</g>
</g>
<g id="Group_73" opacity="0.5">
<path id="Vector_115" d="M11.0068 19.3553C11.5392 19.2842 11.3972 16.4734 13.243 12.6308C14.0594 10.9229 18.2479 7.79193 17.4315 6.36874C16.6151 4.94556 12.9235 7.82751 11.5747 10.9229C9.40945 15.8685 10.5453 19.4265 11.0068 19.3553Z" fill="white"/>
<path id="Vector_116" d="M35.8538 12.2394C36.7766 11.9548 36.3507 10.5316 35.3923 10.8162C34.5049 11.0653 34.9309 12.524 35.8538 12.2394Z" fill="white"/>
<path id="Vector_117" d="M34.6824 24.4432C35.3213 24.6567 37.0606 21.6324 37.3091 18.6081C37.5221 16.082 36.8122 13.2 36.1377 13.2356C35.4633 13.2712 36.2797 17.2917 35.9603 18.9284C35.6408 21.0276 34.008 24.1941 34.6824 24.4432Z" fill="white"/>
</g>
</g>
</g>
</g>
<defs>
<clipPath id="clip0_4811_45353">
<rect width="145" height="151" fill="white" transform="translate(0.5)"/>
</clipPath>
</defs>
</svg>
