<svg width="48" height="48" viewBox="0 0 48 48" fill="none" xmlns="http://www.w3.org/2000/svg">
<rect y="3.05176e-05" width="48" height="48" rx="24" fill="#DDFFF1"/>
<path d="M36.6667 15.4245V30.5354C36.6667 31.7681 35.6418 32.8992 34.3834 33.0517L33.9813 33.1026C31.8537 33.3822 28.857 34.2464 26.444 35.2377C25.6007 35.5808 24.6667 34.9581 24.6667 34.0557V16.3777C24.6667 15.9075 24.9391 15.4753 25.3672 15.2466C27.7413 13.9884 31.3348 12.87 33.7737 12.6667H33.8516C35.4083 12.6667 36.6667 13.8994 36.6667 15.4245Z" fill="url(#paint0_linear_12351_3168)"/>
<path d="M22.6458 15.2466C20.2717 13.9884 16.6782 12.87 14.2393 12.6667H14.1485C12.5917 12.6667 11.3333 13.8994 11.3333 15.4245V30.5354C11.3333 31.7681 12.3582 32.8992 13.6166 33.0517L14.0187 33.1026C16.1463 33.3822 19.1431 34.2464 21.556 35.2377C22.3993 35.5808 23.3333 34.9581 23.3333 34.0557V16.3777C23.3333 15.8947 23.0739 15.4753 22.6458 15.2466ZM15.2382 19.0974H18.1571C18.689 19.0974 19.1301 19.5295 19.1301 20.0505C19.1301 20.5843 18.689 21.0037 18.1571 21.0037H15.2382C14.7063 21.0037 14.2652 20.5843 14.2652 20.0505C14.2652 19.5295 14.7063 19.0974 15.2382 19.0974ZM19.1301 24.8164H15.2382C14.7063 24.8164 14.2652 24.397 14.2652 23.8632C14.2652 23.3421 14.7063 22.91 15.2382 22.91H19.1301C19.662 22.91 20.1031 23.3421 20.1031 23.8632C20.1031 24.397 19.662 24.8164 19.1301 24.8164Z" fill="url(#paint1_linear_12351_3168)"/>
<defs>
<linearGradient id="paint0_linear_12351_3168" x1="23.9524" y1="24" x2="36.6667" y2="24" gradientUnits="userSpaceOnUse">
<stop stop-color="#0E9F97"/>
<stop offset="1" stop-color="#63D0BD"/>
</linearGradient>
<linearGradient id="paint1_linear_12351_3168" x1="10.6191" y1="24" x2="23.3333" y2="24" gradientUnits="userSpaceOnUse">
<stop stop-color="#0E9F97"/>
<stop offset="1" stop-color="#63D0BD"/>
</linearGradient>
</defs>
</svg>
