<svg width="48" height="48" viewBox="0 0 48 48" fill="none" xmlns="http://www.w3.org/2000/svg">
<rect y="3.05176e-05" width="48" height="48" rx="24" fill="#DDFFF1"/>
<path d="M21.6031 36C18.8627 36 16.1222 36 13.3818 36C12.4358 36 11.9853 35.5352 12.0004 34.5981C12.0905 29.9351 15.5441 26.0144 20.154 25.3097C25.2219 24.5375 30.0496 27.9185 31.0181 32.9188C31.1307 33.4961 31.1758 34.0883 31.1983 34.6731C31.2358 35.4902 30.7253 35.985 29.8994 35.985C27.1365 36 24.3735 36 21.6031 36Z" fill="url(#paint0_linear_12351_4498)"/>
<path d="M15.6011 17.9965C15.6011 14.6644 18.2878 11.9927 21.6199 12.0002C24.937 12.0152 27.6087 14.6944 27.6012 18.004C27.6012 21.3211 24.8995 24.0153 21.5824 24.0003C18.2652 23.9928 15.5936 21.3061 15.6011 17.9965Z" fill="url(#paint1_linear_12351_4498)"/>
<path d="M35.9998 18.0106C35.9469 20.3346 34.9499 22.2162 33.175 23.7155C32.6614 24.1503 31.9363 24.0753 31.4982 23.573C31.0601 23.0783 31.1054 22.3361 31.6266 21.8863C32.3819 21.2341 32.9937 20.477 33.3109 19.5324C33.9227 17.6958 33.4771 16.0841 32.2082 14.6672C32.0194 14.4573 31.8003 14.2774 31.5964 14.0825C31.113 13.6177 31.0752 12.9055 31.5058 12.4108C31.9363 11.9235 32.6765 11.856 33.1825 12.2833C34.9575 13.7751 35.9545 15.6568 35.9998 18.0106Z" fill="url(#paint2_linear_12351_4498)"/>
<path d="M32.4007 18.0172C32.3575 19.6052 31.7597 20.8979 30.6721 21.9113C30.1968 22.3502 29.4981 22.2784 29.0948 21.7757C28.6842 21.265 28.7058 20.5149 29.1452 20.0201C29.1956 19.9643 29.2532 19.9084 29.3037 19.8526C30.3624 18.7514 30.3552 17.2592 29.3109 16.15C29.1164 15.9425 28.9363 15.6792 28.8571 15.3999C28.6986 14.8813 28.9147 14.3227 29.3253 14.0194C29.743 13.7082 30.2832 13.7242 30.6793 14.0992C31.7669 15.1206 32.3719 16.4133 32.4007 18.0172Z" fill="url(#paint3_linear_12351_4498)"/>
<defs>
<linearGradient id="paint0_linear_12351_4498" x1="10.8571" y1="30.5999" x2="31.2002" y2="30.5999" gradientUnits="userSpaceOnUse">
<stop stop-color="#0E9F97"/>
<stop offset="1" stop-color="#63D0BD"/>
</linearGradient>
<linearGradient id="paint1_linear_12351_4498" x1="14.8867" y1="18.0003" x2="27.6012" y2="18.0003" gradientUnits="userSpaceOnUse">
<stop stop-color="#0E9F97"/>
<stop offset="1" stop-color="#63D0BD"/>
</linearGradient>
<linearGradient id="paint2_linear_12351_4498" x1="30.914" y1="18.0003" x2="35.9998" y2="18.0003" gradientUnits="userSpaceOnUse">
<stop stop-color="#0E9F97"/>
<stop offset="1" stop-color="#63D0BD"/>
</linearGradient>
<linearGradient id="paint3_linear_12351_4498" x1="28.5864" y1="18.0008" x2="32.4007" y2="18.0008" gradientUnits="userSpaceOnUse">
<stop stop-color="#0E9F97"/>
<stop offset="1" stop-color="#63D0BD"/>
</linearGradient>
</defs>
</svg>
