<svg width="16" height="12" viewBox="0 0 16 12" fill="none" xmlns="http://www.w3.org/2000/svg">
<path fill-rule="evenodd" clip-rule="evenodd" d="M11.5889 0.966682C12.0462 1.28687 12.1553 1.91415 11.8325 2.36775L5.83786 10.7918C5.66548 11.034 5.39411 11.1884 5.09629 11.2137C4.79848 11.239 4.5046 11.1326 4.29325 10.9229L0.296839 6.95866C-0.0989465 6.56606 -0.0989465 5.92952 0.296839 5.53692C0.692625 5.14432 1.33432 5.14432 1.73011 5.53692L4.03959 7.82783C4.47765 8.26237 5.20086 8.2004 5.5586 7.69767L10.1765 1.20824C10.4993 0.754645 11.1317 0.646494 11.5889 0.966682Z" fill="#0067C5"/>
<path fill-rule="evenodd" clip-rule="evenodd" d="M12.0039 3.75599C12.0039 3.20077 12.4577 2.75067 13.0174 2.75067H14.9868C15.5466 2.75067 16.0003 3.20077 16.0003 3.75599C16.0003 4.31122 15.5466 4.76131 14.9868 4.76131H13.0174C12.4577 4.76131 12.0039 4.31122 12.0039 3.75599Z" fill="#0067C5"/>
<path fill-rule="evenodd" clip-rule="evenodd" d="M10.0059 6.72883C10.0059 6.17361 10.4596 5.72351 11.0193 5.72351H12.9888C13.5485 5.72351 14.0023 6.17361 14.0023 6.72883C14.0023 7.28406 13.5485 7.73415 12.9888 7.73415H11.0193C10.4596 7.73415 10.0059 7.28406 10.0059 6.72883Z" fill="#0067C5"/>
<path fill-rule="evenodd" clip-rule="evenodd" d="M8.00684 9.70234C8.00684 9.14712 8.46058 8.69702 9.02031 8.69702H10.9898C11.5495 8.69702 12.0032 9.14712 12.0032 9.70234C12.0032 10.2576 11.5495 10.7077 10.9898 10.7077H9.02031C8.46058 10.7077 8.00684 10.2576 8.00684 9.70234Z" fill="#0067C5"/>
</svg>
