<svg width="48" height="48" viewBox="0 0 48 48" fill="none" xmlns="http://www.w3.org/2000/svg">
<rect y="3.05176e-05" width="48" height="48" rx="24" fill="#DDFFF1"/>
<path d="M35.6667 36.8889H13.6667C13.1656 36.8889 12.75 36.4733 12.75 35.9722C12.75 35.4711 13.1656 35.0556 13.6667 35.0556H35.6667C36.1678 35.0556 36.5833 35.4711 36.5833 35.9722C36.5833 36.4733 36.1678 36.8889 35.6667 36.8889Z" fill="url(#paint0_linear_12351_11595)"/>
<path d="M33.2467 14.2535C30.8756 11.8824 28.5533 11.8212 26.1211 14.2535L24.6422 15.7324C24.52 15.8546 24.4711 16.0501 24.52 16.2212C25.4489 19.4601 28.04 22.0512 31.2789 22.9801C31.3278 22.9924 31.3767 23.0046 31.4256 23.0046C31.56 23.0046 31.6822 22.9557 31.78 22.8579L33.2467 21.379C34.4567 20.1813 35.0433 19.0201 35.0433 17.8468C35.0556 16.6368 34.4689 15.4635 33.2467 14.2535Z" fill="url(#paint1_linear_12351_11595)"/>
<path d="M29.0788 24.0924C28.7243 23.9213 28.3821 23.7501 28.0521 23.5546C27.7832 23.3957 27.5266 23.2246 27.2699 23.0413C27.0621 22.9068 26.8177 22.7113 26.5854 22.5157C26.561 22.5035 26.4754 22.4301 26.3777 22.3324C25.9743 21.9901 25.5221 21.5501 25.1188 21.0613C25.0821 21.0368 25.021 20.9513 24.9354 20.8413C24.8132 20.6946 24.6054 20.4501 24.4221 20.169C24.2754 19.9857 24.1043 19.7168 23.9454 19.4479C23.7499 19.1179 23.5788 18.7879 23.4077 18.4457C23.3566 18.3363 23.3088 18.228 23.2636 18.121C23.1217 17.7853 22.6861 17.6884 22.4284 17.9461L15.3043 25.0701C15.1454 25.229 14.9988 25.5346 14.9621 25.7424L14.3021 30.4235C14.1799 31.2546 14.4121 32.0368 14.9254 32.5624C15.3654 32.9901 15.9766 33.2224 16.6366 33.2224C16.7832 33.2224 16.9299 33.2101 17.0766 33.1857L21.7699 32.5257C21.9899 32.489 22.2954 32.3424 22.4421 32.1835L29.559 25.0666C29.8185 24.8071 29.7202 24.3627 29.3815 24.2213C29.2828 24.1801 29.1822 24.1372 29.0788 24.0924Z" fill="url(#paint2_linear_12351_11595)"/>
<defs>
<linearGradient id="paint0_linear_12351_11595" x1="11.3313" y1="35.9722" x2="36.5833" y2="35.9722" gradientUnits="userSpaceOnUse">
<stop stop-color="#0E9F97"/>
<stop offset="1" stop-color="#63D0BD"/>
</linearGradient>
<linearGradient id="paint1_linear_12351_11595" x1="23.8738" y1="17.7284" x2="35.0435" y2="17.7284" gradientUnits="userSpaceOnUse">
<stop stop-color="#0E9F97"/>
<stop offset="1" stop-color="#63D0BD"/>
</linearGradient>
<linearGradient id="paint2_linear_12351_11595" x1="13.3268" y1="25.3085" x2="30.1177" y2="25.3085" gradientUnits="userSpaceOnUse">
<stop stop-color="#0E9F97"/>
<stop offset="1" stop-color="#63D0BD"/>
</linearGradient>
</defs>
</svg>
